<svg xmlns="http://www.w3.org/2000/svg" width="400" height="180" viewBox="0 0 400 180"><defs><style>.cls-1{fill:red;}.cls-2{fill:#f2f2f2;}</style></defs><g id="Layer_4" data-name="Layer 4"><rect class="cls-1" x="0.73" y="4.5" width="398.53" height="171" rx="37.17"/><path class="cls-2" d="M133.94,60.46l9.84,66.21H126.19l-.93-11.9h-6.15l-1,11.9h-17.8l8.78-66.21ZM124.81,103q-1.31-11.25-2.62-27.81-2.62,19-3.3,27.81Z"/><path class="cls-2" d="M167.28,60.46v8.38q-5.11,0-6,.47c-.62.32-.92,1.21-.92,2.68v1.72h6.95V82.3h-3.93v44.37H146.83V82.3h-3.39V73.71h3.39a43.35,43.35,0,0,1,.37-7.16A6.15,6.15,0,0,1,149,63.34a9.46,9.46,0,0,1,4.07-2.15,32.79,32.79,0,0,1,8.14-.73Z"/><path class="cls-2" d="M204.17,89.74H189.53V86.8A15.94,15.94,0,0,0,189.1,82c-.29-.67-1-1-2.15-1a2.47,2.47,0,0,0-2.09.92,4.56,4.56,0,0,0-.69,2.76,13.61,13.61,0,0,0,.35,3.66,5.76,5.76,0,0,0,2.08,2.56,46.7,46.7,0,0,0,7.14,4q7.2,3.51,9.45,6.62c1.49,2.07,2.24,5.09,2.24,9q0,6.63-1.71,10a11.41,11.41,0,0,1-5.75,5.19,23.5,23.5,0,0,1-9.71,1.82,26.75,26.75,0,0,1-10.78-2,11.78,11.78,0,0,1-6.15-5.32q-1.68-3.34-1.68-10.14v-2.62h14.64v3.44a18.33,18.33,0,0,0,.55,5.68A2.14,2.14,0,0,0,187,118a3,3,0,0,0,2.46-.88c.46-.59.69-1.82.69-3.7,0-2.59-.3-4.21-.9-4.87s-3.83-2.59-9.61-5.8q-7.28-4.1-8.87-7.43a18.07,18.07,0,0,1-1.6-7.91c0-4.34.57-7.53,1.72-9.59a11.09,11.09,0,0,1,5.83-4.76,25.1,25.1,0,0,1,9.55-1.68,27.23,27.23,0,0,1,9.18,1.37,14,14,0,0,1,5.8,3.62,9.78,9.78,0,0,1,2.46,4.17,30.77,30.77,0,0,1,.43,6Z"/><path class="cls-2" d="M226.86,60.46v66.21h-17V60.46Z"/><path class="cls-2" d="M270.62,72.4v54.27H253.81l.29-4.51a11.56,11.56,0,0,1-4.23,4.12,12,12,0,0,1-5.79,1.37,13,13,0,0,1-6.17-1.31,8.45,8.45,0,0,1-3.62-3.47,12.88,12.88,0,0,1-1.46-4.52q-.29-2.35-.28-9.35V72.4h16.52v36.93c0,4.23.13,6.73.39,7.52s1,1.19,2.11,1.19,2-.41,2.18-1.23a47,47,0,0,0,.35-7.89V72.4Z"/><path class="cls-2" d="M294,65.16v8.55h4.46V82.3H294v29q0,5.37.56,6c.36.41,1.9.62,4.6.62v8.75h-6.67a47.9,47.9,0,0,1-8-.47,8.61,8.61,0,0,1-4.26-2.17,7.16,7.16,0,0,1-2.29-3.88,68.93,68.93,0,0,1-.45-10.29V82.3h-3.56V73.71h3.56V65.16Z"/></g></svg>