<svg id="Baggrund" xmlns="http://www.w3.org/2000/svg" width="1920" height="1080" viewBox="0 0 1920 1080"><defs><style>.cls-1{fill:#bcb8a7;}.cls-2{fill:#938b87;}.cls-3{fill:#c1bcaa;}.cls-4{fill:#f9e4b7;}.cls-5{fill:#ccba97;}.cls-6{fill:#443b32;}.cls-7{fill:#e6f4f3;}.cls-8{fill:#092b1f;}.cls-9{fill:#154c18;}.cls-10{fill:#9e592b;}.cls-11{fill:#72bc13;}.cls-12{fill:#3e8912;}.cls-13{fill:#58c610;}</style></defs><rect class="cls-1" x="-95" y="388" width="2095" height="707" rx="12"/><path class="cls-2" d="M350.94,1589.74c-161-18.86-316.89-71.43-479.33-71.33-6.66,0-10.68-4-11.86-12.28-35.79-249.82,2-536-4.16-792.06-.2-8.48,3.27-11.85,12.38-11.77,222.33,1.83,444.56-13.8,666.31-11,9.09.12,12.93,3.35,11.49,12.93-43.62,289.42-132.13,580.29-183.16,873.12C360.92,1587.07,357.53,1590.52,350.94,1589.74Z"/><path class="cls-3" d="M342.23,1583.36c-158.14-18.73-317.82-76.88-476.75-71.94-6.51.2-10.14-3.72-11.33-12-35.8-251.14,0-535.17-6.16-791.91-.21-8.5,3.26-11.85,12.37-11.77,222.31,1.82,444.51-13.52,666.26-10.87,9.09.11,12.9,3.38,11.48,12.9-42.89,287.42-130,583.3-183.86,873.38C352.45,1580.72,348.71,1584.13,342.23,1583.36Z"/><path class="cls-2" d="M1551.91,1620.59c161-18.86,316.88-71.43,479.32-71.33,6.66,0,10.68-4,11.86-12.28,35.79-249.82-2-536,4.16-792.06.2-8.48-3.27-11.85-12.38-11.77-222.33,1.83-444.56-13.8-666.31-11-9.09.12-12.93,3.35-11.49,12.93,43.63,289.42,132.13,580.29,183.17,873.12C1541.93,1617.92,1545.31,1621.37,1551.91,1620.59Z"/><path class="cls-3" d="M1560.61,1614.21c158.14-18.73,317.82-76.88,476.75-71.94,6.52.2,10.14-3.72,11.33-12,35.81-251.14,0-535.17,6.17-791.91.2-8.5-3.27-11.85-12.38-11.77-222.31,1.82-444.5-13.52-666.26-10.87-9.09.11-12.89,3.38-11.47,12.9,42.88,287.42,130,583.3,183.86,873.38C1550.39,1611.57,1554.13,1615,1560.61,1614.21Z"/><rect class="cls-4" x="-40" y="-71.18" width="1974" height="581.43" rx="24.04"/><path class="cls-5" d="M685.48,511.79C524.19,569.68,569.73,570.28,394,515c-15.84-5-12-5.74-12.28-16.53-4.26-201.5-3.65-409.64-.3-610.81.18-10.77,3.78-14.93,12.53-14.5,97.15,4.72,194,1.85,291.07-.25,8.75-.19,12.38,4.4,12.53,15.19,2.81,201.4-11.43,406.2-.3,607.56C697.8,506.42,700,506.57,685.48,511.79Z"/><path class="cls-5" d="M693.69,512.8C532.41,570.7,578,571.29,402.18,516c-15.84-5-12.06-5.75-12.28-16.54-4.27-201.5-3.65-409.64-.3-610.8.18-10.78,3.77-14.93,12.53-14.5,97.15,4.71,194,1.85,291.07-.25,8.75-.19,12.37,4.4,12.52,15.19,2.81,201.39-11.43,406.2-.3,607.56C706,507.43,708.22,507.59,693.69,512.8Z"/><path class="cls-4" d="M689.38,516.77c-161.68,58-119.45,49-290.9.94-15.45-4.33-12.38-4.52-12.6-15.33-4.16-201.85-3.55-410-.18-611.51.18-10.78,3.78-14.92,12.53-14.5,97.07,4.7,193.86,2.15,290.83,0,8.74-.19,12.4,4.27,12.56,15.07,3,201.83-11.66,407.32-.51,609.07C701.71,511.33,704,511.55,689.38,516.77Z"/><path class="cls-5" d="M1244.6,515c161.28,57.89,115.75,58.49,291.52,3.18,15.83-5,12.05-5.74,12.28-16.53,4.26-201.51,3.65-409.64.3-610.81-.18-10.77-3.78-14.93-12.53-14.5-97.16,4.71-194,1.85-291.08-.25-8.74-.19-12.37,4.4-12.52,15.19-2.81,201.4,11.43,406.2.3,607.56C1232.27,509.58,1230.07,509.73,1244.6,515Z"/><path class="cls-5" d="M1235.3,514.73c161.28,57.89,115.74,58.49,291.51,3.18,15.84-5,12-5.74,12.28-16.53,4.26-201.51,3.65-409.64.3-610.81-.18-10.77-3.77-14.93-12.53-14.5-97.15,4.72-194,1.85-291.07-.25-8.75-.19-12.37,4.4-12.52,15.19-2.82,201.4,11.42,406.2.29,607.56C1223,509.36,1220.76,509.51,1235.3,514.73Z"/><path class="cls-4" d="M1239.6,518.69c161.69,58,119.46,49,290.91.94,15.45-4.33,12.38-4.52,12.6-15.33,4.16-201.84,3.55-410,.18-611.5-.18-10.79-3.78-14.93-12.53-14.5-97.07,4.7-193.86,2.14-290.84,0-8.73-.19-12.39,4.27-12.55,15.08-3,201.82,11.66,407.31.51,609.06C1227.28,513.25,1225,513.47,1239.6,518.69Z"/><path class="cls-6" d="M1515.32,337c-18.93,5.75-39.72,12.31-58.85,14.27-4.36.45-6.32-4.13-6.4-14.52-.37-45.63.12-95.37.2-140.9,0-10.36,1.64-14.64,5.86-15.38,18.56-3.25,38.82-7.36,57.44-8.84,4.24-.34,6.27,4.33,6.42,14.35.63,44,.22,91.51,1,135.48C1521.16,331.42,1519.62,335.66,1515.32,337Z"/><path class="cls-7" d="M1512.53,330.24c-17.1,5.47-36.09,10.89-53.39,12.68-3.94.41-5.75-3.74-5.82-13.16-.3-41.37,0-86.73.09-128,0-9.39,1.51-13.28,5.34-14,16.84-3.1,35.34-6.88,52.24-8.18,3.85-.29,5.71,3.87,5.82,13,.47,40,.19,83.51.88,123.49C1517.85,325.15,1516.42,329,1512.53,330.24Z"/><path class="cls-6" d="M1451.43,263.73h0c0-1.82.38-3.33,1.38-3.43,21.46-2.19,43.2-6.45,64.64-9.08,1-.13,1.38,1.21,1.39,3h0c0,1.8-.36,3.23-1.36,3.36-21.46,2.71-43.2,7.29-64.68,9.3C1451.8,267,1451.43,265.56,1451.43,263.73Z"/><path class="cls-6" d="M1484.37,179.76h0c.75-.13,1.36.68,1.39,3.1.66,52,.93,104.88,2,156.91,0,2.42-.57,3.5-1.32,3.68h0c-.75.19-1.39-.57-1.44-3-1.07-52.09-1.29-105-1.91-157.14C1483,180.9,1483.62,179.89,1484.37,179.76Z"/><path class="cls-6" d="M1513.22,117.45c-18.92,5.74-39.71,12.31-58.85,14.27-4.35.44-6.31-4.14-6.39-14.52-.37-45.64.12-95.38.19-140.9,0-10.37,1.64-14.64,5.86-15.38,18.57-3.26,38.82-7.36,57.45-8.84,4.24-.34,6.27,4.33,6.41,14.34.64,44,.22,91.52,1,135.48C1519.07,111.91,1517.53,116.14,1513.22,117.45Z"/><path class="cls-7" d="M1510.43,110.73c-17.1,5.47-36.09,10.88-53.39,12.67-3.94.41-5.75-3.73-5.82-13.15-.3-41.38,0-86.74.09-128,0-9.39,1.52-13.29,5.35-14,16.83-3.1,35.34-6.88,52.24-8.18,3.84-.3,5.71,3.86,5.82,13,.46,40,.18,83.5.88,123.48C1515.76,105.64,1514.33,109.48,1510.43,110.73Z"/><path class="cls-6" d="M1449.33,44.22h0c0-1.83.39-3.33,1.39-3.43,21.46-2.2,43.19-6.45,64.64-9.09,1-.12,1.37,1.22,1.38,3h0c0,1.8-.36,3.24-1.36,3.36-21.45,2.71-43.2,7.29-64.68,9.31C1449.71,47.48,1449.33,46,1449.33,44.22Z"/><path class="cls-6" d="M1482.28-39.76h0c.74-.12,1.36.69,1.39,3.11.65,52.05.93,104.87,2,156.91,0,2.42-.56,3.49-1.31,3.68h0c-.75.18-1.4-.57-1.45-3-1.07-52.1-1.29-105-1.91-157.14C1480.93-38.61,1481.53-39.63,1482.28-39.76Z"/><path class="cls-6" d="M1522.83,476.68c-18.81,4.55-40,10.7-59.21,13.1-4.37.55-6.66-1.15-6.69-5.42-.11-18.78,1-36-.15-54.7-.26-4.24,1-5.81,5.29-6.89,18.76-4.71,40.34-9.89,59.22-13.93,4.29-.92,6.84.35,7.2,4.69,1.55,19.09-.35,37.42,0,56.51C1528.56,474.38,1527.11,475.64,1522.83,476.68Z"/><path class="cls-7" d="M1520.1,474.28c-17,4.4-36.29,9.56-53.66,11.89-4,.53-6.11-1-6.11-4.85,0-17.09.63-32.91-.29-49.87-.21-3.86,1-5.26,4.86-6.26,17-4.37,36.67-8.92,53.86-12.59,3.92-.83,6.35.24,6.59,4.21,1.06,17.44-.15,34-.11,51.38C1525.25,472.14,1524,473.28,1520.1,474.28Z"/><path class="cls-6" d="M1459,455.18h0c0-.94.44-1.31,1.45-1.47,21.69-3.47,43.87-8.11,65.5-12,1-.18,1.45.1,1.43,1.07,0,.19,0-.2,0,0,0,1-.49,1.4-1.49,1.58-21.64,3.87-43.76,8.63-65.45,11.87C1459.43,456.37,1459,456.12,1459,455.18Z"/><path class="cls-6" d="M1490.48,417.5h0a1.13,1.13,0,0,1,1.55,1c2.21,20.93,2.88,41.91,4.21,62.93a1.59,1.59,0,0,1-1.27,1.7h0a1.08,1.08,0,0,1-1.49-1c-1.43-21-2.06-42-4.24-62.95A1.49,1.49,0,0,1,1490.48,417.5Z"/><path class="cls-6" d="M1251.72,117.37c18.92,5.74,39.71,12.3,58.85,14.26,4.35.45,6.31-4.13,6.39-14.52.37-45.63-.12-95.37-.19-140.9,0-10.36-1.64-14.63-5.87-15.38-18.56-3.25-38.82-7.36-57.44-8.84-4.24-.34-6.27,4.33-6.41,14.35-.64,44-.22,91.51-1,135.48C1245.87,111.82,1247.41,116.06,1251.72,117.37Z"/><path class="cls-7" d="M1254.51,110.65c17.1,5.46,36.08,10.88,53.39,12.67,3.94.41,5.75-3.74,5.82-13.15.3-41.38,0-86.74-.1-128,0-9.39-1.51-13.28-5.34-14-16.83-3.1-35.34-6.88-52.24-8.18-3.84-.29-5.71,3.87-5.82,13-.47,40-.18,83.51-.88,123.49C1249.18,105.56,1250.61,109.4,1254.51,110.65Z"/><path class="cls-6" d="M1315.61,44.13h0c0-1.82-.39-3.33-1.39-3.43-21.46-2.19-43.19-6.45-64.64-9.08-1-.13-1.38,1.21-1.39,3h0c0,1.8.37,3.23,1.37,3.36,21.45,2.71,43.2,7.29,64.67,9.3C1315.23,47.4,1315.61,46,1315.61,44.13Z"/><path class="cls-6" d="M1282.66-39.84h0c-.74-.13-1.36.68-1.39,3.1-.65,52.05-.93,104.88-2,156.92,0,2.41.56,3.49,1.31,3.67h0c.75.19,1.4-.57,1.45-3,1.06-52.09,1.28-105,1.91-157.14C1284-38.7,1283.41-39.71,1282.66-39.84Z"/><path class="cls-6" d="M1253.65,334.32c18.92,5.74,39.71,12.31,58.85,14.27,4.35.44,6.31-4.14,6.39-14.52.37-45.64-.12-95.38-.19-140.9,0-10.37-1.64-14.64-5.86-15.38-18.57-3.26-38.82-7.36-57.45-8.85-4.24-.33-6.27,4.34-6.41,14.35-.64,44-.22,91.52-1,135.48C1247.8,328.78,1249.34,333,1253.65,334.32Z"/><path class="cls-7" d="M1256.44,327.6c17.1,5.47,36.09,10.88,53.39,12.67,3.94.41,5.75-3.74,5.82-13.15.3-41.38,0-86.74-.09-128,0-9.4-1.52-13.29-5.35-14-16.83-3.1-35.34-6.88-52.24-8.17-3.84-.3-5.71,3.86-5.82,13-.46,40-.18,83.5-.88,123.48C1251.11,322.51,1252.54,326.35,1256.44,327.6Z"/><path class="cls-6" d="M1317.54,261.09h0c0-1.83-.39-3.33-1.39-3.44-21.46-2.19-43.19-6.45-64.64-9.08-1-.12-1.37,1.22-1.38,3h0c0,1.8.36,3.24,1.36,3.36,21.45,2.71,43.2,7.29,64.68,9.3C1317.16,264.35,1317.54,262.91,1317.54,261.09Z"/><path class="cls-6" d="M1284.59,177.11h0c-.74-.12-1.36.69-1.39,3.11-.65,52.05-.93,104.87-2,156.91,0,2.42.56,3.49,1.31,3.68h0c.75.18,1.4-.57,1.45-3,1.07-52.1,1.29-105,1.91-157.14C1285.94,178.25,1285.34,177.24,1284.59,177.11Z"/><path class="cls-6" d="M1256.17,483.49c18.81,4.56,40,10.71,59.21,13.11,4.37.54,6.66-1.15,6.69-5.43.11-18.78-1-36,.15-54.69.26-4.25-1-5.82-5.29-6.89-18.76-4.72-40.34-9.89-59.22-13.94-4.29-.92-6.84.35-7.2,4.7-1.55,19.09.35,37.42,0,56.5C1250.44,481.2,1251.89,482.45,1256.17,483.49Z"/><path class="cls-7" d="M1258.9,481.09c17,4.41,36.29,9.57,53.66,11.9,4,.53,6.11-1,6.11-4.86,0-17.08-.63-32.9.29-49.86.21-3.86-1-5.26-4.86-6.26-17-4.38-36.67-8.92-53.86-12.59-3.92-.84-6.35.24-6.59,4.21-1.06,17.44.15,34,.11,51.37C1253.75,479,1255,480.09,1258.9,481.09Z"/><path class="cls-6" d="M1320,462h0c0-.93-.44-1.31-1.45-1.47-21.69-3.47-43.87-8.11-65.5-12-1-.18-1.45.1-1.43,1.07,0,.2,0-.2,0,0,0,1,.49,1.41,1.49,1.59,21.64,3.87,43.76,8.62,65.45,11.87C1319.57,463.19,1320,462.93,1320,462Z"/><path class="cls-6" d="M1288.52,424.31h0a1.13,1.13,0,0,0-1.55,1c-2.21,20.92-2.88,41.91-4.21,62.93A1.57,1.57,0,0,0,1284,490h0a1.07,1.07,0,0,0,1.49-1c1.43-21,2.06-42,4.24-63A1.5,1.5,0,0,0,1288.52,424.31Z"/><path class="cls-6" d="M1414.78,135.5c-20.33,3.46-37.4,4-57.69,2.95-4.61-.24-5.81-4.75-5.92-14.63-.5-43.4-.84-95.7-.05-139.22.18-9.91,1.44-15.27,6.11-15.71,20.51-1.94,37.5-1.78,57.92-.71,4.65.25,5.66,5.28,5.58,15-.34,42.61,1.18,93.5.22,136.26C1420.73,129.15,1419.41,134.71,1414.78,135.5Z"/><path class="cls-7" d="M1412.3,128c-18.53,3.46-34,4.11-52.56,2.93-4.22-.27-5.33-4.19-5.46-13.18-.54-39.5-.45-87.11-.07-126.68.09-9,1.27-13.86,5.5-14.3a288.18,288.18,0,0,1,52.6-.88c4.21.29,5.15,4.71,5.19,13.51.17,38.65,1,85.16.36,124C1417.71,122.2,1416.52,127.19,1412.3,128Z"/><path class="cls-6" d="M1352.2,54.15h0c0-1.18.34-3.31,1.35-3.35,21.78-.91,43.1-3.24,64.86-4.5,1-.06,1.35,2,1.36,3.13,0,0,0,0,0,0,0,1.17-.3,3.23-1.31,3.3-21.8,1.37-43.1,4.05-64.94,4.67C1352.5,57.43,1352.2,55.32,1352.2,54.15Z"/><path class="cls-6" d="M1386-27.83c0-.47,0-.39,0,0,1.25,0,1.3,1,1.27,3.4-.47,51.87.47,105.55,0,157.43,0,2.42-.15,3.37-1.36,3.39h0c-1.2,0-1.32-.88-1.31-3.29.27-51.89-.64-105.61-.05-157.5C1384.62-26.81,1384.75-27.82,1386-27.83Z"/><path class="cls-6" d="M1414.83,353.5c-20.34,3.47-37.41,4-57.69,2.95-4.62-.24-5.81-4.75-5.92-14.63-.51-43.39-.84-95.7-.06-139.22.18-9.9,1.45-15.27,6.12-15.71,20.5-1.93,37.5-1.78,57.92-.7,4.64.24,5.66,5.28,5.58,15-.34,42.61,1.17,93.5.22,136.26C1420.78,347.15,1419.46,352.71,1414.83,353.5Z"/><path class="cls-7" d="M1412.35,346c-18.53,3.46-34,4.12-52.56,2.94-4.22-.27-5.34-4.2-5.46-13.19-.54-39.49-.46-87.1-.07-126.68.08-9,1.26-13.85,5.49-14.3a289.08,289.08,0,0,1,52.6-.87c4.21.28,5.16,4.7,5.2,13.5.16,38.66,1,85.16.36,124C1417.76,340.2,1416.56,345.19,1412.35,346Z"/><path class="cls-6" d="M1352.24,272.15s0,0,0,0c0-1.17.34-3.3,1.36-3.34,21.77-.91,43.09-3.24,64.86-4.51,1-.06,1.35,2,1.36,3.13h0c0,1.18-.3,3.24-1.31,3.3-21.8,1.37-43.1,4.06-64.94,4.67C1352.55,275.43,1352.25,273.33,1352.24,272.15Z"/><path class="cls-6" d="M1386,190.18h0c1.24,0,1.29,1,1.27,3.39-.47,51.87.47,105.56,0,157.44,0,2.41-.14,3.36-1.35,3.39h0c-1.21,0-1.32-.88-1.31-3.29.27-51.89-.64-105.61,0-157.51C1384.67,191.19,1384.8,190.18,1386,190.18Z"/><path class="cls-6" d="M1415.83,502.62c-20.34,1.45-37.41,1.67-57.69,1.23-4.62-.1-5.81-2-5.92-6.13-.51-18.19-.84-40.11-.06-58.36.18-4.15,1.45-6.4,6.12-6.59,20.5-.81,37.5-.74,57.92-.29,4.64.1,5.66,2.21,5.58,6.28-.34,17.86,1.17,39.19.22,57.12C1421.78,500,1420.46,502.29,1415.83,502.62Z"/><path class="cls-7" d="M1413.35,499.46a472.81,472.81,0,0,1-52.56,1.23c-4.22-.11-5.34-1.75-5.46-5.52-.54-16.56-.46-36.52-.07-53.1.08-3.78,1.26-5.81,5.49-6,18.6-.82,34.11-.89,52.6-.37,4.21.12,5.16,2,5.2,5.66.16,16.21,1,35.7.36,52C1418.76,497,1417.56,499.13,1413.35,499.46Z"/><path class="cls-6" d="M1353.24,468.51s0,0,0,0a1.38,1.38,0,0,1,1.36-1.4c21.77-.38,43.09-1.35,64.86-1.89a1.31,1.31,0,0,1,1.36,1.32s0,0,0,0a1.33,1.33,0,0,1-1.31,1.38c-21.8.58-43.1,1.7-64.94,2A1.31,1.31,0,0,1,1353.24,468.51Z"/><path class="cls-6" d="M1387,434.15h0c1.24,0,1.29.41,1.27,1.42-.47,21.75.47,44.25,0,66,0,1-.14,1.41-1.35,1.42h0c-1.21,0-1.32-.37-1.31-1.38.27-21.75-.64-44.27,0-66C1385.67,434.58,1385.8,434.16,1387,434.15Z"/><path class="cls-6" d="M674.31,337.45c-18.92,5.74-39.71,12.31-58.85,14.27-4.35.44-6.31-4.14-6.39-14.52-.37-45.64.12-95.38.19-140.9,0-10.36,1.64-14.64,5.87-15.38,18.56-3.26,38.81-7.36,57.44-8.84,4.24-.34,6.27,4.33,6.41,14.34.64,44,.22,91.52,1,135.48C680.16,331.91,678.62,336.14,674.31,337.45Z"/><path class="cls-7" d="M671.52,330.73c-17.1,5.47-36.08,10.88-53.39,12.67-3.94.41-5.75-3.73-5.82-13.15-.3-41.37,0-86.74.09-128,0-9.39,1.52-13.29,5.35-14,16.83-3.1,35.34-6.88,52.24-8.18,3.84-.3,5.71,3.86,5.82,13,.47,40,.18,83.5.88,123.48C676.85,325.64,675.42,329.49,671.52,330.73Z"/><path class="cls-6" d="M610.42,264.22h0c0-1.83.39-3.33,1.39-3.43,21.46-2.2,43.19-6.45,64.64-9.09,1-.12,1.38,1.22,1.38,3h0c0,1.8-.36,3.24-1.36,3.36-21.45,2.71-43.2,7.29-64.68,9.31C610.8,267.48,610.42,266.05,610.42,264.22Z"/><path class="cls-6" d="M643.37,180.24h0c.74-.12,1.36.69,1.39,3.11.65,52.05.93,104.87,2,156.91,0,2.42-.56,3.49-1.31,3.68h0c-.75.19-1.4-.57-1.45-3-1.06-52.1-1.28-105-1.91-157.14C642,181.39,642.62,180.37,643.37,180.24Z"/><path class="cls-6" d="M672.22,117.94c-18.93,5.74-39.72,12.3-58.85,14.26-4.36.45-6.32-4.13-6.4-14.52-.37-45.63.12-95.37.2-140.9,0-10.36,1.64-14.63,5.86-15.38,18.56-3.25,38.82-7.36,57.44-8.84,4.24-.34,6.27,4.33,6.42,14.35.63,44,.22,91.51,1,135.48C678.06,112.39,676.52,116.63,672.22,117.94Z"/><path class="cls-7" d="M669.43,111.21c-17.1,5.47-36.09,10.89-53.39,12.68-3.94.41-5.75-3.74-5.82-13.15-.3-41.38,0-86.74.09-128,0-9.39,1.51-13.28,5.34-14,16.84-3.1,35.34-6.88,52.24-8.18,3.85-.29,5.71,3.87,5.82,13,.47,40,.19,83.51.88,123.49C674.75,106.12,673.32,110,669.43,111.21Z"/><path class="cls-6" d="M608.33,44.7h0c0-1.82.38-3.33,1.38-3.43,21.46-2.19,43.2-6.45,64.64-9.08,1-.13,1.38,1.21,1.39,3h0c0,1.8-.36,3.23-1.36,3.36-21.46,2.71-43.2,7.29-64.68,9.3C608.7,48,608.33,46.53,608.33,44.7Z"/><path class="cls-6" d="M641.27-39.27h0c.75-.13,1.36.68,1.39,3.1.66,52.05.93,104.88,2,156.92,0,2.41-.57,3.49-1.32,3.67h0c-.74.19-1.39-.57-1.44-3-1.07-52.09-1.29-105-1.91-157.14C639.93-38.13,640.52-39.14,641.27-39.27Z"/><path class="cls-6" d="M681.83,477.16c-18.81,4.56-40,10.71-59.21,13.11-4.38.54-6.67-1.15-6.69-5.43-.12-18.77,1-36-.16-54.69-.25-4.25,1-5.82,5.3-6.89,18.75-4.72,40.34-9.89,59.21-13.94,4.3-.92,6.85.35,7.2,4.7,1.56,19.09-.34,37.42,0,56.51C687.56,474.87,686.11,476.12,681.83,477.16Z"/><path class="cls-7" d="M679.1,474.76c-17,4.41-36.3,9.57-53.66,11.9-4,.53-6.11-1-6.12-4.85,0-17.09.64-32.91-.29-49.87-.21-3.86,1-5.26,4.87-6.26,17-4.38,36.67-8.92,53.86-12.59,3.91-.84,6.34.24,6.59,4.21,1,17.44-.16,34-.12,51.37C684.24,472.63,683,473.76,679.1,474.76Z"/><path class="cls-6" d="M618,455.66c0-.17,0,.18,0,0,0-.93.44-1.3,1.45-1.47,21.68-3.47,43.86-8.11,65.5-12,1-.18,1.44.1,1.42,1.07,0,.2,0-.2,0,0,0,1-.48,1.41-1.49,1.59-21.63,3.87-43.76,8.63-65.44,11.87C618.43,456.86,618,456.6,618,455.66Z"/><path class="cls-6" d="M649.48,418h0a1.14,1.14,0,0,1,1.55,1c2.2,20.92,2.88,41.91,4.21,62.93a1.57,1.57,0,0,1-1.28,1.69h0a1.07,1.07,0,0,1-1.49-1c-1.42-21-2.05-42-4.24-63A1.5,1.5,0,0,1,649.48,418Z"/><path class="cls-6" d="M410.71,117.85c18.93,5.74,39.72,12.31,58.85,14.27,4.36.44,6.31-4.14,6.4-14.52.37-45.64-.12-95.37-.2-140.9,0-10.36-1.64-14.64-5.86-15.38-18.56-3.26-38.82-7.36-57.44-8.84-4.24-.34-6.27,4.33-6.42,14.35-.63,44-.22,91.51-1,135.47C404.87,112.31,406.41,116.54,410.71,117.85Z"/><path class="cls-7" d="M413.5,111.13c17.1,5.47,36.09,10.88,53.39,12.67,3.94.41,5.75-3.73,5.82-13.15.3-41.37,0-86.74-.09-128,0-9.39-1.51-13.29-5.34-14-16.84-3.1-35.34-6.88-52.24-8.18-3.85-.3-5.71,3.87-5.82,13-.47,40-.19,83.51-.88,123.48C408.18,106,409.61,109.89,413.5,111.13Z"/><path class="cls-6" d="M474.6,44.62h0c0-1.83-.38-3.33-1.38-3.43C451.76,39,430,34.74,408.58,32.1c-1-.12-1.38,1.22-1.39,3h0c0,1.8.36,3.24,1.36,3.36,21.46,2.71,43.2,7.29,64.68,9.31C474.23,47.88,474.6,46.45,474.6,44.62Z"/><path class="cls-6" d="M441.66-39.35h0c-.75-.13-1.37.68-1.4,3.1-.65,52.05-.93,104.87-2,156.91-.05,2.42.57,3.49,1.31,3.68h0c.75.19,1.4-.57,1.45-3,1.07-52.1,1.29-105,1.91-157.14C443-38.21,442.4-39.23,441.66-39.35Z"/><path class="cls-6" d="M412.64,334.8c18.93,5.75,39.72,12.31,58.85,14.27,4.36.45,6.32-4.13,6.4-14.52.37-45.63-.12-95.37-.2-140.9,0-10.36-1.63-14.64-5.86-15.38-18.56-3.25-38.82-7.36-57.44-8.84-4.24-.34-6.27,4.33-6.42,14.35-.63,44-.22,91.51-1,135.48C406.8,329.26,408.34,333.5,412.64,334.8Z"/><path class="cls-7" d="M415.43,328.08c17.1,5.47,36.09,10.89,53.39,12.68,3.94.41,5.76-3.74,5.82-13.16.3-41.37.05-86.73-.09-128,0-9.39-1.51-13.28-5.34-14-16.84-3.1-35.34-6.88-52.24-8.18-3.85-.29-5.71,3.87-5.82,13-.47,40-.19,83.51-.88,123.49C410.11,323,411.54,326.84,415.43,328.08Z"/><path class="cls-6" d="M476.53,261.57h0c0-1.82-.38-3.33-1.38-3.43-21.46-2.2-43.2-6.45-64.64-9.08-1-.13-1.38,1.21-1.39,3h0c0,1.81.37,3.24,1.36,3.37,21.46,2.71,43.2,7.29,64.68,9.3C476.16,264.83,476.54,263.4,476.53,261.57Z"/><path class="cls-6" d="M443.59,177.6h0c-.75-.13-1.36.68-1.39,3.1-.65,52.05-.93,104.88-2,156.91,0,2.42.57,3.5,1.32,3.68h0c.75.19,1.39-.57,1.44-3,1.07-52.09,1.29-105,1.91-157.14C444.93,178.74,444.34,177.73,443.59,177.6Z"/><path class="cls-6" d="M415.16,484c18.81,4.55,40,10.7,59.22,13.1,4.37.55,6.66-1.15,6.68-5.42.12-18.78-1-36,.16-54.7.26-4.24-1-5.81-5.29-6.89-18.76-4.71-40.34-9.89-59.22-13.93-4.3-.92-6.85.35-7.2,4.69-1.56,19.09.34,37.42,0,56.51C409.43,481.68,410.88,482.94,415.16,484Z"/><path class="cls-7" d="M417.89,481.58c17,4.4,36.3,9.56,53.66,11.89,4,.53,6.12-1,6.12-4.85,0-17.09-.64-32.91.29-49.87.21-3.86-1-5.26-4.86-6.26-17-4.37-36.68-8.92-53.87-12.59-3.91-.83-6.34.24-6.58,4.21-1.06,17.44.15,34,.11,51.38C412.75,479.44,414,480.58,417.89,481.58Z"/><path class="cls-6" d="M479,462.48c0-.18,0,.18,0,0,0-.94-.45-1.31-1.46-1.47-21.68-3.47-43.86-8.11-65.5-12-1-.18-1.44.1-1.42,1.07,0,.19,0-.2,0,0,0,1,.48,1.4,1.49,1.58,21.63,3.87,43.76,8.63,65.44,11.87C478.56,463.67,479,463.42,479,462.48Z"/><path class="cls-6" d="M447.51,424.8h0a1.13,1.13,0,0,0-1.55,1c-2.2,20.93-2.88,41.91-4.21,62.93a1.6,1.6,0,0,0,1.28,1.7h0a1.08,1.08,0,0,0,1.49-1c1.42-21,2.05-42,4.24-62.95A1.49,1.49,0,0,0,447.51,424.8Z"/><path class="cls-6" d="M573.78,136c-20.34,3.47-37.41,4-57.69,3-4.62-.24-5.81-4.75-5.92-14.62-.51-43.4-.84-95.7-.06-139.23.18-9.9,1.45-15.27,6.12-15.71,20.5-1.93,37.5-1.78,57.91-.7,4.65.24,5.67,5.28,5.59,15-.34,42.61,1.17,93.5.22,136.26C579.73,129.64,578.41,135.19,573.78,136Z"/><path class="cls-7" d="M571.3,128.46c-18.53,3.46-34,4.12-52.56,2.94-4.22-.27-5.34-4.2-5.46-13.18-.54-39.5-.46-87.11-.07-126.69.08-9,1.26-13.85,5.49-14.3a289.08,289.08,0,0,1,52.6-.87c4.21.28,5.16,4.7,5.2,13.5.16,38.66,1,85.16.36,124C576.7,122.68,575.51,127.67,571.3,128.46Z"/><path class="cls-6" d="M511.19,54.63s0,0,0,0c0-1.17.34-3.3,1.36-3.34,21.77-.91,43.09-3.24,64.86-4.51,1-.06,1.35,2,1.36,3.13h0c0,1.18-.3,3.24-1.31,3.3-21.8,1.37-43.1,4.06-65,4.67C511.5,57.91,511.2,55.81,511.19,54.63Z"/><path class="cls-6" d="M545-27.34h0c1.24,0,1.29,1,1.27,3.39-.47,51.87.47,105.56,0,157.44,0,2.41-.14,3.36-1.35,3.39h0c-1.21,0-1.32-.88-1.31-3.29.27-51.89-.64-105.61,0-157.51C543.62-26.33,543.75-27.33,545-27.34Z"/><path class="cls-6" d="M573.83,354c-20.34,3.46-37.41,4-57.7,2.95-4.61-.24-5.8-4.75-5.92-14.63-.5-43.4-.83-95.7,0-139.22.18-9.91,1.44-15.27,6.11-15.71,20.51-1.94,37.5-1.78,57.92-.71,4.65.25,5.66,5.28,5.59,15-.35,42.61,1.17,93.5.21,136.26C579.77,347.64,578.45,353.2,573.83,354Z"/><path class="cls-7" d="M571.34,346.47c-18.53,3.46-34,4.11-52.56,2.93-4.22-.27-5.33-4.19-5.45-13.18-.55-39.5-.46-87.11-.08-126.68.09-9,1.27-13.86,5.5-14.3a289.09,289.09,0,0,1,52.6-.88c4.21.29,5.15,4.71,5.19,13.51.17,38.65,1,85.16.36,124C576.75,340.69,575.56,345.68,571.34,346.47Z"/><path class="cls-6" d="M511.24,272.64h0c0-1.18.34-3.3,1.35-3.35,21.78-.91,43.1-3.24,64.86-4.5,1-.06,1.36,1.95,1.36,3.13.05,0,0,0,0,0,0,1.17-.3,3.23-1.31,3.3-21.8,1.37-43.1,4-64.94,4.67C511.55,275.92,511.24,273.81,511.24,272.64Z"/><path class="cls-6" d="M545,190.66c0-.47,0-.39,0,0,1.24,0,1.29,1,1.27,3.4-.48,51.87.46,105.55,0,157.43,0,2.42-.15,3.37-1.35,3.39,0,.47,0,.4,0,0-1.21,0-1.33-.88-1.31-3.29.26-51.89-.65-105.61-.05-157.5C543.66,191.68,543.79,190.67,545,190.66Z"/><path class="cls-6" d="M574.83,503.1c-20.34,1.46-37.41,1.68-57.7,1.24-4.61-.1-5.8-2-5.92-6.13-.5-18.2-.83-40.12,0-58.36.18-4.16,1.44-6.41,6.11-6.59,20.51-.81,37.5-.75,57.92-.3,4.65.11,5.66,2.22,5.59,6.28-.35,17.86,1.17,39.2.21,57.12C580.77,500.44,579.45,502.77,574.83,503.1Z"/><path class="cls-7" d="M572.34,500a475.25,475.25,0,0,1-52.56,1.23c-4.22-.11-5.33-1.76-5.45-5.53-.55-16.55-.46-36.51-.08-53.1.09-3.77,1.27-5.81,5.5-6,18.6-.82,34.11-.89,52.6-.37,4.21.12,5.15,2,5.19,5.66.17,16.2,1,35.7.36,52C577.75,497.53,576.56,499.62,572.34,500Z"/><path class="cls-6" d="M512.24,469h0a1.38,1.38,0,0,1,1.35-1.4c21.78-.38,43.1-1.36,64.86-1.89a1.3,1.3,0,0,1,1.36,1.31h0a1.33,1.33,0,0,1-1.31,1.39c-21.8.57-43.1,1.69-64.94,1.95A1.3,1.3,0,0,1,512.24,469Z"/><path class="cls-6" d="M546,434.64c0-.2,0-.17,0,0,1.24,0,1.29.41,1.27,1.42-.48,21.74.46,44.25,0,66,0,1-.15,1.41-1.35,1.42,0,.19,0,.16,0,0-1.21,0-1.33-.37-1.31-1.38.26-21.75-.65-44.27-.05-66C544.66,435.06,544.79,434.64,546,434.64Z"/><rect class="cls-8" x="840.55" y="136.2" width="261.45" height="487.91" rx="128.45"/><rect class="cls-9" x="847.68" y="142" width="247.32" height="478" rx="123.66"/><rect class="cls-1" x="715" y="515" width="502" height="159" rx="9.34"/><path class="cls-10" d="M356.81,882.2c28.54,5.46,74.07,6.25,102.05.64,11.7-2.35,13.44-5.73,11.12-13.26-43.92-143-33.52-317-25.07-465.32.44-7.81-3.45-10.93-10.64-11.89-17.21-2.32-39.37-2.82-56.63-4.32-7.22-.63-11.42,4.69-11.74,10.19-6.18,104.53,24.3,404-16,470.14C347.79,871.86,344.88,879.92,356.81,882.2Z"/><path class="cls-10" d="M108.45,1407.42c54.6,10.44,141.69,11.95,195.23,1.21,22.39-4.5,25.7-11,21.27-25.37-84-273.58-64.12-606.45-48-890.2.85-14.95-6.6-20.9-20.36-22.75-32.92-4.43-75.31-5.39-108.34-8.26-13.82-1.2-21.84,9-22.47,19.5-11.81,200,46.5,772.92-30.58,899.41C91.18,1387.63,85.61,1403.05,108.45,1407.42Z"/><path class="cls-10" d="M1591.81,866.82c-28.54,5.46-74.07,6.25-102,.63-11.7-2.35-13.43-5.73-11.12-13.26,43.92-143,33.52-317,25.07-465.32-.44-7.81,3.45-10.92,10.64-11.89,17.21-2.32,39.37-2.82,56.63-4.32,7.23-.62,11.42,4.69,11.75,10.2,6.17,104.52-24.31,404,16,470.13C1600.83,856.47,1603.75,864.54,1591.81,866.82Z"/><path class="cls-10" d="M1838.17,1392c-54.6,10.45-141.69,12-195.22,1.21-22.39-4.49-25.71-11-21.28-25.37,84-273.58,64.12-606.44,48-890.2-.85-14.94,6.59-20.89,20.36-22.75,32.91-4.43,75.3-5.39,108.33-8.25,13.82-1.2,21.85,9,22.47,19.49,11.81,200-46.5,772.92,30.58,899.42C1855.44,1372.24,1861,1387.66,1838.17,1392Z"/><path class="cls-11" d="M1425.46,421.43c110.32,26.79,149.13,32.69,267.14,4.41,53.91-12.91,62.91-25.08,61-66.11-6-129.54,0-269.53,2.49-396.77.79-40.3-20.47-59.53-58.95-59.93-84.24-.88-188.92,1.16-273.07.38-38.44-.35-59.12,18-59.8,58.07-2.16,126.53-5.3,270.84.15,399.07C1366.17,401.15,1375.06,409.19,1425.46,421.43Z"/><path class="cls-12" d="M1566.16,522.47c148.82,36.13,201.16,44.1,360.34,6,72.71-17.43,84.84-33.84,82.3-89.18-8-174.73,0-363.55,3.36-535.18,1.07-54.35-27.62-80.29-79.52-80.83-113.62-1.19-254.81,1.56-368.32.52-51.85-.48-79.74,24.26-80.66,78.31-2.92,170.68-7.15,365.33.2,538.28C1486.19,495.13,1498.18,506,1566.16,522.47Z"/><path class="cls-13" d="M1572.76,522c148.81,36.14,201.16,44.11,360.34,6,72.71-17.42,84.84-33.84,82.3-89.17-8-174.73,0-363.56,3.36-535.18,1.07-54.35-27.62-80.29-79.52-80.83-113.62-1.2-254.81,1.56-368.32.52-51.85-.48-79.74,24.26-80.66,78.31-2.92,170.68-7.15,365.33.2,538.28C1492.79,494.65,1504.78,505.49,1572.76,522Z"/><path class="cls-11" d="M535,426.38c-110.32,26.79-149.14,32.7-267.15,4.42-53.9-12.92-62.9-25.09-61-66.11,6-129.55,0-269.54-2.49-396.77-.79-40.3,20.47-59.53,58.95-59.93,84.24-.89,188.92,1.15,273.07.38,38.44-.35,59.12,18,59.8,58.06C598.28,93,601.42,237.28,596,365.5,594.24,406.11,585.35,414.14,535,426.38Z"/><path class="cls-12" d="M347.67,529.79c-148.81,36.13-201.16,44.1-360.34,6C-85.38,518.32-97.51,501.91-95,446.57c8-174.73,0-363.55-3.37-535.18C-99.39-143-70.71-168.9-18.81-169.44c113.62-1.19,254.82,1.56,368.32.52,51.85-.48,79.74,24.26,80.67,78.31,2.91,170.68,7.14,365.33-.21,538.28C427.64,502.45,415.65,513.28,347.67,529.79Z"/><path class="cls-13" d="M341.08,529.31c-148.82,36.14-201.17,44.11-360.34,6-72.72-17.42-84.85-33.84-82.3-89.17,8-174.73,0-363.56-3.36-535.18C-106-143.43-77.3-169.37-25.4-169.91c113.61-1.2,254.81,1.56,368.32.51,51.84-.47,79.74,24.27,80.66,78.32,2.91,170.68,7.14,365.32-.2,538.28C421.05,502,409.05,512.81,341.08,529.31Z"/></svg>