<svg xmlns="http://www.w3.org/2000/svg" width="220" height="350" viewBox="0 0 220 350"><defs><style>.cls-1{fill:#f40303;}.cls-2{fill:red;}.cls-3{fill:#d60000;}.cls-4{fill:#f7f73e;}.cls-5{fill:#f4c940;}.cls-6{fill:#2d1313;}</style></defs><g id="Layer_4" data-name="Layer 4"><rect class="cls-1" x="101.5" y="158.84" width="35.1" height="169.29" rx="17.17" transform="translate(-132.49 142.55) rotate(-42.08)"/><rect class="cls-2" x="103.33" y="159.58" width="33.49" height="170.11" rx="16.75" transform="translate(-132.99 143.54) rotate(-42.08)"/><rect class="cls-3" x="56.79" y="177.7" width="33.19" height="30.87" rx="15.43" transform="translate(-110.51 98.97) rotate(-42.08)"/><path d="M92.34,236.6a22.67,22.67,0,0,0,5,0c13.89-1.7,24-16.57,22.17-19.63-.11-.18-.42-.58-.37-.61a65.48,65.48,0,0,1,5.22,5.5c2.95,3.3,5.77,6.68,5.77,6.68-.81,2.89-3.79,12.14-12.56,16.91-.94.52-10.19,5.56-15.61,1.86a11.94,11.94,0,0,1-2.1-2.08C96.7,241.67,94.15,238.73,92.34,236.6Z"/><rect class="cls-1" x="135.49" y="150.58" width="35.1" height="169.29" rx="17.17" transform="translate(-118.19 163.2) rotate(-42.08)"/><path d="M145.9,296a21.92,21.92,0,0,0,5,0c13.89-1.7,24-16.57,22.17-19.63-.11-.19-.41-.58-.37-.62a69.13,69.13,0,0,1,5.22,5.5c2.95,3.31,5.77,6.68,5.77,6.68-.81,2.9-3.79,12.14-12.55,16.92-.94.51-10.2,5.56-15.62,1.86a12.35,12.35,0,0,1-2.1-2.08C150.26,301,147.72,298.08,145.9,296Z"/><rect class="cls-1" x="96.28" y="192.53" width="35.1" height="169.29" rx="17.17" transform="translate(-156.41 147.74) rotate(-42.08)"/><rect class="cls-2" x="98.16" y="192.78" width="33.49" height="170.11" rx="16.75" transform="translate(-156.57 148.63) rotate(-42.08)"/><rect class="cls-3" x="51.62" y="210.9" width="33.19" height="30.87" rx="15.43" transform="translate(-134.1 104.06) rotate(-42.08)"/><path class="cls-4" d="M103.86,72.38l-53.77,15-37-59,33.5,49.36-7-55.53L49.21,75.9Q57.58,40.65,66,5.39,59.35,41.54,52.74,77.67l30.84-30L54.5,80.31Z"/><path class="cls-5" d="M99.68,66.3,48.29,88.07,4,34.28,43.55,78.91Q36.47,51.84,29.41,24.76L45.94,76.82,53.47,4.75,49.66,78.12,76.4,44.43q-12.33,18-24.65,36.08Z"/><path d="M75.79,261.06a22.57,22.57,0,0,0,5-.05c13.9-1.7,24-16.57,22.18-19.63-.11-.19-.42-.58-.38-.61a64.89,64.89,0,0,1,5.23,5.5c3,3.3,5.77,6.67,5.77,6.67-.81,2.9-3.8,12.14-12.56,16.92-.94.51-10.19,5.56-15.61,1.86a11.58,11.58,0,0,1-2.1-2.08C80.15,266.13,77.6,263.19,75.79,261.06Z"/><path d="M127.44,318.81a22.67,22.67,0,0,0,5-.05c13.89-1.7,24-16.57,22.17-19.63-.11-.18-.42-.57-.38-.61a64.89,64.89,0,0,1,5.23,5.5c2.95,3.3,5.77,6.68,5.77,6.68-.81,2.9-3.79,12.14-12.56,16.91-.94.52-10.19,5.56-15.61,1.86a11.58,11.58,0,0,1-2.1-2.08C131.8,323.88,129.25,320.94,127.44,318.81Z"/><rect class="cls-2" x="136.77" y="151.12" width="33.49" height="170.11" rx="16.75" transform="translate(-118.7 163.77) rotate(-42.08)"/><rect class="cls-3" x="90.23" y="169.24" width="33.19" height="30.87" rx="15.43" transform="translate(-96.23 119.2) rotate(-42.08)"/><path d="M115.61,217.37a22.5,22.5,0,0,0,5,0c13.89-1.71,24-16.58,22.17-19.63-.11-.19-.42-.58-.38-.62a64.89,64.89,0,0,1,5.23,5.5c3,3.3,5.77,6.68,5.77,6.68-.81,2.9-3.79,12.14-12.56,16.92-.94.51-10.19,5.56-15.61,1.86a12.2,12.2,0,0,1-2.1-2.09C120,222.45,117.42,219.5,115.61,217.37Z"/><path d="M170.29,278.09a22.67,22.67,0,0,0,5,0c13.89-1.7,24-16.57,22.17-19.63-.11-.19-.42-.58-.37-.61a67.29,67.29,0,0,1,5.22,5.5c3,3.3,5.77,6.67,5.77,6.67-.81,2.9-3.79,12.14-12.56,16.92-.94.52-10.19,5.56-15.61,1.86a11.58,11.58,0,0,1-2.1-2.08C174.65,283.16,172.1,280.22,170.29,278.09Z"/><rect class="cls-1" x="129.53" y="184.74" width="35.1" height="169.29" rx="17.17" transform="translate(-142.62 168.02) rotate(-42.08)"/><rect class="cls-2" x="130.76" y="185.06" width="33.49" height="170.11" rx="16.75" transform="translate(-143 168.49) rotate(-42.08)"/><rect class="cls-3" x="84.22" y="203.18" width="33.19" height="30.87" rx="15.43" transform="translate(-120.52 123.92) rotate(-42.08)"/><path d="M106.2,250.29a23.79,23.79,0,0,0,5.29,0c14.69-1.8,25.37-17.52,23.44-20.75-.12-.2-.45-.61-.4-.65a70.15,70.15,0,0,1,5.52,5.81c3.12,3.5,6.1,7.06,6.1,7.06-.86,3.07-4,12.83-13.27,17.88-1,.54-10.78,5.88-16.5,2a13,13,0,0,1-2.22-2.2C110.81,255.66,108.12,252.55,106.2,250.29Z"/><path d="M153.2,302.94a23.43,23.43,0,0,0,5.37-.05c14.88-1.83,25.7-17.94,23.74-21.26-.12-.21-.45-.63-.41-.67s3.37,3.43,5.61,6c3.16,3.59,6.19,7.25,6.19,7.25-.86,3.14-4,13.16-13.44,18.34-1,.55-10.92,6-16.73,2a12.41,12.41,0,0,1-2.25-2.26C157.88,308.45,155.15,305.25,153.2,302.94Z"/><path class="cls-6" d="M68.83,226.26c-.32-.48-31.53-48.46-22.42-114.92a.89.89,0,0,0-.76-1,.93.93,0,0,0-.54.12,3.82,3.82,0,0,1-.12.66l-.32.77a4.2,4.2,0,0,1-.27,1.32c-8.26,66.05,22.64,113.55,23,114a.88.88,0,0,0,1.47-1Z"/><path class="cls-6" d="M101.36,217.92c-.39-.3-38.8-31.5-54.52-106.5a.88.88,0,1,0-1.72.36C61,187.46,99.87,219,100.26,219.31a1,1,0,0,0,.55.19.88.88,0,0,0,.69-.34A.89.89,0,0,0,101.36,217.92Z"/><path class="cls-6" d="M105.06,185.56a1,1,0,0,1-.43-.11c-.39-.22-39.44-22.27-58.72-73.54a.88.88,0,1,1,1.65-.62c19,50.67,57.54,72.4,57.92,72.61a.88.88,0,0,1-.42,1.66Z"/><path class="cls-6" d="M73.45,192.92c-.28-.22-27.54-22.52-26.77-81.78a.88.88,0,0,0-.87-.9.8.8,0,0,0-.71.37,4.64,4.64,0,0,1-.11.51l-.07.17c-.73,60,27.15,82.78,27.43,83a.88.88,0,0,0,1.1-1.38Z"/><path class="cls-6" d="M46.83,112a.87.87,0,0,1-.32-.06.88.88,0,0,1-.5-1.15c4.35-11.14,2.52-23.18,2.5-23.3a.89.89,0,0,1,1.75-.28c.08.51,1.92,12.65-2.61,24.23A.9.9,0,0,1,46.83,112Z"/><path class="cls-6" d="M49.05,89.38a.88.88,0,0,0-1-.73.87.87,0,0,0-.73,1c0,.12,1.84,12.16-2.51,23.3a.88.88,0,0,0,.82,1.2.88.88,0,0,0,.82-.56C51,102,49.13,89.89,49.05,89.38Z"/><path class="cls-6" d="M47.38,113.28a1,1,0,0,1-.32-.06.88.88,0,0,1-.5-1.14c4.36-11.14,2.53-23.19,2.51-23.31a.87.87,0,0,1,.73-1,.88.88,0,0,1,1,.73c.08.51,1.92,12.64-2.61,24.22A.87.87,0,0,1,47.38,113.28Z"/><path class="cls-6" d="M49.05,87.62a.9.9,0,0,0-1-.74.88.88,0,0,0-.73,1c0,.12,1.75,11.55-2.19,22.44a4.34,4.34,0,0,1-.13.79l-.23.54a.87.87,0,0,0,1.68.18C51,100.26,49.13,88.13,49.05,87.62Z"/></g></svg>