<svg xmlns="http://www.w3.org/2000/svg" xmlns:xlink="http://www.w3.org/1999/xlink" width="1920" height="1080" viewBox="0 0 1920 1080"><defs><style>.cls-1{fill:#edffe1;}.cls-2{fill:#75735e;}.cls-3{fill:#fcfaac;}.cls-4{fill:#c6c68b;}.cls-5{fill:#ffff17;}.cls-6{fill:#fff761;}.cls-7{fill:#f40303;}.cls-8{fill:red;}.cls-9{fill:#d60000;}.cls-10{fill:#f7f73e;}.cls-11{fill:#f4c940;}.cls-12{fill:#2d1313;}.cls-13{fill:#161515;}.cls-14{fill:#fcc490;}.cls-15{fill:#fc4747;}.cls-16{fill:#ce2828;}.cls-17{fill:#f7f1eb;}.cls-18{fill:#e5c7a3;}.cls-19,.cls-30{fill:#fff;}.cls-20{fill:#ffccd7;}.cls-21{fill:#d6b896;}.cls-22{fill:#c6ad93;}.cls-23{fill:#2d2c2c;}.cls-24{fill:#efebe8;}.cls-25{fill:#68533a;}.cls-26{fill:#6d6154;}.cls-27{fill:#6b5843;}.cls-28{fill:#492302;}.cls-29{fill:url(#Yellow_Green_2);}.cls-30{opacity:0.85;}.cls-31{fill:url(#Yellow_Green_2-2);}.cls-32{fill:#efedb4;}</style><linearGradient id="Yellow_Green_2" x1="192.13" y1="600.46" x2="217.06" y2="600.46" gradientUnits="userSpaceOnUse"><stop offset="0" stop-color="#dae5a7"/><stop offset="0.5" stop-color="#b8d26e"/><stop offset="1" stop-color="#7fb525"/></linearGradient><linearGradient id="Yellow_Green_2-2" x1="-384.24" y1="514.58" x2="-365.16" y2="514.58" gradientTransform="translate(505.54 -9.49) rotate(-14.02)" xlink:href="#Yellow_Green_2"/></defs><g id="Layer_6" data-name="Layer 6"><rect class="cls-1" x="47" y="32" width="347" height="312" rx="48.92"/><path class="cls-1" d="M314.07,380c3.25-15.07-8.7-32-14.53-47.5-3.46-9.18,2.07-15.85,5-20.32,5-7.68,34.69-21.4,34-11.11-.41,6-7.23,6.24-7.85-5.39-1.06-19.65,17.92,1.42,25.34,12,4.39,6.24,7.74,2.54,5.94,16.31-3.09,23.66-10.59,55.23-36.8,68.44C309.87,400.11,312.15,389,314.07,380Z"/><path d="M93.25,73.79V99.15q0,5.7-.12,7.33a5.68,5.68,0,0,1-1.07,2.94,4.9,4.9,0,0,1-2.58,1.81,17.6,17.6,0,0,1-4.91.51H79.63V105.1c.59.05,1,.07,1.29.07a2.51,2.51,0,0,0,1.66-.51,1.9,1.9,0,0,0,.7-1.27,26,26,0,0,0,.1-2.9V73.79Z"/><path d="M118.23,96.74H106v6.72a7.25,7.25,0,0,0,.31,2.72,1.17,1.17,0,0,0,1.17.61,1.42,1.42,0,0,0,1.44-.81,8.92,8.92,0,0,0,.36-3.13v-4.1h9v2.3a20.76,20.76,0,0,1-.36,4.43,9.13,9.13,0,0,1-1.7,3.3,8.24,8.24,0,0,1-3.39,2.64,13,13,0,0,1-5.14.88,14.91,14.91,0,0,1-5.3-.87,8.56,8.56,0,0,1-3.58-2.38A8.41,8.41,0,0,1,97,105.73a21.43,21.43,0,0,1-.5-5.29V91.37a15.5,15.5,0,0,1,1.1-6.43,7.58,7.58,0,0,1,3.61-3.61A12.72,12.72,0,0,1,107,80.07a12.93,12.93,0,0,1,6.57,1.51,8.37,8.37,0,0,1,3.64,4,19,19,0,0,1,1,7Zm-9.49-5.07V89.4a11.54,11.54,0,0,0-.26-3.12,1,1,0,0,0-1.06-.7c-.65,0-1.06.2-1.21.6A12.15,12.15,0,0,0,106,89.4v2.27Z"/><path d="M142.84,80.64v24a55.31,55.31,0,0,1-.22,6.27,6.3,6.3,0,0,1-1.59,3,8.41,8.41,0,0,1-3.78,2.41,18.94,18.94,0,0,1-6.11.83,14.88,14.88,0,0,1-7.26-1.53c-1.83-1-2.78-3-2.84-6h9.19q0,2.07,1.5,2.07a1.48,1.48,0,0,0,1.43-.64,6.46,6.46,0,0,0,.35-2.65V106a8.94,8.94,0,0,1-2.57,1.66,7.14,7.14,0,0,1-2.82.57,7.91,7.91,0,0,1-4.21-1,5.3,5.3,0,0,1-2.26-2.71,14.76,14.76,0,0,1-.61-4.77V88.39q0-4.42,1.6-6.37a5.89,5.89,0,0,1,4.85-2,7.24,7.24,0,0,1,3.24.73A7.7,7.7,0,0,1,133.35,83l.68-2.35Zm-9.49,8.25a9.06,9.06,0,0,0-.25-2.72,1.05,1.05,0,0,0-1.09-.59,1.19,1.19,0,0,0-1.16.67,6.62,6.62,0,0,0-.34,2.64V99.34a8.85,8.85,0,0,0,.26,2.71,1,1,0,0,0,1.08.62,1.17,1.17,0,0,0,1.22-.75,12.76,12.76,0,0,0,.28-3.4Z"/><path d="M174,90.57h-8.39V88.89a8.72,8.72,0,0,0-.25-2.73c-.16-.39-.57-.58-1.23-.58a1.39,1.39,0,0,0-1.19.53,2.57,2.57,0,0,0-.4,1.58,8.17,8.17,0,0,0,.2,2.1,3.32,3.32,0,0,0,1.19,1.46A26.06,26.06,0,0,0,168,93.57c2.75,1.35,4.56,2.61,5.42,3.8a8.76,8.76,0,0,1,1.29,5.18,13,13,0,0,1-1,5.73,6.53,6.53,0,0,1-3.29,3,13.54,13.54,0,0,1-5.57,1,15.31,15.31,0,0,1-6.17-1.13,6.75,6.75,0,0,1-3.53-3,13.53,13.53,0,0,1-1-5.81v-1.5h8.39v2a10.33,10.33,0,0,0,.32,3.26,1.23,1.23,0,0,0,1.25.75,1.73,1.73,0,0,0,1.41-.5,3.81,3.81,0,0,0,.4-2.12,4.72,4.72,0,0,0-.52-2.79A42.77,42.77,0,0,0,160,98.05q-4.17-2.34-5.08-4.25a10.45,10.45,0,0,1-.92-4.54,11.72,11.72,0,0,1,1-5.5A6.36,6.36,0,0,1,158.3,81a14.4,14.4,0,0,1,5.47-1,15.37,15.37,0,0,1,5.26.79,8.05,8.05,0,0,1,3.33,2.07,5.57,5.57,0,0,1,1.4,2.39,16.94,16.94,0,0,1,.25,3.45Z"/><path d="M197.66,80.64,193.82,93l5,18.72H189.7l-2.95-13.56v13.56h-9.47V73.79h9.47V89.72l2.95-9.08Z"/><path d="M208.67,92.68h-8.88V90.6a14.8,14.8,0,0,1,.83-5.57A7.79,7.79,0,0,1,204,81.57a12.61,12.61,0,0,1,6.52-1.5c3.2,0,5.62.57,7.24,1.7a6.65,6.65,0,0,1,2.93,4.17,65.33,65.33,0,0,1,.49,10.19v15.61h-9.21V109a5.77,5.77,0,0,1-5.51,3.33,8,8,0,0,1-4.55-1.39q-2.09-1.39-2.08-6.11v-2.55c0-2.33.37-3.92,1.1-4.76s2.56-1.83,5.46-3q4.67-1.82,5-2.46a6.53,6.53,0,0,0,.32-2.57,8.76,8.76,0,0,0-.36-3.18,1.25,1.25,0,0,0-1.21-.74c-.64,0-1,.21-1.19.62a12.36,12.36,0,0,0-.24,3.22Zm3,4.27A7,7,0,0,0,209,99.74a11.11,11.11,0,0,0-.37,3.23,9.44,9.44,0,0,0,.32,3.12,1.24,1.24,0,0,0,1.26.7,1.16,1.16,0,0,0,1.16-.55,9.3,9.3,0,0,0,.26-2.89Z"/><path d="M234.15,73.79v37.95H224.4V73.79Z"/><path d="M255.48,73.79v9a7.91,7.91,0,0,1,2.61-2,7.45,7.45,0,0,1,3.13-.67,8.72,8.72,0,0,1,3.38.61,4.92,4.92,0,0,1,2.18,1.71,5.21,5.21,0,0,1,.9,2.16,41,41,0,0,1,.15,4.5v14a20.52,20.52,0,0,1-.46,5.09,5.33,5.33,0,0,1-2.14,2.91,6.63,6.63,0,0,1-4,1.23,6.71,6.71,0,0,1-3.1-.73,8.22,8.22,0,0,1-2.64-2.18l-.61,2.35H246V73.79Zm2.88,15.68a10.26,10.26,0,0,0-.3-3.15,1.18,1.18,0,0,0-1.2-.74,1.07,1.07,0,0,0-1.12.65,11.81,11.81,0,0,0-.26,3.24v13.41a10.84,10.84,0,0,0,.29,3.21,1.13,1.13,0,0,0,1.16.7,1.1,1.1,0,0,0,1.16-.72,13.33,13.33,0,0,0,.27-3.5Z"/><path d="M280.42,80.64,280,84.73q2.07-4.4,6-4.66V91a7.9,7.9,0,0,0-3.82.7,3,3,0,0,0-1.5,2,34.8,34.8,0,0,0-.28,5.78v12.28H271V80.64Z"/><path d="M309.81,80.64v31.1h-9.64l.17-2.59a6.59,6.59,0,0,1-2.43,2.36,6.72,6.72,0,0,1-3.31.79,7.46,7.46,0,0,1-3.54-.75,4.89,4.89,0,0,1-2.08-2,7.41,7.41,0,0,1-.83-2.59c-.11-.9-.16-2.69-.16-5.36v-21h9.47V101.8a22,22,0,0,0,.22,4.31c.15.46.55.68,1.21.68s1.12-.23,1.25-.7a27.27,27.27,0,0,0,.2-4.52V80.64Z"/><path d="M334.72,80.64v24a52.91,52.91,0,0,1-.22,6.27,6.36,6.36,0,0,1-1.58,3,8.5,8.5,0,0,1-3.79,2.41,18.92,18.92,0,0,1-6.1.83,14.9,14.9,0,0,1-7.27-1.53c-1.83-1-2.77-3-2.84-6h9.19q0,2.07,1.5,2.07A1.47,1.47,0,0,0,325,111a6.28,6.28,0,0,0,.35-2.65V106a8.9,8.9,0,0,1-2.56,1.66,7.19,7.19,0,0,1-2.83.57,7.87,7.87,0,0,1-4.2-1,5.27,5.27,0,0,1-2.27-2.71,14.76,14.76,0,0,1-.61-4.77V88.39c0-3,.54-5.07,1.6-6.37a5.89,5.89,0,0,1,4.85-2,7.28,7.28,0,0,1,3.25.73A7.76,7.76,0,0,1,325.23,83l.68-2.35Zm-9.49,8.25a8.72,8.72,0,0,0-.25-2.72,1,1,0,0,0-1.09-.59,1.2,1.2,0,0,0-1.16.67,6.81,6.81,0,0,0-.34,2.64V99.34a8.85,8.85,0,0,0,.26,2.71,1,1,0,0,0,1.08.62,1.17,1.17,0,0,0,1.22-.75,12.33,12.33,0,0,0,.28-3.4Z"/><path d="M359.54,96.74H347.28v6.72a7.47,7.47,0,0,0,.31,2.72,1.17,1.17,0,0,0,1.17.61,1.42,1.42,0,0,0,1.44-.81,8.85,8.85,0,0,0,.37-3.13v-4.1h9v2.3a20.76,20.76,0,0,1-.36,4.43,9,9,0,0,1-1.7,3.3,8.24,8.24,0,0,1-3.39,2.64,13,13,0,0,1-5.14.88,14.91,14.91,0,0,1-5.3-.87,8.46,8.46,0,0,1-3.57-2.38,8.56,8.56,0,0,1-1.77-3.32,21.52,21.52,0,0,1-.49-5.29V91.37a15.33,15.33,0,0,1,1.1-6.43,7.49,7.49,0,0,1,3.61-3.61,12.65,12.65,0,0,1,5.76-1.26,13,13,0,0,1,6.58,1.51,8.4,8.4,0,0,1,3.63,4,19,19,0,0,1,1,7Zm-9.49-5.07V89.4a11.54,11.54,0,0,0-.26-3.12,1,1,0,0,0-1.05-.7c-.66,0-1.07.2-1.22.6a12.15,12.15,0,0,0-.24,3.22v2.27Z"/><path d="M101.57,131.39v6.07H89.82v6.45a7.08,7.08,0,0,1,5.68-2.6,7.61,7.61,0,0,1,5.91,2.19q2,2.19,2,8.42v5.42a32.09,32.09,0,0,1-.39,5.91,8.35,8.35,0,0,1-1.65,3.5,8,8,0,0,1-3.53,2.46,15.7,15.7,0,0,1-5.52.85,15.33,15.33,0,0,1-6.44-1.27,7.78,7.78,0,0,1-4-3.81q-1.17-2.53-1.17-7.83v-2.06h9.47v2.36a36.44,36.44,0,0,0,.26,5.23,1.65,1.65,0,0,0,1.78,1.55,1.59,1.59,0,0,0,1.61-1.41c0-.34,0-1.83.08-4.48v-7.52a6.36,6.36,0,0,0-.45-2.9,1.56,1.56,0,0,0-1.47-.78,1.59,1.59,0,0,0-1.11.4,1.91,1.91,0,0,0-.57.86,10,10,0,0,0-.13,2.12H80.85l.4-19.13Z"/><path d="M134.45,148.17h-8.39v-1.68a8.84,8.84,0,0,0-.25-2.74q-.24-.57-1.23-.57a1.39,1.39,0,0,0-1.19.53,2.57,2.57,0,0,0-.4,1.58,7.74,7.74,0,0,0,.2,2.1,3.32,3.32,0,0,0,1.19,1.46,26.06,26.06,0,0,0,4.09,2.32c2.75,1.35,4.56,2.61,5.42,3.8a8.76,8.76,0,0,1,1.28,5.18,13,13,0,0,1-1,5.73,6.57,6.57,0,0,1-3.29,3,13.57,13.57,0,0,1-5.57,1,15.28,15.28,0,0,1-6.17-1.13,6.71,6.71,0,0,1-3.53-3,13.53,13.53,0,0,1-1-5.81v-1.5h8.39v2a10.43,10.43,0,0,0,.31,3.26,1.23,1.23,0,0,0,1.26.75,1.7,1.7,0,0,0,1.4-.5,3.75,3.75,0,0,0,.4-2.12,4.74,4.74,0,0,0-.51-2.79,42.77,42.77,0,0,0-5.51-3.33q-4.17-2.34-5.09-4.25a10.45,10.45,0,0,1-.91-4.54,11.86,11.86,0,0,1,1-5.5,6.4,6.4,0,0,1,3.34-2.73,14.46,14.46,0,0,1,5.48-1,15.37,15.37,0,0,1,5.26.79,8.12,8.12,0,0,1,3.33,2.07,5.57,5.57,0,0,1,1.4,2.39,16.94,16.94,0,0,1,.25,3.45Z"/><path d="M147.69,134.09V139h2.56v4.92h-2.56v16.64c0,2,.11,3.19.32,3.42s1.09.35,2.63.35v5h-3.82a27.2,27.2,0,0,1-4.61-.27,5,5,0,0,1-2.44-1.24,4.17,4.17,0,0,1-1.31-2.23,38.29,38.29,0,0,1-.26-5.9V143.91h-2V139h2v-4.9Z"/><path d="M172.72,138.24l-3.84,12.38,5,18.72h-9.11l-2.95-13.56v13.56h-9.47v-38h9.47v15.93l2.95-9.08Z"/><path class="cls-2" d="M144,241.13c-6.63-3.54-14.39-4.3-21.2-4.32-13.54,0-17.8,3.79-21.8,17.08-3.61,12,.69,25-9.28,37.07l-1.54,1.9c1,6.65,2.32,14.7,8.67,17.39a6.5,6.5,0,0,1,4,5c2.16-3.36,7.36-5.12,11-1.33,1.31,1.36,4,4.91,6.24,4.57s6-4.53,7.69-6a38.42,38.42,0,0,0,9.46-13.32c3.47-7.63,3.9-15.52,12-19.95a6.36,6.36,0,0,1,7.08.83,26.4,26.4,0,0,0,2.36-9.77C159.22,252.5,157.13,248.18,144,241.13Z"/><path class="cls-2" d="M137.53,250.11h0c-4-2.1-8.23-7.25-4.49-11,12-12.13,14.1-28.23,17.61-43.52,1.09-4.76,4.29-6.35,8.22-5.14h0c3.92,1.21,5.95,4.56,4.53,9.19-4.56,14.86-13.93,30-13.35,46.82C150.23,251.65,141.56,252.22,137.53,250.11Z"/><path class="cls-2" d="M149.29,251.84h0c-3.54-2.39-7-7.25-3.38-9.65,11.74-7.7,14.67-20.3,18.86-32,1.31-3.65,4.33-4.38,7.84-2.73h0c3.5,1.65,5.13,4.69,3.54,8.18C171,226.82,161.5,237.42,161,251,160.77,255.26,152.83,254.23,149.29,251.84Z"/><path class="cls-2" d="M126.22,240.5h0c-4.06-1.64-8.63-5.76-5.47-9,10.12-10.25,10.35-23.51,12-36.15.52-3.93,3.4-5.31,7.27-4.42h0c3.86.9,6.16,3.6,5.31,7.44-2.73,12.3-10,25-7.62,38.75C138.48,241.45,130.29,242.13,126.22,240.5Z"/><path class="cls-2" d="M113.34,251.14c-.65.28-1.18,0,0,0-2.8,1.23-12.23,3.13-11.09-1.14,3.67-13.71,6.93-26.42,8.91-39.93.62-4.21,3.74-4.53,6.93-4.42.11-.33.11-.31,0,0,3.18.1,5.84,1.65,4.66,5.27-3.78,11.64-5.53,16.84,3.3,26.81C128.81,240.84,116.13,249.91,113.34,251.14Z"/><path class="cls-2" d="M152.23,268.94c.05.31,0,.23,0,0-3.64-.31-5.1-2.71-4.52-6.45s1.68-9.25,2.42-13,2.94-5.93,6.55-5.07c.19-.3.14-.23,0,0,3.62.86,4.56,3.81,4.17,7.36a102.36,102.36,0,0,1-2.16,11.83C157.84,267.16,155.87,269.24,152.23,268.94Z"/><path class="cls-2" d="M131,324.19c-12.84,2.74-35.47-5.87-44.28-15.87-4-4.49-3-8.44.13-12h0c3.15-3.59,8.47-2.58,11.45.33,6.62,6.48,19.61,14.14,28.94,11.54,4.2-1.18,8.91,1.78,9.71,5.47h0C137.75,317.31,136.77,323,131,324.19Z"/><path class="cls-2" d="M119.68,322.93c-7.16-1.86-12.93-7.41-21.81-10.8-17.65-6.76-17.12-10.67-5.89-23.58,10.13-11.64,6.25-24.52,10.11-36.2,4.29-13,8.58-16.61,21.89-16.21,6.69.21,14.31,1.15,20.73,4.81,12.77,7.28,14.71,11.59,13.67,29-.94,15.7-18.34,26.11-17.32,38.11C142.18,321.38,133.93,326.63,119.68,322.93Z"/><path class="cls-2" d="M138.16,249.62h0c-3.9-2.18-7.9-7.36-4.12-11,12.14-11.61,14.61-27.38,18.47-42.32,1.2-4.65,4.4-6.13,8.22-4.83h0c3.83,1.29,5.73,4.64,4.21,9.15-4.88,14.49-14.5,29.16-14.38,45.68C150.6,251.47,142.07,251.79,138.16,249.62Z"/><path class="cls-2" d="M149.68,251.63h0c-3.42-2.44-6.74-7.32-3.07-9.59,11.75-7.25,15-19.56,19.4-30.94,1.38-3.55,4.37-4.19,7.77-2.47h0c3.4,1.71,4.93,4.75,3.26,8.13-5.32,10.84-15,21-15.88,34.37C160.87,255.3,153.09,254.07,149.68,251.63Z"/><path class="cls-2" d="M127.3,239.86h0c-4-1.72-8.33-5.9-5.15-9,10.23-9.81,10.81-22.85,12.8-35.22.62-3.86,3.48-5.14,7.26-4.15h0c3.78,1,6,3.7,5,7.45-3,12-10.5,24.3-8.53,37.9C139.32,241.12,131.25,241.57,127.3,239.86Z"/><path class="cls-2" d="M114.34,250c-.64.26-1.16,0,0,0-2.78,1.13-12.1,2.75-10.86-1.42,4-13.38,7.52-25.79,9.82-39,.72-4.12,3.8-4.35,6.93-4.16h0c3.13.19,5.7,1.78,4.45,5.31-4,11.34-5.89,16.4,2.53,26.44C129.83,240.26,117.13,248.84,114.34,250Z"/><path class="cls-2" d="M152.1,268.51c.05.31,0,.23,0,0-3.56-.39-4.93-2.8-4.27-6.46s1.9-9.05,2.73-12.67,3.05-5.75,6.58-4.81c.2-.29.14-.23,0,0,3.53.94,4.37,3.87,3.9,7.35a101.31,101.31,0,0,1-2.44,11.57C157.67,266.91,155.67,268.91,152.1,268.51Z"/><path class="cls-2" d="M141.19,273.14c-.64-.7-.95-1.91,0,0-2.8-3-10.26-16.95-4-14.83,20,6.8,19.39.49,36.1-4,5.21-1.39,4.67,3.34,4.23,6.51.48-.25.39-.24,0,0-.43,3.17-1.79,7.38-6.56,8.68-15.32,4.19-16.77,19.06-24.73,22.16C143.73,292.66,144,276.15,141.19,273.14Z"/><path class="cls-2" d="M140.6,274.44c-.64-.7-.94-1.92,0,0-2.8-3-10.2-17-3.9-14.94,20.22,6.63,19.67.26,36.68-4.45,5.3-1.47,4.7,3.31,4.21,6.52.5-.26.4-.25,0,0-.48,3.21-1.9,7.48-6.76,8.86-15.59,4.42-17.26,19.47-25.37,22.7C142.93,294.13,143.41,277.45,140.6,274.44Z"/><path class="cls-3" d="M144.34,241.7c-6.63-3.53-14.39-4.27-21.2-4.28-13.54,0-17.79,3.8-21.77,17.1-3.6,12,.72,25-9.23,37.08l-1.54,1.91c1,6.65,2.34,14.69,8.69,17.38a6.51,6.51,0,0,1,4,4.95c2.16-3.37,7.36-5.13,11-1.35,1.31,1.36,4,4.91,6.24,4.57s6-4.55,7.68-6a38.34,38.34,0,0,0,9.45-13.33c3.46-7.63,3.88-15.52,12-20a6.36,6.36,0,0,1,7.08.82,26.39,26.39,0,0,0,2.35-9.77C159.63,253.05,157.53,248.73,144.34,241.7Z"/><path class="cls-3" d="M137.94,250.7h0c-4-2.11-8.24-7.25-4.5-11,12-12.15,14.05-28.25,17.54-43.54,1.08-4.77,4.28-6.36,8.21-5.16h0c3.93,1.2,6,4.55,4.55,9.19-4.54,14.86-13.89,30-13.29,46.83C150.64,252.22,142,252.8,137.94,250.7Z"/><path class="cls-3" d="M149.7,252.41h0c-3.54-2.39-7-7.25-3.39-9.66,11.73-7.71,14.64-20.31,18.81-32,1.3-3.65,4.33-4.38,7.83-2.74h0c3.51,1.64,5.15,4.69,3.56,8.17-5.1,11.18-14.62,21.79-15.15,35.4C161.19,255.81,153.25,254.79,149.7,252.41Z"/><path class="cls-3" d="M126.62,241.09h0c-4.07-1.62-8.64-5.75-5.49-9,10.11-10.26,10.31-23.52,12-36.16.51-3.94,3.39-5.32,7.26-4.43h0c3.87.89,6.17,3.59,5.32,7.43-2.7,12.31-10,25-7.56,38.76C138.87,242,130.68,242.72,126.62,241.09Z"/><path class="cls-3" d="M113.75,251.76c-.65.28-1.18,0,0,0-2.8,1.23-12.22,3.15-11.09-1.13,3.65-13.71,6.89-26.43,8.85-39.94.61-4.22,3.74-4.54,6.92-4.43h0c3.19.1,5.85,1.64,4.68,5.27-3.77,11.63-5.51,16.84,3.33,26.8C129.2,241.43,116.54,250.52,113.75,251.76Z"/><path class="cls-3" d="M152.66,269.5c.05.31,0,.23,0,0-3.64-.3-5.09-2.71-4.53-6.44s1.67-9.26,2.41-13,2.93-5.93,6.54-5.07c.19-.31.14-.24,0,0,3.62.85,4.56,3.8,4.18,7.35a104.46,104.46,0,0,1-2.14,11.83C158.27,267.71,156.3,269.8,152.66,269.5Z"/><path class="cls-4" d="M131.51,324.78C118.67,327.53,96,319,87.21,309c-4-4.49-3-8.45.12-12h0c3.14-3.59,8.46-2.59,11.44.32,6.64,6.47,19.63,14.11,29,11.49,4.2-1.18,8.91,1.77,9.72,5.46h0C138.26,317.89,137.28,323.55,131.51,324.78Z"/><path class="cls-5" d="M120.19,323.54c-7.16-1.85-12.94-7.39-21.82-10.78-17.66-6.72-17.14-10.64-5.93-23.57,10.11-11.65,6.22-24.52,10.07-36.21,4.27-13,8.55-16.62,21.86-16.24,6.69.2,14.31,1.13,20.73,4.78,12.78,7.26,14.73,11.57,13.71,29-.91,15.7-18.29,26.14-17.26,38.14C142.69,322,134.45,327.22,120.19,323.54Z"/><path class="cls-5" d="M138.57,250.2c-.93-.44,0,0,0,0-3.91-2.18-7.91-7.35-4.14-11,12.12-11.62,14.57-27.4,18.41-42.34,1.2-4.65,4.39-6.14,8.22-4.85h0c3.83,1.29,5.73,4.64,4.22,9.16-4.86,14.49-14.46,29.17-14.31,45.69C151,252,142.48,252.37,138.57,250.2Z"/><path class="cls-5" d="M150.09,252.19h0c-3.42-2.44-6.75-7.31-3.09-9.58,11.74-7.27,14.95-19.58,19.36-31,1.38-3.55,4.37-4.19,7.77-2.48h0c3.4,1.7,4.93,4.74,3.28,8.12-5.32,10.86-15,21-15.84,34.4C161.29,255.84,153.51,254.63,150.09,252.19Z"/><path class="cls-5" d="M127.69,240.45h0c-4-1.71-8.34-5.88-5.15-8.94,10.21-9.82,10.76-22.86,12.74-35.24.61-3.85,3.47-5.14,7.26-4.16h0c3.78,1,6,3.7,5,7.45-3,12-10.46,24.31-8.48,37.9C139.71,241.7,131.65,242.16,127.69,240.45Z"/><path class="cls-5" d="M114.75,250.59c-.64.26-1.16,0,0,0-2.78,1.14-12.1,2.77-10.86-1.4,3.94-13.39,7.48-25.8,9.76-39,.72-4.12,3.8-4.35,6.93-4.17.11-.31.11-.3,0,0,3.13.19,5.7,1.77,4.45,5.31-4,11.34-5.87,16.41,2.57,26.44C130.22,240.85,117.53,249.45,114.75,250.59Z"/><path class="cls-6" d="M152.54,269.07c0,.31,0,.23,0,0-3.57-.39-4.94-2.79-4.28-6.45s1.89-9.06,2.71-12.68,3-5.76,6.57-4.82c.2-.29.14-.23,0,0,3.53.94,4.38,3.86,3.91,7.35A101.27,101.27,0,0,1,159,264C158.1,267.46,156.11,269.47,152.54,269.07Z"/><path class="cls-3" d="M141.64,273.71c-.65-.7-1-1.91,0,0-2.81-3-10.29-16.93-4-14.82,20,6.77,19.39.47,36.09-4,5.21-1.4,4.68,3.33,4.24,6.5.49-.25.39-.24,0,0-.43,3.17-1.77,7.39-6.54,8.7-15.31,4.2-16.75,19.08-24.7,22.19C144.2,293.23,144.44,276.72,141.64,273.71Z"/><path class="cls-6" d="M141.05,275c-.65-.69-1-1.91,0,0-2.82-3-10.23-17-3.92-14.92,20.22,6.59,19.66.23,36.66-4.51,5.3-1.48,4.71,3.3,4.23,6.51.49-.26.39-.24,0,0-.48,3.21-1.89,7.49-6.75,8.87-15.59,4.44-17.23,19.5-25.34,22.74C143.4,294.71,143.86,278,141.05,275Z"/><path class="cls-2" d="M173.18,249.49c-5.59-5.65-13.21-8.85-20.09-11-13.68-4.27-19.18-1.74-27.39,10.45-7.4,11-7.11,25.47-21,34.6q-1.12.73-2.16,1.44c-1.06,7-2.24,15.59,3.33,20.3a6.88,6.88,0,0,1,2.53,6.28c3.24-2.73,9-2.88,11.54,2.09.89,1.78,2.48,6.21,4.87,6.58s7.54-2.69,9.66-3.68A40.59,40.59,0,0,0,148.22,306c5.9-6.63,8.8-14.47,18.38-16.42a6.71,6.71,0,0,1,6.89,3.05,28,28,0,0,0,5.45-9.15C185.07,265.77,184.31,260.74,173.18,249.49Z"/><path class="cls-2" d="M163.88,256.57h0c-3.41-3.39-6.06-9.92-1.08-12.57,15.95-8.51,23.09-24.15,31.42-38.51,2.6-4.48,6.33-5.09,9.93-2.63h0c3.59,2.45,4.59,6.47,1.7,10.71-9.26,13.6-23.49,26-28.15,43.18C176.24,262.1,167.3,260,163.88,256.57Z"/><path class="cls-2" d="M175.24,262h0c-2.84-3.52-4.86-9.54-.4-10.83,14.28-4.11,21.19-15.93,29.09-26.45,2.46-3.28,5.74-3.07,8.77-.31h0c3,2.77,3.73,6.36,1,9.38-8.67,9.7-21.63,17.44-26.45,31C185.78,269.05,178.07,265.52,175.24,262Z"/><path class="cls-2" d="M155.45,243.3h0c-3.6-2.92-6.93-8.52-2.73-10.77,13.44-7.2,17.82-20.55,23.47-32.8,1.76-3.82,5.11-4.31,8.74-2.19h0c3.63,2.12,5.11,5.57,3,9.18-6.61,11.6-17.94,22.15-19.84,36.81C167.55,248.11,159.05,246.23,155.45,243.3Z"/><path class="cls-2" d="M139.09,250c-.75.08-1.2-.36,0,0-3.22.37-13.35-.66-10.86-4.62,8-12.72,15.28-24.56,21.51-37.61,1.94-4.06,5.2-3.4,8.39-2.3h0c3.19,1.1,5.39,3.5,3.07,6.8-7.47,10.58-10.87,15.29-5,28.14C158,244.46,142.3,249.67,139.09,250Z"/><path class="cls-2" d="M172.86,280.21c-.05.33-.05.25,0,0-3.59-1.44-4.31-4.33-2.56-7.93s4.6-8.84,6.51-12.36,4.83-5.08,8.21-3.07c.29-.25.21-.2,0,0,3.39,2,3.42,5.28,1.91,8.75a110.88,110.88,0,0,1-5.88,11.28C179.09,280.16,176.44,281.66,172.86,280.21Z"/><path class="cls-2" d="M134.09,329.46c-13.85-1.25-34-17-39.82-29.91-2.6-5.78-.41-9.49,3.9-12.13h0c4.31-2.65,9.37,0,11.47,3.92,4.67,8.62,15.41,20.44,25.67,20.72,4.62.13,8.45,4.6,8.11,8.58h0C143.08,324.62,140.31,330,134.09,329.46Z"/><path class="cls-2" d="M123,324.64c-6.66-4.12-10.76-11.54-18.68-17.75-15.74-12.36-14-16.15,1.42-25.7,13.88-8.6,14-22.84,21.56-33.45,8.39-11.77,13.87-14.11,27.21-9.54,6.7,2.3,14.11,5.64,19.46,11.35,10.63,11.36,11.25,16.32,4.75,33.61-5.86,15.58-26.72,20.67-29.44,33.13C146.29,330.11,136.29,332.84,123,324.64Z"/><path class="cls-2" d="M164.67,256.27h0c-3.26-3.43-5.69-9.92-.73-12.4,15.91-7.94,23.35-23.12,31.92-37,2.68-4.33,6.37-4.83,9.83-2.32h0c3.47,2.5,4.35,6.49,1.4,10.58-9.47,13.13-23.79,24.95-28.84,41.7C176.68,262,167.94,259.69,164.67,256.27Z"/><path class="cls-2" d="M175.69,261.9h0c-2.69-3.53-4.52-9.51-.1-10.65,14.15-3.66,21.26-15.1,29.3-25.23,2.51-3.16,5.74-2.87,8.64-.07h0c2.9,2.8,3.49,6.35.76,9.25-8.79,9.3-21.73,16.56-26.83,29.79C185.87,269.12,178.38,265.44,175.69,261.9Z"/><path class="cls-2" d="M156.74,243h0c-3.46-3-6.58-8.56-2.4-10.66,13.41-6.72,18.07-19.72,24-31.62,1.83-3.71,5.13-4.1,8.64-1.93h0c3.52,2.18,4.88,5.62,2.75,9.12-6.8,11.22-18.22,21.29-20.48,35.66C168.5,248,160.2,246,156.74,243Z"/><path class="cls-2" d="M140.47,249.18c-.73.06-1.17-.38,0,0-3.17.28-13.1-1-10.55-4.84,8.2-12.29,15.68-23.73,22.15-36.39,2-3.95,5.2-3.21,8.31-2h0c3.11,1.17,5.21,3.58,2.84,6.76-7.63,10.21-11.09,14.75-5.72,27.54C159.17,244.2,143.64,248.9,140.47,249.18Z"/><path class="cls-2" d="M172.86,279.74c-.05.33-.05.24,0,0-3.48-1.51-4.11-4.37-2.3-7.87s4.76-8.56,6.73-12,4.88-4.86,8.16-2.8c.29-.23.21-.19,0,0,3.27,2.06,3.21,5.28,1.64,8.66A106.49,106.49,0,0,1,181,276.69C179,279.86,176.35,281.26,172.86,279.74Z"/><path class="cls-2" d="M160.38,281c-.43-.9-.37-2.22,0,0-1.89-3.92-5.07-20.35.57-16.25,18.11,13.14,19.46,6.57,37.75,7.28,5.71.23,3.68,4.83,2.25,7.91.57-.1.47-.12,0,0-1.43,3.07-4.12,6.91-9.35,6.73-16.8-.56-22.93,14-31.95,14.67C156.84,301.54,162.27,284.93,160.38,281Z"/><path class="cls-2" d="M159.38,282.14c-.44-.91-.36-2.24,0,0-1.9-3.93-5-20.39.73-16.33,18.37,13,19.81,6.42,38.49,7,5.82.17,3.71,4.82,2.22,7.91.58-.1.48-.12,0,0-1.49,3.1-4.27,7-9.62,6.85-17.15-.41-23.54,14.3-32.76,15C155.57,302.79,161.27,286.06,159.38,282.14Z"/><path class="cls-3" d="M173.4,250.2c-5.6-5.65-13.22-8.84-20.1-11-13.69-4.25-19.19-1.71-27.38,10.49-7.38,11-7.08,25.48-20.94,34.63-.75.49-1.47,1-2.15,1.44-1.06,7-2.23,15.59,3.35,20.3a6.9,6.9,0,0,1,2.54,6.28c3.24-2.74,9-2.9,11.54,2.07.89,1.78,2.49,6.2,4.88,6.57s7.54-2.7,9.66-3.69a40.61,40.61,0,0,0,13.72-10.53c5.89-6.64,8.78-14.49,18.35-16.45a6.74,6.74,0,0,1,6.91,3,28.09,28.09,0,0,0,5.43-9.16C185.31,266.46,184.55,261.43,173.4,250.2Z"/><path class="cls-3" d="M164.11,257.29c-.83-.72,0,0,0,0-3.42-3.39-6.07-9.91-1.1-12.57,15.94-8.54,23.05-24.19,31.37-38.56,2.59-4.48,6.33-5.09,9.92-2.65h0c3.6,2.45,4.6,6.47,1.72,10.72-9.24,13.61-23.45,26.05-28.09,43.22C176.48,262.8,167.54,260.67,164.11,257.29Z"/><path class="cls-3" d="M175.48,262.7h0c-2.84-3.52-4.87-9.54-.42-10.83,14.28-4.13,21.17-16,29.05-26.49,2.46-3.29,5.75-3.08,8.78-.32h0c3,2.76,3.73,6.35,1,9.37-8.66,9.71-21.61,17.47-26.4,31.07C186,269.74,178.31,266.22,175.48,262.7Z"/><path class="cls-3" d="M155.66,244h0c-3.6-2.92-6.94-8.52-2.75-10.77,13.44-7.22,17.8-20.57,23.43-32.83,1.76-3.82,5.1-4.32,8.74-2.21h0c3.63,2.12,5.11,5.57,3.06,9.18-6.59,11.61-17.91,22.18-19.79,36.84C167.77,248.82,159.27,247,155.66,244Z"/><path class="cls-3" d="M139.31,250.79c-.74.09-1.2-.35,0,0-3.22.38-13.35-.64-10.86-4.61,8-12.73,15.24-24.58,21.45-37.63,1.93-4.07,5.2-3.42,8.39-2.32h0c3.19,1.1,5.4,3.49,3.07,6.79-7.45,10.6-10.84,15.32-5,28.16C158.17,245.18,142.52,250.41,139.31,250.79Z"/><path class="cls-3" d="M173.12,280.91c0,.33-.05.25,0,0-3.59-1.44-4.31-4.33-2.57-7.93s4.59-8.84,6.5-12.36,4.81-5.09,8.2-3.09c.29-.24.21-.19,0,0,3.39,2,3.42,5.28,1.93,8.75a109.9,109.9,0,0,1-5.87,11.29C179.35,280.86,176.71,282.35,173.12,280.91Z"/><path class="cls-4" d="M134.42,330.22c-13.84-1.24-34-17-39.86-29.85-2.61-5.79-.42-9.49,3.89-12.14h0c4.3-2.66,9.36,0,11.47,3.9,4.69,8.62,15.44,20.42,25.7,20.69,4.62.12,8.45,4.58,8.12,8.56h0C143.4,325.36,140.65,330.77,134.42,330.22Z"/><path class="cls-5" d="M123.37,325.41c-6.67-4.11-10.78-11.52-18.71-17.72-15.76-12.33-14-16.13,1.39-25.7,13.87-8.62,14-22.86,21.5-33.48,8.38-11.78,13.86-14.13,27.2-9.58,6.71,2.29,14.12,5.62,19.48,11.32,10.65,11.35,11.27,16.31,4.8,33.6-5.84,15.59-26.69,20.71-29.4,33.18C146.62,330.85,136.63,333.6,123.37,325.41Z"/><path class="cls-5" d="M164.91,257h0c-3.28-3.42-5.71-9.91-.75-12.39,15.89-8,23.31-23.16,31.86-37.07,2.67-4.34,6.36-4.84,9.83-2.34h0c3.47,2.5,4.35,6.49,1.41,10.58-9.45,13.14-23.76,25-28.78,41.75C176.92,262.73,168.18,260.4,164.91,257Z"/><path class="cls-5" d="M175.93,262.6h0c-2.7-3.53-4.53-9.5-.12-10.65,14.15-3.68,21.24-15.13,29.27-25.28,2.5-3.16,5.73-2.87,8.64-.08h0c2.91,2.8,3.5,6.35.77,9.25-8.77,9.32-21.71,16.6-26.79,29.83C186.12,269.8,178.63,266.14,175.93,262.6Z"/><path class="cls-5" d="M157,243.72h0c-3.47-3-6.59-8.56-2.42-10.66,13.4-6.74,18.05-19.75,23.92-31.65,1.83-3.71,5.12-4.12,8.64-1.94h0c3.52,2.17,4.88,5.6,2.77,9.11-6.79,11.23-18.2,21.32-20.44,35.69C168.72,248.75,160.42,246.68,157,243.72Z"/><path class="cls-5" d="M173.13,280.45c0,.32,0,.24,0,0-3.49-1.52-4.12-4.37-2.31-7.87s4.74-8.57,6.71-12,4.87-4.87,8.15-2.82c.29-.23.21-.18,0,0,3.28,2.06,3.22,5.28,1.66,8.66a108.48,108.48,0,0,1-6.08,10.94C179.26,280.56,176.62,282,173.13,280.45Z"/><path class="cls-3" d="M160.65,281.72c-.44-.9-.37-2.22,0,0-1.9-3.92-5.11-20.34.54-16.25,18.13,13.11,19.47,6.54,37.77,7.23,5.7.21,3.68,4.82,2.26,7.9.56-.1.46-.12,0,0-1.43,3.07-4.11,6.91-9.35,6.75-16.8-.54-22.91,14.06-31.93,14.71C157.13,302.27,162.55,285.65,160.65,281.72Z"/><path class="cls-5" d="M159.64,282.86c-.43-.91-.35-2.24,0,0-1.9-3.93-5-20.38.71-16.33,18.4,13,19.82,6.39,38.5,6.92,5.83.16,3.72,4.81,2.24,7.91.57-.11.47-.13,0,0-1.49,3.09-4.26,7-9.61,6.86-17.16-.39-23.53,14.33-32.74,15.06C155.86,303.51,161.55,286.78,159.64,282.86Z"/><rect class="cls-7" x="299.34" y="206.19" width="20.83" height="100.44" rx="10.19" transform="translate(-75.83 370.5) rotate(-56.1)"/><rect class="cls-8" x="300.58" y="206.47" width="19.87" height="100.92" rx="9.93" transform="translate(-75.92 371.36) rotate(-56.1)"/><rect class="cls-9" x="266.39" y="224.84" width="19.69" height="18.31" rx="9.16" transform="matrix(0.56, -0.83, 0.83, 0.56, -72.05, 332.76)"/><path d="M293.39,256.29a14.2,14.2,0,0,0,2.88-.75c7.75-3,11.43-13,9.94-14.49a3.34,3.34,0,0,1-.31-.29,36.63,36.63,0,0,1,3.8,2.41c2.17,1.48,4.28,3,4.28,3-.05,1.79-.44,7.54-4.79,11.55-.47.43-5.07,4.66-8.72,3.31a6.79,6.79,0,0,1-1.51-.9C296.63,258.58,294.74,257.25,293.39,256.29Z"/><rect class="cls-7" x="317.72" y="196.56" width="20.83" height="100.44" rx="10.19" transform="translate(-59.71 381.49) rotate(-56.1)"/><path d="M332.75,282.75a13.23,13.23,0,0,0,2.88-.74c7.75-3,11.43-13,9.94-14.49-.09-.09-.32-.27-.31-.3a37.5,37.5,0,0,1,3.8,2.42c2.18,1.47,4.28,3,4.28,3,0,1.78-.43,7.53-4.79,11.54-.47.43-5.07,4.67-8.72,3.32a7.26,7.26,0,0,1-1.51-.9C336,285.05,334.1,283.72,332.75,282.75Z"/><rect class="cls-7" x="301.18" y="226.33" width="20.83" height="100.44" rx="10.19" transform="matrix(0.56, -0.83, 0.83, 0.56, -91.74, 380.93)"/><rect class="cls-8" x="302.37" y="226.32" width="19.87" height="100.92" rx="9.93" transform="translate(-91.61 381.62) rotate(-56.1)"/><rect class="cls-9" x="268.18" y="244.69" width="19.69" height="18.31" rx="9.16" transform="translate(-87.74 343.03) rotate(-56.1)"/><path class="cls-10" d="M276.42,160.11l-28.8,16.35-29.79-28.67,26.37,23.6q-6-15.48-12-30.95L245.47,170q-.24-21.5-.49-43,1.38,21.75,2.77,43.5l13.45-21.68-12,23Z"/><path class="cls-11" d="M273.14,157.21l-26.45,19.92-33.24-24.6,29.19,20Q234.69,158,226.72,143.4l17,27.59q-3-21.28-6-42.57,4.17,21.39,8.35,42.78,5.28-11.61,10.55-23.23l-9,24.31Z"/><path d="M287.38,272.74a13.18,13.18,0,0,0,2.87-.74c7.76-3,11.44-13,9.95-14.49-.1-.09-.33-.27-.31-.3a38.74,38.74,0,0,1,3.8,2.42c2.17,1.47,4.28,3,4.28,3-.05,1.79-.44,7.53-4.8,11.54-.46.43-5.06,4.67-8.72,3.32a7.3,7.3,0,0,1-1.5-.9C290.62,275,288.73,273.71,287.38,272.74Z"/><path d="M325.41,298.56a13.37,13.37,0,0,0,2.88-.74c7.75-3,11.43-13,9.94-14.49-.09-.09-.33-.27-.31-.3a39.91,39.91,0,0,1,3.8,2.41c2.17,1.48,4.28,3,4.28,3-.05,1.78-.44,7.53-4.79,11.54-.47.43-5.07,4.67-8.73,3.31a6.6,6.6,0,0,1-1.5-.89C328.65,300.85,326.76,299.53,325.41,298.56Z"/><rect class="cls-8" x="318.61" y="196.79" width="19.87" height="100.92" rx="9.93" transform="translate(-59.92 382.04) rotate(-56.1)"/><rect class="cls-9" x="284.42" y="215.16" width="19.69" height="18.31" rx="9.16" transform="translate(-56.05 343.45) rotate(-56.1)"/><path d="M304,241.88a14.2,14.2,0,0,0,2.88-.75c7.75-3,11.43-13,9.94-14.49-.09-.09-.33-.27-.31-.3a38.74,38.74,0,0,1,3.8,2.42c2.17,1.48,4.28,3,4.28,3-.05,1.79-.44,7.54-4.79,11.55-.47.43-5.07,4.66-8.72,3.31a6.56,6.56,0,0,1-1.51-.9C307.26,244.17,305.37,242.84,304,241.88Z"/><path d="M344.22,269a13.37,13.37,0,0,0,2.88-.74c7.75-3,11.43-13,9.94-14.49-.09-.09-.32-.27-.31-.3a37.5,37.5,0,0,1,3.8,2.42c2.17,1.47,4.28,3,4.28,3-.05,1.79-.44,7.53-4.79,11.54-.47.43-5.07,4.67-8.72,3.32a7.26,7.26,0,0,1-1.51-.9C347.46,271.26,345.57,269.93,344.22,269Z"/><rect class="cls-7" x="319.2" y="217.07" width="20.83" height="100.44" rx="10.19" transform="translate(-76.08 391.8) rotate(-56.1)"/><rect class="cls-8" x="320.03" y="217.19" width="19.87" height="100.92" rx="9.93" transform="translate(-76.22 392.24) rotate(-56.1)"/><rect class="cls-9" x="285.84" y="235.56" width="19.69" height="18.31" rx="9.16" transform="translate(-72.35 353.65) rotate(-56.1)"/><path d="M303.34,262.18a14.42,14.42,0,0,0,3-.79c8.19-3.15,12.08-13.73,10.5-15.31-.09-.1-.34-.29-.32-.32a42.72,42.72,0,0,1,4,2.56c2.29,1.56,4.52,3.18,4.52,3.18-.05,1.89-.46,8-5.07,12.2-.49.46-5.36,4.93-9.22,3.5a7.51,7.51,0,0,1-1.59-.94C306.76,264.6,304.76,263.2,303.34,262.18Z"/><path d="M338,285.72a13.46,13.46,0,0,0,3.08-.79c8.3-3.2,12.22-14,10.61-15.66-.1-.1-.35-.29-.33-.32a41.24,41.24,0,0,1,4.08,2.63c2.34,1.61,4.61,3.28,4.61,3.28-.05,1.94-.44,8.16-5.1,12.49-.5.46-5.42,5-9.34,3.55a7.42,7.42,0,0,1-1.62-1C341.44,288.22,339.41,286.78,338,285.72Z"/><path class="cls-12" d="M278.37,253.71c-.25-.23-25.11-23.36-29.42-62.92a.51.51,0,0,0-.58-.46.47.47,0,0,0-.29.14,1.76,1.76,0,0,1,0,.4l-.07.48a2.75,2.75,0,0,1,0,.81c4.74,39.2,29.35,62.1,29.61,62.33a.53.53,0,0,0,.48.12.56.56,0,0,0,.25-.16A.52.52,0,0,0,278.37,253.71Z"/><path class="cls-12" d="M295.9,244.24c-.27-.12-26.86-12.56-46.69-53.47a.52.52,0,0,0-.94.46c20,41.28,46.93,53.84,47.2,54a.57.57,0,0,0,.34,0,.55.55,0,0,0,.35-.3A.52.52,0,0,0,295.9,244.24Z"/><path class="cls-12" d="M293.38,225.08a.62.62,0,0,1-.27,0c-.25-.07-25.9-7.15-44.36-33.89a.52.52,0,0,1,.13-.73.53.53,0,0,1,.73.14c18.24,26.42,43.52,33.4,43.77,33.47a.52.52,0,0,1,0,1Z"/><path class="cls-12" d="M276.24,233.86c-.19-.09-19.09-9-27.16-43.23a.52.52,0,0,0-.63-.38.48.48,0,0,0-.36.31,1.58,1.58,0,0,1,0,.31V191c8.2,34.63,27.52,43.74,27.72,43.83a.52.52,0,0,0,.69-.26A.52.52,0,0,0,276.24,233.86Z"/><path class="cls-12" d="M249.29,191.11a.65.65,0,0,1-.2,0,.54.54,0,0,1-.45-.59,30.29,30.29,0,0,0-1.9-13.78.51.51,0,0,1,.27-.68.53.53,0,0,1,.69.28,30.7,30.7,0,0,1,2,14.31A.53.53,0,0,1,249.29,191.11Z"/><path class="cls-12" d="M247.31,177.77a.52.52,0,1,0-1,.41A30.22,30.22,0,0,1,248.26,192a.52.52,0,0,0,.45.58.59.59,0,0,0,.19,0,.51.51,0,0,0,.39-.44A30.58,30.58,0,0,0,247.31,177.77Z"/><path class="cls-12" d="M249.79,191.77a.61.61,0,0,1-.19,0,.54.54,0,0,1-.46-.59,30.11,30.11,0,0,0-1.9-13.77.52.52,0,1,1,1-.41,30.73,30.73,0,0,1,2,14.32A.53.53,0,0,1,249.79,191.77Z"/><path class="cls-12" d="M247.06,176.76a.52.52,0,1,0-1,.41,30.32,30.32,0,0,1,2,13.22,2.58,2.58,0,0,1,0,.48l0,.34a.54.54,0,0,0,.41.32.62.62,0,0,0,.19,0,.53.53,0,0,0,.39-.44A30.7,30.7,0,0,0,247.06,176.76Z"/><path class="cls-13" d="M394.29,964.85C395.87,976,372.77,1012,364.81,1022c-3.07,3.84-9.47,3.13-13.57-.18-3.58-2.87-10.07-7.75-13.65-10-4.11-2.6-4.67-7.32-2-9.75,6.9-6.31,11.79-9.4,15.3-18.59,1.35-3.53,4-4,9.92-5.08,5.18-.95,14.68-11.09,19.31-16.44C385.43,955.8,393.68,960.58,394.29,964.85Z"/><path class="cls-13" d="M250.46,1050.51c-10.67,3.51-50.23-12.88-61.47-19-4.32-2.33-4.74-8.76-2.21-13.38,2.2-4,5.86-11.28,7.46-15.2,1.84-4.51,6.39-5.89,9.24-3.7,7.44,5.68,11.33,10,21,11.78,3.72.71,4.63,3.21,6.75,8.88,1.85,4.93,13.5,12.49,19.59,16.1C257.81,1040.19,254.57,1049.16,250.46,1050.51Z"/><rect class="cls-14" x="301.55" y="595.4" width="13.33" height="22.16" transform="translate(208.4 -66.46) rotate(18.5)"/><path class="cls-14" d="M311.13,574.78a3.43,3.43,0,0,1-.38.18c-2.27,1.11-3.25-.09-2.28-2.27A60.62,60.62,0,0,1,319,556.39c1.56-1.67,2.39-1.25,4-.77a.26.26,0,0,1,.14.11c.57,1.22.56,1.59-.39,3.09-2.55,4-6.91,9.25-8.63,13.83C313.49,574.35,312.39,573.93,311.13,574.78Z"/><path class="cls-14" d="M169.39,939.72a17.24,17.24,0,0,1-6.43,1c-5.63-.49-8.89-3.79-8.63-9.73a116.06,116.06,0,0,1,2-13.93A14.18,14.18,0,0,1,165,906.18c1.55-.66,2.66-.23,4.21.55,4.54,2.3,7.53,5.88,7.32,11.45-.14,3.68.46,8.54.65,12.06C177.44,935.58,174,937.94,169.39,939.72Z"/><path class="cls-14" d="M315.18,605.59c-.79,1.44-7.44,2.45-9.56.27-6.21-6.4,1.26-5.17-2.85-14.07-2.71-5.86,5.17-19.38,8.47-22.06,5-4.08,5.76-.34,10,1,1.44.46,3.87,2.74,5.17,4,3.82,3.75,4.67,7.82,1.9,12.6-1.82,3.14-5.15,8-7,10.52C318.55,601.69,317.47,601.37,315.18,605.59Z"/><rect class="cls-14" x="160.05" y="891.76" width="12.82" height="24.99"/><path d="M352.36,988.6a132.68,132.68,0,0,1-7.77,13c-6.41,9.27-9.06,10.13-10.49,10.33-5,.72-9.48-4.25-11.46-6.48-34-38.3-39.3-46.42-39.3-46.42C279.06,952.5,267.93,935.25,254,911q-1.61-2.79-3.13-5.5c2.31,26.39-.18,55.82-.67,77.94l-.11-.08c-.38,14.25-2.31,28.07-5.27,31.76-1.8,2.25-7.76,5.73-12.06,4.55-14.43-3.94-30.93-6-44.29-13.51-4-2.23-6-2.39-2.6-9.2,5-10.06,11.84-19.35,18.75-28.56h-.4c24.06-29,26.53-60.08,27.26-95.41l-1.9.14c-13.58,1-24.67,3.18-22.91-11.91,2.8-24.18-2.68-36.91-10.15-51.93h0c-2.69-4.27-4.37-7.47-9.69-5.91-2.19,1-4.54,3.13-7.28,7.28-9.16,18.29-3.28,65.13-1.09,85.56.37,3.54-2.27,7.69-6.79,7.08-3.29-.45-8.46.2-11.68-.47-4.44-.9-7.36-.44-8-6.7-3.63-36-4.46-66.51,8.41-100.69,4.71-17.15,32.71-57,40.17-55.23,0,0,0,.08,0,.12,10.47-6.39,23.68-8.55,36.44-16.23,37-27,38-60.76,52.13-109.55,1.68-5.81,4.15-3.94,8.94-3.85,4.08.07,19.06.74,16,10.2-27.8,85.76-48,127.46-37.42,210q.92,5.31,2.14,10.77C282.27,857,287,866.3,270,868.17c-5.33.59-9.68,1.16-13.54,1.69.7,1.69,1.52,3.66,2.4,5.71a181.46,181.46,0,0,0,38.73,56.52c13.27,12.22,27.88,21,37.66,24.81,14.19,5.46,19.46,6.26,19.46,6.26,5.47.83,7.86.43,9,2.27C365.65,968.47,361.13,972.76,352.36,988.6Z"/><path class="cls-15" d="M292.49,812c.18.53.45,1.84-.12,2-6,1.71-7.46,4.88-14.11,2.62-27.39-9.29-32.93-37.24-47.76-58.13-3.6-5.07-11.27-7.84-2.91-11.78a2.6,2.6,0,0,1,2-.24,44,44,0,0,1,13.28,10.22c13,15.46,20.54,38.42,41.61,46.52C289.63,805.12,290.59,806.34,292.49,812Z"/><path class="cls-16" d="M243.31,728.35c-4.52,9-5.76-4.35-7.13-12.23-.13.24-.27.47-.41.7-.79,1.28-1.54,2.57-2.3,3.87l-.57,1.37a.56.56,0,0,1-.43.33,15.89,15.89,0,0,1-5.22,5.55,34.5,34.5,0,0,1-3.5,3.72c-7.72,1.8-15.36,1.58-23.22,2.31,5.24,5.66,22.67,10.92,11,10.25.18,7.16,19,5.65,23.23,4.6C238,746.68,247,729,243.31,728.35Z"/><path class="cls-15" d="M242.91,727.36c-4.28,8.48-5.61-3-6.9-10.93l-.24.39c-.79,1.28-1.54,2.57-2.3,3.87l-.57,1.37a.56.56,0,0,1-.43.33c-1.69,2.74-3.74,5.15-6.85,6.36a.4.4,0,0,1-.32,0c-.58.61-1.22,1.26-2,1.94-7.71,1.79-15.36,1.58-23.22,2.3,5.25,5.66,22.67,10.93,11,10.26.18,7.16,19,5.64,23.23,4.59C237.59,745.69,246.6,728,242.91,727.36Z"/><ellipse class="cls-17" cx="108.76" cy="608.01" rx="12.66" ry="40.88" transform="translate(-445.03 334.48) rotate(-53.57)"/><path class="cls-14" d="M274.81,576.87a101.87,101.87,0,0,0,10.71-42.56c2-60.19-42.07-90.08-103.74-97-28.94-3.24-52.06,2.44-69.16,15.46a4.71,4.71,0,0,0,.23,1.23l.06,0a6.15,6.15,0,0,1,2.89,3.06,3.44,3.44,0,0,1-2.82,5.1,3.27,3.27,0,0,1-1.59,2.28,3.48,3.48,0,0,1-4.73-1.24,21.14,21.14,0,0,1-1.45-4c-14.94,14.9-24.11,36.61-27.32,63.67-2.52,21.16,3.31,40.49,14.2,56.8.43.73.88,1.46,1.34,2.17-9.08,1-15.06,7.94-13,17.51,2.18,10.29,6.33,13.11,18.4,15.34,7.1,1.31,12.68-.32,15.51-4.47,8.38,11.33,16.27,23.62,20.65,38.69a46.55,46.55,0,0,0,4.76,10.84h0l.73,1.6c.82,1.76,1.56,3.24,1.94,3.89h0c8.06,17.77,25.74,31,45.49,36.78,8.34,17.15,10.93,17.72,8.46,33.93,3.3,0,6.61,0,9.91-.21,5.76-.34,11.94-1.08,17.08-3.86s9.27-6.92,13.18-11.07c-3.14-4.42-4.07-8.59-1.73-19.6,30.49-8.76,50.24-30.12,46.31-64.58a71.88,71.88,0,0,0-2.57-12.53c-.63-3.33-1.4-6.57-2.24-9.59-1.36-10.67-6.48-24-1.5-37.7C274.79,576.89,274.8,576.88,274.81,576.87Z"/><path class="cls-18" d="M230.2,598.49c-.46,19-6.59,26.42-25.81,27.12s-29-12.24-25.7-32.61,7.55-22.67,26-22.55S230.66,579.53,230.2,598.49Z"/><path class="cls-17" d="M219.39,542.8c-.51,5.53-22.24,3-26.1,3.39s-25.52,2-25.45-3.64,22.1-7.14,26.42-7.51S219.9,537.28,219.39,542.8Z"/><path class="cls-17" d="M285.56,524.23c-.05-.84-.07-1.68-.09-2.52a4.08,4.08,0,0,1-.09-.69c0-.21,0-.41,0-.62s0-.17,0-.25a5.77,5.77,0,0,1,0-1.08,3.08,3.08,0,0,1-.11-.74v0a2.86,2.86,0,0,1-.1-.83v-.05a2.43,2.43,0,0,1,0-.27,5.53,5.53,0,0,1-.12-.91,2.43,2.43,0,0,1,0-.27.9.9,0,0,0,0-.16c0-.11-.06-.23-.1-.34a3.35,3.35,0,0,1-.15-.74c-4.58,1.59-8.7,3.49-10.25,4.63-3.92,2.89-21.53,16.07-18.07,21.09s20.3-8.89,23.41-11.31A50.77,50.77,0,0,1,285.7,526c0-.4-.05-.8-.07-1.2A4.86,4.86,0,0,1,285.56,524.23Z"/><path class="cls-19" d="M228.48,598.5c-.43,17.6-6.11,24.53-24,25.18s-27-11.36-23.86-30.27,7-21,24.16-20.93S228.91,580.9,228.48,598.5Z"/><path class="cls-20" d="M253.83,654.2c6,2.64,3.95,11.46-1.37,15s-19.1,3.2-20.88-2.73,4.63-6.07,8.46-8S247.87,651.55,253.83,654.2Z"/><path class="cls-21" d="M256,621.3c4.6,8,1,13.66-11,14.39s-16.39-.39-13.12-9.46,1.57-12.28,5.68-16.92S251.38,613.35,256,621.3Z"/><path class="cls-14" d="M254.24,620c4.28,7.41.9,12.72-10.26,13.4s-15.27-.36-12.22-8.8,1.46-11.44,5.29-15.76S250,612.56,254.24,620Z"/><path class="cls-18" d="M273.44,597.23c-.19-1.08-.3-2.16-.42-3.25a2.26,2.26,0,0,1,0-.58,10.18,10.18,0,0,1-.07-1.35,76.54,76.54,0,0,1,0-5.34h0l0,.42c0-.19,0-.39,0-.59v-.3c0-.15,0-.28,0-.42a.81.81,0,0,0,0-.16,34.33,34.33,0,0,1,.7-5.29,7,7,0,0,1,.2-.91,7.69,7.69,0,0,1,.34-.91,26.18,26.18,0,0,1,1.06-3.13,5,5,0,0,1,.77-1.34l.09-.2a3.57,3.57,0,0,1,.49-1,9.16,9.16,0,0,1,.92-2,4,4,0,0,1,.15-.45,4.34,4.34,0,0,1,.28-.62c-3.78-6.42-9.19-8.29-17.15-5.6-10.26,3.46-12.11,5.67-9.65,18.8s10.64,19.18,21.14,15.08l1.15-.48C273.46,597.43,273.45,597.33,273.44,597.23Z"/><path class="cls-19" d="M261.15,564.79c-9.86,3.32-11.63,5.45-9.27,18.07s10.22,18.43,20.31,14.49c.39-.15.75-.31,1.11-.46a2.89,2.89,0,0,1,0-.29c-.18-1-.29-2.08-.4-3.12a2.1,2.1,0,0,1,0-.56,8,8,0,0,1-.07-1.3,70.64,70.64,0,0,1,0-5.13h0l-.05.41c0-.19,0-.38.05-.57V586c0-.14,0-.27,0-.4a.76.76,0,0,1,0-.15,31.79,31.79,0,0,1,.67-5.09c.05-.29.11-.58.19-.87a6.14,6.14,0,0,1,.33-.88,26.59,26.59,0,0,1,1-3,4.91,4.91,0,0,1,.75-1.29,1.54,1.54,0,0,1,.08-.19,4,4,0,0,1,.47-1,8.92,8.92,0,0,1,.89-2c0-.14.09-.29.14-.44a5.14,5.14,0,0,1,.27-.58C274,564,268.8,562.21,261.15,564.79Z"/><path d="M204.28,562.25c-16.19,0-29.52,4-31.22,9.11l.09-.07a3.55,3.55,0,0,1,4.73,1.24c-.3-.43,0,0,.2.17a1.64,1.64,0,0,0,.29.2,11.31,11.31,0,0,0,1.15.59l.41.17.77.3c.5.2,1,.41,1.5.64a2.91,2.91,0,0,1,1,.54l.14.12a4.12,4.12,0,0,1,.28.31,1.89,1.89,0,0,1,.2.27c.06.1.13.21.18.31a1.76,1.76,0,0,1,.09.2,3.59,3.59,0,0,1,.3,1.37,3.92,3.92,0,0,1-.34,2.52v0a78.4,78.4,0,0,0,20.26,2.42,79.6,79.6,0,0,0,20-2.32l-.11-.21c-.24-.34-.46-.69-.7-1a3.75,3.75,0,0,1-.4-.66c-1.74-1.92-.93-5.89,2.44-5.89a3.12,3.12,0,0,1,3,1.87l.07.07a15.3,15.3,0,0,1,1.14,1.54,3.23,3.23,0,0,0,.37.37,2.78,2.78,0,0,1,.86,1.47c3-1.57,4.8-3.43,4.8-5.43C235.7,566.83,221.63,562.25,204.28,562.25Z"/><path d="M267.85,562.92l-.13,0c-3.69-.47-3.78-6.09-.26-6.8l.26-.08a10.14,10.14,0,0,1-.12-2.28,4.75,4.75,0,0,1,.19-.94c-5.89-1.62-16.9-.33-28.75,3.79-12.95,4.5-23,11-25.76,16.19,2.46.74,4.73,2.4,7.26,2.82,2.9.48,6.32-.46,9.25-.66,5.66-.38,10.77-3.06,16.09-4.78l.25-.07a3.92,3.92,0,0,1,.49-.13,3.35,3.35,0,0,1,.85-.11,3.29,3.29,0,0,1,3.33,3.7c0,.13,0,.27,0,.41,7.88-3.25,14.26-7.16,18-10.8A3.49,3.49,0,0,1,267.85,562.92Z"/><path class="cls-19" d="M277.72,570.7a3.63,3.63,0,0,0-.58,1.32.82.82,0,0,0-.11.17.72.72,0,0,0-.09.2l0,.06a3.87,3.87,0,0,0-.43,1,2.13,2.13,0,0,0-.07.27c-.15.28-.3.57-.44.87,0,0,0,0,0,0v0a3,3,0,0,0-.37,1,3.86,3.86,0,0,0-.75,1.4,3.1,3.1,0,0,0-.1.53,13,13,0,0,0-.52,1.21,3.33,3.33,0,0,0-.12.69.94.94,0,0,1-.06.15,4.57,4.57,0,0,0-.16.82c0,.08,0,.13,0,.19s0,.13-.08.26a.43.43,0,0,1,0,.11,3.32,3.32,0,0,0-.35.82c0,.31-.08.61-.13.92a4.71,4.71,0,0,0,.05.54.45.45,0,0,1,0,.11,9.41,9.41,0,0,0-.11,1.18,1.51,1.51,0,0,0,0,.3,1.24,1.24,0,0,0,0,.27v-.24s0,.1-.05.28a11.15,11.15,0,0,0-.22,2.59s0,.06,0,.09l0,.21c0,.29,0,.59-.08.88a2.26,2.26,0,0,0,.09.84c0,.62,0,1.24,0,1.85a.77.77,0,0,0,0,.15v.07a2.81,2.81,0,0,0,.06.65,1,1,0,0,0,0,.18,3.37,3.37,0,0,0,.06.7.49.49,0,0,0,0,.12c0,.2,0,.4,0,.6a2.55,2.55,0,0,0,.07.67,1.76,1.76,0,0,0,0,.23c0,.38.1.71.16,1.06l.12.89a4.18,4.18,0,0,1-2,.54H271a4.16,4.16,0,0,1-3-7.11,4.1,4.1,0,0,1,2.34-1.18,4.15,4.15,0,0,1-.36-6.2,4.2,4.2,0,0,1,.93-.7,4.14,4.14,0,0,1,.07-6.69,4.17,4.17,0,0,1,2.43-7.55h.38A4.18,4.18,0,0,1,277.72,570.7Z"/><ellipse class="cls-14" cx="242.11" cy="564.71" rx="31.42" ry="10.22" transform="translate(-171.93 110.74) rotate(-19.16)"/><ellipse class="cls-14" cx="203.62" cy="571.01" rx="31.42" ry="10.22"/><path class="cls-18" d="M244.33,688.79c1.11,13.45-21,16.37-30.63,16.72s-31.43.36-33.16-13S200.3,674.43,210.29,674,243.23,675.33,244.33,688.79Z"/><path class="cls-14" d="M250,688.07c.29,13.58-28.72,16.35-38.23,16.53s-38.45-1.46-38.7-15,28.55-16.33,38.08-16.51S249.68,674.5,250,688.07Z"/><path class="cls-17" d="M253,655c5.47,2.43,3.63,10.52-1.26,13.77s-17.51,2.93-19.14-2.51,4.24-5.56,7.76-7.32S247.48,652.55,253,655Z"/><path class="cls-17" d="M268.69,494.21c-32.57,23.59-23.72,3.24-64.13,24.93-27.3,14.65-56.49,4.13-75.3-17.45,2.05,7.57,3.19,14.52,3.05,19.68-.4,14.87-8.33,55.64-37.14,58.42S61.55,530,65.27,511.26C68.94,492.68,98,445,110.15,459.8c-1.09-37.31,87.84-26.84,112-28.91C247.17,428.73,301.27,470.62,268.69,494.21Z"/><path class="cls-22" d="M105.93,604.06c7.86,5.07-5.48,7.73-11.15,5.21s-11.12-9.37-9.21-14.75,5.9-9.25,10.43-4.5S98.07,599,105.93,604.06Z"/><path class="cls-14" d="M104.89,603.84c7.21,4.66-5,7.1-10.23,4.79s-10.19-8.6-8.44-13.54,5.4-8.48,9.57-4.13S97.68,599.19,104.89,603.84Z"/><path class="cls-22" d="M103.66,603.73c6.16,4-4.29,6-8.73,4.08s-8.71-7.34-7.21-11.56,4.62-7.24,8.17-3.52S97.51,599.75,103.66,603.73Z"/><path class="cls-14" d="M102.3,603.51c5,3.22-3.47,4.91-7.08,3.32s-7-6-5.84-9.37,3.74-5.87,6.62-2.86S97.31,600.3,102.3,603.51Z"/><path class="cls-23" d="M253.65,657.4c5.1,1.08,2.54,6.56-2.52,9.15s-17.34,3.58-18.41.16,4.65-4,8.25-5.53S248.56,656.33,253.65,657.4Z"/><path class="cls-17" d="M133.12,540.09c-3.74,24.48-1.22,54-27.93,44.2s-28,30.63-35.9-16.92-6.9-37.4,29.23-63S136.86,515.61,133.12,540.09Z"/><path class="cls-24" d="M128.38,510.13a14.9,14.9,0,0,0-1.93,1.52c-9,8.54-22,30.8-12.82,41.16.36.41,5.45,9,5.89,11.27S113,554,112.68,553.47c-9-12,4.74-34.21,14.9-43A3.3,3.3,0,0,1,128.38,510.13Z"/><path class="cls-24" d="M89.08,566.56c.83.93,6,10.56,6.06,13s-6.88-10.88-7.64-12c-19.13-26.94-2.89-72.27,22.43-90.7a12.14,12.14,0,0,1,1.84-1,49,49,0,0,0-3.92,3C86.41,496.78,68.2,543.07,89.08,566.56Z"/><path class="cls-24" d="M105.33,577.81c.77,4.07-11.48-17.92-12.11-18.77-15.86-21.19,8.4-60.53,26.37-76a5.85,5.85,0,0,1,1.4-.69,28.58,28.58,0,0,0-3.41,2.7c-16,15.1-38.94,54.5-22.68,72.82C95.55,558.6,104.55,573.74,105.33,577.81Z"/><path class="cls-24" d="M110.58,572c.6,3.12-8.81-13.76-9.29-14.41-12.18-16.27,6.44-46.49,20.25-58.37a4.4,4.4,0,0,1,1.07-.53,20.47,20.47,0,0,0-2.61,2.07c-12.27,11.59-29.91,41.86-17.42,55.93C103.08,557.26,110,568.89,110.58,572Z"/><path class="cls-24" d="M87.4,575.2c1.06,4-9.85-14.55-10.53-15.67C59.76,531.3,86,475.32,104.81,463.61a12.6,12.6,0,0,1,1.51-.71c-1.46.9-3.25,2.4-3.74,2.76-16.54,12.15-40.87,65-24.52,92C78.71,558.76,86.35,571.21,87.4,575.2Z"/><path class="cls-24" d="M107.65,462.33c-.3.14-.8.34-1.31.56a5.4,5.4,0,0,1,1.28-.64C108.09,462.11,108,462.18,107.65,462.33Z"/><path class="cls-24" d="M121,453a15.21,15.21,0,0,0,2-1.42c9.48-8,23.64-29.56,15-40.4-.34-.43-5-9.25-5.27-11.57s5.92,10.47,6.26,11c8.29,12.44-6.6,33.9-17.21,42.08A3.45,3.45,0,0,1,121,453Z"/><path class="cls-24" d="M163.29,398.73c-.78-1-5.43-10.87-5.35-13.34s6.29,11.24,7,12.35c17.64,27.93-1,72.31-27.31,89.35a12.31,12.31,0,0,1-1.89.87c1.3-.73,3.39-2.24,4.08-2.75C162.17,468.55,182.86,423.32,163.29,398.73Z"/><path class="cls-24" d="M147.67,386.62c-.54-4.1,10.5,18.52,11.08,19.39,14.68,22-11.67,60-30.46,74.47a5.71,5.71,0,0,1-1.43.6,27.41,27.41,0,0,0,3.55-2.51c16.77-14.2,41.84-52.3,26.6-71.48C156.4,406.33,148.23,390.72,147.67,386.62Z"/><path class="cls-24" d="M142.11,392.12c-.42-3.15,8,14.22,8.5,14.9,11.29,16.91-9,46.07-23.39,57.18a4.44,4.44,0,0,1-1.09.47,20.49,20.49,0,0,0,2.72-1.92c12.88-10.92,32.13-40.18,20.42-54.9C148.8,407.26,142.53,395.27,142.11,392.12Z"/><path class="cls-24" d="M165.43,390.2c-.84-4,9,15.06,9.67,16.22,15.56,29.11-13.7,83.58-33.1,94.26a15.85,15.85,0,0,1-1.54.62c1.5-.82,3.37-2.22,3.88-2.55,17.17-11.24,44.34-62.71,29.48-90.55C173.23,407.08,166.27,394.23,165.43,390.2Z"/><path class="cls-24" d="M139.09,501.8l1.34-.49a5.46,5.46,0,0,1-1.31.57C138.65,502,138.74,501.94,139.09,501.8Z"/><path class="cls-24" d="M259.28,432.92c-4.76,10.38-21.76,18.64-31.69,20.6a14.78,14.78,0,0,1-2.44.25,3.13,3.13,0,0,0,.88.1c10.74-1.6,28.17-9.44,33.77-20.29A7.91,7.91,0,0,1,259.28,432.92Z"/><path class="cls-24" d="M275.11,463.77l0-.1c-13.16,14.63-33.26,25.33-49.22,27.44-.85.11-3.41.41-4.9.42a12.92,12.92,0,0,0,2.07.16c18.3-1.22,38.88-11.91,52.43-27.17A7.41,7.41,0,0,1,275.11,463.77Z"/><path class="cls-24" d="M269.38,455.42l-.19-.21c-12.63,13.06-34.39,22.8-48.3,25.53a26.76,26.76,0,0,1-4.32.47,5.55,5.55,0,0,0,1.54.16c15.29-2.27,38.22-11.71,51.77-25.3A3.42,3.42,0,0,1,269.38,455.42Z"/><path class="cls-24" d="M262.57,448.27c-9.86,9.16-25.27,15.91-35.34,17.89a20.49,20.49,0,0,1-3.31.36,4.7,4.7,0,0,0,1.18.12c11.1-1.65,27.44-8.2,38-17.73A4,4,0,0,1,262.57,448.27Z"/><path class="cls-24" d="M278.42,472.18a2.61,2.61,0,0,1-.06-.27c-16.2,18.36-41.73,32.29-55.13,33.24-.61,0-2.92.36-4.63.34a13.16,13.16,0,0,0,1.65.2c14.24.08,40.87-13.68,58.22-32.29A3.84,3.84,0,0,1,278.42,472.18Z"/><path class="cls-24" d="M217.16,505.25l1.4.23a5,5,0,0,1-1.41-.14C216.68,505.21,216.79,505.2,217.16,505.25Z"/><path class="cls-24" d="M164.73,464.18a15,15,0,0,0,2.46,0c12.39-.87,36.54-9.87,36-23.71,0-.54,1.47-10.39,2.59-12.44s-1.41,11.94-1.44,12.54c-.65,14.94-25.35,23.45-38.75,23.77A3,3,0,0,1,164.73,464.18Z"/><path class="cls-24" d="M230.89,445.44c0-1.25,2.05-12,3.57-13.92s-1.57,12.78-1.66,14.09c-2.28,32.95-43.57,57.72-74.84,55.93a11.78,11.78,0,0,1-2-.41c1.47.18,4,.19,4.91.19C188.73,501.11,232.15,476.84,230.89,445.44Z"/><path class="cls-24" d="M225.46,426.44c2-3.63-2.49,21.14-2.54,22.19-1.16,26.44-44.85,41.5-68.57,42.07a5.26,5.26,0,0,1-1.51-.36,27.48,27.48,0,0,0,4.34.08c21.93-1.55,64.66-17.47,63.7-41.95C220.84,447.5,223.48,430.08,225.46,426.44Z"/><path class="cls-24" d="M217.72,427.59c1.51-2.79-1.92,16.23-1.95,17-.89,20.31-34.46,31.88-52.67,32.31a4.08,4.08,0,0,1-1.15-.27,20.23,20.23,0,0,0,3.32.06c16.85-1.19,49.67-13.42,48.93-32.22C214.17,443.76,216.19,430.38,217.72,427.59Z"/><path class="cls-24" d="M237.66,439.82c1.71-3.75-1.6,17.5-1.78,18.8-4.66,32.68-60.45,59.33-82.41,56.48a14,14,0,0,1-1.61-.41c1.69.23,4,.2,4.64.24C177,516,229.32,490.54,233.79,459.3,234,458.05,236,443.57,237.66,439.82Z"/><path class="cls-24" d="M150.46,514.28l1.37.4a5.56,5.56,0,0,1-1.39-.31C150,514.18,150.1,514.19,150.46,514.28Z"/><rect class="cls-25" x="243.5" y="426.14" width="13.08" height="19.19"/><path class="cls-25" d="M246.58,398.42c5.71,24.88,8.65,26.46-8.5,39.26s-113.88,15.2-109-21.33,17.85-54.93,57.62-57.15S240.86,373.55,246.58,398.42Z"/><path class="cls-26" d="M250.49,415.33c-42.43,17.49-78.82,20.24-121.13,1a151.75,151.75,0,0,0-1.16,20.57,3.74,3.74,0,0,1,.76-.05c4.35.2,8.84.58,13.35,1.21a41.71,41.71,0,0,1,14.39,3.09c8.21,2.48,15.92,6.27,22.18,12a2.91,2.91,0,0,1,.53.65c3.23,1.93,6.44,3.43,8.52,6.39,21-1.91,41.8-5,64-4.75C252.65,441.66,252.57,428.92,250.49,415.33Z"/><path class="cls-27" d="M216.34,471c-16.25,0-30-8.64-43.28-17-5.58-3.5-10.85-6.81-16.28-9.51-16.27-8.1-40.87.25-41.12.33a6.88,6.88,0,0,1-8.76-4.46,7.15,7.15,0,0,1,4.33-9c1.22-.43,30.17-10.32,51.58.33,6,3,11.85,6.66,17.46,10.19,12.42,7.8,24.14,15.15,36.78,14.9,17.4-.38,23.26-5.67,28.43-10.33l.88-.8c5.12-4.57,9.92-12.46,10-15.25-2.45-3.05-8.33-6.27-11.58-7.64a7.17,7.17,0,0,1-3.81-9.25,6.86,6.86,0,0,1,9-3.92c1.26.53,12.49,5.34,17.8,12.73,8.23,11.47-6.49,28.86-12.3,34.06l-.84.75c-6.25,5.64-14.81,13.37-37.26,13.86Z"/><path class="cls-25" d="M244.6,417.73a3.1,3.1,0,0,1,1.29-.51,3,3,0,0,1,.86-.37,3.25,3.25,0,0,1,.43-.18,2.91,2.91,0,0,1,1-.41l.08,0a3.07,3.07,0,0,1,.87-.36,3,3,0,0,1,1.32-.45c-.75-4.2-2.2-9.54-3.91-17-5.72-24.87-20.12-41.44-59.88-39.22S134,379.81,129.09,416.29a3.11,3.11,0,0,1,.41-.11,8.83,8.83,0,0,1,6.05-4.78c6.21-1.51,11.59,3.39,14.93,8.22a28.85,28.85,0,0,1,10.75.85c.73.23,1.53.52,2.35.87a18.2,18.2,0,0,1,8.48-1.55,19.12,19.12,0,0,1,1.75-3.06,3.88,3.88,0,0,1,4.05-1.37c3-2.7,6.4-5.13,9.48-3.13a3.56,3.56,0,0,1,1.24,4.73c-.64,1.28-1.3,2.54-2,3.79a4,4,0,0,1,.82,1.05l.55.13a10.91,10.91,0,0,1,5.78-5.44,8.48,8.48,0,0,1,1.38-2.67,6.46,6.46,0,0,1,2.1-1.79c.44-2.36,3.59-4.22,5.89-2a15.28,15.28,0,0,1,2.3,2.82,19.76,19.76,0,0,1,4.33,3.07,28.63,28.63,0,0,1,4.08,4.84c.49.54,1,1.1,1.4,1.66.94,1.17,1.86,2.44,2.72,3.75a3.6,3.6,0,0,1,1.28-.35c3.66-.32,7.59-2,11.1-3.06,3.67-1.11,7.46-1.82,11.09-3a3.45,3.45,0,0,1,1-.19,4,4,0,0,1,1.12-1.06A3.06,3.06,0,0,1,244.6,417.73Z"/><path class="cls-26" d="M218.57,448.64a3,3,0,0,1,.23,1.48,5.7,5.7,0,0,1,.14.65,3.9,3.9,0,0,1,.75-.2l1.56-.2c1.35-.48,2.69-1,4-1.48a2.84,2.84,0,0,1,3,.42,32.91,32.91,0,0,0,3.64-.93c3.65-1.19,6.12-3.28,8.72-6,3.49-3.63,6.84-7.52,11.18-10a156.73,156.73,0,0,0-1.65-17,198.45,198.45,0,0,1-38,11.77c.73,4.18,1.61,8.33,2.58,12.46C216.22,442.55,217.31,445.63,218.57,448.64Z"/><path class="cls-28" d="M306,641.31c-14.47,8.56-32.69,19.27-48.6,23.65-5.45,1.51-7,1.3-8.77-1.56h0c-1.8-2.85-.18-5.6,3.86-9.3,11.79-10.79,31.08-19.87,46-27.13,5.11-2.48,8.91-.85,11,3.26h0C311.62,634.33,310.92,638.37,306,641.31Z"/><circle class="cls-29" cx="204.59" cy="600.46" r="12.46"/><path d="M211.6,600.68c-.13,2.36-1.48,5.19-4.2,5s-3.83-3.52-3.69-5.95,1.59-5.45,4.32-5S211.73,598.32,211.6,600.68Z"/><rect class="cls-30" x="208.41" y="592.9" width="3.6" height="3.6" rx="1.8"/><path class="cls-31" d="M274.39,579.57c.11-.59.24-1.17.36-1.76a8.53,8.53,0,0,1,.34-1.56l0-.06A9.56,9.56,0,1,0,273,587.66v0a3.83,3.83,0,0,1,.13-.74,4,4,0,0,1,.12-1.19s0-.05.06-.08a15,15,0,0,1,.55-2.81A23.86,23.86,0,0,1,274.39,579.57Z"/><path d="M270.91,580.4c.34,1.77-.14,4.12-2.2,4.48s-3.49-1.9-3.84-3.73.17-4.34,2.29-4.48S270.56,578.62,270.91,580.4Z"/><rect class="cls-30" x="267.39" y="574.84" width="2.75" height="2.75" rx="1.38" transform="translate(-131.59 82.28) rotate(-14.02)"/><path class="cls-32" d="M222.14,773.8a111.81,111.81,0,0,0-30-23.39c-4.4-2.29-3.08-2.94-3.3-7.07a46.65,46.65,0,0,1,.72-12.3c.85-3.76,2.74-4.86,6-3,8,4.63,14.57,3.62,23.38.93,3.57-1.09,3.55,1.73,4.84,7.37s2.32,23.15,2.78,29.12S225.88,777.81,222.14,773.8Z"/><path class="cls-32" d="M255.57,758.54c-2.43-12.49-2.88-24.24-1.11-35.13.72-4.43-.53-3.94-3.6-6.71a53.12,53.12,0,0,0-9.91-7.31c-3.39-1.82-5.31-1.23-5.69,2.15-.93,8.33-5.44,12.15-12.49,16.4-2.86,1.72-.67,3.5,3,7.95s16.58,16.24,20.94,20.33S256.55,763.62,255.57,758.54Z"/></g></svg>