<svg xmlns="http://www.w3.org/2000/svg" xmlns:xlink="http://www.w3.org/1999/xlink" width="1920" height="1080" viewBox="0 0 1920 1080"><defs><style>.cls-1{fill:#c3dbda;}.cls-2{fill:#dd9458;}.cls-3{fill:#cc8652;}.cls-4{fill:#424242;}.cls-5{fill:#383836;}.cls-6{fill:#c6ad93;}.cls-7{fill:#fcc490;}.cls-8{fill:#936134;}.cls-9{fill:#80bae5;}.cls-10{fill:#f9f9f9;}.cls-11,.cls-24{fill:#fff;}.cls-12{fill:#dbc5a9;}.cls-13{fill:#d6b896;}.cls-14{fill:#ffccd7;}.cls-15{fill:#f7f1eb;}.cls-16{fill:#2d2c2c;}.cls-17{fill:#231509;}.cls-18{fill:#e5c7a3;}.cls-19{fill:url(#Water_3);}.cls-20{fill:url(#Water_3-2);}.cls-21{fill:#514d4a;}.cls-22{fill:#635c57;}.cls-23{fill:#56524f;}.cls-24{opacity:0.85;}.cls-25{fill:#847d76;}.cls-26{fill:#dda45f;}.cls-27{fill:#845c30;}.cls-28{fill:#ffc2e2;}.cls-29{fill:#f2edce;}.cls-30{fill:#e2ddc3;}.cls-31{fill:#efbbd9;}.cls-32{fill:#473622;}.cls-33{fill:url(#Skintone_19);}.cls-34{fill:url(#Skintone_18);}.cls-35{fill:#938a80;}.cls-36{fill:url(#Yellow_Green_2);}.cls-37{fill:url(#Yellow_Green_2-2);}.cls-38{fill:#efebe8;}.cls-39{fill:#68533a;}.cls-40{fill:#6d6154;}.cls-41{fill:#6b5843;}.cls-42{fill:#492302;}.cls-43{fill:#fc4747;}.cls-44{fill:#ce2828;}.cls-45{fill:#efedb4;}.cls-46{fill:#323333;}.cls-47{fill:#282828;}.cls-48{opacity:0.65;}.cls-49{opacity:0.56;}.cls-50{fill:#d0e8f4;}.cls-51{fill:#6d5e5e;}.cls-52{fill:#493017;}.cls-53,.cls-56{fill:#5e5a5a;}.cls-54{fill:#939393;}.cls-55{fill:#a0a0a0;}.cls-56{opacity:0.19;}.cls-57{fill:#6d6b6b;}.cls-58{fill:#f9fc7e;}.cls-59{fill:#eddfdf;opacity:0.52;}.cls-60{fill:#045b0e;}.cls-61{fill:#417547;}.cls-62{fill:#768977;}.cls-63{fill:#f8fff9;}.cls-64{fill:#004708;}.cls-65{fill:#5e5e5e;opacity:0.55;}</style><linearGradient id="Water_3" x1="-170.36" y1="525.6" x2="-153.59" y2="525.6" gradientTransform="matrix(-1, 0, 0, 1, 1661.76, 0)" gradientUnits="userSpaceOnUse"><stop offset="0" stop-color="#a1d1dc"/><stop offset="0.5" stop-color="#6cbbcb"/><stop offset="1" stop-color="#00a6bb"/></linearGradient><linearGradient id="Water_3-2" x1="-104.04" y1="520.23" x2="-87.22" y2="520.23" gradientTransform="matrix(-0.19, -0.98, -0.98, 0.19, 2250.21, 328.11)" xlink:href="#Water_3"/><linearGradient id="Skintone_19" x1="1488.32" y1="529.79" x2="1505.78" y2="529.79" gradientTransform="matrix(-1, -0.05, -0.05, 1, 3067.66, 79.94)" gradientUnits="userSpaceOnUse"><stop offset="0" stop-color="#765736"/><stop offset="1" stop-color="#311b08"/></linearGradient><linearGradient id="Skintone_18" x1="1434.82" y1="534.05" x2="1452.27" y2="534.05" gradientTransform="matrix(-1, -0.05, -0.05, 1, 3067.66, 79.94)" gradientUnits="userSpaceOnUse"><stop offset="0" stop-color="#9f866f"/><stop offset="0.51" stop-color="#755635"/><stop offset="1" stop-color="#40211b"/></linearGradient><linearGradient id="Yellow_Green_2" x1="1105" y1="562.09" x2="1120.82" y2="562.09" gradientTransform="matrix(-1, 0.06, 0.06, 1, 2394.82, -73.69)" gradientUnits="userSpaceOnUse"><stop offset="0" stop-color="#dae5a7"/><stop offset="0.5" stop-color="#b8d26e"/><stop offset="1" stop-color="#7fb525"/></linearGradient><linearGradient id="Yellow_Green_2-2" x1="1145.78" y1="553.36" x2="1156.01" y2="553.36" xlink:href="#Yellow_Green_2"/></defs><g id="Layer_6" data-name="Layer 6"><rect class="cls-1" x="-85.21" y="620.02" width="2474.25" height="606.27" transform="translate(-118.41 171.22) rotate(-8.09)"/></g><g id="Layer_5" data-name="Layer 5"><path class="cls-2" d="M2027.09,671.59C1544.89,713,1060,751.9,575.5,780c-17.81,1-25.29-4.17-26.55-18.39-25.11-281.94-37.37-568.18-55.73-850.22-.93-14.22,5-19.93,23.16-20.67,494.29-20.35,970.29-51,1467.84-41.62,18.29.35,25.55,6.4,26,19.53,8.37,260.39,24.69,521.95,40.22,782.16C2051.2,663.86,2044.82,670.07,2027.09,671.59Z"/><path class="cls-3" d="M512.4-51.17c-16.25-1.72-32.54-2.93-48.93-3.18-24.57-.36-49.14.22-73.68,1.17-25.33,1-50.63,2.35-76,3.46L264.29,753.94c-.31,5.09,4.66,9.52,11,9.85L581.89,779.4c6.39.33,11.87-3.57,12.18-8.66L643.36-28.65C599.64-35.76,556.16-44.3,512.4-51.17Z"/><path class="cls-4" d="M365,777.78l186.16,3.58c10.59.21,19.51-5.49,19.81-12.66l4.4-104.7c.31-7.17-8.12-13.21-18.71-13.41L370.45,647c-10.6-.2-19.51,5.5-19.81,12.67l-4.41,104.7C345.93,771.54,354.35,777.57,365,777.78Z"/><path class="cls-2" d="M333.85-1.52c-.43-13.13-7.69-19.18-26-19.52-148.5-2.81-295.08-2-440.8,1,1.79,12.76,3.32,25.61,4.08,38.38,1.57,26.25-.8,52.72-3.55,78.81-2.57,24.36-6.09,48.62-8.41,73a265.53,265.53,0,0,0-.79,35.69c6.2,16.48,12.35,33,18.18,49.59,12.71,36.16,24,73,30.8,110.74,7.76,43.21,9.87,87.5,10.28,131.34.16,17.21,0,34.42-.35,51.62,3.65,26.9,7,53.81,10.33,80.65C-65,690-59.77,750.56-55.31,811.12q.9,12.14,1.75,24.27,202.4-16.49,404.3-33.89c17.73-1.53,24.11-7.73,23.33-20.86C358.53,520.44,342.21,258.88,333.85-1.52Z"/><path class="cls-5" d="M2076.68,668.37c-6.1-39.4-10.61-81.89-16-121.4-1.36-10-6.48-13.14-20.21-12.2C1546,568.55,1055,620.53,560.24,647.59c-13.74.75-17.38,4.92-16.56,14,3.25,35.76.79,73.26,6.62,108.94,1.48,9.06,6.81,12.56,20.57,11.63,495.73-33.43,992.57-74.15,1489.77-99.1C2074.44,682.37,2078.22,678.37,2076.68,668.37Z"/><path class="cls-5" d="M-55.31,811.12q1.06,14.37,2.06,28.74,214.85-14,429.27-24.62c13.74-.65,18.12-4.65,16.54-14.42-6.22-38.46-11.3-83.51-16.12-122-1.23-9.77-6.93-13-20.61-12.07C215.69,676.07,75.48,687-64.82,698.5-61.14,736-58.08,773.55-55.31,811.12Z"/><path d="M145.88,142.52H119v-8.26c0-3.86-.34-6.31-1-7.37a3.8,3.8,0,0,0-3.44-1.59,4.38,4.38,0,0,0-4,2.14c-.9,1.43-1.34,3.58-1.34,6.48q0,5.58,1.51,8.4t8.19,6.82q19.35,11.49,24.38,18.85t5,23.75q0,11.91-2.79,17.56t-10.77,9.47a42.74,42.74,0,0,1-18.59,3.82q-11.64,0-19.86-4.41T85.5,207q-2.55-6.83-2.54-19.35v-7.3h26.92v13.57c0,4.17.37,6.86,1.13,8.05s2.1,1.79,4,1.79a4.72,4.72,0,0,0,4.3-2.27q1.41-2.26,1.41-6.75,0-9.84-2.68-12.87T104.5,171.71q-10.8-7.16-14.32-10.4a24.16,24.16,0,0,1-5.81-8.95q-2.31-5.72-2.31-14.59,0-12.81,3.27-18.73a22,22,0,0,1,10.57-9.26q7.29-3.34,17.62-3.34,11.3,0,19.25,3.65t10.53,9.19q2.58,5.55,2.58,18.83Z"/><path d="M226.47,108.78l-16.63,50.33,18.21,61.14h-30l-11.74-47.78v47.78h-29V108.78h29v43.31l12.91-43.31Z"/><path d="M262,108.78V220.25H233V108.78Z"/><path d="M273.66,108.78h21.69q21,0,28.4,1.93T335,117a20.14,20.14,0,0,1,4.82,9.81q1,5.42,1,21.24v39q0,15-1.41,20.07a15.13,15.13,0,0,1-4.92,7.92,20.59,20.59,0,0,1-8.68,4q-5.16,1.14-15.56,1.14H273.66Zm29,19.07v73.33c4.17,0,6.75-.84,7.71-2.52s1.45-6.23,1.45-13.66V141.69a58,58,0,0,0-.49-9.71,4.6,4.6,0,0,0-2.2-3.13C308,128.19,305.82,127.85,302.65,127.85Z"/><path d="M351.6,108.78h48.33v22.31H380.58v21.13h18.11v21.21H380.58v24.51h21.28v22.31H351.6Z"/><path d="M501.55,149.81h-29V139.69q0-9.56-.82-12c-.55-1.6-1.86-2.41-3.93-2.41a3.63,3.63,0,0,0-3.64,2.07q-1,2.07-1,10.6v53.5q0,7.5,1,9.88a3.74,3.74,0,0,0,3.85,2.37,4.24,4.24,0,0,0,4.3-2.68q1.14-2.68,1.14-10.47V177.35h-5.85V160.42h33.94v59.83H483.33l-2.68-8a20.19,20.19,0,0,1-7.47,7.74,21,21,0,0,1-10.65,2.59A27.71,27.71,0,0,1,448.86,219a26.08,26.08,0,0,1-9.68-8.78,27.63,27.63,0,0,1-4.14-11,132.22,132.22,0,0,1-.82-17.24V148.92q0-16,1.72-23.2t9.88-13.26q8.16-6,21.1-6,12.74,0,21.14,5.23T499,124.1q2.55,7.2,2.55,20.9Z"/><path d="M579,174.05q0,16.8-.79,23.79A26.65,26.65,0,0,1,562,219.49a41.1,41.1,0,0,1-16.53,3.1,42,42,0,0,1-16.07-2.93,26.83,26.83,0,0,1-16.63-21.51q-.82-6.89-.82-24.1V155q0-16.8.79-23.79A26.6,26.6,0,0,1,529,109.54a40.92,40.92,0,0,1,16.52-3.1,42,42,0,0,1,16.08,2.93,26.8,26.8,0,0,1,16.63,21.51q.83,6.88.82,24.1Zm-29-36.63q0-7.77-.86-9.95a3.45,3.45,0,0,0-3.55-2.17,4,4,0,0,0-3.48,1.76c-.8,1.17-1.2,4.63-1.2,10.36v52.05q0,9.71.79,12c.53,1.51,1.76,2.27,3.69,2.27a3.56,3.56,0,0,0,3.78-2.61q.82-2.62.83-12.47Z"/><path d="M589.81,108.78H611.5q21,0,28.4,1.93T651.16,117a20,20,0,0,1,4.81,9.81q1,5.42,1,21.24v39q0,15-1.41,20.07a15.08,15.08,0,0,1-4.93,7.92,20.55,20.55,0,0,1-8.67,4q-5.16,1.14-15.56,1.14H589.81Zm29,19.07v73.33q6.26,0,7.71-2.52T628,185V141.69a58.45,58.45,0,0,0-.48-9.71,4.6,4.6,0,0,0-2.2-3.13C624.12,128.19,622,127.85,618.8,127.85Z"/><path d="M726.13,108.78v22.31H708.92v89.16h-29V131.09H662.79V108.78Z"/><path d="M762.48,108.78l-4.54,83.93H736.46l-4.55-83.93Zm-2.27,89.16v22.31h-26V197.94Z"/><path d="M800.55,108.78,796,192.71H774.53L770,108.78Zm-2.27,89.16v22.31h-26V197.94Z"/><path d="M85.42,356.74c-.1-3.18-.25-6.38-.44-9.58.84.09,1.75.18,2.73.26s2.1.11,3.33.11,2.35,0,3.34-.11,1.89-.17,2.73-.26c-.19,3.2-.34,6.4-.44,9.58s-.15,6.82-.15,10.91v10.07q0,6.13.15,10.91c.1,3.18.25,6.31.44,9.36a23.26,23.26,0,0,0-2.73-.14H87.71A23.26,23.26,0,0,0,85,398c.19-3.05.34-6.18.44-9.36s.15-6.82.15-10.91V367.65Q85.57,361.52,85.42,356.74Z"/><path d="M147.14,363.81a5.64,5.64,0,0,0-.08,1,6,6,0,0,0,.08.92c.05.32.09.63.14.93l-6.95-.15v6.14q0,7.26.15,13.32t.44,12.06a16.54,16.54,0,0,0-2.44-.14h-6.22a16.45,16.45,0,0,0-2.44.14q.3-6,.44-12.06t.15-13.32v-6.07l-5.18.08a7.5,7.5,0,0,0,.22-1.85,10.16,10.16,0,0,0-.22-2l5.18.22a72,72,0,0,1,1.85-8.36,25,25,0,0,1,2.93-6.66,12.49,12.49,0,0,1,11.28-6,16.14,16.14,0,0,1,3.11.37,19.49,19.49,0,0,0-.26,3.21c0,1.36,0,2.68,0,4V352l-.89.29a22.65,22.65,0,0,0-3.4-1.48,11.39,11.39,0,0,0-3.7-.66,6.31,6.31,0,0,0-3.29.7,2.66,2.66,0,0,0-1.15,2.48,13,13,0,0,0,1,4.36,36.33,36.33,0,0,0,2.48,5.26l6.95-.15C147.23,363.17,147.19,363.51,147.14,363.81Z"/><path d="M151.65,348.41a5.8,5.8,0,1,1,1.7,4.15A5.67,5.67,0,0,1,151.65,348.41Zm.89,30.42q0-4.51-.11-8.48c-.08-2.63-.24-5.29-.48-8,.69.1,1.5.18,2.44.26s2,.11,3.11.11a32.77,32.77,0,0,0,5.55-.37c-.25,2.66-.41,5.32-.49,8s-.11,5.47-.11,8.48v3c0,3,0,5.84.11,8.51s.24,5.23.49,7.69a16.36,16.36,0,0,0-2.41-.14h-6.25A17.37,17.37,0,0,0,152,398c.24-2.46.4-5,.48-7.69s.11-5.5.11-8.51Z"/><path d="M172.15,354.48q-.15-6.06-.45-12.28c.64.1,1.46.18,2.45.26s2,.11,3.1.11,2.12,0,3.11-.11,1.8-.16,2.44-.26c-.1,2.07-.18,4.17-.26,6.29s-.13,4.51-.18,7.18-.09,5.71-.11,9.13,0,7.52,0,12.25a12.08,12.08,0,0,0,0,1.33.3.3,0,0,0,.33.3c.2,0,.68-.38,1.44-1.15s1.75-1.86,3-3.29,2.62-3.15,4.22-5.14,3.37-4.23,5.29-6.7c.6.1,1.17.18,1.74.26a14.26,14.26,0,0,0,1.74.11,16.62,16.62,0,0,0,1.78-.11l2.37-.26q-1,1.11-2.85,3l-3.89,4c-1.33,1.36-2.59,2.65-3.77,3.89s-2.05,2.14-2.59,2.74c.19.29.63,1,1.29,2.07s1.47,2.38,2.41,3.88l3,4.81c1,1.7,2,3.33,2.92,4.89s1.71,2.91,2.41,4.07l1.33,2.25c-1-.1-2-.14-3-.14h-5.74a26,26,0,0,0-2.77.14,9.88,9.88,0,0,1-1.22-1.85c-.57-1-1.21-2.1-1.93-3.36l-2.22-4c-.76-1.38-1.49-2.65-2.18-3.81s-1.31-2.11-1.85-2.85-.91-1.11-1.11-1.11-.33.15-.41.44a18.68,18.68,0,0,0-.11,2.74v4.14c0,.65,0,1.43,0,2.37s.05,1.89.07,2.85.08,1.86.15,2.7a8.28,8.28,0,0,0,.26,1.7,23.83,23.83,0,0,0-2.66-.14h-5.33a23.88,23.88,0,0,0-2.67.14q.3-6,.45-12.06t.15-13.32V367.8Q172.3,360.56,172.15,354.48Z"/><path d="M248.59,363.81a5.69,5.69,0,0,0-.07,1,6,6,0,0,0,.07.92q.07.48.15.93l-7-.15v6.14q0,7.26.15,13.32t.44,12.06a16.45,16.45,0,0,0-2.44-.14h-6.21a16.59,16.59,0,0,0-2.45.14q.3-6,.45-12.06t.15-13.32v-6.07l-5.18.08a8,8,0,0,0,.22-1.85,11,11,0,0,0-.22-2l5.18.22a72,72,0,0,1,1.85-8.36,25,25,0,0,1,2.92-6.66,13.37,13.37,0,0,1,4.55-4.4,13.2,13.2,0,0,1,6.73-1.59,16,16,0,0,1,3.11.37,20.67,20.67,0,0,0-.26,3.21q0,2,0,4V352l-.89.29a22.79,22.79,0,0,0-3.41-1.48,11.35,11.35,0,0,0-3.7-.66,6.31,6.31,0,0,0-3.29.7,2.68,2.68,0,0,0-1.15,2.48,13.21,13.21,0,0,0,1,4.36,36.33,36.33,0,0,0,2.48,5.26l7-.15C248.69,363.17,248.64,363.51,248.59,363.81Z"/><path d="M253,366.62a23.87,23.87,0,0,1,6.7-3.85,20.34,20.34,0,0,1,7.14-1.33,21.06,21.06,0,0,1,5.44.66,11.8,11.8,0,0,1,4.29,2.11,9.59,9.59,0,0,1,2.82,3.74,14,14,0,0,1,1,5.55c0,3.16,0,6.08-.11,8.77s-.11,5.36-.11,8a11.67,11.67,0,0,0,.26,2.77,3.16,3.16,0,0,0,.78,1.52,2.44,2.44,0,0,0,1.37.67,11.41,11.41,0,0,0,2,.14v1.78a37.87,37.87,0,0,1-3.63,1.33,10.86,10.86,0,0,1-3.18.45,7,7,0,0,1-4.44-1.34,8.18,8.18,0,0,1-2.59-3.84,13.86,13.86,0,0,1-4,3.77A10.49,10.49,0,0,1,261,399a14,14,0,0,1-4.81-.74,8.61,8.61,0,0,1-3.29-2.11A8.35,8.35,0,0,1,251,393a11,11,0,0,1-.59-3.52,10.41,10.41,0,0,1,.78-4.21,8.28,8.28,0,0,1,2.22-3,12.72,12.72,0,0,1,3.44-2.11,28.85,28.85,0,0,1,4.51-1.44c2.07-.49,3.71-.93,4.92-1.3a11.83,11.83,0,0,0,2.7-1.11,2.64,2.64,0,0,0,1.15-1.22,4.51,4.51,0,0,0,.26-1.62,6.18,6.18,0,0,0-1.89-4.55,7.05,7.05,0,0,0-5.22-1.89,10.82,10.82,0,0,0-2.59.33,13,13,0,0,0-2.55.93,15.77,15.77,0,0,0-2.22,1.29,5.76,5.76,0,0,0-1.52,1.52h-.51Zm17.54,20.13c0-2.13,0-3.74,0-4.85s0-2.08,0-2.92a17.36,17.36,0,0,1-3.3,1.44,15.85,15.85,0,0,0-3.18,1.4,7,7,0,0,0-2.37,2.34,8.19,8.19,0,0,0-.92,4.29,6.57,6.57,0,0,0,1.15,4.18,3.71,3.71,0,0,0,3.07,1.44,4.88,4.88,0,0,0,4-1.85A8.47,8.47,0,0,0,270.49,386.75Z"/><path d="M308.82,364.77a7.5,7.5,0,0,0,.23,1.85l-6.52-.15c-.09,1.14-.18,2.44-.25,3.92s-.13,3-.15,4.52-.05,3-.08,4.44,0,2.64,0,3.62q0,3.86.18,6.22a14.46,14.46,0,0,0,.63,3.62,3,3,0,0,0,1.26,1.71,4.35,4.35,0,0,0,2.07.44,8,8,0,0,0,2.07-.19,5.59,5.59,0,0,0,1.33-.55v3a20.18,20.18,0,0,1-3.7,1.19,19.43,19.43,0,0,1-4.36.52q-9.4,0-9.4-11.25c0-1.43,0-3,.07-4.85s.12-3.65.19-5.55.14-3.77.18-5.62.08-3.57.08-5.15l-5.18.08a7.5,7.5,0,0,0,.22-1.85,10.16,10.16,0,0,0-.22-2l5.18.22c0-1.53,0-3-.08-4.29s-.12-2.93-.22-4.81q2.6-1,5.11-2.18t5-2.41l.74.52c-.1.79-.18,1.71-.26,2.77s-.15,2.18-.22,3.33-.12,2.35-.15,3.56,0,2.35,0,3.44l6.52-.15A10.23,10.23,0,0,0,308.82,364.77Z"/><path d="M335.39,388q0-7.25-.15-13.32t-.44-12.28c.84.1,1.7.18,2.59.26s1.75.11,2.59.11,1.69,0,2.55-.11,1.71-.16,2.55-.26q-.15,1.26-.33,3a32.67,32.67,0,0,0-.18,3.36h.14a10.73,10.73,0,0,1,10.51-7.32,14.37,14.37,0,0,1,5.4,1,12.34,12.34,0,0,1,4.59,3.26,16.24,16.24,0,0,1,3.18,5.7,25.79,25.79,0,0,1,1.19,8.29,28,28,0,0,1-1.26,8.95,17.81,17.81,0,0,1-3.29,6,11.34,11.34,0,0,1-4.67,3.29,15.52,15.52,0,0,1-5.36,1,12.43,12.43,0,0,1-5.77-1.26,8.61,8.61,0,0,1-3.78-3.92h-.14v6c0,1.73,0,3.49,0,5.29s.06,3.52.11,5.14.11,3.09.19,4.37.16,2.24.26,2.89c-.64-.1-1.46-.19-2.44-.26s-2-.11-3.11-.11-2.12,0-3.11.11-1.8.16-2.44.26c.1-2.08.18-4.12.26-6.15s.13-4.07.18-6.14.09-4.17.11-6.29,0-4.39,0-6.81Zm23.24-8.06q0-7.33-1.82-10.62C355.6,367.12,354,366,352,366a4.8,4.8,0,0,0-2.66.81,7.23,7.23,0,0,0-2.26,2.59,16,16,0,0,0-1.59,4.66,35.28,35.28,0,0,0-.59,7q0,6.74,1.73,9.95a5.49,5.49,0,0,0,5.07,3.22q3.18,0,5-3.47T358.63,379.94Z"/><path d="M376.31,366.62a23.73,23.73,0,0,1,6.7-3.85,20.34,20.34,0,0,1,7.14-1.33,21.12,21.12,0,0,1,5.44.66,11.8,11.8,0,0,1,4.29,2.11,9.47,9.47,0,0,1,2.81,3.74,13.8,13.8,0,0,1,1,5.55q0,4.74-.11,8.77c-.07,2.69-.11,5.36-.11,8a11.67,11.67,0,0,0,.26,2.77,3.16,3.16,0,0,0,.78,1.52,2.44,2.44,0,0,0,1.37.67,11.41,11.41,0,0,0,2,.14v1.78c-1.44.59-2.64,1-3.63,1.33A10.91,10.91,0,0,1,401,399a7,7,0,0,1-4.44-1.34,8.11,8.11,0,0,1-2.59-3.84,14.13,14.13,0,0,1-4,3.77,10.51,10.51,0,0,1-5.66,1.41,13.94,13.94,0,0,1-4.81-.74,8.72,8.72,0,0,1-3.3-2.11,8.46,8.46,0,0,1-1.88-3.11,10.7,10.7,0,0,1-.59-3.52,10.58,10.58,0,0,1,.77-4.21,8.51,8.51,0,0,1,2.22-3,12.88,12.88,0,0,1,3.44-2.11,29.33,29.33,0,0,1,4.52-1.44c2.07-.49,3.71-.93,4.92-1.3a11.83,11.83,0,0,0,2.7-1.11,2.69,2.69,0,0,0,1.15-1.22,4.51,4.51,0,0,0,.26-1.62,6.18,6.18,0,0,0-1.89-4.55,7.05,7.05,0,0,0-5.22-1.89,10.76,10.76,0,0,0-2.59.33,12.53,12.53,0,0,0-2.55.93,15.22,15.22,0,0,0-2.22,1.29,5.62,5.62,0,0,0-1.52,1.52h-.52ZM382.6,350a7.81,7.81,0,0,1,.63-3.15,8.13,8.13,0,0,1,1.7-2.51,8,8,0,0,1,5.66-2.33,7.81,7.81,0,0,1,3.08.62,8.52,8.52,0,0,1,2.55,1.71,7.72,7.72,0,0,1,2.37,5.66,7.89,7.89,0,0,1-.63,3.11,7.81,7.81,0,0,1-1.74,2.55,8.68,8.68,0,0,1-2.55,1.7,7.65,7.65,0,0,1-3.08.63,7.81,7.81,0,0,1-3.1-.63,7.79,7.79,0,0,1-4.26-4.25A7.89,7.89,0,0,1,382.6,350Zm11.25,36.78c0-2.13,0-3.74,0-4.85s0-2.08,0-2.92a17,17,0,0,1-3.29,1.44,15.85,15.85,0,0,0-3.18,1.4,7,7,0,0,0-2.37,2.34,8.09,8.09,0,0,0-.92,4.29,6.63,6.63,0,0,0,1.14,4.18,3.73,3.73,0,0,0,3.07,1.44,4.85,4.85,0,0,0,4-1.85A8.47,8.47,0,0,0,393.85,386.75Zm1-36.78a4.17,4.17,0,0,0-4.22-4.22,4.05,4.05,0,0,0-3,1.22,4.39,4.39,0,0,0,0,6,4.31,4.31,0,0,0,6,0A4.07,4.07,0,0,0,394.81,350Z"/><path d="M443.8,368a15.86,15.86,0,0,1,4.85-4.81,11.89,11.89,0,0,1,6.32-1.7,9.27,9.27,0,0,1,5.74,1.81,11.7,11.7,0,0,1,3.74,5.22,16.54,16.54,0,0,1,5.18-5.22,11.82,11.82,0,0,1,6.29-1.81c3.7,0,6.54,1.07,8.54,3.22s3,5.61,3,10.39q0,3.78-.15,6.66c-.1,1.93-.15,3.85-.15,5.78,0,1.58,0,3.29.11,5.14s.16,3.64.26,5.36a16.45,16.45,0,0,0-2.44-.14h-6.21a16.59,16.59,0,0,0-2.45.14,86.32,86.32,0,0,0,.67-9.06q.15-5.22.15-11.95,0-4.67-1.56-6.85a5,5,0,0,0-4.36-2.18,5,5,0,0,0-2.93.81,6,6,0,0,0-1.81,2.11,9.14,9.14,0,0,0-.89,2.78,20,20,0,0,0-.22,2.81v5.33c0,3,0,5.84.11,8.51s.24,5.23.48,7.69a16.13,16.13,0,0,0-2.4-.14h-6.25A17.52,17.52,0,0,0,455,398c.25-2.46.41-5,.48-7.69s.12-5.5.12-8.51v-4.52a17.08,17.08,0,0,0-1.11-6.88,4.19,4.19,0,0,0-4.22-2.44,5.18,5.18,0,0,0-4.89,2.89,17.07,17.07,0,0,0-1.55,8v3c0,3,0,5.84.11,8.51s.23,5.23.48,7.69a16.13,16.13,0,0,0-2.4-.14h-6.26a17.46,17.46,0,0,0-2.44.14c.25-2.46.41-5,.48-7.69s.11-5.5.11-8.51v-3c0-3,0-5.84-.11-8.48s-.23-5.29-.48-8c.89.1,1.77.18,2.63.26s1.74.11,2.63.11,1.76,0,2.62-.11l2.78-.26-.3,5.55Z"/><path d="M495.67,348.41a5.82,5.82,0,1,1,1.71,4.15A5.64,5.64,0,0,1,495.67,348.41Zm.89,30.42q0-4.51-.11-8.48c-.07-2.63-.23-5.29-.48-8,.69.1,1.5.18,2.44.26s2,.11,3.11.11a32.61,32.61,0,0,0,5.55-.37c-.25,2.66-.41,5.32-.48,8s-.11,5.47-.11,8.48v3c0,3,0,5.84.11,8.51s.23,5.23.48,7.69a16.19,16.19,0,0,0-2.41-.14h-6.25A17.37,17.37,0,0,0,496,398c.25-2.46.41-5,.48-7.69s.11-5.5.11-8.51Z"/><path d="M517,354.48q-.15-6.06-.45-12.28c.64.1,1.46.18,2.44.26s2,.11,3.11.11,2.12,0,3.11-.11,1.8-.16,2.44-.26q-.3,6.21-.44,12.28t-.15,13.32v4.81q0,7.26.15,13.32t.44,12.06a16.45,16.45,0,0,0-2.44-.14H519a16.54,16.54,0,0,0-2.44.14q.3-6,.45-12.06t.14-13.32V367.8Q517.13,360.56,517,354.48Z"/><path d="M536.82,348.41a5.8,5.8,0,1,1,1.7,4.15A5.63,5.63,0,0,1,536.82,348.41Zm.89,30.42q0-4.51-.12-8.48c-.07-2.63-.23-5.29-.48-8,.69.1,1.51.18,2.45.26s2,.11,3.1.11a32.61,32.61,0,0,0,5.55-.37c-.24,2.66-.4,5.32-.48,8s-.11,5.47-.11,8.48v3c0,3,0,5.84.11,8.51s.24,5.23.48,7.69a16.13,16.13,0,0,0-2.4-.14h-6.25a17.52,17.52,0,0,0-2.45.14c.25-2.46.41-5,.48-7.69s.12-5.5.12-8.51Z"/><path d="M555.39,381.2a22.71,22.71,0,0,1,1.52-8.66,18.15,18.15,0,0,1,4-6.18,16.2,16.2,0,0,1,5.81-3.7,19.16,19.16,0,0,1,6.77-1.22q8.65,0,13.4,4.88t4.73,13.25a23.44,23.44,0,0,1-1.33,8.14,18.11,18.11,0,0,1-3.74,6.18,15.1,15.1,0,0,1-5.73,3.81,20.55,20.55,0,0,1-7.33,1.26,24.63,24.63,0,0,1-6.55-.89,15.72,15.72,0,0,1-5.81-3,15.34,15.34,0,0,1-4.18-5.51A19.7,19.7,0,0,1,555.39,381.2Zm25.31-2.74q0-6.51-1.63-10.1a5.54,5.54,0,0,0-5.4-3.59q-3.4,0-5.37,4t-2,12.51a43.06,43.06,0,0,0,.37,5.77,18.23,18.23,0,0,0,1.22,4.63,8,8,0,0,0,2.22,3.07,5.31,5.31,0,0,0,3.45,1.11Q580.7,395.85,580.7,378.46Z"/><path d="M608.52,368a15.86,15.86,0,0,1,4.85-4.81,11.9,11.9,0,0,1,6.33-1.7q5.55,0,8.54,3.22t3,10.39q0,3.78-.15,6.66c-.1,1.93-.14,3.85-.14,5.78,0,1.58,0,3.29.11,5.14s.16,3.64.26,5.36a16.68,16.68,0,0,0-2.45-.14h-6.21a16.45,16.45,0,0,0-2.44.14,89.39,89.39,0,0,0,.66-9.06q.15-5.22.15-11.95,0-4.67-1.59-6.85A5.23,5.23,0,0,0,615,368a5.15,5.15,0,0,0-4.88,2.89,16.93,16.93,0,0,0-1.56,8v3c0,3,0,5.84.11,8.51s.24,5.23.49,7.69a16.36,16.36,0,0,0-2.41-.14h-6.25A17.37,17.37,0,0,0,598,398c.24-2.46.4-5,.48-7.69s.11-5.5.11-8.51v-3q0-4.51-.11-8.48c-.08-2.63-.24-5.29-.48-8,.88.1,1.76.18,2.62.26s1.74.11,2.63.11,1.76,0,2.63-.11l2.77-.26-.29,5.55Z"/><path d="M648.63,380.31a25.19,25.19,0,0,0,.59,5.55,13.79,13.79,0,0,0,1.82,4.47,8.86,8.86,0,0,0,3.1,3,8.73,8.73,0,0,0,4.41,1.08,13.82,13.82,0,0,0,9.1-3.33l.89.66-1.63,4.15a14.7,14.7,0,0,1-4.44,2.25,22.28,22.28,0,0,1-6.81.86,23.5,23.5,0,0,1-6.88-1,14.8,14.8,0,0,1-5.74-3.3,16.07,16.07,0,0,1-3.92-5.81,22.07,22.07,0,0,1-1.44-8.39,24.54,24.54,0,0,1,1.29-8.37,16.65,16.65,0,0,1,3.59-5.92,14.76,14.76,0,0,1,5.44-3.55,19.29,19.29,0,0,1,6.85-1.18q7.32,0,11.21,4.29t3.88,12.14v1.55a3.47,3.47,0,0,1-.07.89ZM660,377a28.83,28.83,0,0,0-1.37-8.88c-.82-2.22-2.18-3.33-4.11-3.33a3.73,3.73,0,0,0-2.74,1.11,8,8,0,0,0-1.77,2.85,18.39,18.39,0,0,0-1,3.92,37.71,37.71,0,0,0-.41,4.33Z"/><path d="M686.82,371.58a18.5,18.5,0,0,1,4.66-7.52,9.53,9.53,0,0,1,6.51-2.4,3.85,3.85,0,0,1,.63,0,4.8,4.8,0,0,0,.55,0,23,23,0,0,0-.33,2.37c-.07.84-.11,1.83-.11,3v3.63a10.19,10.19,0,0,0,.07,1.26l-.66.59a8,8,0,0,0-1.67-.74,6.85,6.85,0,0,0-2.11-.3,6.65,6.65,0,0,0-5.25,2.18,7.57,7.57,0,0,0-1.92,5.15v3c0,3,0,5.84.11,8.51s.23,5.23.48,7.69a16.28,16.28,0,0,0-2.41-.14h-6.25a17.37,17.37,0,0,0-2.44.14c.24-2.46.4-5,.48-7.69s.11-5.5.11-8.51v-3q0-4.51-.11-8.48c-.08-2.63-.24-5.29-.48-8,.84.1,1.69.18,2.55.26s1.71.11,2.55.11,1.69,0,2.56-.11,1.71-.16,2.55-.26l-.22,9Z"/><path d="M715.45,368a15.86,15.86,0,0,1,4.85-4.81,11.9,11.9,0,0,1,6.33-1.7q5.55,0,8.54,3.22t3,10.39q0,3.78-.15,6.66c-.1,1.93-.14,3.85-.14,5.78,0,1.58,0,3.29.11,5.14s.16,3.64.26,5.36a16.68,16.68,0,0,0-2.45-.14h-6.21a16.45,16.45,0,0,0-2.44.14,89.39,89.39,0,0,0,.66-9.06q.15-5.22.15-11.95,0-4.67-1.59-6.85a5.24,5.24,0,0,0-4.48-2.18,5.15,5.15,0,0,0-4.88,2.89,16.93,16.93,0,0,0-1.56,8v3c0,3,0,5.84.11,8.51s.24,5.23.48,7.69a16.13,16.13,0,0,0-2.4-.14h-6.25a17.61,17.61,0,0,0-2.45.14c.25-2.46.41-5,.49-7.69s.11-5.5.11-8.51v-3q0-4.51-.11-8.48c-.08-2.63-.24-5.29-.49-8,.89.1,1.77.18,2.63.26s1.74.11,2.63.11,1.76,0,2.63-.11l2.77-.26-.29,5.55Z"/><path d="M755.56,380.31a25.19,25.19,0,0,0,.59,5.55,13.79,13.79,0,0,0,1.82,4.47,8.86,8.86,0,0,0,3.1,3,8.73,8.73,0,0,0,4.41,1.08,13.82,13.82,0,0,0,9.1-3.33l.89.66-1.63,4.15a14.7,14.7,0,0,1-4.44,2.25,22.28,22.28,0,0,1-6.81.86,23.5,23.5,0,0,1-6.88-1,14.8,14.8,0,0,1-5.74-3.3,16.07,16.07,0,0,1-3.92-5.81,22.07,22.07,0,0,1-1.44-8.39,24.54,24.54,0,0,1,1.29-8.37,16.65,16.65,0,0,1,3.59-5.92,14.76,14.76,0,0,1,5.44-3.55,19.29,19.29,0,0,1,6.85-1.18q7.32,0,11.21,4.29t3.88,12.14v1.55a3.47,3.47,0,0,1-.07.89ZM767,377a28.83,28.83,0,0,0-1.37-8.88q-1.23-3.33-4.11-3.33a3.73,3.73,0,0,0-2.74,1.11,8,8,0,0,0-1.77,2.85,18.39,18.39,0,0,0-1,3.92,37.71,37.71,0,0,0-.41,4.33Z"/><path class="cls-6" d="M1873.15,541.89c-2.77,6.28,7.64,4.41,10.22.77s2.79-10.61-1.24-14.25-8.69-5.47-9.36-.43S1875.91,535.6,1873.15,541.89Z"/><path class="cls-7" d="M1874.19,541.16c-2.24,5.09,6.2,3.58,8.29.63s2.26-8.6-1-11.55-7-4.43-7.59-.34S1876.43,536.07,1874.19,541.16Z"/><path class="cls-8" d="M1693.41,674.62c-12,52.4,22,102.38,74.82,111.28s91.47-20.06,101.71-71-17.22-97-68.76-108.23S1705.4,622.22,1693.41,674.62Z"/><path class="cls-9" d="M1792.27,743.56c26.75-31.81,35.83-61.34,37.74-97.85,1.09-21-1.13-21.6-7-27a292.48,292.48,0,0,1-31-34c-4.44-5.94-8.71-7.55-15.31-1.53-11.51,10.49-16.69,26.75-31.12,32-8.28,3-8,3.61-6.68,23.79,2.24,35.16,14.17,68.74,32.35,100.21C1781.74,757.3,1776.92,761.81,1792.27,743.56Z"/><ellipse class="cls-7" cx="1783.58" cy="615.71" rx="23.2" ry="13.92"/><path class="cls-10" d="M1783.56,634.59c1.77,5.76,9.73,22.71,13,29,3.4,6.66,8.47,9.54,11.85,3,6.92-13.43,15.53-29.85,22.37-41.92,3.34-5.9,1.21-7.3-2.71-9.81-3.71-2.38-11.18-5-15-6.83-4-1.91-7.35-2.65-8.62,2.88-2.6,11.32-6.8,13.52-17,16.65C1782.51,629.1,1781.7,628.5,1783.56,634.59Z"/><path class="cls-11" d="M1766.67,662c3.27-6.44,10.54-18.59,13.54-23.61,3.16-5.3,4.37-9.12-.91-11.51-10.81-4.89-13-8.13-16.29-19.47-1.6-5.54-5.28-5.15-9.15-3.25-3.66,1.8-9.41,4.66-13.26,6.84-4.07,2.31-6.52,4-3.77,10.1,5.62,12.38,13.83,27.26,19.17,41.13C1758.62,669,1763.22,668.81,1766.67,662Z"/><ellipse class="cls-12" cx="1783.93" cy="608.43" rx="5.55" ry="21.8" transform="translate(1084.6 2358.72) rotate(-87.05)"/><path class="cls-7" d="M1715.67,548.94c.78,38.38,36,66.1,77.55,63.65s86.68-39.78,84.81-85.34-31.76-92-85.52-88.11S1714.89,510.56,1715.67,548.94Z"/><path class="cls-13" d="M1778.6,540.38c-3.35,4.77-.45,9.89,5.93,12.19s13.44,1.85,11.87-4.92-.4-9.82-4.84-13.53S1782,535.6,1778.6,540.38Z"/><path class="cls-7" d="M1780,539.66c-2.82,4.41-.3,9.22,5.46,11.29s12.77,1.73,11.17-4.6-.56-9.12-4.7-12.61S1782.83,535.25,1780,539.66Z"/><rect x="1778.94" y="631.37" width="6.96" height="12.18" rx="2.46" transform="translate(3564.84 1274.92) rotate(-180)"/><path d="M1815.54,633.34c.06-.85-.52,7.16,0,0s-4.89-15.17-11.11-11.61c-4.85,2.77-9.1,4.92-12.58,6.93-4.46,2.57-9,2.23-8.88,8.27-.71,0-.67-.07,0,0,.13,6,4,7.68,9,10.1,3.83,1.88,10.25,5.09,15.43,5.28C1814,652.56,1815,640.5,1815.54,633.34Z"/><path d="M1750,632.77c-.07-.85.52,7.16,0,0s4.89-15.17,11.11-11.61c4.85,2.77,9.1,4.92,12.57,6.92,4.46,2.58,9,2.24,8.88,8.28.72-.05.68-.07,0,0-.12,6-4,7.68-9,10.1-3.83,1.88-10.25,5.08-15.44,5.28C1751.48,652,1750.5,639.93,1750,632.77Z"/><path class="cls-14" d="M1762.12,584c-7.73-11.67.81-12.73,10.09-9.54s26.26-3.73,30.85,3.78-7.35,11.57-15.53,13.13S1769.84,595.64,1762.12,584Z"/><path class="cls-15" d="M1763.6,584.16c-8.08-11.73-.58-12,8.74-8.9s25.28-3.47,29.93,3.23-7.13,11.22-14.73,12.47S1771.68,595.89,1763.6,584.16Z"/><path class="cls-16" d="M1762.56,579.64c-6.51-10.6,4.12-5.06,10.41-1.51s24.91-5,29-.23-6.91,9.08-13.51,11.73S1769.07,590.25,1762.56,579.64Z"/><path class="cls-17" d="M1878.38,530.63c1.84,9.42-16.15,40.57-.86,28.54s16.3-33.49,15-51.1-12.64-54.74-34.52-53.14S1876.54,521.2,1878.38,530.63Z"/><path class="cls-17" d="M1845.32,494c4.55,10.32,19.34,48.65,28.12,26.33s7.69-39.61-4-58.4-32.42-27.54-48.1-14.54S1840.76,483.64,1845.32,494Z"/><path class="cls-18" d="M1807.66,524c.3,13.06,4.22,18.21,16.51,18.69s18.57-8.43,16.43-22.46-4.83-15.62-16.64-15.54S1807.37,511,1807.66,524Z"/><path class="cls-11" d="M1808.76,524.05c.27,12.13,3.91,16.9,15.32,17.35s17.24-7.82,15.26-20.85-4.48-14.5-15.45-14.42S1808.48,511.93,1808.76,524.05Z"/><path d="M1807.76,506.74h0c0-.13-.06-.26-.08-.39a4.1,4.1,0,0,0-.53-1.36,2.77,2.77,0,0,0-1.74-1.31c2.85-2.68,10.2-4.59,18.83-4.59,10.36,0,18.88,2.75,20,6.28l-.06-.05a2.17,2.17,0,0,0-3,.86c.19-.31,0,0-.13.11l-.18.14a7.58,7.58,0,0,1-.74.4l-.26.12-.49.21c-.33.14-.65.28-1,.44a1.77,1.77,0,0,0-.62.37l-.09.08-.18.22-.13.18a1.51,1.51,0,0,0-.11.22,1.39,1.39,0,0,0-.06.13,2.77,2.77,0,0,0-.19.95,1.91,1.91,0,0,0,0,.89,2,2,0,0,0,.24.85v0a51.55,51.55,0,0,1-25.72.06.61.61,0,0,0,.07-.14l.45-.71a3.47,3.47,0,0,0,.26-.45c1.11-1.33.59-4.06-1.57-4.06a2,2,0,0,0-1.91,1.29l0,0a6.36,6.36,0,0,0-.4.55A9.43,9.43,0,0,0,1807.76,506.74Z"/><ellipse class="cls-7" cx="1824.66" cy="505.12" rx="20.09" ry="7.04"/><ellipse class="cls-19" cx="1823.73" cy="525.6" rx="8.38" ry="9.03"/><path d="M1820,526.17c0,1.51.94,3.67,2.69,3.64s2.65-2.16,2.64-3.71-1-3.61-2.7-3.6S1820,524.66,1820,526.17Z"/><path class="cls-18" d="M1741.9,515.67c-2.17,12.88.7,18.67,12.68,21.46s19.83-4.77,20.38-19-1.79-16.25-13.41-18.4S1744.08,502.79,1741.9,515.67Z"/><path class="cls-11" d="M1743,515.89c-2,12,.65,17.33,11.77,19.92s18.41-4.43,18.92-17.6-1.66-15.08-12.45-17.07S1745,503.93,1743,515.89Z"/><path d="M1745.56,499.85a6.56,6.56,0,0,0-.73-1.57,3.29,3.29,0,0,0,.16-.44,2.77,2.77,0,0,0-.9-2.92c3.54-1.82,10.77-2.18,18.8-.64,10.17,2,18,6.26,18.42,9.93l0,0a2.17,2.17,0,0,0-3.13.27c.24-.26,0,0-.14.09l-.21.1a7.46,7.46,0,0,1-.8.26l-.28.06-.52.11-1,.25a2,2,0,0,0-.69.25l-.1.06-.22.18-.15.16a1.46,1.46,0,0,0-.16.19l-.09.12a2.78,2.78,0,0,0-.36.89,1.9,1.9,0,0,0-.19.87,1.76,1.76,0,0,0,.08.88v0a46.56,46.56,0,0,1-13-.81,47.07,47.07,0,0,1-12.23-4,.6.6,0,0,0,.09-.13c.2-.2.39-.41.58-.61a2.57,2.57,0,0,0,.34-.4c1.34-1.09,1.35-3.87-.77-4.27a2,2,0,0,0-2.12.9l-.06,0a6,6,0,0,0-.45.42C1745.59,500,1745.58,499.93,1745.56,499.85Z"/><ellipse class="cls-7" cx="1762.17" cy="500.29" rx="7.04" ry="20.09" transform="translate(938.23 2136.34) rotate(-79.12)"/><ellipse class="cls-20" cx="1757.39" cy="520.23" rx="9.03" ry="8.38" transform="translate(914.78 2147.82) rotate(-79.12)"/><path d="M1755,520c-.16,1.48.38,3.71,2.13,3.89s2.89-1.68,3.09-3.28-.45-3.54-2.19-3.83S1755.14,518.46,1755,520Z"/><path d="M1844.35,512.66l-.46-.58-.09-.09a.78.78,0,0,1,.43-.1c10,.51,27,11.08,27.76,11.53a.9.9,0,0,1,.29,1.22.85.85,0,0,1-.73.42.81.81,0,0,1-.45-.13c-.17-.1-16.77-10.37-26.39-11.23A2.87,2.87,0,0,0,1844.35,512.66Z"/><path d="M1819.19,544.94c-2.31-.5-14-3.59-18.19-14.68-.69-1.84-3.86-11.38,1.46-18.28s15.35-6.25,22-5.89a45.51,45.51,0,0,1,19.84,5.84l.09.05,0,.08c4.68,10.48,2.74,22.31-4.72,28.76a21.17,21.17,0,0,1-14.11,4.82A30.43,30.43,0,0,1,1819.19,544.94Zm5.27-38.27c-7-.38-16.48-.89-21.54,5.67s-2.05,15.93-1.38,17.72c4,10.8,15.52,13.82,17.77,14.32,3.7.81,13.06,2,20-4,7.25-6.26,9.14-17.76,4.61-28A44.87,44.87,0,0,0,1824.46,506.67Z"/><path d="M1752.72,540.08a21.18,21.18,0,0,1-13.18-7c-6.36-7.54-6.42-19.52-.14-29.14l0-.08.09,0a45.56,45.56,0,0,1,20.52-2.65c6.65.69,16.71,1.74,20.83,9.28s-.46,16.57-1.43,18.28c-5.84,10.3-17.91,11.51-20.27,11.64A30.45,30.45,0,0,1,1752.72,540.08Zm-12.89-35.72c-6.08,9.39-6,21,.15,28.37,6,7.07,15.39,7.31,19.17,7.09,2.31-.13,14.11-1.31,19.8-11.35,1-1.66,5.45-10.34,1.43-17.71s-13.46-8.26-20.38-9A44.86,44.86,0,0,0,1739.83,504.36Z"/><path d="M1722.83,504.57c6.64-2.15,16.35-.84,16.76-.79a.55.55,0,0,1,.41.31l-.17.09a3.13,3.13,0,0,0-.8.7c-1.9-.22-10.2-1-15.85.79l-.18,0a.58.58,0,0,1-.54-.4A.58.58,0,0,1,1722.83,504.57Z"/><path d="M1781.47,512.76s0,0,.06,0c8.33-5.21,19,1.5,19.5,1.78a.55.55,0,0,1,.16.8.58.58,0,0,1-.5.25.66.66,0,0,1-.33-.09c-.11-.07-10.5-6.58-18.16-1.78a.61.61,0,0,1-.47.07A2.79,2.79,0,0,0,1781.47,512.76Z"/><path class="cls-7" d="M1870.35,543.07c-4.63,8.43,10.13,7.11,14.18,2.34s5.21-14.46,0-20-11.46-8.72-13-1.76S1875,534.63,1870.35,543.07Z"/><path class="cls-6" d="M1870.76,542.6c-4.23,7.69,9.22,6.48,12.91,2.14s4.75-13.18,0-18.26-10.44-7.94-11.86-1.6S1875,534.92,1870.76,542.6Z"/><path class="cls-7" d="M1871.57,542.07c-3.88,7,8.46,5.94,11.85,2s4.35-12.09,0-16.75-9.57-7.29-10.88-1.47S1875.44,535,1871.57,542.07Z"/><path class="cls-17" d="M1769.8,431.08c-11.24,2.43-49.38,34.05-41.15,46.67s41-7.56,51.83-10.09,49.66-4.92,49-21.59S1781,428.64,1769.8,431.08Z"/><path class="cls-17" d="M1810.24,500.52c-.19,3.82,13.82,4,16.23,4.57s16,3.54,16.46-.29-13.34-6.78-16-7.41S1810.43,496.7,1810.24,500.52Z"/><path class="cls-17" d="M1744.22,497.2c.33,3.81,14.23,2.06,16.69,2.33s16.32,1.36,16.28-2.5-14.13-4.92-16.9-5.18S1743.89,493.39,1744.22,497.2Z"/><path class="cls-21" d="M1751.31,454c4.75,24.7,30.55,38.46,49.85,41.91s58.48,9.08,74.07-21.66S1840.67,414.91,1810,410,1746.55,429.31,1751.31,454Z"/><path class="cls-22" d="M1736.9,439.18c9.17,23.79,37.91,14.65,66.92,25.16s115.25,84.7,101.78,14.79-76.91-74.34-104.45-74.94S1727.74,415.4,1736.9,439.18Z"/><path class="cls-21" d="M1737.51,438.48c9.16,23.79,37.9,14.65,66.91,25.16s115.26,84.7,101.79,14.79-76.91-74.34-104.45-74.94S1728.35,414.7,1737.51,438.48Z"/><ellipse class="cls-23" cx="1847.38" cy="411.26" rx="2.61" ry="4.64" transform="translate(956.81 2081.24) rotate(-74.48)"/><rect class="cls-24" x="1819.58" y="521.5" width="2.9" height="2.9" rx="1.45" transform="translate(3642.06 1045.9) rotate(-180)"/><rect class="cls-24" x="1754.04" y="515.12" width="2.9" height="2.9" rx="1.45" transform="translate(3510.98 1033.14) rotate(180)"/><path d="M1594.83,831.27c-2.24-.22-4.49-.37-6.72-.44-17.62-1-35.29-.68-52.92-1.52,1.85-27.47,4.1-52.46,16.13-80.21,1.71-3.94,3.55-4.54,7.49-3.5,16.42,4.35,13.78,5.35,31.25,2.58,4.2-.66,5.43.43,6.69,4.48,8.63,27.91,6.35,52.59,4,79.12C1598.76,831.59,1596.8,831.42,1594.83,831.27Z"/><ellipse class="cls-25" cx="1662.75" cy="497.91" rx="4.13" ry="4.48" transform="translate(1074.94 2131.05) rotate(-86.88)"/><path class="cls-26" d="M1537.94,702.51c-1-6.35,2.14-9.53,9.34-10.62,18.14-2.73,39.76-3.73,57.33,2.49,7,2.47,8,5.84,6.38,12.23-3.26,12.55-6.22,29.26-9.27,41.56-1.55,6.27-5.64,8.87-10.69,7.93-12.71-2.37-24-1.3-36.26-3.56-4.87-.89-7.12-4.6-7.38-10.83C1546.87,729.46,1539.8,715,1537.94,702.51Z"/><path class="cls-26" d="M1532.72,668.28c-.59-11.23-6.56-19.61,10.76-29.3,18.92-10.57,35.45-11.11,53.4-3.32a9.84,9.84,0,0,0,4,1.89c1.09.54,2.18,1.1,3.27,1.7,16.84,9.16,12.91,13.49,11.9,25.45-1.4,16.62-2.8,53.18-14.91,62.81-8.72,6.92-15.27-5.4-20.27-16.82-6.19-14.15-18.85-16.63-17.75.72.9,14,.64,20.93-9.56,20.09C1539.43,730.33,1533.53,683.88,1532.72,668.28Z"/><path class="cls-27" d="M1559.13,753.41a1.83,1.83,0,0,0-.52,0l6.69-122.46.69-.12-6.69,122.64Z"/><path class="cls-27" d="M1560.67,753.66l6.71-122.93a1.55,1.55,0,0,0,.7-.26l-6.72,123.2Z"/><path class="cls-27" d="M1568.23,754.09,1575,630.32l.28,0a1.84,1.84,0,0,0,.41,0l-6.76,123.87C1568.68,754.16,1568.46,754.13,1568.23,754.09Z"/><path class="cls-27" d="M1566.18,753.69l6.74-123.4.41-.08.18,0h.1l-6.74,123.57Z"/><path class="cls-27" d="M1551.28,635.05l-5.3,97.14a1.29,1.29,0,0,0-.3-.22,5.25,5.25,0,0,0-.31-1.37l5.2-95.23A7.4,7.4,0,0,0,1551.28,635.05Z"/><path class="cls-27" d="M1553.39,634.33l-5.94,108.75c-.1-.87-.19-1.73-.22-2.6s-.11-1.66-.19-2.5l5.64-103.4A6,6,0,0,0,1553.39,634.33Z"/><path class="cls-27" d="M1554.06,752.81H1554l-.13-.08,6.6-120.82.7-.19-6.62,121.18A3.64,3.64,0,0,0,1554.06,752.81Z"/><path class="cls-27" d="M1551.82,751.42l6.5-119,.7-.13-6.53,119.61Z"/><path class="cls-27" d="M1536.79,643.5a1.59,1.59,0,0,0,.25-.33l-2.43,44.6c0-.46-.1-.92-.16-1.38a2.27,2.27,0,0,0-.21-.73.36.36,0,0,0,0-.1v0c0-.19,0-.38,0-.57a6.53,6.53,0,0,0-.08-.76L1536.3,644Z"/><path class="cls-27" d="M1536.14,696c0-.07,0-.14,0-.22a5.94,5.94,0,0,0-.46-2l2.81-51.44a3.84,3.84,0,0,0,.72-.67l-3,54.61a.17.17,0,0,0,0-.07Z"/><path class="cls-27" d="M1546.76,637.23l.27-.19-4.54,83.29c-.13-.22-.25-.45-.36-.68-.11-.43-.15-.86-.23-1.3l4.42-81A1.76,1.76,0,0,0,1546.76,637.23Z"/><path class="cls-27" d="M1544.92,637.83l-4.2,76.88c0-.15-.1-.31-.16-.46-.12-.4-.28-.78-.44-1.17l4.08-74.67C1544.44,638.21,1544.68,638,1544.92,637.83Z"/><path class="cls-27" d="M1531.24,657.66c0-1.58-.14-2.87,0-4.58,0-.08,0-.16,0-.23.08-.7.23-1.38.34-2.07l.15-.28-.41,7.56h0C1531.35,657.91,1531.29,657.79,1531.24,657.66Z"/><path class="cls-27" d="M1583,755h-.28l6.66-122c.22.11.45.22.67.31L1583.35,755A2.25,2.25,0,0,0,1583,755Z"/><path class="cls-27" d="M1580.89,754.88h-.29l6.73-123.18c.21.16.43.31.66.46l-6.7,122.72Z"/><path class="cls-27" d="M1573.61,754.4a2.22,2.22,0,0,0-.46,0l-.11,0,6.75-123.72.68.17-6.74,123.51Z"/><path class="cls-27" d="M1575.1,754.54l6.74-123.36c.17,0,.34.05.52.06h.16l-6.73,123.41Z"/><path class="cls-27" d="M1587.47,755.47l6.59-120.86.68.2-6.59,120.72C1587.93,755.5,1587.7,755.48,1587.47,755.47Z"/><path class="cls-27" d="M1590.1,756.05c-.19-.09-.39-.15-.58-.22l6.58-120.67h.16l.26.22.25.2-6.58,120.52Z"/><path class="cls-27" d="M1610.15,643.17l-4.92,90.23,0,.05a5,5,0,0,0-.16.55,3,3,0,0,0-.06.42l-.5,0,5-92C1609.71,642.69,1609.93,642.94,1610.15,643.17Z"/><path class="cls-27" d="M1607.58,641h.06a3.92,3.92,0,0,0,.45.62l.07.07-5.64,103.38a3.59,3.59,0,0,0-.53,1.23h-.23L1607.51,641Z"/><path class="cls-27" d="M1594.32,756.17h-.68l6.48-118.82.68.17-6.47,118.65Z"/><path class="cls-27" d="M1595.73,755.69l6.41-117.38,0,0,.64.29-6.37,116.69A1.5,1.5,0,0,0,1595.73,755.69Z"/><path class="cls-27" d="M1611,708.06a.17.17,0,0,0,0,.07l-.23.24,3.39-62.13a4.85,4.85,0,0,0,.65.7l-3.13,57.31a23.36,23.36,0,0,0-.68,3.64C1611,708,1611,708,1611,708.06Z"/><path class="cls-27" d="M1616.4,649.55a4.58,4.58,0,0,1,.2.46l.06.22-1.15,21v0l-.32,6a1.55,1.55,0,0,0,0,.31c-.21,2.38-.54,4.73-.67,7.13-.08,1.4-.4,2.78-.62,4.17l2.21-40.39A2.93,2.93,0,0,0,1616.4,649.55Z"/><path class="cls-27" d="M1532.29,664.49l83.51,4.56c0,.23-.09.46-.12.68l-83.35-4.54A3.18,3.18,0,0,0,1532.29,664.49Z"/><path class="cls-27" d="M1532.52,666.58l83,4.53c0,.22,0,.45,0,.68l-82.94-4.52A2,2,0,0,0,1532.52,666.58Z"/><path class="cls-27" d="M1533.15,674.2l81.89,4.47c0,.22,0,.45-.07.68l-81.8-4.46A5.3,5.3,0,0,0,1533.15,674.2Z"/><path class="cls-27" d="M1532.9,672.11l82.46,4.5a3.77,3.77,0,0,0-.18.68l-82.12-4.48A1.5,1.5,0,0,0,1532.9,672.11Z"/><path class="cls-27" d="M1617.23,655.34l-85.51-4.67c.13-.22.25-.44.36-.67l85.19,4.65C1617.26,654.88,1617.25,655.11,1617.23,655.34Z"/><path class="cls-27" d="M1617.06,657.4l-85.72-4.68c0-.23.06-.46.1-.69l85.66,4.68C1617.08,656.94,1617.07,657.17,1617.06,657.4Z"/><path class="cls-27" d="M1616.11,664.24a4.11,4.11,0,0,0-.14.68l-84.34-4.6q0-.35,0-.69Z"/><path class="cls-27" d="M1616.45,662.19a2.58,2.58,0,0,0-.09.62v.06l-84.89-4.63a1.46,1.46,0,0,0-.07-.19c0-.14-.1-.27-.15-.4v-.11Z"/><path class="cls-27" d="M1546.58,637.29l.18-.06.29-.21,59.61,3.25a1.76,1.76,0,0,0,.9.74L1546,637.65l.08,0A3.06,3.06,0,0,0,1546.58,637.29Z"/><path class="cls-27" d="M1542.64,639.49a4.92,4.92,0,0,0,.94-.59l66,3.6a7.2,7.2,0,0,0,.81.65s.11.06.17.1l-68-3.72Z"/><path class="cls-27" d="M1534.52,646l82.21,4.49c.07.24.14.47.22.7l-83-4.53Z"/><path class="cls-27" d="M1536.32,644l79.73,4.35a2.73,2.73,0,0,0,.15.7l-80.47-4.39Z"/><path class="cls-27" d="M1556.2,633.34a2.51,2.51,0,0,0,1.07-.59l37.38,2a2.45,2.45,0,0,0,.29.08l.76.22.25,0h0a3.1,3.1,0,0,0,.65.44l-40.52-2.21Z"/><path class="cls-27" d="M1613.45,693.06c0,.07,0,.13,0,.2s-.06.33-.08.49L1535,689.47c0-.24-.11-.47-.18-.7Z"/><path class="cls-27" d="M1613.65,691c0,.13,0,.26,0,.4a2.46,2.46,0,0,0,0,.28l-79.09-4.31c0-.23,0-.46-.07-.7Z"/><path class="cls-27" d="M1614.57,683.47c0,.23,0,.46,0,.69l-80.85-4.42c0-.23-.06-.46-.1-.69Z"/><path class="cls-27" d="M1614.41,685.53c0,.23-.06.46-.1.68l-80.45-4.39c0-.23,0-.46,0-.69Z"/><path class="cls-27" d="M1612.88,697.86c0,.17-.07.34-.11.51h0l0,.16-76.87-4.19a4.66,4.66,0,0,0-.26-.71Z"/><path class="cls-27" d="M1536.2,696.19l-.06-.17c0-.08,0-.15,0-.22v-.06l76.28,4.16a2,2,0,0,0-.08.22l0,.09a2.74,2.74,0,0,0-.08.37l-76-4.14A1.87,1.87,0,0,0,1536.2,696.19Z"/><path class="cls-27" d="M1536.87,700.44a4.47,4.47,0,0,0,0-.52l74.85,4.08c-.06.23-.12.46-.17.68l-74.67-4.07A1,1,0,0,1,1536.87,700.44Z"/><path class="cls-27" d="M1537.32,702l73.91,4-.12.68-73.6-4A2.91,2.91,0,0,0,1537.32,702Z"/><path class="cls-27" d="M1544.81,728a1.75,1.75,0,0,0-.06-.48l61,3.32a3.83,3.83,0,0,0-.1.59l-.08.09-60.72-3.31A1.47,1.47,0,0,1,1544.81,728Z"/><path class="cls-27" d="M1545,729.6a.07.07,0,0,0,0-.05l60.39,3.29c0,.07.05.14.07.2a2.06,2.06,0,0,0-.23.41.19.19,0,0,0,0,.07l-59.93-3.27Z"/><path class="cls-27" d="M1547,737.24l56.66,3.1-.12.62a.13.13,0,0,1,0,.06L1547,737.94C1547,737.71,1547,737.47,1547,737.24Z"/><path class="cls-27" d="M1546.7,735.16l57.41,3.13c-.07.22-.13.45-.19.68l-57.13-3.12Z"/><path class="cls-27" d="M1540.26,713.43c0-.14-.11-.27-.16-.41l0-.07-.09-.23,68.62,3.75a1.33,1.33,0,0,0,0,.68Z"/><path class="cls-27" d="M1540.77,714.83l67.62,3.69a.6.6,0,0,0-.06.11,1.3,1.3,0,0,0-.17.57L1541,715.54C1540.92,715.3,1540.85,715.07,1540.77,714.83Z"/><path class="cls-27" d="M1543.24,722.56l63.44,3.46a1.86,1.86,0,0,0-.13.68l-63.29-3.45A5.2,5.2,0,0,0,1543.24,722.56Z"/><path class="cls-27" d="M1542.87,721.16c-.06-.16-.13-.32-.2-.48l-.12-.23,64.5,3.52a1.51,1.51,0,0,0-.09.58v.1Z"/><path class="cls-27" d="M1538.9,708.52,1610,712.4l-.08.32-.13.36-70.6-3.85A6.09,6.09,0,0,1,1538.9,708.52Z"/><path class="cls-27" d="M1538.31,706.42l72.15,3.94c0,.23-.09.46-.14.68l-71.81-3.92C1538.45,706.89,1538.38,706.65,1538.31,706.42Z"/><path class="cls-27" d="M1552.75,752.11l-.09-.07,45.64,2.49c-.25.23-.49.44-.74.65l-43.64-2.38A12.48,12.48,0,0,1,1552.75,752.11Z"/><path class="cls-27" d="M1550,749.82l50,2.73c-.14.16-.27.32-.4.5l-.12.16-48.66-2.66C1550.49,750.32,1550.23,750.08,1550,749.82Z"/><path class="cls-27" d="M1547.35,742.09l55.17,3a3.07,3.07,0,0,0-.36.67l-54.74-3C1547.39,742.55,1547.37,742.32,1547.35,742.09Z"/><path class="cls-27" d="M1547.64,744.87c0-.23,0-.47-.07-.7l54.26,3c0,.17-.06.32-.09.47a.83.83,0,0,0,0,.22Z"/><path class="cls-25" d="M1506.89,448.24c12.14-16,48.72,41.18,84.46,56.54,27.73,11.91,64.11-8.62,83.11-7.61a3.65,3.65,0,0,0,.14.89c1.67,5.77,5.18,11.63,10.53,14.55l.23.1c-10.19,21.32-84.26,43.78-109.57,38C1547.27,544.13,1494.75,464.24,1506.89,448.24Z"/><path class="cls-7" d="M1566.94,644.64c2.92.33,8.23.47,11,1.13,5.72,1.34,9.17-.68,9.35-6.81a51.36,51.36,0,0,1,3.76-18.72c2.58-5.9.19-8.89-6.44-10.37a81.14,81.14,0,0,0-16-.78c-6.54.67-10.31,2.76-8.89,8.91s2,11.28.15,17.21S1561,644,1566.94,644.64Z"/><path class="cls-28" d="M1570.46,680.88c1.92,2.33,5.85,3.07,8.11.76,4.51-4.62,6.23-6.87,8.81-12.62,3.5-7.85,5.06-12.53,8.34-22.83,2.41-7.56,2.73-11.93-10.34-8.69-6.53,1.62-11.46,1.5-18.41-.82-13.89-4.62-12.36,1.91-9.81,9.66,3.47,10.57,4.61,14.75,7.2,22.67C1566.25,674.83,1566.6,676.21,1570.46,680.88Z"/><path class="cls-29" d="M1557.43,709.07c.12,2,1.2,4.26,4.22,3.53,5.46-1.33,8.68,0,13-6.78,19.95-31.55,5.73-25.83,6-52.22.05-5.7-3.22,0-4.51-1.3-.72-.74-.39.29-1.42.21-1.87-.14-5.37-.8-5.76,2.76-1.81,16.48,7,30.83-8.71,44.18C1556.8,702.33,1557.22,705.38,1557.43,709.07Z"/><rect class="cls-30" x="1568.73" y="640.79" width="14.46" height="13.09" rx="4.72" transform="translate(3114.3 1379.59) rotate(-176.88)"/><rect class="cls-29" x="1568.77" y="640.1" width="14.46" height="13.09" rx="4.72" transform="translate(3114.41 1378.22) rotate(-176.88)"/><path class="cls-31" d="M1576,642.18c.44,1.57,2.15,6.21,2.63,8.47,1.23,5.75,4.3,10.49,8.92,5.83a77.93,77.93,0,0,0,11.24-14.8c2.47-4.27,1.89-6.33.06-9.4a16.69,16.69,0,0,0-2.91-3c-2.15-2.16-4.45-3.09-7.46-1.36a87.37,87.37,0,0,0-9.87,6.77C1575.75,637,1574.85,638.2,1576,642.18Z"/><path class="cls-28" d="M1576.38,641.41c.43,1.54,2.12,6.1,2.6,8.32,1.23,5.65,4.25,10.32,8.74,5.76A75.49,75.49,0,0,0,1598.61,641c2.4-4.18,1.82-6.21,0-9.22a17.28,17.28,0,0,0-2.85-2.93c-2.11-2.13-4.36-3-7.29-1.36a82.81,82.81,0,0,0-9.6,6.6C1576.14,636.32,1575.27,637.5,1576.38,641.41Z"/><path class="cls-31" d="M1575.3,641.9c-.61,1.52-2.83,6-3.56,8.17-1.86,5.6-5.44,10-9.54,4.84a78.51,78.51,0,0,1-9.58-16c-2-4.53-1.19-6.53,1-9.38a17.27,17.27,0,0,1,3.22-2.65c2.39-1.92,4.78-2.59,7.6-.54a89.62,89.62,0,0,1,9.1,7.83C1576.08,636.75,1576.85,638.05,1575.3,641.9Z"/><path class="cls-28" d="M1575,641.4c-.6,1.48-2.77,5.83-3.5,8-1.83,5.48-5.34,9.8-9.31,4.78a75.68,75.68,0,0,1-9.25-15.57c-1.93-4.42-1.13-6.37,1-9.17a17,17,0,0,1,3.15-2.6c2.33-1.88,4.66-2.55,7.39-.56a83.35,83.35,0,0,1,8.83,7.61C1575.81,636.36,1576.55,637.63,1575,641.4Z"/><path class="cls-32" d="M1638.24,520.68c-2.6,6.94-9,41.63,1.6,42.56s18-29.54,20.68-37.46,3.66-45.71-7.24-45.21S1640.83,513.73,1638.24,520.68Z"/><path class="cls-7" d="M1516.14,520.66c.08,42.16,2,90.28,50.17,99.45s76.26-44.11,79.5-90.2-3.13-92.38-61.1-98.59S1516.07,478.5,1516.14,520.66Z"/><path class="cls-32" d="M1628.79,500.68c4,11.84-3.62,28.27,14,29.52s20.69-43.82,12.89-60.77-32.29-31.09-42.88-11.35S1624.77,488.83,1628.79,500.68Z"/><path class="cls-32" d="M1604,476.32c5.27-5.35,11.68-9,12.65-14.09,1.16-6.14-1.07-5-3.22-2.55-.65.35-.45.19,0,0-2.15,2.47-1,2.49-3,6.14-1.65,3.05-.26-3.74-4,4.26-4.43,9.6-17.78,3.68-24.89,3.52-2.12-.59-1.72-.6,0,0C1574.52,473.44,1597.72,482.75,1604,476.32Z"/><path class="cls-32" d="M1604.79,478.23c4.14-6.27,9.73-11.07,9.69-16.27,0-6.25-2-4.71-3.64-1.88-.57.47-.41.27,0,0-1.64,2.83-.52,2.63-1.76,6.6-1,3.31-1-3.62-3.06,4.94-2.49,10.28-16.73,7-23.74,8.26-2.19-.16-1.8-.25,0,0C1575.28,481.1,1599.83,485.76,1604.79,478.23Z"/><path class="cls-32" d="M1516.9,485.92c13.51,7,40-21,60.14-17.22s47.33,10.92,50.63-14.34-39.23-24.27-61.26-30.61S1503.39,478.93,1516.9,485.92Z"/><path class="cls-32" d="M1603.16,474.94c6-4.56,12.84-7.24,14.53-12.16,2-5.9-.34-5.1-2.82-3-.69.25-.48.12,0,0-2.48,2.13-1.36,2.31-3.84,5.65-2.07,2.78.27-3.75-4.52,3.65-5.76,8.87-18.13,1.1-25.14-.07-2-.88-1.62-.84,0,0C1574.35,467.87,1596,480.4,1603.16,474.94Z"/><path class="cls-6" d="M1638.58,547.45c-5.53,8.67,8.87,5,13.37-.09s6.84-14.41,2.55-18.81-9.94-6.33-12.33.46S1644.11,538.79,1638.58,547.45Z"/><path class="cls-7" d="M1639.52,546.76c-5.08,8,8.13,4.62,12.26-.08s6.27-13.23,2.34-17.26-9.12-5.81-11.31.42S1644.59,538.81,1639.52,546.76Z"/><path class="cls-6" d="M1640.68,546.07c-4.33,6.79,6.94,3.94,10.47-.07s5.36-11.29,2-14.74-7.79-5-9.66.36S1645,539.29,1640.68,546.07Z"/><path class="cls-7" d="M1641.94,545.23c-3.51,5.49,5.62,3.19,8.48-.06s4.34-9.15,1.62-11.94-6.31-4-7.83.29S1645.45,539.73,1641.94,545.23Z"/><path class="cls-13" d="M1557.06,556c-4.24,6.57,1.79,10.68,7,13.87s11.42,5.59,11.94-5,6.15-18.85,1.61-27.28S1561.31,549.45,1557.06,556Z"/><path class="cls-7" d="M1558.62,555c-3,6.38,2.05,9,6.85,12.43s10.71,5.52,11.31-4.8,5.38-17.36,1.45-25.69S1561.61,548.58,1558.62,555Z"/><path class="cls-18" d="M1528,522c-2.63,12.35.19,18.13,12.53,21.55s20.69-3.45,21.66-17.15-1.38-15.84-13.37-18.62S1530.66,509.66,1528,522Z"/><path class="cls-11" d="M1529.15,522.28c-2.44,11.47.17,16.83,11.63,20s19.21-3.2,20.12-15.92-1.29-14.71-12.42-17.29S1531.58,510.82,1529.15,522.28Z"/><path d="M1532.23,504.16a3.4,3.4,0,0,0-.37-2.46c4-1.19,10.93-1,18.55.85,10.48,2.5,18.5,7.13,18.81,10.71l0,0a2.35,2.35,0,0,0-3.25.07c.26-.24,0,0-.16.08l-.21.08a8.59,8.59,0,0,1-.84.21l-.29,0-.55.08-1.07.18a1.93,1.93,0,0,0-.72.2l-.1.05-.24.16-.16.14-.17.18-.09.11a2.63,2.63,0,0,0-.41.84,1.75,1.75,0,0,0-.22.84,1.64,1.64,0,0,0,0,.85v0a52.09,52.09,0,0,1-13.5-1.56,52.9,52.9,0,0,1-12.56-4.58l.1-.12.62-.56a3.06,3.06,0,0,0,.36-.36c1.42-1,1.51-3.67-.68-4.19a2,2,0,0,0-2.22.75l-.06,0a11,11,0,0,0-1,.82l-.25.16C1531.82,506.54,1532,505.34,1532.23,504.16Z"/><ellipse class="cls-7" cx="1549.49" cy="508.32" rx="6.8" ry="20.91" transform="translate(695.81 1897.76) rotate(-76.6)"/><circle class="cls-33" cx="1543.96" cy="527.35" r="8.73"/><path class="cls-18" d="M1580.77,530.83c-1.36,12.55,2,18,14.65,20.16s20.24-5.52,19.82-19.26-3-15.62-15.19-17.16S1582.13,518.28,1580.77,530.83Z"/><path class="cls-11" d="M1581.9,531c-1.26,11.65,1.88,16.72,13.6,18.72s18.79-5.13,18.4-17.88-2.77-14.5-14.1-15.94S1583.16,519.34,1581.9,531Z"/><path d="M1583.13,512.65a3.39,3.39,0,0,0-.62-2.41c3.83-1.59,10.78-2.08,18.54-1,10.69,1.42,19.13,5.22,19.81,8.75l-.06-.05a2.35,2.35,0,0,0-3.23.4c.23-.26,0,0-.14.09l-.21.11c-.27.11-.54.2-.81.29l-.29.07-.53.13-1,.29a2.27,2.27,0,0,0-.7.27l-.1.07-.21.18a.75.75,0,0,0-.15.16.9.9,0,0,0-.15.19l-.08.12a2.52,2.52,0,0,0-.32.88,1.78,1.78,0,0,0-.14.85,1.74,1.74,0,0,0,.14.84v0a52,52,0,0,1-13.58-.18,53,53,0,0,1-13-3.28,1,1,0,0,0,.09-.13c.19-.2.37-.42.56-.62a2.44,2.44,0,0,0,.32-.4c1.32-1.12,1.13-3.8-1.1-4.1a2.08,2.08,0,0,0-2.13,1l-.06,0a9.56,9.56,0,0,0-.88.92l-.24.18C1583,515.06,1583,513.85,1583.13,512.65Z"/><ellipse class="cls-7" cx="1600.72" cy="515.04" rx="6.8" ry="20.91" transform="matrix(0.13, -0.99, 0.99, 0.13, 879.03, 2033.83)"/><circle class="cls-34" cx="1597.15" cy="534.52" r="8.73"/><path d="M1592.85,533.55c-.25,1.71.2,4,2.17,4.32s3.07-1.86,3.34-3.63-.23-3.85-2.23-4.15S1593.1,531.84,1592.85,533.55Z"/><path class="cls-32" d="M1584.94,509.48c.14,3.69,14.68,2.79,17.23,3.19s16.89,2.24,17-1.49-14.42-5.55-17.28-6S1584.8,505.78,1584.94,509.48Z"/><path class="cls-32" d="M1528.7,503c0,3.69,14.55,3.39,17.08,3.89s16.79,2.92,17.09-.8-14.18-6.13-17-6.65S1528.71,499.25,1528.7,503Z"/><path class="cls-35" d="M1558.51,447.29c23.19,20.53,51.55,30.34,82.85,23,15.46-3.61,13.89-9,14.8-21.9.88-12.4-1.56-32.88-4.38-43.7-2.92-11.22-10-12.65-18.13-9.1-16.47,7.16-33.65,17.53-36.22-6.58-1.27-11.92-9.88-14.41-19.45-4.57-9.23,9.49-23.27,24.16-27.15,37.33C1546.81,435.46,1547,437.15,1558.51,447.29Z"/><path class="cls-35" d="M1516.2,451.42c37.2-1.33,44.64,19.29,75,28.9s66.75,5.56,89.32,29.27-41-61.86-83.78-77S1479,452.75,1516.2,451.42Z"/><path class="cls-35" d="M1622,452.78c-8.57,7.67,12.69,19.69,27.43,25.17s42.48,47.52,33.69,32.27-19.58-46.27-35.26-53.63S1630.58,445.11,1622,452.78Z"/><path d="M1547.34,432.11c48.33,20.57,55.26,23.07,107.27,29.05,1.52-7.19,2.7-13.82,2-21.2-55.25,3.44-54.44-1.92-102.49-25.58C1551.44,420.16,1549.69,426.22,1547.34,432.11Z"/><path class="cls-14" d="M1553.38,578.2c-7.11-.2-8.58,8.94-1.73,19.81s28.84,10,36.14-4.29-12.44-5.74-17.42-7.28S1560.49,578.4,1553.38,578.2Z"/><path class="cls-15" d="M1553.7,579.39c-6.43-1.06-7.27,8.31-.82,18.75s27.18,8.39,34.37-4.77-12.87-4.75-17.29-6.32S1560.14,580.45,1553.7,579.39Z"/><path class="cls-16" d="M1551.91,581.21c-5.22-1.77-3.87,5.91,2,14.52s25,10.32,33-1.58-13.54-2.37-18.33-3.37S1557.12,583,1551.91,581.21Z"/><path d="M1540.82,526c-.43,1.4-.36,3.41,1.25,3.91s2.83-1.16,3.28-2.61.32-3.26-1.32-3.77S1541.26,524.64,1540.82,526Z"/><rect class="cls-24" x="1540.08" y="521.54" width="2.87" height="2.87" rx="1.43" transform="translate(3052.22 1129.19) rotate(-176.88)"/><rect class="cls-24" x="1592.5" y="528.42" width="2.87" height="2.87" rx="1.43" transform="translate(3156.61 1145.8) rotate(-176.88)"/><path class="cls-7" d="M1376.72,542.53c-2.69,2.36,2.51,2.63,4.52,1.37s3.69-4.17,2.67-6.1-2.74-3.18-4.2-1.13S1379.42,540.18,1376.72,542.53Z"/><path d="M1320.74,755.35a55.57,55.57,0,0,0,7.43-1.86c24.9-7.39,19.34-29.75,20.19-50.43.43-10.45,6.35-25.79,5.92-36.45-.84-21.1-18-36.56-37.66-35.79-1.89.07-5.48.18-7.76.1-23.77-.82-35.77,17.44-34.55,41.74.61,12.27,6.46,37.66,6.61,49.8C1281.21,746.52,1299.8,758,1320.74,755.35Z"/><ellipse class="cls-15" cx="1373.26" cy="545.78" rx="24.66" ry="7.64" transform="translate(13.51 1124.4) rotate(-44.73)"/><path class="cls-7" d="M1271.43,541.67c4.17,7.76,2.27,16.15,2.38,22.63-.24,1.88-.41,3.88-.5,5.92a43.45,43.45,0,0,0-.44,7.71c.65,20.91,14.3,31.94,33.27,34.52,3.11,8.42,1.77,10.19-1.12,14.91,3,3.59,7.81,6.07,12.39,7.59a78.87,78.87,0,0,0,8.27.89h0c2.25-.71,4.68-1.62,7.47-2.69-4.24-12.77-2.81-12.19,1-24.3,11.3-5.15,20.7-14.61,24-25.92h0c.17-.42.48-1.37.82-2.49.1-.35.21-.7.3-1h0a28.71,28.71,0,0,0,1.9-6.89c1.3-9.38,4.94-17.4,9-24.89,2,2.23,5.52,2.71,9.65,1.31,7-2.38,9.24-4.42,9.65-10.76.37-5.89-3.8-9.5-9.31-9.31.21-.47.41-.94.61-1.42a50.18,50.18,0,0,0,3.53-35.15c-4.27-15.87-11.64-28-21.85-35.63a13.83,13.83,0,0,1-.52,2.51,2.11,2.11,0,0,1-2.72,1.15,1.93,1.93,0,0,1-1.14-1.22,2.08,2.08,0,0,1-2.13-2.8,3.69,3.69,0,0,1,1.46-2.08l0,0a3.06,3.06,0,0,0,0-.75c-11.34-6.29-25.64-7.66-42.63-3.21-36.22,9.48-59.92,31.17-53.49,66.92a61.52,61.52,0,0,0,10.1,24.48S1271.43,541.66,1271.43,541.67Z"/><path class="cls-18" d="M1299.93,550.67c1.93,11.28,6.24,15.2,17.77,13.94s16.28-9.83,12.51-21.7-6.48-12.88-17.5-11.2S1298,539.39,1299.93,550.67Z"/><path class="cls-15" d="M1301.54,516.49c.78,3.25,13.54-.15,15.87-.26s15.41-1,14.88-4.38-13.81-2.34-16.43-2.19S1300.75,513.23,1301.54,516.49Z"/><path class="cls-15" d="M1260.42,511.16c0-.51-.11-1-.17-1.52a2.8,2.8,0,0,0,0-.41l-.06-.37v-.16a3.16,3.16,0,0,0-.06-.64,2.36,2.36,0,0,0,0-.46h0a1.68,1.68,0,0,0,0-.5v0a.78.78,0,0,0,0-.16,3.49,3.49,0,0,0,0-.56.9.9,0,0,0,0-.16.31.31,0,0,0,0-.1l0-.21a1.74,1.74,0,0,0,0-.45,29.51,29.51,0,0,1,6.53,1.87c2.59,1.38,14.25,7.72,12.62,11s-12.89-3.53-15-4.71a29.41,29.41,0,0,0-3.81-1.37c0-.25,0-.49-.07-.73A1.82,1.82,0,0,0,1260.42,511.16Z"/><path class="cls-11" d="M1301,550.53c1.79,10.47,5.79,14.11,16.5,12.94s15.1-9.12,11.6-20.15-6-12-16.24-10.39S1299.17,540.06,1301,550.53Z"/><path class="cls-14" d="M1290.68,586c-3.33,2.1-1.36,7.19,2.12,8.85s11.68.25,12.23-3.45-3.29-3.22-5.75-4S1294,583.88,1290.68,586Z"/><path class="cls-13" d="M1286.53,566.53c-2.06,5.15.61,8.24,7.83,7.64s9.76-1.66,7-6.79-2-7.2-4.87-9.61S1288.58,561.39,1286.53,566.53Z"/><path class="cls-7" d="M1287.45,565.58c-1.91,4.8.57,7.67,7.29,7.11s9.08-1.55,6.53-6.32-1.87-6.7-4.53-9S1289.36,560.79,1287.45,565.58Z"/><path class="cls-18" d="M1274,553.68c0-.66,0-1.31,0-2a1.36,1.36,0,0,0-.07-.35,4.43,4.43,0,0,0-.07-.81,6.43,6.43,0,0,0-.17-1.38,6.23,6.23,0,0,0-.29-1.81h0l.07.25-.09-.35,0-.18c0-.09,0-.17,0-.25s0-.06,0-.09a20,20,0,0,0-.88-3.1,3.28,3.28,0,0,0-.2-.52,5.21,5.21,0,0,0-.28-.52,17.46,17.46,0,0,0-.9-1.78,3.06,3.06,0,0,0-.58-.73l-.07-.11a2.53,2.53,0,0,0-.38-.58,5.47,5.47,0,0,0-.73-1.13,2.1,2.1,0,0,0-.13-.26,2.84,2.84,0,0,0-.22-.34c1.7-4.17,4.76-5.75,9.75-4.84,6.43,1.17,7.72,2.33,7.4,10.38s-4.68,12.38-11.31,10.84l-.73-.19Z"/><path class="cls-11" d="M1274.06,553.29c0-.63,0-1.26,0-1.9a1.28,1.28,0,0,0-.06-.33,6.85,6.85,0,0,0-.07-.78,5.81,5.81,0,0,0-.16-1.32,6,6,0,0,0-.28-1.74h0l.06.24c0-.12,0-.23-.08-.34l0-.17c0-.09,0-.16-.05-.24s0-.06,0-.09a18.83,18.83,0,0,0-.85-3,4.24,4.24,0,0,0-.18-.5,4,4,0,0,0-.28-.5,14.39,14.39,0,0,0-.86-1.71,3,3,0,0,0-.56-.7l-.06-.11a2.3,2.3,0,0,0-.37-.55,5.12,5.12,0,0,0-.71-1.09,1.15,1.15,0,0,0-.12-.25,1.85,1.85,0,0,0-.21-.33c1.63-4,4.58-5.53,9.37-4.65,6.18,1.12,7.42,2.24,7.11,10s-4.5,11.89-10.87,10.42l-.69-.18A1.09,1.09,0,0,0,1274.06,553.29Z"/><path d="M1312.25,526.78c9.67-1.41,18-.19,19.43,2.72l-.06,0a2.14,2.14,0,0,0-2.71,1.15c.14-.29,0,0-.11.12a1,1,0,0,1-.15.14,5.67,5.67,0,0,1-.64.45l-.23.14-.43.24c-.28.17-.57.34-.84.52a1.88,1.88,0,0,0-.54.41l-.07.08-.15.21-.09.18a1.19,1.19,0,0,0-.08.2l0,.13a2.37,2.37,0,0,0-.06.84,1.71,1.71,0,0,0,.09.78,1.48,1.48,0,0,0,.34.7h0a52.16,52.16,0,0,1-24,3.56s0-.09,0-.13c.11-.22.21-.45.33-.68a2.3,2.3,0,0,0,.18-.43,2.11,2.11,0,0,0-2-3.3,1.89,1.89,0,0,0-1.62,1.38l0,.05c-.21.32-.37.67-.55,1a1.51,1.51,0,0,1-.18.26,1.62,1.62,0,0,0-.39,1c-2-.67-3.16-1.63-3.33-2.82C1293.89,532.25,1301.89,528.29,1312.25,526.78Z"/><path d="M1274.36,532.71l.08,0a2.11,2.11,0,0,0-.44-4.08l-.17,0a5.83,5.83,0,0,0-.13-1.37,2.76,2.76,0,0,0-.19-.55c3.38-1.48,10.06-1.66,17.5-.24,8.12,1.56,14.7,4.58,16.79,7.43-1.41.65-2.62,1.84-4.09,2.31-1.69.54-3.82.28-5.58.42-3.42.26-6.7-.9-10-1.46H1288a1.55,1.55,0,0,0-.31,0,1.83,1.83,0,0,0-.52,0,2,2,0,0,0-1.66,2.49,2,2,0,0,0,0,.25c-5-1.25-9.13-3-11.65-4.89A1.84,1.84,0,0,0,1274.36,532.71Z"/><path class="cls-11" d="M1269.15,538.22a2.08,2.08,0,0,1,.45.74s.07,0,.09.09l.07.11,0,0a1.92,1.92,0,0,1,.34.54.69.69,0,0,1,.07.15l.34.48v0h0a1.77,1.77,0,0,1,.31.55,2.21,2.21,0,0,1,.57.77,2.24,2.24,0,0,1,.11.31c.14.22.28.43.41.67a2,2,0,0,1,.13.41.22.22,0,0,1,0,.08,2.38,2.38,0,0,1,.17.47.81.81,0,0,0,0,.11,1.64,1.64,0,0,0,.07.15.14.14,0,0,0,0,.06,2.43,2.43,0,0,1,.28.47l.15.53a1.88,1.88,0,0,1,0,.33s0,0,0,.06a5.94,5.94,0,0,1,.17.7,1.1,1.1,0,0,1,0,.18.94.94,0,0,1,0,.16l0-.14s0,0,.05.16a6.6,6.6,0,0,1,.36,1.52V548l0,.12c0,.17.08.35.12.52a1.09,1.09,0,0,1,0,.51,10.56,10.56,0,0,1,.15,1.11v.13a2.61,2.61,0,0,1,0,.39l0,.11a3,3,0,0,1,0,.42.22.22,0,0,1,0,.08c0,.11,0,.23,0,.35a1.4,1.4,0,0,1,0,.41.68.68,0,0,1,0,.14c0,.22,0,.43,0,.64s0,.36,0,.54a2.37,2.37,0,0,0,1.27.15l.23,0a2.52,2.52,0,0,0,2.12-2.85,2.54,2.54,0,0,0-1-1.66,2.49,2.49,0,0,0-1.5-.49,2.53,2.53,0,0,0,.66-2.09,2.56,2.56,0,0,0-1-1.65,2.46,2.46,0,0,0-.62-.33,2.54,2.54,0,0,0,.71-2.13,2.51,2.51,0,0,0-1-1.65,2.39,2.39,0,0,0-.34-.21,2.5,2.5,0,0,0-.24-3.82,2.5,2.5,0,0,0-1.87-.48l-.22,0A2.49,2.49,0,0,0,1269.15,538.22Z"/><ellipse class="cls-7" cx="1289.88" cy="531.54" rx="6.17" ry="18.95" transform="translate(524.8 1698.16) rotate(-79.14)"/><ellipse class="cls-7" cx="1313.41" cy="531.95" rx="18.95" ry="6.17" transform="translate(-63.02 195.13) rotate(-8.3)"/><path class="cls-18" d="M1299.36,605.81c.51,8.13,14,8,19.74,7.31s18.8-2.52,18.67-10.61-13.37-9.11-19.38-8.47S1298.84,597.68,1299.36,605.81Z"/><path class="cls-7" d="M1295.93,605.87c1,8.13,18.56,7.26,24.25,6.54s22.84-4.22,21.8-12.35-18.47-7.26-24.17-6.54S1294.92,597.74,1295.93,605.87Z"/><path class="cls-15" d="M1291.27,586.37c-3,1.93-1.25,6.6,2,8.11s10.71.23,11.21-3.16-3-3-5.27-3.69S1294.32,584.45,1291.27,586.37Z"/><circle class="cls-36" cx="1315.13" cy="549.83" r="7.91"/><path class="cls-37" d="M1273,545.74a4.53,4.53,0,0,0-.24-.84,4.72,4.72,0,0,0-.35-1,3.72,3.72,0,0,0-.27-.48,4.33,4.33,0,0,0-.59-1.38,5.23,5.23,0,1,1,1.75,5.28A5.86,5.86,0,0,0,1273,546,1.51,1.51,0,0,0,1273,545.74Z"/><path d="M1310.7,550.21c.16,1.49,1.12,3.23,2.84,3s2.3-2.36,2.13-3.9-1.21-3.39-2.92-3S1310.53,548.72,1310.7,550.21Z"/><path class="cls-15" d="M1267.87,491.77c21.5,11.24,14.44-.13,40.46,9.3,17.57,6.37,34.09-2.46,43.43-17a44.54,44.54,0,0,0-.11,12c1.54,8.84,9.82,32.49,27.26,31.64s15.74-32.64,11.89-43.52-25.31-36.71-31.28-26.81c-2.59-22.37-54.77-8.38-69.35-7.51C1275,450.8,1246.37,480.52,1267.87,491.77Z"/><path class="cls-6" d="M1374.61,543.17c-4.25,3.71,3.94,4.14,7.11,2.15s5.82-6.57,4.21-9.61-4.33-5-6.62-1.78S1378.86,539.46,1374.61,543.17Z"/><path class="cls-7" d="M1375.21,543c-3.9,3.4,3.61,3.79,6.52,2s5.34-6,3.86-8.81-4-4.6-6.07-1.64S1379.1,539.55,1375.21,543Z"/><path class="cls-6" d="M1375.93,542.78c-3.33,2.91,3.09,3.24,5.57,1.68s4.56-5.14,3.3-7.53-3.39-3.92-5.19-1.39S1379.26,539.87,1375.93,542.78Z"/><path class="cls-16" d="M1291.06,587.88c-3,1.09-1,4.14,2.3,5.24s10.67.63,11-1.5-3.13-2-5.41-2.59S1294,586.8,1291.06,587.88Z"/><path class="cls-15" d="M1352.8,507.35c4.37,14.29,5.43,32.15,20.53,24s19.35,15.85,20-13.23.87-22.93-22.94-35.09S1348.44,493.06,1352.8,507.35Z"/><path class="cls-38" d="M1353,489.06a8,8,0,0,1,1.28.74c6.14,4.3,15.82,16.47,11.23,23.45-.17.28-2.47,5.83-2.53,7.24s3-6.61,3.16-6.93c4.31-7.93-5.81-20-12.64-24.34A1.72,1.72,0,0,0,1353,489.06Z"/><path class="cls-38" d="M1381.4,519.32c-.41.63-2.67,6.83-2.48,8.31s3.16-7.1,3.52-7.8c9.07-17.75-4.57-43.39-21.29-52.2a7.72,7.72,0,0,0-1.18-.41c.81.36,2.15,1.16,2.6,1.43C1376.92,477.43,1391.82,503.48,1381.4,519.32Z"/><path class="cls-38" d="M1372.68,527.45c-.11,2.5,5.29-11.7,5.59-12.26,7.62-14-10.28-35.4-22.36-43.07a3.42,3.42,0,0,0-.89-.29,17.72,17.72,0,0,1,2.27,1.31c10.85,7.62,28,29.15,19.88,41.5C1376.84,515.13,1372.79,525,1372.68,527.45Z"/><path class="cls-38" d="M1369,524.45c-.09,1.91,4.06-9,4.29-9.42,5.86-10.77-7.9-27.19-17.17-33.08a2.66,2.66,0,0,0-.69-.22,12.31,12.31,0,0,1,1.74,1c8.34,5.85,21.5,22.38,15.27,31.87C1372.23,515,1369.12,522.53,1369,524.45Z"/><path class="cls-38" d="M1383.15,524.33c-.28,2.47,4.62-9.54,4.92-10.27,7.76-18.34-12.78-49.47-25-54.83a6.88,6.88,0,0,0-1-.29c1,.41,2.15,1.15,2.48,1.32,10.93,5.81,30.06,35.26,22.65,52.8C1386.91,513.76,1383.44,521.86,1383.15,524.33Z"/><path class="cls-38" d="M1361.24,458.72l.83.21a3.36,3.36,0,0,0-.82-.27C1361,458.62,1361,458.65,1361.24,458.72Z"/><path class="cls-38" d="M1352.46,454.27a8.42,8.42,0,0,1-1.33-.67c-6.36-4-16.68-15.59-12.49-22.81.17-.28,2.16-6,2.14-7.36s-2.62,6.76-2.78,7.09c-3.87,8.15,6.89,19.66,13.94,23.62A1.69,1.69,0,0,0,1352.46,454.27Z"/><path class="cls-38" d="M1322.48,425.59c.38-.65,2.3-7,2-8.43s-2.77,7.26-3.09,8c-8.1,18.21,6.91,43.08,24.09,51a6.28,6.28,0,0,0,1.2.36c-.84-.32-2.22-1-2.67-1.29C1329.23,467.18,1312.94,442,1322.48,425.59Z"/><path class="cls-38" d="M1330.75,417c0-2.5-4.65,12-4.92,12.54-6.85,14.43,12.19,34.8,24.67,41.8a3.25,3.25,0,0,0,.9.24,16.31,16.31,0,0,1-2.34-1.19c-11.24-7-29.53-27.58-22.1-40.36C1327.26,429.53,1330.78,419.5,1330.75,417Z"/><path class="cls-38" d="M1334.55,419.8c0-1.92-3.57,9.19-3.78,9.63-5.26,11.08,9.36,26.73,19,32.11a2.91,2.91,0,0,0,.69.18,11.93,11.93,0,0,1-1.79-.91c-8.64-5.39-22.68-21.19-17-31C1331.87,429.42,1334.58,421.72,1334.55,419.8Z"/><path class="cls-38" d="M1320.46,420.68c.15-2.48-4.09,9.78-4.36,10.53-6.75,18.73,15.46,48.7,28,53.39a7.77,7.77,0,0,0,1,.24c-1-.36-2.21-1-2.55-1.19-11.22-5.21-31.92-33.58-25.48-51.49C1317.28,431.44,1320.31,423.17,1320.46,420.68Z"/><path class="cls-38" d="M1345.9,485l-.84-.17a3.8,3.8,0,0,0,.83.23C1346.19,485.09,1346.13,485.07,1345.9,485Z"/><path class="cls-38" d="M1268.16,454.36c3.74,5.78,14.61,9.24,20.71,9.54a9.23,9.23,0,0,0,1.48-.06,2,2,0,0,1-.52.13c-6.55,0-17.64-3.18-21.93-9.17A5.06,5.06,0,0,0,1268.16,454.36Z"/><path class="cls-38" d="M1261.39,474.16s0,0,0-.07c9.13,7.59,22.06,12.23,31.77,12.1.52,0,2.08-.05,3-.18a6.83,6.83,0,0,1-1.22.28c-11,.86-24.24-3.72-33.66-11.66C1261.3,474.48,1261.35,474.32,1261.39,474.16Z"/><path class="cls-38" d="M1264.09,468.67l.09-.14c8.68,6.69,22.51,10.62,31.06,11a17.35,17.35,0,0,0,2.62-.1,3.63,3.63,0,0,1-.91.23c-9.33,0-23.83-3.66-33.11-10.6A2.3,2.3,0,0,0,1264.09,468.67Z"/><path class="cls-38" d="M1267.53,463.81c6.68,4.61,16.47,7.3,22.65,7.6a12.48,12.48,0,0,0,2-.07,2.4,2.4,0,0,1-.7.17c-6.76,0-17.09-2.5-24.21-7.27A3,3,0,0,0,1267.53,463.81Z"/><path class="cls-38" d="M1260.15,479.46a.86.86,0,0,0,0-.16c11.27,9.55,27.72,15.64,35.8,15,.37,0,1.78,0,2.8-.2a10,10,0,0,1-1,.27c-8.49,1.28-25.59-4.61-37.56-14.22A2.31,2.31,0,0,0,1260.15,479.46Z"/><path class="cls-38" d="M1299.6,493.88l-.82.25a3.25,3.25,0,0,0,.83-.2C1299.88,493.81,1299.82,493.81,1299.6,493.88Z"/><path class="cls-38" d="M1327.32,464.79a9.79,9.79,0,0,1-1.46.24c-7.48.56-22.68-2.71-23.56-11,0-.33-1.78-6.08-2.63-7.21s1.89,7,1.95,7.37c1.69,8.86,17.18,11.79,25.21,10.81A2,2,0,0,0,1327.32,464.79Z"/><path class="cls-38" d="M1286.19,459.36c-.08-.75-2.26-7-3.34-8s2.05,7.5,2.22,8.27c4.23,19.47,31,30.67,49.55,26.87a7.68,7.68,0,0,0,1.18-.42c-.87.23-2.41.47-2.92.54C1316.21,488.92,1288.18,478.22,1286.19,459.36Z"/><path class="cls-38" d="M1287.78,447.55c-1.5-2,3.33,12.4,3.45,13,3,15.69,30.39,20.87,44.6,19.15a3.55,3.55,0,0,0,.87-.35,16.83,16.83,0,0,1-2.59.43c-13.22,1-40.12-4.8-41.68-19.5C1292.37,459.71,1289.28,449.54,1287.78,447.55Z"/><path class="cls-38" d="M1292.5,447.56c-1.14-1.53,2.56,9.52,2.65,10,2.3,12.05,23.35,16,34.25,14.71a2.81,2.81,0,0,0,.67-.26,12.42,12.42,0,0,1-2,.32c-10.16.75-30.82-3.69-32-15C1296,456.9,1293.66,449.09,1292.5,447.56Z"/><path class="cls-38" d="M1281.66,456.6c-1.34-2.09,2.48,10.31,2.71,11.06,5.62,19.11,41.25,30.16,54.11,26.55.18-.06.56-.22.93-.39-1,.29-2.39.48-2.75.55-12.14,2.43-45.6-8.22-51-26.48C1285.45,467.16,1283,458.69,1281.66,456.6Z"/><path class="cls-38" d="M1340.2,493.46l-.78.36a3.61,3.61,0,0,0,.8-.31C1340.48,493.35,1340.41,493.37,1340.2,493.46Z"/><rect class="cls-39" x="1269.97" y="449.44" width="7.89" height="11.57" transform="translate(2600.19 721.84) rotate(171.7)"/><path class="cls-39" d="M1272.73,432.66c-1.24,15.35-2.86,16.55,8.5,22.69s69.31-.84,63.21-22.22S1329,401.89,1305.07,404,1274,417.31,1272.73,432.66Z"/><path class="cls-40" d="M1271.87,443.09c26.85,6.75,48.82,5.22,72.4-9.94a91.7,91.7,0,0,1,2.49,12.18,2.45,2.45,0,0,0-.46,0c-2.58.5-5.23,1.11-7.86,1.89a25.08,25.08,0,0,0-8.32,3.09,34.12,34.12,0,0,0-12.2,9.1,1.81,1.81,0,0,0-.27.43c-1.75,1.44-3.54,2.61-4.53,4.56-12.71.69-25.38.66-38.59,2.73A114.47,114.47,0,0,1,1271.87,443.09Z"/><path class="cls-41" d="M1297.1,473.33c9.7-1.41,17.15-7.77,24.36-13.91,3-2.58,5.88-5,8.89-7.1,9-6.25,24.42-3.41,24.58-3.38a4.16,4.16,0,0,0,4.84-3.43,4.32,4.32,0,0,0-3.37-5c-.76-.15-18.91-3.53-30.76,4.69a120.5,120.5,0,0,0-9.54,7.61c-6.73,5.74-13.09,11.14-20.66,12.09-10.42,1.29-14.38-1.36-17.87-3.69l-.6-.4c-3.45-2.28-7-6.57-7.28-8.24,1.2-2,4.43-4.46,6.25-5.56a4.34,4.34,0,0,0,1.47-5.86,4.13,4.13,0,0,0-5.71-1.55c-.71.42-7,4.27-9.52,9.15-3.91,7.56,6.39,16.66,10.31,19.25l.56.38c4.23,2.82,10,6.69,23.45,5Z"/><path class="cls-39" d="M1275.59,444a1.86,1.86,0,0,0-.81-.2,1.65,1.65,0,0,0-.55-.14l-.26-.08a2,2,0,0,0-.66-.15h0a1.93,1.93,0,0,0-.55-.14,1.86,1.86,0,0,0-.83-.15c.08-2.57.48-5.89.85-10.49,1.25-15.35,8.4-26.49,32.34-28.63s33.26,7.71,39.36,29.07a1.15,1.15,0,0,0-.26,0,5.29,5.29,0,0,0-4-2.33c-3.84-.36-6.63,3-8.2,6.2a17.64,17.64,0,0,0-6.35,1.45c-.41.2-.86.44-1.32.72a10.93,10.93,0,0,0-5.2-.18,11.53,11.53,0,0,0-1.31-1.68,2.35,2.35,0,0,0-2.54-.46c-2-1.35-4.26-2.51-5.93-1.05a2.15,2.15,0,0,0-.33,2.93c.49.71,1,1.41,1.52,2.1a2.32,2.32,0,0,0-.4.7l-.31.12a6.57,6.57,0,0,0-3.93-2.74,5.23,5.23,0,0,0-1-1.48,3.85,3.85,0,0,0-1.41-.88,2.15,2.15,0,0,0-3.7-.7,9.29,9.29,0,0,0-1.13,1.88,11.65,11.65,0,0,0-2.31,2.21,17.68,17.68,0,0,0-2,3.24q-.36.56-.69,1.11c-.46.79-.89,1.62-1.29,2.48a2.08,2.08,0,0,0-.8-.09c-2.21.13-4.71-.54-6.89-.87s-4.62-.43-6.89-.84a2.2,2.2,0,0,0-.62,0,2.42,2.42,0,0,0-.76-.53A1.68,1.68,0,0,0,1275.59,444Z"/><path class="cls-40" d="M1293.83,460.2a1.72,1.72,0,0,0,0,.9,1.76,1.76,0,0,0,0,.4,2.34,2.34,0,0,0-.47-.05l-.95,0-2.54-.53a1.7,1.7,0,0,0-1.77.51,19.09,19.09,0,0,1-2.25-.24,12.42,12.42,0,0,1-5.73-2.82c-2.4-1.87-4.74-3.9-7.55-5a94,94,0,0,1-.49-10.3,119,119,0,0,0,23.69,3.72c-.07,2.56-.24,5.12-.46,7.67C1294.7,456.36,1294.31,458.29,1293.83,460.2Z"/><path class="cls-42" d="M1258.43,582.83c9.39,3.85,21.2,8.66,31.07,9.89,3.39.42,4.28.17,5.11-1.69h0c.82-1.87-.39-3.37-3.12-5.22-8-5.42-20.28-9.16-29.83-12.19-3.27-1-5.39.27-6.3,2.9h0C1254.44,579.16,1255.21,581.51,1258.43,582.83Z"/><path d="M1274.43,542.79c-.27,1-.09,2.39,1.08,2.68s2.09-.94,2.38-2,.08-2.51-1.13-2.69S1274.71,541.78,1274.43,542.79Z"/><rect class="cls-24" x="1310.23" y="545.23" width="2.28" height="2.28" rx="1.14" transform="translate(2651.27 1018.47) rotate(176.79)"/><rect class="cls-24" x="1274.23" y="539.47" width="2.28" height="2.28" rx="1.14" transform="translate(2579 1008.98) rotate(176.79)"/><path class="cls-43" d="M1289.81,709.44c0,.42.2,1.43.65,1.38,4.73-.47,6.64,1.36,10.71-2.1,16.78-14.24,12.87-35.57,17.51-54.5,1.13-4.6,5.78-8.71-1.24-9.16a2,2,0,0,0-1.5.4,33.7,33.7,0,0,0-6.54,10.95c-4.89,14.59-3.77,32.94-16.41,44.57C1289.92,703.81,1289.59,704.94,1289.81,709.44Z"/><path class="cls-44" d="M1305.73,634.76c3.91,4.14,3.63-.24,2.71-5.52a8.26,8.26,0,0,0,3.73,1.29c.07,0,.29.07.68.14l.82.23a17.13,17.13,0,0,0,2,.62,17.55,17.55,0,0,0,3.32.43c.91.15,1.82.29,2.74.38h0a6.73,6.73,0,0,0,5.32,2.12c1.57-.15,3.13-.3,4.7-.41-2.84,3.83-5.06,6.52-.26,4.06,1.81,5.75-11.33,10-14.47,10.45C1314.28,647.79,1303.41,636.33,1305.73,634.76Z"/><path class="cls-43" d="M1305.74,633.85c3.65,3.87,3.64.29,2.87-4.5a8.25,8.25,0,0,0,3.56,1.18c.07,0,.29.07.68.14l.82.23a17.13,17.13,0,0,0,2,.62,17.55,17.55,0,0,0,3.32.43c.91.15,1.82.29,2.74.38h0a6.73,6.73,0,0,0,5.32,2.12l4-.36c-2.46,3.3-3.93,5.35.45,3.11,1.81,5.75-11.33,10-14.47,10.44C1314.28,646.89,1303.41,635.43,1305.74,633.85Z"/><path class="cls-45" d="M1325.61,659.15a72.33,72.33,0,0,1,15.21-19.28c2.41-2.11,1.47-2.31,1-4.93a30.21,30.21,0,0,0-2.35-7.6c-1.11-2.23-2.47-2.62-4.21-.94-4.28,4.13-8.57,4.51-14.5,4.18-2.41-.13-2,1.63-1.9,5.37s2.12,14.85,2.75,18.67S1323.88,662.24,1325.61,659.15Z"/><path class="cls-45" d="M1303.28,655.46a64.57,64.57,0,0,0-5.8-21.93c-1.26-2.6-.4-2.53,1-4.81a33.94,33.94,0,0,1,4.78-6.35c1.76-1.75,3-1.74,3.91.29,2.11,5,5.6,6.5,10.75,7.83,2.09.53,1.06,2-.36,5.46s-7.26,13.1-9.2,16.43S1303.61,658.78,1303.28,655.46Z"/><path d="M1539.66,739c-38.76-6.14-71.4-43-63.46-81.57s46.66-67.48,86.13-65.39,74.78,44.11,68.16,85S1578.42,745.16,1539.66,739ZM1561.56,599c-35.43-1.64-71.28,24.44-78.69,59.47s22.57,68.3,57.93,73.9,76.67-19.31,83-56.26S1597,600.59,1561.56,599Z"/><rect x="1535.46" y="604.44" width="4.07" height="82.58" rx="2.04" transform="translate(-107.14 921.51) rotate(-32.3)"/><rect x="1585.35" y="619.56" width="4.07" height="82.58" rx="2.04" transform="translate(1689.19 -1055.58) rotate(70.79)"/><rect x="1539.43" y="661.14" width="4.07" height="71.94" rx="1.9" transform="translate(468.38 -610.78) rotate(26.3)"/><circle cx="1552.3" cy="671.65" r="14.56"/><ellipse class="cls-46" cx="848.04" cy="905.31" rx="121.67" ry="108.44" transform="translate(-180.88 212.42) rotate(-12.91)"/><ellipse class="cls-47" cx="870.81" cy="907.94" rx="112.34" ry="105.54" transform="translate(-280.32 400.42) rotate(-22.4)"/><rect class="cls-48" x="1505.94" y="747.22" width="155.28" height="125.35" transform="translate(83.67 -146.11) rotate(5.43)"/><ellipse class="cls-46" cx="1516.43" cy="934.9" rx="121.67" ry="108.44" transform="translate(-170.58 362.55) rotate(-12.91)"/><ellipse class="cls-47" cx="1539.21" cy="937.53" rx="112.34" ry="105.54" transform="translate(-241.14 657.4) rotate(-22.4)"/><g class="cls-49"><path class="cls-50" d="M1259.29,408.13a17.78,17.78,0,0,1-1.91.63c-25.53,6.34-49.29,19.17-76.1,18.13L1031.62,632l85.55,62.44,185.7-254.45Z"/><rect class="cls-50" x="1137.31" y="485.96" width="315.01" height="105.92" transform="translate(96.18 1267.1) rotate(-53.88)"/><rect class="cls-50" x="1365.2" y="388.42" width="105.92" height="315.01" transform="translate(594.46 -731.08) rotate(36.12)"/><rect class="cls-50" x="1490.52" y="395.71" width="105.92" height="315.01" transform="translate(622.85 -803.56) rotate(36.12)"/><rect class="cls-50" x="1620.32" y="396.84" width="105.92" height="315.01" transform="translate(648.48 -879.86) rotate(36.12)"/><rect class="cls-50" x="1751.54" y="380.07" width="105.92" height="341.03" transform="translate(671.48 -957.94) rotate(36.12)"/><path class="cls-50" d="M2095,379.62c-1.13-.3-2.27-.58-3.43-.84-30.25,1.45-62.26,7-91.18-3.78l-.19,0a17.73,17.73,0,0,1-4.53-1.17L1788.92,657.15l85.56,62.44,238.68-327-17.55-12.8Z"/></g><path class="cls-51" d="M645.37,897l-7.91-20.29A11.91,11.91,0,0,0,622.08,870L531.7,905.19A11.91,11.91,0,0,0,525,920.57l2.27,5.84a12.83,12.83,0,0,1,4.77-.5,25.28,25.28,0,0,1,8.12,1.92c2.59,1.17,5.09,2.5,7.61,3.81,3.37,1.74,5.4,5.72,6.33,9.23a12.33,12.33,0,0,1,.32,4.35l84.25-32.84A11.91,11.91,0,0,0,645.37,897Z"/><path class="cls-52" d="M2349.56,624.72l-15.91-51.63a39.35,39.35,0,0,0-49.05-25.93L1220.13,875.38a39.34,39.34,0,0,0-25.92,49l15.91,51.63a39.35,39.35,0,0,0,49.05,25.93l145-44.7c-.53-6.37.49-12.55,1.06-17.89a90.21,90.21,0,0,1,4.14-20.27,223,223,0,0,1,16.05-34.74c8.71-15.61,22.64-27.15,37.87-36.24a78.39,78.39,0,0,1,7.1-4.54c1.66-1,3.25-1.86,4.85-2.65,3.2-2.76,7-4.44,11-6.06,2.85-1.16,6.72-2.87,11.18-4.32a84.33,84.33,0,0,1,17-3.69,18.39,18.39,0,0,1,2.46-.92,43.49,43.49,0,0,1,11.5-1.37l.22,0a9.63,9.63,0,0,1,1-.25c11.43-2.27,22.74-1.12,34.23-.12,6.07.53,12.26.83,18.21,2.22a38.11,38.11,0,0,1,7.26,2.61l.7-.06a10.5,10.5,0,0,1,6.92,2.18l.27,0a13.33,13.33,0,0,1,6,2.57,24.63,24.63,0,0,1,2.83,1.51,23.86,23.86,0,0,1,2.85,1.56,44.6,44.6,0,0,1,5.8,3c5.31,3.22,10.74,6,15.68,9.8A84.65,84.65,0,0,1,1654,878.66a14,14,0,0,1,.6,1.38l669-206.28A39.34,39.34,0,0,0,2349.56,624.72Z"/><path class="cls-52" d="M1585.25,719.51,853,679.54A11.51,11.51,0,0,0,841,690.37l-6.08,111.51A11.51,11.51,0,0,0,845.7,814l618.15,33.74c2.09-1.48,4.28-2.82,6.5-4.1,1.66-1,3.25-1.86,4.85-2.65,3.2-2.76,7-4.44,11-6.06,2.85-1.16,6.72-2.87,11.18-4.32a84.33,84.33,0,0,1,17-3.69,18.39,18.39,0,0,1,2.46-.92,43.49,43.49,0,0,1,11.5-1.37l.22,0a9.63,9.63,0,0,1,1-.25c11.43-2.27,22.74-1.12,34.23-.12,6.07.53,12.26.83,18.21,2.22a38.11,38.11,0,0,1,7.26,2.61l.7-.06h.9l5.31-97.36A11.5,11.5,0,0,0,1585.25,719.51Z"/><path class="cls-52" d="M1462.36,827.16l-16.56-71.87a15.66,15.66,0,0,0-18.72-11.7l-273.27,63a15.66,15.66,0,0,0-11.7,18.72l16.56,71.87a15.66,15.66,0,0,0,18.72,11.7l273.27-63A15.66,15.66,0,0,0,1462.36,827.16Z"/><rect class="cls-52" x="1020.9" y="642.03" width="756.25" height="134.62" rx="11.47" transform="matrix(1, 0.05, -0.05, 1, 40.74, -75.2)"/><path class="cls-52" d="M2313.31,558.73l-8.92-28.91a32,32,0,0,0-39.86-21.07l-956.61,295a32,32,0,0,0-21.08,39.87l8.91,28.9a32,32,0,0,0,39.87,21.08l111.72-34.45a138.6,138.6,0,0,1,15.91-11,78.39,78.39,0,0,1,7.1-4.54c1.66-1,3.25-1.86,4.85-2.65,3.2-2.76,7-4.44,11-6.06,2.85-1.16,6.72-2.87,11.18-4.32a84.33,84.33,0,0,1,17-3.69,18.39,18.39,0,0,1,2.46-.92,43.49,43.49,0,0,1,11.5-1.37l.22,0a9.63,9.63,0,0,1,1-.25c10.63-2.11,21.16-1.27,31.83-.33l730.93-225.38A32,32,0,0,0,2313.31,558.73Z"/><rect class="cls-52" x="1099.16" y="401.99" width="14.14" height="253.03" rx="7.07" transform="translate(524.23 -550.54) rotate(36.12)"/><rect class="cls-52" x="1811.09" y="441.09" width="14.14" height="253.03" rx="7.07" transform="translate(684.15 -962.72) rotate(36.12)"/><path class="cls-52" d="M1099.48,770.26l-39.11-126.85A29.16,29.16,0,0,0,1024,624.19L554.1,769.08a28.91,28.91,0,0,0-16.56,13.26,12.33,12.33,0,0,1,2.36,2.32c5.94,7.81,11.52,10.6,18.72,17.87,6.44,6.51,11.9,14.5,17.35,21.84a205.22,205.22,0,0,1,14.75,23,14.28,14.28,0,0,1,6.8,4.36c13.56,15.84,25.43,33.57,40.77,47.79,6,5.6,14.85,11.92,22.15,17.77,5.41,4.34,11,8.67,15.13,14.09l404.69-124.78A29.17,29.17,0,0,0,1099.48,770.26Z"/><rect class="cls-53" x="644.76" y="783.7" width="454.31" height="41.57" rx="16.42" transform="translate(45.15 -46.33) rotate(3.12)"/><rect class="cls-52" x="643.45" y="784.2" width="451.38" height="50.82" rx="9.43" transform="translate(45.42 -46.17) rotate(3.12)"/><rect class="cls-52" x="1300.35" y="246.74" width="14.92" height="283.95" rx="7.39" transform="translate(1293.92 -975.57) rotate(72.86)"/><rect class="cls-52" x="2006.49" y="288.35" width="14.92" height="274.84" rx="7.29" transform="translate(1827.4 -1624.22) rotate(72.86)"/><rect class="cls-52" x="1170.97" y="441.83" width="722.6" height="11.97" rx="5.98" transform="translate(26.69 -82.85) rotate(3.12)"/><rect class="cls-52" x="1216.81" y="432.38" width="677.07" height="20.79" rx="10.25" transform="translate(26.45 -84.12) rotate(3.12)"/><rect class="cls-52" x="1245.08" y="423.08" width="679.05" height="20.79" rx="10.32" transform="translate(25.98 -85.73) rotate(3.12)"/><rect class="cls-52" x="1273.56" y="409.95" width="685.97" height="20.79" rx="10.39" transform="translate(25.31 -87.49) rotate(3.12)"/><rect class="cls-52" x="1306.93" y="397.89" width="685.97" height="20.79" rx="10.39" transform="translate(24.71 -89.32) rotate(3.12)"/><rect class="cls-52" x="1351.02" y="388.99" width="671.13" height="20.79" rx="10.39" transform="translate(24.28 -91.34) rotate(3.12)"/><rect class="cls-52" x="1380.66" y="373.71" width="704.75" height="19.07" rx="8.6" transform="translate(20.74 -84.03) rotate(2.79)"/><path class="cls-53" d="M1263.13,955a12.23,12.23,0,0,1-5.65-1.46,11.33,11.33,0,0,1-4.62-3,10,10,0,0,1-2.83-4.44c0-.08-.06-.16-.1-.23-230.48-16.26-469.2-32-699.83-38-4-.1-5.62,2.54-5.54,7.34.23,13.8,2.37,30.91,2.22,44.8-.06,4.84,1.12,7.41,5.07,7.74,230,19.57,464.52,13.78,693.39,36.72,3.93.39,4.74-1.89,6-6.58,3.53-13.27,11.16-28.91,12.75-42.92Z"/><path class="cls-52" d="M1240.1,1003.84c-228.86-22.88-463.35-17.2-693.38-36.72-4-.34-5.13-2.89-5.08-7.7.15-13.8-2-30.81-2.23-44.52-.08-4.77,1.51-7.4,5.53-7.29,233.63,6.1,475.57,22.16,708.82,38.62,4,.28,5.64,2.93,5.14,7.83-1.43,14.08-9.23,29.88-12.8,43.24C1244.85,1002,1244,1004.23,1240.1,1003.84Z"/><path class="cls-53" d="M1251.56,986.35c-235.21-14.85-470.48-24.21-705.62-38-5.24-.31-5.63-1.79-6-6-.63-8.11-7.86-17.95-11.48-25.35-1.89-3.87.69-6.14,5.87-6,232.72,5.94,502.51,11.63,731.68,39.33,5.1.61,8.14,3.57,6.19,7.2-3.74,6.95-9.72,16.18-12.33,23.44C1258.55,984.71,1256.8,986.68,1251.56,986.35Z"/><rect class="cls-53" x="526.06" y="925.99" width="748.05" height="25.57" rx="12.79" transform="translate(52.51 -47.66) rotate(3.12)"/><path class="cls-54" d="M1248.55,986.18c-235.22-14.84-470.49-24.21-705.63-38-5.24-.3-5.62-1.78-6-6-.63-8.12-7.86-17.95-11.48-25.36-1.88-3.86.69-6.14,5.87-6,232.72,6,502.51,11.64,731.68,39.33,5.1.62,8.14,3.57,6.19,7.2-3.74,7-9.71,16.18-12.33,23.45C1255.53,984.54,1253.79,986.51,1248.55,986.18Z"/><rect class="cls-55" x="523.04" y="925.83" width="748.05" height="25.57" rx="12.79" transform="translate(52.49 -47.5) rotate(3.12)"/><rect class="cls-56" x="1511.79" y="481.02" width="3.48" height="515.35" rx="1.14" transform="translate(1773.47 -925.29) rotate(72.86)"/><rect class="cls-52" x="1425.76" y="364.4" width="700.86" height="19.07" rx="8.58" transform="translate(20.34 -86.14) rotate(2.79)"/><rect class="cls-52" x="1432.01" y="359.11" width="713.73" height="19.07" rx="8.66" transform="translate(20.1 -86.77) rotate(2.79)"/><rect class="cls-52" x="531.89" y="829.56" width="724.58" height="96.02" rx="40.51" transform="translate(49.16 -47.43) rotate(3.12)"/><rect class="cls-52" x="536.13" y="831.49" width="717.57" height="91.42" rx="38.57" transform="translate(49.14 -47.47) rotate(3.12)"/><path class="cls-53" d="M723.87,820.81c-52.61-2.06-99.39-4.46-151-14.64-8.68-1.71-8.28-7.77-10.44-14.81-.5-1.64-.38-1.33.38-3,3.25-7,5.34-13.88,14-13.95,51.63-.41,97-2.35,149.52,1.77,8.83.69,9.19,10.37,10.12,18.46a41.11,41.11,0,0,1-.49,8.87C734.21,811.48,732.73,821.15,723.87,820.81Z"/><path class="cls-53" d="M579.69,807.2c-4.85-.35-22.16-5.83-25.07-6.8-9-3-19.46-3.85-18.21-14.56h0c1.24-10.72,12.92-9.23,22.08-10.63,3-.45,17.54-1,22.52-1,15.35.11,11.38,3.37,8.53,15.54,0,.2-.45.43,0,0C586.69,801.94,594.61,808.28,579.69,807.2Z"/><path class="cls-51" d="M730,820.44c-53.85-2.16-101.73-4.62-154.55-14.6-8.89-1.68-8.5-7.51-10.73-14.31-.51-1.58-.39-1.28.38-2.85,3.3-6.75,5.42-13.36,14.31-13.39,52.84-.23,99.31-1.95,153,2.19,9,.7,9.44,10,10.42,17.83a37,37,0,0,1-.48,8.54C740.55,811.49,739.06,820.8,730,820.44Z"/><path class="cls-51" d="M582.38,806.85c-5-.35-22.69-5.68-25.68-6.63-9.18-2.93-19.92-3.78-18.68-14.09h0c1.24-10.32,13.19-8.86,22.57-10.17,3-.43,17.95-.93,23-.88,15.71.15,11.66,3.28,8.78,15,0,.19-.46.41,0,0C589.53,801.81,597.66,807.94,582.38,806.85Z"/><path class="cls-55" d="M726.66,818.09C675.22,816,629.48,813.62,579,804.54c-8.5-1.53-8.15-6.74-10.3-12.81-.5-1.41-.38-1.15.35-2.55,3.13-6,5.13-11.9,13.62-11.9,50.47,0,94.84-1.4,146.18,2.48,8.64.65,9,9,10,16a30.4,30.4,0,0,1-.43,7.62C736.71,810.14,735.32,818.45,726.66,818.09Z"/><path class="cls-55" d="M585.63,805.46c-4.74-.33-21.7-5.15-24.55-6-8.78-2.64-19-3.43-17.89-12.64h0c1.15-9.2,12.56-7.85,21.52-9,2.91-.37,17.14-.77,22-.7,15,.19,11.14,3,8.43,13.42,0,.17-.44.36,0,0C592.44,801,600.23,806.49,585.63,805.46Z"/><path class="cls-53" d="M1086.74,839.63c53,3.69,100.19,6.43,153,2,8.89-.74,9.15-6.73,12.07-13.4.68-1.55.53-1.26,0-2.94-2.5-7.23-3.85-14.19-12.56-15.2-51.75-6-97.09-12.85-150.19-14.51-8.94-.27-10.35,9.17-12.16,17a39.43,39.43,0,0,0-.47,8.75C1077.38,829.36,1077.82,839,1086.74,839.63Z"/><path class="cls-53" d="M1232.86,842c4.9.18,22.86-3.31,25.89-4,9.32-2,19.94-1.66,19.85-12.3h0c-.08-10.64-11.95-10.45-21-12.82-2.94-.77-17.48-2.91-22.49-3.42-15.4-1.55-11.78,2.07-10.24,14.32,0,.19.41.46,0,0C1226.41,836,1217.78,841.38,1232.86,842Z"/><path class="cls-51" d="M1080.64,838.6c54.26,3.74,102.56,6.52,156.63,2.48,9.1-.68,9.35-6.45,12.32-12.87.69-1.49.53-1.21-.07-2.84-2.58-7-4-13.68-12.9-14.68-53-6-99.41-12.7-153.77-14.47-9.14-.3-10.55,8.8-12.39,16.34A36.63,36.63,0,0,0,1070,821C1071,828.68,1071.51,838,1080.64,838.6Z"/><path class="cls-51" d="M1230.2,841.32c5,.19,23.38-3.11,26.48-3.72,9.53-1.87,20.4-1.54,20.28-11.79h0c-.13-10.25-12.28-10.11-21.54-12.42-3-.75-17.91-2.86-23-3.37-15.77-1.55-12.05,2-10.43,13.76,0,.19.41.45,0,0C1223.58,835.59,1214.75,840.72,1230.2,841.32Z"/><path class="cls-55" d="M1084.6,836.47c51.36,3.5,97.09,6.13,148.26,2.6,8.61-.6,8.83-5.82,11.63-11.61.65-1.35.5-1.1-.07-2.57-2.46-6.32-3.8-12.39-12.25-13.32-50.16-5.51-94.12-11.71-145.57-13.44-8.66-.29-10,7.93-11.7,14.76a31.38,31.38,0,0,0-.4,7.62C1075.47,827.47,1076,835.88,1084.6,836.47Z"/><path class="cls-55" d="M1226.16,839.27c4.75.18,22.13-2.76,25.06-3.31,9-1.67,19.31-1.34,19.17-10.62,1,0,.84,0,0,0-.14-9.27-11.64-9.17-20.42-11.28-2.85-.69-17-2.63-21.8-3.1-14.93-1.44-11.4,1.74-9.84,12.42,0,.18.39.41,0,0C1219.88,834.07,1211.54,838.69,1226.16,839.27Z"/><rect class="cls-55" x="1113.56" y="852.11" width="133.63" height="80.18" rx="38.58" transform="translate(50.39 -63.01) rotate(3.12)"/><rect class="cls-55" x="542.27" y="820.93" width="133.63" height="80.18" rx="38.58" transform="translate(47.84 -31.92) rotate(3.12)"/><path class="cls-56" d="M1718.13,698.05l-.39-1.24a1.09,1.09,0,0,0-1.36-.72L1265.2,835.21a1.09,1.09,0,0,0-.72,1.36l.38,1.24a1.1,1.1,0,0,0,1.37.73L1717.4,699.42A1.1,1.1,0,0,0,1718.13,698.05Z"/><path class="cls-56" d="M1432.86,873.36,1235.8,934.13a1.13,1.13,0,0,0-.75,1.42l.35,1.15a1.14,1.14,0,0,0,1.43.75l192.48-59.35Q1431,875.67,1432.86,873.36Z"/><path class="cls-56" d="M1407.36,926l-143.8,44.34a1.14,1.14,0,0,0-.75,1.42l.36,1.15a1.14,1.14,0,0,0,1.42.76l142-43.77C1406.78,928.59,1407.05,927.29,1407.36,926Z"/><circle class="cls-57" cx="577.92" cy="859.81" r="28.71"/><circle class="cls-57" cx="640.19" cy="863.21" r="28.71"/><circle class="cls-57" cx="1211.48" cy="894.4" r="28.71"/><circle class="cls-57" cx="1150.2" cy="891.05" r="28.71"/><ellipse class="cls-58" cx="578.54" cy="859.53" rx="24.54" ry="24.53"/><circle class="cls-59" cx="578.37" cy="859.36" r="28.71"/><ellipse class="cls-58" cx="1211.18" cy="894.9" rx="24.54" ry="24.53"/><circle class="cls-59" cx="1211.01" cy="894.73" r="28.71"/><ellipse class="cls-58" cx="1151.18" cy="890.9" rx="24.54" ry="24.53"/><circle class="cls-59" cx="1151.01" cy="890.73" r="28.71"/><ellipse class="cls-58" cx="640.18" cy="862.9" rx="24.54" ry="24.53"/><circle class="cls-59" cx="640.01" cy="862.73" r="28.71"/><path class="cls-55" d="M2065.39,643.3c-211.54,69.77-399.76,131.49-608.91,195.39-35.19,10.76-34.89,6.88-45,5.9-2.36-.23-1.82-.22.87-2.14,11.55-8.25,18.44-14.84,53.29-26.59,207.08-69.8,388.87-132.07,600.36-200.54,35.59-11.52,39.1-6.67,44.59-3.47,1.28.75,1.22,4-.08,5.56C2104.88,624.22,2101,631.56,2065.39,643.3Z"/><path class="cls-55" d="M1483.92,830.12c-19.52,6.34-90.16,26.65-102.06,30-36.63,10.43-78.91,24.1-76.21,16.52-4,1.26-3.47,1.11,0,0,2.7-7.59,49.85-22.5,86.35-35.63,11.84-4.26,70.15-24.2,90.15-30.89,61.59-20.62,46.37-13.48,37.55-2.93-.14.17-1.71.84,0,0C1510.87,817.79,1544,810.6,1483.92,830.12Z"/><rect class="cls-55" x="683.52" y="844.07" width="423.52" height="72.43" rx="8.39" transform="translate(49.31 -47.49) rotate(3.12)"/><path class="cls-55" d="M973.35,784.05c3,7.39-57.2,27.06-67.29,26.82S839,785.13,842.37,778s52.21,17.16,64.8,17.53S970.31,776.65,973.35,784.05Z"/><path class="cls-60" d="M199.13,961.38c-7.48.52-1.72.16-1.72.16-16.23-2.71-25.69-5.15-25.94-24.08-.47-35.31,3.12-76.12,3.08-110.86,0-18.62,17.57-25.85,26.19-27.06,7.49-.95,1.73-.29,1.73-.29,16.32,3.14,26.86,10.26,26.73,29-.23,34.94-2.17,75.64-2.93,110.87C225.86,958,207.75,960.72,199.13,961.38Z"/><path class="cls-60" d="M199.78,821.49h0c-3.64,1.69-28.51,6.9-23.18-5,10.4-23.19,16-34.39,16.84-57.25.45-11.71,6.69-10.3,11.23-10.74h0c4.54-.43,11.77.89,10.57,11.4-2.35,20.51,4.42,36.43,11.84,55.93C230.88,825.84,203.42,819.79,199.78,821.49Z"/><rect class="cls-61" x="197.01" y="730.98" width="15.55" height="27.42" rx="6.21" transform="translate(-545.92 926.2) rotate(-88.22)"/><rect class="cls-60" x="196.84" y="730.26" width="15.58" height="27.53" rx="6.23" transform="translate(-545.41 925.41) rotate(-88.22)"/><rect class="cls-62" x="190.62" y="735.48" width="28.14" height="5.71" rx="2.86" transform="translate(9.87 -2.67) rotate(0.76)"/><rect class="cls-62" x="190.61" y="736.52" width="28.14" height="5.71" rx="2.07" transform="translate(9.89 -2.67) rotate(0.76)"/><path class="cls-63" d="M228.28,872.89c-3.44-14.74-14.66-25.56-28-25.56-12.22,0-22.68,9.1-27,22,0,.06,0,.11,0,.17a20,20,0,0,1-.27,2.8,1.52,1.52,0,0,1-.11.38v.05a1.36,1.36,0,0,1,0,.29c0,.91-.06,1.82-.06,2.73a2.81,2.81,0,0,1,.06.73,10.24,10.24,0,0,1-.12,1.23s0,.08,0,.11c0,1.32-.12,2.64-.22,4s-.07,2.91-.12,4.36a11.7,11.7,0,0,1-.15,4.29c0,.15,0,.29,0,.44,0,.34,0,.68,0,1,0,.13,0,.25,0,.37,3.53,14.57,14.68,25.22,27.91,25.22,12.81,0,23.67-10,27.55-23.82a8,8,0,0,1,0-2.76l0-.12c-.32-3.06.11-6.32.21-9.4C228.1,878.55,228,875.7,228.28,872.89Z"/><path class="cls-64" d="M191.68,897.19a7.88,7.88,0,0,1-3.89.78c-3.26-.19-6.1-2.37-8-6.16a24.54,24.54,0,0,1-2.25-12.25c.57-10,6-17.48,12.3-17.12s10.83,8.45,10.27,18.41a24.46,24.46,0,0,1-3.63,11.91A12.09,12.09,0,0,1,191.68,897.19ZM188,867.46c-2.7,1.28-5.39,5.94-5.76,12.37a20.07,20.07,0,0,0,1.75,9.87c1.12,2.2,2.62,3.52,4.12,3.6s3.14-1,4.5-3.11a20,20,0,0,0,2.86-9.61c.44-7.71-2.74-13.29-5.87-13.47A3.25,3.25,0,0,0,188,867.46Z"/><rect class="cls-64" x="205.4" y="863.34" width="4.58" height="35.89" rx="1.95" transform="translate(50.54 -10.4) rotate(3.27)"/><rect class="cls-64" x="211.76" y="887.99" width="4.58" height="18.69" rx="1.41" transform="translate(1119.34 719.86) rotate(92.32)"/><rect class="cls-64" x="186.73" y="859.94" width="4.58" height="41.41" rx="2.1" transform="translate(500.19 35.4) rotate(32.32)"/><rect class="cls-62" x="190.62" y="735.48" width="28.14" height="5.71" rx="2.86" transform="translate(9.87 -2.67) rotate(0.76)"/><rect class="cls-62" x="190.61" y="736.52" width="28.14" height="5.71" rx="2.07" transform="translate(9.89 -2.67) rotate(0.76)"/><path class="cls-63" d="M228.28,872.89c-3.44-14.74-14.66-25.56-28-25.56-12.22,0-22.68,9.1-27,22,0,.06,0,.11,0,.17a20,20,0,0,1-.27,2.8,1.52,1.52,0,0,1-.11.38v.05a1.36,1.36,0,0,1,0,.29c0,.91-.06,1.82-.06,2.73a2.81,2.81,0,0,1,.06.73,10.24,10.24,0,0,1-.12,1.23s0,.08,0,.11c0,1.32-.12,2.64-.22,4s-.07,2.91-.12,4.36a11.7,11.7,0,0,1-.15,4.29c0,.15,0,.29,0,.44,0,.34,0,.68,0,1,0,.13,0,.25,0,.37,3.53,14.57,14.68,25.22,27.91,25.22,12.81,0,23.67-10,27.55-23.82a8,8,0,0,1,0-2.76l0-.12c-.32-3.06.11-6.32.21-9.4C228.1,878.55,228,875.7,228.28,872.89Z"/><path class="cls-64" d="M191.68,897.19a7.88,7.88,0,0,1-3.89.78c-3.26-.19-6.1-2.37-8-6.16a24.54,24.54,0,0,1-2.25-12.25c.57-10,6-17.48,12.3-17.12s10.83,8.45,10.27,18.41a24.46,24.46,0,0,1-3.63,11.91A12.09,12.09,0,0,1,191.68,897.19ZM188,867.46c-2.7,1.28-5.39,5.94-5.76,12.37a20.07,20.07,0,0,0,1.75,9.87c1.12,2.2,2.62,3.52,4.12,3.6s3.14-1,4.5-3.11a20,20,0,0,0,2.86-9.61c.44-7.71-2.74-13.29-5.87-13.47A3.25,3.25,0,0,0,188,867.46Z"/><rect class="cls-64" x="205.4" y="863.34" width="4.58" height="35.89" rx="1.95" transform="translate(50.54 -10.4) rotate(3.27)"/><rect class="cls-64" x="211.76" y="887.99" width="4.58" height="18.69" rx="1.41" transform="translate(1119.34 719.86) rotate(92.32)"/><rect class="cls-64" x="186.73" y="859.94" width="4.58" height="41.41" rx="2.1" transform="translate(500.19 35.4) rotate(32.32)"/><path class="cls-60" d="M287,979.8c-7.48.52-1.72.16-1.72.16-16.23-2.71-25.69-5.15-25.94-24.08-.47-35.31,3.12-76.11,3.08-110.85,0-18.63,17.57-25.86,26.19-27.07,7.49-1,1.72-.29,1.72-.29,16.33,3.15,26.87,10.27,26.74,29-.23,34.94-2.17,75.64-2.94,110.87C313.69,976.43,295.58,979.14,287,979.8Z"/><path class="cls-60" d="M287.62,839.91h0c-3.64,1.7-28.51,6.91-23.18-5,10.4-23.19,15.95-34.38,16.83-57.25.46-11.71,6.7-10.3,11.24-10.73h0c4.54-.44,11.76.88,10.56,11.39-2.34,20.51,4.42,36.43,11.85,55.93C318.72,844.27,291.26,838.21,287.62,839.91Z"/><rect class="cls-61" x="284.85" y="749.4" width="15.55" height="27.42" rx="6.21" transform="translate(-479.23 1031.84) rotate(-88.22)"/><rect class="cls-60" x="284.68" y="748.68" width="15.58" height="27.53" rx="6.23" transform="translate(-478.72 1031.05) rotate(-88.22)"/><rect class="cls-62" x="278.46" y="753.9" width="28.14" height="5.71" rx="2.86" transform="translate(10.13 -3.84) rotate(0.76)"/><rect class="cls-62" x="278.45" y="754.94" width="28.14" height="5.71" rx="2.07" transform="translate(10.14 -3.84) rotate(0.76)"/><path class="cls-63" d="M316.12,891.32c-3.44-14.75-14.66-25.56-28-25.56-12.22,0-22.68,9.09-27,22,0,.06,0,.12,0,.18a18.81,18.81,0,0,1-.26,2.8c0,.13-.07.25-.11.38v0a2.58,2.58,0,0,1,0,.29c0,.91-.06,1.82-.06,2.73a2.81,2.81,0,0,1,.06.73,10.24,10.24,0,0,1-.12,1.23.48.48,0,0,1,0,.12c0,1.32-.11,2.63-.21,3.95l-.12,4.36a11.92,11.92,0,0,1-.15,4.29c0,.15,0,.3,0,.44,0,.34,0,.68,0,1,0,.13,0,.25,0,.37,3.53,14.57,14.68,25.23,27.91,25.22,12.8,0,23.66-10,27.55-23.82a8.24,8.24,0,0,1,0-2.76.43.43,0,0,0,0-.11c-.32-3.07.1-6.33.2-9.41C315.94,897,315.85,894.12,316.12,891.32Z"/><path class="cls-64" d="M279.52,915.61a7.88,7.88,0,0,1-3.89.78c-3.26-.19-6.11-2.37-8-6.16A24.43,24.43,0,0,1,265.36,898c.57-10,6-17.48,12.3-17.12s10.83,8.45,10.26,18.41a24.35,24.35,0,0,1-3.62,11.91A12.09,12.09,0,0,1,279.52,915.61Zm-3.74-29.73c-2.69,1.28-5.38,5.94-5.75,12.37a20.07,20.07,0,0,0,1.75,9.87c1.12,2.2,2.62,3.52,4.12,3.6s3.14-1.05,4.49-3.11a20.05,20.05,0,0,0,2.87-9.61c.44-7.71-2.74-13.29-5.87-13.47A3.31,3.31,0,0,0,275.78,885.88Z"/><rect class="cls-64" x="293.23" y="881.76" width="4.58" height="35.89" rx="1.95" transform="translate(51.74 -15.37) rotate(3.27)"/><rect class="cls-64" x="299.6" y="906.41" width="4.58" height="18.69" rx="1.41" transform="translate(1229.14 651.26) rotate(92.32)"/><rect class="cls-64" x="274.57" y="878.36" width="4.58" height="41.41" rx="2.1" transform="translate(523.65 -8.72) rotate(32.32)"/><rect class="cls-62" x="278.46" y="753.9" width="28.14" height="5.71" rx="2.86" transform="translate(10.13 -3.84) rotate(0.76)"/><rect class="cls-62" x="278.45" y="754.94" width="28.14" height="5.71" rx="2.07" transform="translate(10.14 -3.84) rotate(0.76)"/><path class="cls-63" d="M316.12,891.32c-3.44-14.75-14.66-25.56-28-25.56-12.22,0-22.68,9.09-27,22,0,.06,0,.12,0,.18a18.81,18.81,0,0,1-.26,2.8c0,.13-.07.25-.11.38v0a2.58,2.58,0,0,1,0,.29c0,.91-.06,1.82-.06,2.73a2.81,2.81,0,0,1,.06.73,10.24,10.24,0,0,1-.12,1.23.48.48,0,0,1,0,.12c0,1.32-.11,2.63-.21,3.95l-.12,4.36a11.92,11.92,0,0,1-.15,4.29c0,.15,0,.3,0,.44,0,.34,0,.68,0,1,0,.13,0,.25,0,.37,3.53,14.57,14.68,25.23,27.91,25.22,12.8,0,23.66-10,27.55-23.82a8.24,8.24,0,0,1,0-2.76.43.43,0,0,0,0-.11c-.32-3.07.1-6.33.2-9.41C315.94,897,315.85,894.12,316.12,891.32Z"/><path class="cls-64" d="M279.52,915.61a7.88,7.88,0,0,1-3.89.78c-3.26-.19-6.11-2.37-8-6.16A24.43,24.43,0,0,1,265.36,898c.57-10,6-17.48,12.3-17.12s10.83,8.45,10.26,18.41a24.35,24.35,0,0,1-3.62,11.91A12.09,12.09,0,0,1,279.52,915.61Zm-3.74-29.73c-2.69,1.28-5.38,5.94-5.75,12.37a20.07,20.07,0,0,0,1.75,9.87c1.12,2.2,2.62,3.52,4.12,3.6s3.14-1.05,4.49-3.11a20.05,20.05,0,0,0,2.87-9.61c.44-7.71-2.74-13.29-5.87-13.47A3.31,3.31,0,0,0,275.78,885.88Z"/><rect class="cls-64" x="293.23" y="881.76" width="4.58" height="35.89" rx="1.95" transform="translate(51.74 -15.37) rotate(3.27)"/><rect class="cls-64" x="299.6" y="906.41" width="4.58" height="18.69" rx="1.41" transform="translate(1229.14 651.26) rotate(92.32)"/><rect class="cls-64" x="274.57" y="878.36" width="4.58" height="41.41" rx="2.1" transform="translate(523.65 -8.72) rotate(32.32)"/><path class="cls-60" d="M243,1018.8c-7.48.52-1.72.16-1.72.16-16.23-2.71-25.69-5.15-25.94-24.08-.47-35.31,3.12-76.11,3.08-110.85,0-18.63,17.57-25.86,26.19-27.07,7.49-1,1.72-.29,1.72-.29,16.33,3.15,26.87,10.27,26.74,29-.23,34.94-2.17,75.64-2.94,110.87C269.69,1015.43,251.58,1018.14,243,1018.8Z"/><path class="cls-60" d="M243.62,878.91h0c-3.64,1.7-28.51,6.91-23.18-5,10.4-23.19,15.95-34.38,16.83-57.25.46-11.71,6.7-10.3,11.24-10.73h0c4.54-.44,11.76.88,10.56,11.39-2.34,20.51,4.42,36.43,11.85,55.93C274.72,883.27,247.26,877.21,243.62,878.91Z"/><rect class="cls-61" x="240.85" y="788.4" width="15.55" height="27.42" rx="6.21" transform="translate(-560.84 1025.65) rotate(-88.22)"/><rect class="cls-60" x="240.68" y="787.68" width="15.58" height="27.53" rx="6.23" transform="translate(-560.33 1024.86) rotate(-88.22)"/><rect class="cls-62" x="234.46" y="792.9" width="28.14" height="5.71" rx="2.86" transform="translate(10.64 -3.25) rotate(0.76)"/><rect class="cls-62" x="234.45" y="793.94" width="28.14" height="5.71" rx="2.07" transform="translate(10.66 -3.25) rotate(0.76)"/><path class="cls-63" d="M272.12,930.32c-3.44-14.75-14.66-25.56-28-25.56-12.22,0-22.68,9.09-27,22,0,.06,0,.12,0,.18a18.81,18.81,0,0,1-.26,2.8c0,.13-.07.25-.11.38v0a2.58,2.58,0,0,1,0,.29c0,.91-.06,1.82-.06,2.73a2.81,2.81,0,0,1,.06.73,10.24,10.24,0,0,1-.12,1.23.48.48,0,0,1,0,.12c0,1.32-.11,2.63-.21,3.95l-.12,4.36a11.92,11.92,0,0,1-.15,4.29c0,.15,0,.3,0,.44,0,.34,0,.68,0,1,0,.13,0,.25,0,.37,3.53,14.57,14.68,25.23,27.91,25.22,12.8,0,23.66-10,27.55-23.82a8.24,8.24,0,0,1,0-2.76.43.43,0,0,0,0-.11c-.32-3.07.1-6.33.2-9.41C271.94,936,271.85,933.12,272.12,930.32Z"/><path class="cls-64" d="M235.52,954.61a7.88,7.88,0,0,1-3.89.78c-3.26-.19-6.11-2.37-8-6.16A24.43,24.43,0,0,1,221.36,937c.57-10,6-17.48,12.3-17.12s10.83,8.45,10.26,18.41a24.35,24.35,0,0,1-3.62,11.91A12.09,12.09,0,0,1,235.52,954.61Zm-3.74-29.73c-2.69,1.28-5.38,5.94-5.75,12.37a20.07,20.07,0,0,0,1.75,9.87c1.12,2.2,2.62,3.52,4.12,3.6s3.14-1.05,4.49-3.11a20.05,20.05,0,0,0,2.87-9.61c.44-7.71-2.74-13.29-5.87-13.47A3.31,3.31,0,0,0,231.78,924.88Z"/><rect class="cls-64" x="249.23" y="920.76" width="4.58" height="35.89" rx="1.95" transform="translate(53.89 -12.8) rotate(3.27)"/><rect class="cls-64" x="255.6" y="945.41" width="4.58" height="18.69" rx="1.41" transform="translate(1222.33 735.81) rotate(92.32)"/><rect class="cls-64" x="230.57" y="917.36" width="4.58" height="41.41" rx="2.1" transform="translate(537.69 20.86) rotate(32.32)"/><rect class="cls-62" x="234.46" y="792.9" width="28.14" height="5.71" rx="2.86" transform="translate(10.64 -3.25) rotate(0.76)"/><rect class="cls-62" x="234.45" y="793.94" width="28.14" height="5.71" rx="2.07" transform="translate(10.66 -3.25) rotate(0.76)"/><path class="cls-63" d="M272.12,930.32c-3.44-14.75-14.66-25.56-28-25.56-12.22,0-22.68,9.09-27,22,0,.06,0,.12,0,.18a18.81,18.81,0,0,1-.26,2.8c0,.13-.07.25-.11.38v0a2.58,2.58,0,0,1,0,.29c0,.91-.06,1.82-.06,2.73a2.81,2.81,0,0,1,.06.73,10.24,10.24,0,0,1-.12,1.23.48.48,0,0,1,0,.12c0,1.32-.11,2.63-.21,3.95l-.12,4.36a11.92,11.92,0,0,1-.15,4.29c0,.15,0,.3,0,.44,0,.34,0,.68,0,1,0,.13,0,.25,0,.37,3.53,14.57,14.68,25.23,27.91,25.22,12.8,0,23.66-10,27.55-23.82a8.24,8.24,0,0,1,0-2.76.43.43,0,0,0,0-.11c-.32-3.07.1-6.33.2-9.41C271.94,936,271.85,933.12,272.12,930.32Z"/><path class="cls-64" d="M235.52,954.61a7.88,7.88,0,0,1-3.89.78c-3.26-.19-6.11-2.37-8-6.16A24.43,24.43,0,0,1,221.36,937c.57-10,6-17.48,12.3-17.12s10.83,8.45,10.26,18.41a24.35,24.35,0,0,1-3.62,11.91A12.09,12.09,0,0,1,235.52,954.61Zm-3.74-29.73c-2.69,1.28-5.38,5.94-5.75,12.37a20.07,20.07,0,0,0,1.75,9.87c1.12,2.2,2.62,3.52,4.12,3.6s3.14-1.05,4.49-3.11a20.05,20.05,0,0,0,2.87-9.61c.44-7.71-2.74-13.29-5.87-13.47A3.31,3.31,0,0,0,231.78,924.88Z"/><rect class="cls-64" x="249.23" y="920.76" width="4.58" height="35.89" rx="1.95" transform="translate(53.89 -12.8) rotate(3.27)"/><rect class="cls-64" x="255.6" y="945.41" width="4.58" height="18.69" rx="1.41" transform="translate(1222.33 735.81) rotate(92.32)"/><rect class="cls-64" x="230.57" y="917.36" width="4.58" height="41.41" rx="2.1" transform="translate(537.69 20.86) rotate(32.32)"/><rect class="cls-65" x="252" y="457" width="231" height="171" rx="5.58"/><path d="M85.94,517.66H98.37a29.51,29.51,0,0,1,7.75.79,8.69,8.69,0,0,1,4.07,2.29,7.81,7.81,0,0,1,1.84,3.62,31.67,31.67,0,0,1,.49,6.57v4.14a17.33,17.33,0,0,1-.94,6.62,6.44,6.44,0,0,1-3.44,3.19,16.36,16.36,0,0,1-6.55,1.11H98.28v19.1H85.94Zm12.34,8.12v12.07l.91,0a2.82,2.82,0,0,0,2.35-.84c.44-.55.66-1.71.66-3.47v-3.9c0-1.62-.25-2.67-.76-3.16S99.88,525.78,98.28,525.78Z"/><path d="M142.49,539.87v9.52a40.22,40.22,0,0,1-.53,7.69,10.67,10.67,0,0,1-2.26,4.57,10.21,10.21,0,0,1-4.43,3.14,17.89,17.89,0,0,1-6.23,1,22.07,22.07,0,0,1-6.65-.87,9,9,0,0,1-4.23-2.6,10.32,10.32,0,0,1-2.16-4.22,31.79,31.79,0,0,1-.64-7.43v-10a24.47,24.47,0,0,1,1.17-8.47,9.74,9.74,0,0,1,4.22-4.89,14.85,14.85,0,0,1,7.79-1.85,17.78,17.78,0,0,1,6.84,1.19,10.74,10.74,0,0,1,6.54,7A24.47,24.47,0,0,1,142.49,539.87Zm-11.84-2.93a13.07,13.07,0,0,0-.32-3.76,1.33,1.33,0,0,0-1.38-.78,1.38,1.38,0,0,0-1.4.78,11.56,11.56,0,0,0-.36,3.76v17.55a11.12,11.12,0,0,0,.36,3.59,1.6,1.6,0,0,0,2.76.07,9.75,9.75,0,0,0,.34-3.28Z"/><path d="M158.57,517.66v6.18H146.38v-6.18Zm0,8.56v38.87H146.38V526.22Z"/><path d="M174.86,526.22l-.2,3.58a8.73,8.73,0,0,1,3.14-3.21,8.42,8.42,0,0,1,4.3-1.08,8.12,8.12,0,0,1,5,1.44,6.37,6.37,0,0,1,2.49,3.62,33.21,33.21,0,0,1,.55,7.28v27.24H178.29V538.17a24.43,24.43,0,0,0-.27-4.89c-.17-.59-.66-.88-1.46-.88a1.46,1.46,0,0,0-1.58,1,25.14,25.14,0,0,0-.32,5.41v26.27H162.82V526.22Z"/><path d="M206.68,521v6.13h3.19v6.15h-3.19v20.8c0,2.56.13,4,.39,4.28s1.36.44,3.3.44v6.26h-4.78a34.84,34.84,0,0,1-5.77-.33,6.22,6.22,0,0,1-3-1.55,5.28,5.28,0,0,1-1.64-2.79,50.14,50.14,0,0,1-.32-7.37V533.31h-2.55v-6.15h2.55V521Z"/><path d="M232,534.22v9.63h-8.94v-9.63Zm0,21.21v9.66h-8.94v-9.66Z"/></g></svg>