<svg xmlns="http://www.w3.org/2000/svg" xmlns:xlink="http://www.w3.org/1999/xlink" width="1920" height="1080" viewBox="0 0 1920 1080"><defs><style>.cls-1{fill:none;}.cls-2{fill:#999;}.cls-3{fill:#fc4747;}.cls-4{fill:#f7f1eb;}.cls-5{fill:#fcc490;}.cls-6{fill:#e5c7a3;}.cls-7{fill:#c6ad93;}.cls-8{fill:#ffccd7;}.cls-9{fill:#2d2c2c;}.cls-10{fill:#efebe8;}.cls-11{fill:#68533a;}.cls-12{fill:#6d6154;}.cls-13{fill:#6b5843;}.cls-14{fill:#492302;}.cls-15{fill:#fff;}.cls-16{clip-path:url(#clip-path);}.cls-17{fill:#dae5a7;}.cls-18{fill:#d9e5a6;}.cls-19{fill:#d9e4a5;}.cls-20{fill:#d8e4a4;}.cls-21{fill:#d8e4a3;}.cls-22{fill:#d7e3a2;}.cls-23{fill:#d6e3a1;}.cls-24{fill:#d6e3a0;}.cls-25{fill:#d5e29f;}.cls-26{fill:#d5e29e;}.cls-27{fill:#d4e29d;}.cls-28{fill:#d3e19c;}.cls-29{fill:#d3e19b;}.cls-30{fill:#d2e19a;}.cls-31{fill:#d2e099;}.cls-32{fill:#d1e098;}.cls-33{fill:#d0e097;}.cls-34{fill:#d0df96;}.cls-35{fill:#cfdf95;}.cls-36{fill:#cedf94;}.cls-37{fill:#cede93;}.cls-38{fill:#cdde92;}.cls-39{fill:#cdde91;}.cls-40{fill:#ccdd90;}.cls-41{fill:#cbdd8f;}.cls-42{fill:#cbdd8e;}.cls-43{fill:#cadc8d;}.cls-44{fill:#cadc8c;}.cls-45{fill:#c9dc8b;}.cls-46{fill:#c8db89;}.cls-47{fill:#c8db88;}.cls-48{fill:#c7da87;}.cls-49{fill:#c7da86;}.cls-50{fill:#c6da85;}.cls-51{fill:#c5d984;}.cls-52{fill:#c5d983;}.cls-53{fill:#c4d982;}.cls-54{fill:#c4d881;}.cls-55{fill:#c3d880;}.cls-56{fill:#c2d87f;}.cls-57{fill:#c2d77e;}.cls-58{fill:#c1d77d;}.cls-59{fill:#c1d77c;}.cls-60{fill:#c0d67b;}.cls-61{fill:#bfd67a;}.cls-62{fill:#bfd679;}.cls-63{fill:#bed578;}.cls-64{fill:#bdd577;}.cls-65{fill:#bdd576;}.cls-66{fill:#bcd475;}.cls-67{fill:#bcd474;}.cls-68{fill:#bbd473;}.cls-69{fill:#bad372;}.cls-70{fill:#bad371;}.cls-71{fill:#b9d370;}.cls-72{fill:#b9d26f;}.cls-73{fill:#b8d26e;}.cls-74{fill:#b7d26d;}.cls-75{fill:#b6d16c;}.cls-76{fill:#b6d16b;}.cls-77{fill:#b5d06a;}.cls-78{fill:#b4d069;}.cls-79{fill:#b3d068;}.cls-80{fill:#b2cf67;}.cls-81{fill:#b2cf66;}.cls-82{fill:#b1ce65;}.cls-83{fill:#b0ce64;}.cls-84{fill:#afce63;}.cls-85{fill:#afcd62;}.cls-86{fill:#aecd61;}.cls-87{fill:#adcc60;}.cls-88{fill:#accc5f;}.cls-89{fill:#abcc5e;}.cls-90{fill:#abcb5d;}.cls-91{fill:#aacb5c;}.cls-92{fill:#a9ca5b;}.cls-93{fill:#a8ca5a;}.cls-94{fill:#a7ca59;}.cls-95{fill:#a7c958;}.cls-96{fill:#a6c957;}.cls-97{fill:#a5c856;}.cls-98{fill:#a4c855;}.cls-99{fill:#a3c854;}.cls-100{fill:#a3c753;}.cls-101{fill:#a2c752;}.cls-102{fill:#a1c651;}.cls-103{fill:#a0c650;}.cls-104{fill:#9fc64f;}.cls-105{fill:#9fc54e;}.cls-106{fill:#9ec54d;}.cls-107{fill:#9dc44c;}.cls-108{fill:#9cc44b;}.cls-109{fill:#9cc44a;}.cls-110{fill:#9bc348;}.cls-111{fill:#9ac347;}.cls-112{fill:#99c246;}.cls-113{fill:#98c245;}.cls-114{fill:#98c144;}.cls-115{fill:#97c143;}.cls-116{fill:#96c142;}.cls-117{fill:#95c041;}.cls-118{fill:#94c040;}.cls-119{fill:#94bf3f;}.cls-120{fill:#93bf3e;}.cls-121{fill:#92bf3d;}.cls-122{fill:#91be3c;}.cls-123{fill:#90be3b;}.cls-124{fill:#90bd3a;}.cls-125{fill:#8fbd39;}.cls-126{fill:#8ebd38;}.cls-127{fill:#8dbc37;}.cls-128{fill:#8cbc36;}.cls-129{fill:#8cbb35;}.cls-130{fill:#8bbb34;}.cls-131{fill:#8abb33;}.cls-132{fill:#89ba32;}.cls-133{fill:#89ba31;}.cls-134{fill:#88b930;}.cls-135{fill:#87b92f;}.cls-136{fill:#86b92e;}.cls-137{fill:#85b82d;}.cls-138{fill:#85b82c;}.cls-139{fill:#84b72b;}.cls-140{fill:#83b72a;}.cls-141{fill:#82b729;}.cls-142{fill:#81b628;}.cls-143{fill:#81b627;}.cls-144{fill:#80b526;}.cls-145{fill:#7fb525;}.cls-146{opacity:0.85;}.cls-147{clip-path:url(#clip-path-2);}.cls-148{fill:#d6b896;}.cls-149{fill:#ce2828;}.cls-150{fill:#efedb4;}.cls-151{fill:#595755;}.cls-152{fill:#353535;}.cls-153{fill:red;}.cls-154{opacity:0.55;}.cls-155{fill:#5e5e5e;}</style><clipPath id="clip-path"><circle class="cls-1" cx="435.9" cy="613.18" r="26.46"/></clipPath><clipPath id="clip-path-2"><circle class="cls-1" cx="584.48" cy="604.04" r="26.46"/></clipPath></defs><g id="Layer_1" data-name="Layer 1"><rect class="cls-2" x="63" y="60" width="879" height="939" rx="15.92"/><path d="M567.77,1193.27c-34.73,2.08-65,1.12-99.92-.2-41.93-1.59-71.87-24.14-70.55-72.34,1.3-47.35-8.87-100.39-19.9-149.57-11.22-50,13.3-81.08,62.38-98.65,40.81-14.62,100.43-17.91,141.2-1.84,49,19.34,70.6,48.83,59.11,98.75-11.28,49.05-11.41,102.47-7.1,148.84C637.38,1165.45,609.54,1190.78,567.77,1193.27Z"/><path class="cls-3" d="M557.91,1041.36c-.11.92-.62,3.1-1.6,2.94-10.28-1.65-14.69,2.12-23.15-6-34.84-33.3-23.54-79.43-31.25-121.41-1.87-10.19-11.51-19.78,3.89-19.84a4.31,4.31,0,0,1,3.25,1.07,73.47,73.47,0,0,1,12.87,24.77c8.82,32.53,4,72.48,30.12,99.55C558.39,1029,559,1031.56,557.91,1041.36Z"/><ellipse class="cls-4" cx="299.07" cy="633.82" rx="24.56" ry="79.3" transform="matrix(0.63, -0.78, 0.78, 0.63, -382.1, 468.96)"/><path class="cls-5" d="M646.68,611.69c-2.27-28.92-9.37-58.07-4.65-87.07.07.21-.06-.09.18.43,7.32-27.15,13.53-49.15,10.39-78.21-12.13-112.26-104.14-136.51-202.1-142-46-2.56-92,4.94-130.71,31.15.34.82.33,1.58.61,2.39,0,.05.09,0,.12.05,2.17,1.53,4.49,3,5.24,5.73,1.46,5.18-.91,8.05-5.84,9.4-1,1.76-1.44,3.31-3.49,4.15-3.39,1.39-7,.78-9.08-2.45-1.57-2.49-1.94-5-2.87-7.87-32.72,34.33-50.53,75.87-59,122.66-6.61,36.6.54,76.84,18.29,110,.77,1.43,1.48,3.19,2.14,4.57-20.54,5.48-29.94,12.75-26.82,35,3.37,24,12.56,26,33.88,30.61,12.54,2.74,21.28-.54,30.53-8.71,15.81,23.83,30.33,48.2,41,74.94a122.21,122.21,0,0,0,10.25,19.71l0,.06c.44.88,1.06,2.06,1.48,2.86,1.34,2.53,2.6,4.83,4.08,7.21,0,0,0,0,0,0,19.26,34.51,51.89,57.49,88.68,70.45,13.16,31.67,17.57,42.89,10.15,77.35,7.63,3,15.29,5.93,23.05,8.59h.06c.74-.06,1.47-.14,2.21-.21,1.87-.35,3.73-.7,5.58-1.15a11.56,11.56,0,0,1,2.26-.29.45.45,0,0,1,.33-.57,4.3,4.3,0,0,1-.75-.36c-.46-.29-.16-1.13.38-.91l1.19.5a8.42,8.42,0,0,1,1.69.58,6.93,6.93,0,0,0,.79.17.51.51,0,0,1,.43.7c3.52-.46,7-1,10.53-1.6,14-6.19,25.4-13.64,35.41-25.28-12.07-20.35-12.05-26.92-6-49.55,76.6-20.66,112.38-79.85,115.12-156.65.35-9.73-1.11-21.83-2-31.88C648.67,628.13,647.94,619.73,646.68,611.69Z"/><path class="cls-6" d="M563.15,798c1,26.17-42,30-60.75,29.89s-60.95-1.9-63.2-27.83,39.79-33.52,59.2-33.44S562.12,771.86,563.15,798Z"/><path class="cls-5" d="M576.81,797.11c-.55,26.33-57,29.3-75.45,28.87S427,820,427.6,793.64s56.68-29.28,75.16-28.85S577.36,770.77,576.81,797.11Z"/><path class="cls-4" d="M655.36,426.37c-71.78,42.75-51.12,4.12-139.57,42.46-59.75,25.91-121.48,2.85-160-40.7,3.76,14.86,5.64,28.45,4.91,38.42-2.08,28.79-22.46,107.09-84.46,109.85s-68-99.53-58.46-135.56c9.41-35.67,75.64-125.45,100.48-95.63.74-72.42,190.56-44,242.44-45.82C614.62,297.5,727.17,383.63,655.36,426.37Z"/><path class="cls-7" d="M293.92,625.92c14.81,10.48-11.26,14.53-22.05,9.2S251.11,616,255.25,605.75s12.18-17.43,20.58-7.86S279.1,615.45,293.92,625.92Z"/><path class="cls-5" d="M291.93,625.43c13.59,9.61-10.33,13.33-20.23,8.43s-19-17.5-15.24-26.93,11.17-16,18.88-7.21S278.34,615.82,291.93,625.43Z"/><path class="cls-7" d="M289.55,625.1c11.61,8.21-8.81,11.38-17.26,7.2s-16.27-14.95-13-23,9.54-13.65,16.12-6.15S278,616.89,289.55,625.1Z"/><path class="cls-5" d="M286.93,624.58c9.4,6.65-7.14,9.22-14,5.83s-13.18-12.11-10.55-18.63,7.74-11.07,13.07-5S277.53,617.93,286.93,624.58Z"/><path class="cls-8" d="M547.76,768.52c7.44,20.23-8.06,21.7-27.48,8.41s-44.59,13.56-51.24,2.45S488,750,502.21,746.61,540.31,748.28,547.76,768.52Z"/><path class="cls-4" d="M545.72,768.35c8.44,19.84-8.13,19.73-26.3,6.38s-41,14.34-48.41,3.72,17.65-28,31.42-31.24S537.28,748.5,545.72,768.35Z"/><path class="cls-9" d="M545.67,774.66c5.88,15.93-10.38,8.65-25.9-4.51s-41.41,14.62-48.42,9.45,20.35-24.48,30.8-29.15S539.79,758.73,545.67,774.66Z"/><path class="cls-4" d="M354.81,504.31c-9.43,47.13-6.87,104.62-59,83.33s-57.92,57-69.72-35.83-10.59-73.08,63.11-119.72S364.25,457.18,354.81,504.31Z"/><path class="cls-10" d="M345.18,445.74a28.8,28.8,0,0,0-3.87,2.79c-18.21,15.79-45.19,57.88-28.23,78.71.66.82,9.82,17.84,10.48,22.32s-11.73-20.17-12.38-21.12c-16.39-23.94,12-65.91,32.42-82A6.37,6.37,0,0,1,345.18,445.74Z"/><path class="cls-10" d="M264.35,551.86c1.53,1.88,10.79,21,10.68,25.76s-12.45-21.66-13.82-23.8c-34.85-53.78.36-140.29,51-173.94a22.71,22.71,0,0,1,3.63-1.72c-2.49,1.44-6.51,4.42-7.84,5.43C264.94,416.39,225.83,504.61,264.35,551.86Z"/><path class="cls-10" d="M294.92,575c1.15,7.94-20.77-35.69-21.92-37.38C244,495.26,294.27,421,330.39,392.5a11.23,11.23,0,0,1,2.77-1.21,52.52,52.52,0,0,0-6.83,4.95c-32.21,27.94-80,102.41-50,139.27C277.55,537,293.75,567.06,294.92,575Z"/><path class="cls-10" d="M305.58,564.21c.9,6.09-15.93-27.41-16.82-28.71C266.49,503,305.09,445.92,332.84,424a8.51,8.51,0,0,1,2.1-.93,40,40,0,0,0-5.22,3.79c-24.75,21.46-61.42,78.66-38.38,107C292.26,535,304.7,558.1,305.58,564.21Z"/><path class="cls-10" d="M260.4,568.46c1.72,7.81-17.9-29-19.12-31.24C210.44,481.1,266,374.77,303.34,353.62a28.83,28.83,0,0,1,3-1.24c-2.9,1.62-6.5,4.38-7.48,5-33,22.18-84.57,122.65-55.12,176.32C244.89,535.89,258.67,560.65,260.4,568.46Z"/><path class="cls-10" d="M309,351.39l-2.57,1a10.49,10.49,0,0,1,2.51-1.12C309.82,351,309.64,351.11,309,351.39Z"/><path class="cls-10" d="M335.58,334.29a28.18,28.18,0,0,0,4-2.57c19-14.78,48.26-55.34,32.46-77.07-.62-.85-8.84-18.34-9.25-22.85s10.61,20.77,11.22,21.76c15.06,24.79-15.58,65.16-36.83,80.14A6.5,6.5,0,0,1,335.58,334.29Z"/><path class="cls-10" d="M422,232.71c-1.43-2-9.63-21.53-9.26-26.3s11.25,22.3,12.51,24.51c31.88,55.6-8,140.07-60.32,170.92a22.15,22.15,0,0,1-3.72,1.53c2.56-1.3,6.74-4.07,8.13-5C414.11,368,458,282,422,232.71Z"/><path class="cls-10" d="M392.77,207.94c-.71-8,18.81,36.76,19.86,38.51,26.65,43.88-27.55,115.29-65.17,141.8a10.54,10.54,0,0,1-2.83,1.06,52.63,52.63,0,0,0,7.09-4.56c33.68-26.16,85.41-97.93,57.45-136.36C408.05,246.87,393.51,215.94,392.77,207.94Z"/><path class="cls-10" d="M381.54,218.14C381,212,396,246.38,396.78,247.73c20.48,33.7-21.16,88.55-50,108.9a9.06,9.06,0,0,1-2.15.82,40.29,40.29,0,0,0,5.42-3.51c25.87-20.09,65.59-75.21,44.12-104.72C393.26,248,382.09,224.29,381.54,218.14Z"/><path class="cls-10" d="M426.89,216.35c-1.29-7.89,16.3,29.94,17.4,32.23,27.75,57.71-33.44,160.87-71.93,180a27.88,27.88,0,0,1-3,1.08c3-1.46,6.72-4,7.74-4.62,34.2-20.36,91.1-117.89,64.6-173.08C440.61,249.72,428.19,224.24,426.89,216.35Z"/><path class="cls-10" d="M366.64,430.47l2.62-.82a10.62,10.62,0,0,1-2.57,1C365.75,430.81,365.94,430.71,366.64,430.47Z"/><path class="cls-10" d="M605.26,306.89c-10.07,19.73-43.71,34.34-63.12,37.31a29.53,29.53,0,0,1-4.75.29,6.2,6.2,0,0,0,1.69.26c20.95-2.2,55.38-16,67.13-36.53C605.87,307.79,605.55,307.34,605.26,306.89Z"/><path class="cls-10" d="M633.4,368c0-.06,0-.13,0-.2-26.72,27.27-66.55,46.36-97.66,49.12-1.66.14-6.66.51-9.53.4a22.05,22.05,0,0,0,4,.48c35.57-.85,76.33-19.86,103.87-48.33A12.24,12.24,0,0,1,633.4,368Z"/><path class="cls-10" d="M623,351.33c-.13-.14-.24-.28-.35-.42-25.56,24.27-68.53,41.35-95.72,45.51a53.67,53.67,0,0,1-8.42.53,10.66,10.66,0,0,0,3,.46c29.82-3.15,75-19.54,102.41-44.77A6.41,6.41,0,0,1,623,351.33Z"/><path class="cls-10" d="M610.38,336.92c-19.87,16.94-50.3,28.75-70,31.75a37.84,37.84,0,0,1-6.44.42,8.8,8.8,0,0,0,2.28.34c21.64-2.28,53.85-13.63,75.08-31.22A7.47,7.47,0,0,1,610.38,336.92Z"/><path class="cls-10" d="M639.11,384.57a4.67,4.67,0,0,1-.08-.52c-32.93,34.24-83.55,59.13-109.6,59.86-1.18,0-5.69.45-9,.27a27.15,27.15,0,0,0,3.18.54c27.61,1.33,80.35-23.14,115.51-57.79A7.19,7.19,0,0,1,639.11,384.57Z"/><path class="cls-10" d="M517.66,443.61l2.7.57a10.34,10.34,0,0,1-2.73-.4C516.73,443.49,516.94,443.49,517.66,443.61Z"/><path class="cls-10" d="M419.43,359.67a28.64,28.64,0,0,0,4.76.3c24.09-.68,71.64-16.13,71.73-43,0-1.06,3.7-20,6-23.9s-3.72,23-3.81,24.18c-2.51,28.9-51.08,43.36-77.07,42.88A6.45,6.45,0,0,1,419.43,359.67Z"/><path class="cls-10" d="M549.21,328.82c0-2.42,4.95-23.06,8.07-26.69s-4.1,24.65-4.4,27.17c-7.13,63.69-89.2,108.28-149.66,102.23a22,22,0,0,1-3.9-1c2.83.47,7.84.71,9.5.78C462.89,433.23,549.06,389.79,549.21,328.82Z"/><path class="cls-10" d="M540.24,291.55c4.14-6.88-6.56,40.76-6.74,42.8-4.44,51.14-90.36,76.72-136.38,75.87a10.89,10.89,0,0,1-2.9-.81,54.27,54.27,0,0,0,8.42.5c42.61-1.2,126.76-28.52,126.92-76.05C529.56,332,536.1,298.43,540.24,291.55Z"/><path class="cls-10" d="M525.15,293.14c3.17-5.28-5,31.3-5.19,32.87-3.4,39.28-69.41,58.93-104.74,58.27a8.75,8.75,0,0,1-2.22-.62,38.68,38.68,0,0,0,6.45.38c32.74-.91,97.36-21.9,97.48-58.4C516.93,324.18,522,298.42,525.15,293.14Z"/><path class="cls-10" d="M562.79,318.49c3.62-7.13-4.54,33.78-5,36.28-11.72,63-122,110-164.38,102.67a27.72,27.72,0,0,1-3.09-.93c3.27.59,7.8.73,9,.85,39.62,3.78,143.15-41.26,154.39-101.45C554.14,353.51,559.18,325.62,562.79,318.49Z"/><path class="cls-10" d="M387.65,455.61l2.6.89a10.47,10.47,0,0,1-2.66-.73C386.73,455.37,386.94,455.39,387.65,455.61Z"/><rect class="cls-11" x="574.44" y="292.97" width="25.38" height="37.22" transform="translate(13.79 -24.7) rotate(2.44)"/><path class="cls-11" d="M583.49,239c9,48.69,14.59,52-19.71,75.37s-222,20.07-209.5-50.32,39.14-105,116.39-106S574.47,190.3,583.49,239Z"/><path class="cls-12" d="M589.68,272.08c-83.68,30.39-154.44,32.72-234.85-8a296.09,296.09,0,0,0-4,39.78,6.58,6.58,0,0,1,1.48,0c8.41.75,17.1,1.84,25.78,3.45a80.59,80.59,0,0,1,27.63,7.18c15.72,5.48,30.35,13.45,42,25.07a6,6,0,0,1,1,1.32c6.1,4,12.2,7.17,16,13.08,40.91-2,81.41-6.21,124.36-3.93C591.68,323.29,592.59,298.59,589.68,272.08Z"/><path class="cls-13" d="M518.89,377.08c-31.48-1.34-57.4-19.22-82.48-36.51-10.52-7.26-20.46-14.11-30.76-19.8-30.87-17-79.24-2.88-79.72-2.74a13.33,13.33,0,0,1-16.61-9.36,13.87,13.87,0,0,1,9.12-17.09c2.4-.73,59.33-17.51,99.95,4.9,11.45,6.32,22.41,13.88,33,21.19,23.42,16.14,45.52,31.35,70,31.91,33.76.69,45.55-9.07,56-17.68l1.78-1.47c10.28-8.44,20.25-23.34,20.58-28.74-4.51-6.11-15.63-12.84-21.83-15.75a13.93,13.93,0,0,1-6.6-18.25,13.28,13.28,0,0,1,17.75-6.86c2.41,1.12,23.77,11.38,33.45,26.15,15,22.89-15,55.4-26.64,65l-1.69,1.4c-12.58,10.41-29.82,24.68-73.36,23.78Q519.87,377.13,518.89,377.08Z"/><path class="cls-11" d="M578.07,276.25a6.34,6.34,0,0,1,2.54-.89,5.66,5.66,0,0,1,1.7-.64,5.52,5.52,0,0,1,.83-.33,6.33,6.33,0,0,1,2.07-.71l.15-.05a6.08,6.08,0,0,1,1.71-.61,5.88,5.88,0,0,1,2.6-.77c-1.1-8.19-3.47-18.67-6.18-33.26-9-48.69-35.56-82-112.82-81S366.8,193.61,354.31,263.92a5.45,5.45,0,0,1,.8-.18A17.12,17.12,0,0,1,367.22,255c12.17-2.42,22.2,7.53,28.26,17.15,7.15-.26,14.22.23,20.78,2.55a42.92,42.92,0,0,1,4.48,1.88c4.83-2.19,10.75-2.7,16.57-2.31a35.37,35.37,0,0,1,3.64-5.78,7.49,7.49,0,0,1,8-2.33c6-5,12.82-9.41,18.62-5.29a6.89,6.89,0,0,1,2,9.27c-1.34,2.43-2.74,4.82-4.16,7.19a7.62,7.62,0,0,1,1.49,2.11q.54.13,1.05.3a21.11,21.11,0,0,1,11.67-10.07,16.39,16.39,0,0,1,2.88-5.07,12.33,12.33,0,0,1,4.22-3.29c1.06-4.55,7.32-7.89,11.58-3.45a29.18,29.18,0,0,1,4.24,5.65,38,38,0,0,1,8.13,6.32,55.5,55.5,0,0,1,7.51,9.7c.9,1.1,1.76,2.22,2.57,3.33,1.73,2.36,3.4,4.88,5,7.49a7.28,7.28,0,0,1,2.51-.56c7.13-.31,14.88-3.27,21.77-5,7.2-1.84,14.61-2.9,21.75-5a7.09,7.09,0,0,1,2-.28,7.94,7.94,0,0,1,2.26-2A5.78,5.78,0,0,1,578.07,276.25Z"/><path class="cls-12" d="M525.06,334a5.73,5.73,0,0,1,.33,2.89,9.91,9.91,0,0,1,.2,1.27,7.26,7.26,0,0,1,1.49-.31l3-.27c2.66-.82,5.31-1.68,8-2.53s4.51-.23,5.82,1.06A64.87,64.87,0,0,0,551,334.6c7.17-2,12.13-5.85,17.4-10.9,7.06-6.76,13.88-14,22.5-18.42a305.82,305.82,0,0,0-1.8-33.11c-25.86,9.39-50.49,16.09-74.55,19.68,1.07,8.16,2.44,16.27,4,24.36C521,322,522.88,328.06,525.06,334Z"/><path class="cls-14" d="M613.85,858.31c-25.34-20.56-57.1-46.49-75.8-72.46-6.41-8.9-7.06-11.82-3.07-17h0c4-5.2,10.08-4.1,19.53.76,27.56,14.16,57.1,43.13,80.35,65.39,8,7.64,7.56,15.64,1.52,22.28h0C630.35,863.9,622.53,865.35,613.85,858.31Z"/><path class="cls-6" d="M485.58,611.2c-2.46,36.71-14.95,50.67-52.27,50.44S378,635.53,386.2,596.32s16.5-43.31,52.3-41.55S488,574.49,485.58,611.2Z"/><path class="cls-15" d="M482.26,611.09c-2.29,34.08-13.89,47-48.53,46.83S382.41,633.67,390,597.27s15.32-40.21,48.55-38.58S484.54,577,482.26,611.09Z"/><path d="M484.33,564.62a19.5,19.5,0,0,1,1.49,2.14,44.51,44.51,0,0,1,5.43-3.49c2.9-1.82,3.35-4.94,4.84-7.8h0C489,547,465.92,540,438.34,538.83c-31.38-1.33-57.54,5.29-61.27,15.08l.19-.12a6.88,6.88,0,0,1,9.07,2.8c-.54-.88,0-.08.36.33a4.17,4.17,0,0,0,.55.42,21.18,21.18,0,0,0,2.17,1.23l.8.36,1.45.65c1,.43,1.92.89,2.87,1.37a5.86,5.86,0,0,1,1.85,1.13,2.84,2.84,0,0,1,.26.24,5.17,5.17,0,0,1,.52.62,6.18,6.18,0,0,1,.36.53c.12.21.23.42.33.64s.12.25.17.38a7.59,7.59,0,0,1,.46,2.68,5.08,5.08,0,0,1,0,2.51,4.91,4.91,0,0,1-.84,2.35l0,.06c10.48,3.37,24.09,5.73,39.08,6.36,14.68.63,28.23-.49,38.87-2.86-.08-.13-.12-.27-.19-.4-.43-.68-.84-1.39-1.28-2.06a8.89,8.89,0,0,1-.73-1.31c-3.21-3.88-1.31-11.49,5.23-11.21a6.05,6.05,0,0,1,5.64,3.87Z"/><ellipse class="cls-5" cx="436.33" cy="555.77" rx="19.83" ry="60.94" transform="translate(-137.49 968.06) rotate(-87.56)"/><g class="cls-16"><rect class="cls-17" x="408.25" y="585.52" width="1.19" height="55.31"/><rect class="cls-17" x="409.44" y="585.52" width="0.46" height="55.31"/><rect class="cls-18" x="409.9" y="585.52" width="0.46" height="55.31"/><rect class="cls-19" x="410.36" y="585.52" width="0.46" height="55.31"/><rect class="cls-20" x="410.83" y="585.52" width="0.46" height="55.31"/><rect class="cls-21" x="411.29" y="585.52" width="0.46" height="55.31"/><rect class="cls-22" x="411.76" y="585.52" width="0.46" height="55.31"/><rect class="cls-23" x="412.22" y="585.52" width="0.46" height="55.31"/><rect class="cls-24" x="412.69" y="585.52" width="0.46" height="55.31"/><rect class="cls-25" x="413.15" y="585.52" width="0.46" height="55.31"/><rect class="cls-26" x="413.61" y="585.52" width="0.46" height="55.31"/><rect class="cls-27" x="414.08" y="585.52" width="0.46" height="55.31"/><rect class="cls-28" x="414.54" y="585.52" width="0.46" height="55.31"/><rect class="cls-29" x="415.01" y="585.52" width="0.46" height="55.31"/><rect class="cls-30" x="415.47" y="585.52" width="0.46" height="55.31"/><rect class="cls-31" x="415.94" y="585.52" width="0.46" height="55.31"/><rect class="cls-32" x="416.4" y="585.52" width="0.46" height="55.31"/><rect class="cls-33" x="416.87" y="585.52" width="0.46" height="55.31"/><rect class="cls-34" x="417.33" y="585.52" width="0.46" height="55.31"/><rect class="cls-35" x="417.79" y="585.52" width="0.46" height="55.31"/><rect class="cls-36" x="418.26" y="585.52" width="0.46" height="55.31"/><rect class="cls-37" x="418.72" y="585.52" width="0.46" height="55.31"/><rect class="cls-38" x="419.19" y="585.52" width="0.46" height="55.31"/><rect class="cls-39" x="419.65" y="585.52" width="0.46" height="55.31"/><rect class="cls-40" x="420.12" y="585.52" width="0.46" height="55.31"/><rect class="cls-41" x="420.58" y="585.52" width="0.46" height="55.31"/><rect class="cls-42" x="421.04" y="585.52" width="0.46" height="55.31"/><rect class="cls-43" x="421.51" y="585.52" width="0.46" height="55.31"/><rect class="cls-44" x="421.97" y="585.52" width="0.46" height="55.31"/><rect class="cls-45" x="422.44" y="585.52" width="0.46" height="55.31"/><rect class="cls-46" x="422.9" y="585.52" width="0.46" height="55.31"/><rect class="cls-47" x="423.37" y="585.52" width="0.46" height="55.31"/><rect class="cls-48" x="423.83" y="585.52" width="0.46" height="55.31"/><rect class="cls-49" x="424.29" y="585.52" width="0.46" height="55.31"/><rect class="cls-50" x="424.76" y="585.52" width="0.46" height="55.31"/><rect class="cls-51" x="425.22" y="585.52" width="0.46" height="55.31"/><rect class="cls-52" x="425.69" y="585.52" width="0.46" height="55.31"/><rect class="cls-53" x="426.15" y="585.52" width="0.46" height="55.31"/><rect class="cls-54" x="426.62" y="585.52" width="0.46" height="55.31"/><rect class="cls-55" x="427.08" y="585.52" width="0.46" height="55.31"/><rect class="cls-56" x="427.54" y="585.52" width="0.46" height="55.31"/><rect class="cls-57" x="428.01" y="585.52" width="0.46" height="55.31"/><rect class="cls-58" x="428.47" y="585.52" width="0.46" height="55.31"/><rect class="cls-59" x="428.94" y="585.52" width="0.46" height="55.31"/><rect class="cls-60" x="429.4" y="585.52" width="0.46" height="55.31"/><rect class="cls-61" x="429.87" y="585.52" width="0.46" height="55.31"/><rect class="cls-62" x="430.33" y="585.52" width="0.46" height="55.31"/><rect class="cls-63" x="430.79" y="585.52" width="0.46" height="55.31"/><rect class="cls-64" x="431.26" y="585.52" width="0.46" height="55.31"/><rect class="cls-65" x="431.72" y="585.52" width="0.46" height="55.31"/><rect class="cls-66" x="432.19" y="585.52" width="0.46" height="55.31"/><rect class="cls-67" x="432.65" y="585.52" width="0.46" height="55.31"/><rect class="cls-68" x="433.12" y="585.52" width="0.46" height="55.31"/><rect class="cls-69" x="433.58" y="585.52" width="0.46" height="55.31"/><rect class="cls-70" x="434.05" y="585.52" width="0.46" height="55.31"/><rect class="cls-71" x="434.51" y="585.52" width="0.46" height="55.31"/><rect class="cls-72" x="434.97" y="585.52" width="0.46" height="55.31"/><rect class="cls-73" x="435.44" y="585.52" width="0.46" height="55.31"/><rect class="cls-73" x="435.9" y="585.52" width="0.36" height="55.31"/><rect class="cls-74" x="436.26" y="585.52" width="0.36" height="55.31"/><rect class="cls-75" x="436.63" y="585.52" width="0.36" height="55.31"/><rect class="cls-76" x="436.99" y="585.52" width="0.36" height="55.31"/><rect class="cls-77" x="437.35" y="585.52" width="0.36" height="55.31"/><rect class="cls-78" x="437.72" y="585.52" width="0.36" height="55.31"/><rect class="cls-79" x="438.08" y="585.52" width="0.36" height="55.31"/><rect class="cls-80" x="438.44" y="585.52" width="0.36" height="55.31"/><rect class="cls-81" x="438.8" y="585.52" width="0.36" height="55.31"/><rect class="cls-82" x="439.17" y="585.52" width="0.36" height="55.31"/><rect class="cls-83" x="439.53" y="585.52" width="0.36" height="55.31"/><rect class="cls-84" x="439.89" y="585.52" width="0.36" height="55.31"/><rect class="cls-85" x="440.25" y="585.52" width="0.36" height="55.31"/><rect class="cls-86" x="440.62" y="585.52" width="0.36" height="55.31"/><rect class="cls-87" x="440.98" y="585.52" width="0.36" height="55.31"/><rect class="cls-88" x="441.34" y="585.52" width="0.36" height="55.31"/><rect class="cls-89" x="441.7" y="585.52" width="0.36" height="55.31"/><rect class="cls-90" x="442.07" y="585.52" width="0.36" height="55.31"/><rect class="cls-91" x="442.43" y="585.52" width="0.36" height="55.31"/><rect class="cls-92" x="442.79" y="585.52" width="0.36" height="55.31"/><rect class="cls-93" x="443.15" y="585.52" width="0.36" height="55.31"/><rect class="cls-94" x="443.52" y="585.52" width="0.36" height="55.31"/><rect class="cls-95" x="443.88" y="585.52" width="0.36" height="55.31"/><rect class="cls-96" x="444.24" y="585.52" width="0.36" height="55.31"/><rect class="cls-97" x="444.6" y="585.52" width="0.36" height="55.31"/><rect class="cls-98" x="444.97" y="585.52" width="0.36" height="55.31"/><rect class="cls-99" x="445.33" y="585.52" width="0.36" height="55.31"/><rect class="cls-100" x="445.69" y="585.52" width="0.36" height="55.31"/><rect class="cls-101" x="446.05" y="585.52" width="0.36" height="55.31"/><rect class="cls-102" x="446.42" y="585.52" width="0.36" height="55.31"/><rect class="cls-103" x="446.78" y="585.52" width="0.36" height="55.31"/><rect class="cls-104" x="447.14" y="585.52" width="0.36" height="55.31"/><rect class="cls-105" x="447.5" y="585.52" width="0.36" height="55.31"/><rect class="cls-106" x="447.87" y="585.52" width="0.36" height="55.31"/><rect class="cls-107" x="448.23" y="585.52" width="0.36" height="55.31"/><rect class="cls-108" x="448.59" y="585.52" width="0.36" height="55.31"/><rect class="cls-109" x="448.95" y="585.52" width="0.36" height="55.31"/><rect class="cls-110" x="449.32" y="585.52" width="0.36" height="55.31"/><rect class="cls-111" x="449.68" y="585.52" width="0.36" height="55.31"/><rect class="cls-112" x="450.04" y="585.52" width="0.36" height="55.31"/><rect class="cls-113" x="450.4" y="585.52" width="0.36" height="55.31"/><rect class="cls-114" x="450.77" y="585.52" width="0.36" height="55.31"/><rect class="cls-115" x="451.13" y="585.52" width="0.36" height="55.31"/><rect class="cls-116" x="451.49" y="585.52" width="0.36" height="55.31"/><rect class="cls-117" x="451.85" y="585.52" width="0.36" height="55.31"/><rect class="cls-118" x="452.22" y="585.52" width="0.36" height="55.31"/><rect class="cls-119" x="452.58" y="585.52" width="0.36" height="55.31"/><rect class="cls-120" x="452.94" y="585.52" width="0.36" height="55.31"/><rect class="cls-121" x="453.3" y="585.52" width="0.36" height="55.31"/><rect class="cls-122" x="453.67" y="585.52" width="0.36" height="55.31"/><rect class="cls-123" x="454.03" y="585.52" width="0.36" height="55.31"/><rect class="cls-124" x="454.39" y="585.52" width="0.36" height="55.31"/><rect class="cls-125" x="454.76" y="585.52" width="0.36" height="55.31"/><rect class="cls-126" x="455.12" y="585.52" width="0.36" height="55.31"/><rect class="cls-127" x="455.48" y="585.52" width="0.36" height="55.31"/><rect class="cls-128" x="455.84" y="585.52" width="0.36" height="55.31"/><rect class="cls-129" x="456.21" y="585.52" width="0.36" height="55.31"/><rect class="cls-130" x="456.57" y="585.52" width="0.36" height="55.31"/><rect class="cls-131" x="456.93" y="585.52" width="0.36" height="55.31"/><rect class="cls-132" x="457.29" y="585.52" width="0.36" height="55.31"/><rect class="cls-133" x="457.66" y="585.52" width="0.36" height="55.31"/><rect class="cls-134" x="458.02" y="585.52" width="0.36" height="55.31"/><rect class="cls-135" x="458.38" y="585.52" width="0.36" height="55.31"/><rect class="cls-136" x="458.74" y="585.52" width="0.36" height="55.31"/><rect class="cls-137" x="459.11" y="585.52" width="0.36" height="55.31"/><rect class="cls-138" x="459.47" y="585.52" width="0.36" height="55.31"/><rect class="cls-139" x="459.83" y="585.52" width="0.36" height="55.31"/><rect class="cls-140" x="460.19" y="585.52" width="0.36" height="55.31"/><rect class="cls-141" x="460.56" y="585.52" width="0.36" height="55.31"/><rect class="cls-142" x="460.92" y="585.52" width="0.36" height="55.31"/><rect class="cls-143" x="461.28" y="585.52" width="0.36" height="55.31"/><rect class="cls-144" x="461.64" y="585.52" width="0.36" height="55.31"/><rect class="cls-145" x="462.01" y="585.52" width="0.36" height="55.31"/><rect class="cls-145" x="462.37" y="585.52" width="1.19" height="55.31"/></g><path d="M450.79,613.63c-.27,5-3.14,11-8.93,10.61s-8.12-7.47-7.84-12.64,3.38-11.56,9.19-10.52S451.06,608.62,450.79,613.63Z"/><g class="cls-146"><rect class="cls-15" x="444.01" y="597.11" width="7.64" height="7.64" rx="3.82"/></g><path class="cls-6" d="M630.56,589.89c5.45,36.39-3.76,52.7-40.26,60.46s-59.59-13.68-60-53.72,6.84-45.84,42.19-51.79S625.1,553.51,630.56,589.89Z"/><path class="cls-15" d="M627.28,590.49c5.06,33.78-3.49,48.93-37.38,56.13s-55.31-12.69-55.7-49.88,6.36-42.55,39.17-48.07S622.22,556.71,627.28,590.49Z"/><path d="M622.89,547.8a12.08,12.08,0,0,1,2.58-5.14,19,19,0,0,0,2.68-3.47,6.29,6.29,0,0,1-.22-2.13,2.64,2.64,0,0,1,2.39-2.58c-7.33-7.81-32.56-10.21-61.4-5.17-30.94,5.41-55.08,17.48-56.62,27.84a1.14,1.14,0,0,1,.16-.15c2.9-2.46,6.93-1.81,9.45.79-.71-.74,0-.09.43.25a6,6,0,0,0,.62.29c.79.29,1.59.53,2.39.74l.85.17,1.56.32c1,.22,2.07.47,3.1.73a5.74,5.74,0,0,1,2,.71l.3.18a6.14,6.14,0,0,1,.65.49c.16.14.31.29.46.45a5,5,0,0,1,.46.55,4.15,4.15,0,0,1,.24.34,7.36,7.36,0,0,1,1,2.51,5.14,5.14,0,0,1,.51,2.46,4.91,4.91,0,0,1-.32,2.48.14.14,0,0,1,0,.06c11,1.05,24.76.44,39.54-2.15,14.48-2.53,27.47-6.52,37.35-11.11-.1-.11-.17-.24-.27-.35-.57-.58-1.11-1.18-1.68-1.74a8.17,8.17,0,0,1-1-1.13c-4-3.09-3.73-10.94,2.71-12.06a6,6,0,0,1,6.34,2.57l.16.1a34.38,34.38,0,0,1,2.69,2.56,6.1,6.1,0,0,0,.82.59Z"/><ellipse class="cls-5" cx="570.58" cy="546.28" rx="60.94" ry="19.83" transform="translate(-85.58 106.46) rotate(-9.92)"/><g class="cls-147"><rect class="cls-17" x="556.83" y="576.39" width="1.19" height="55.31"/><rect class="cls-17" x="558.02" y="576.39" width="0.46" height="55.31"/><rect class="cls-18" x="558.48" y="576.39" width="0.46" height="55.31"/><rect class="cls-19" x="558.95" y="576.39" width="0.46" height="55.31"/><rect class="cls-20" x="559.41" y="576.39" width="0.46" height="55.31"/><rect class="cls-21" x="559.87" y="576.39" width="0.46" height="55.31"/><rect class="cls-22" x="560.34" y="576.39" width="0.46" height="55.31"/><rect class="cls-23" x="560.8" y="576.39" width="0.46" height="55.31"/><rect class="cls-24" x="561.27" y="576.39" width="0.46" height="55.31"/><rect class="cls-25" x="561.73" y="576.39" width="0.46" height="55.31"/><rect class="cls-26" x="562.2" y="576.39" width="0.46" height="55.31"/><rect class="cls-27" x="562.66" y="576.39" width="0.46" height="55.31"/><rect class="cls-28" x="563.12" y="576.39" width="0.46" height="55.31"/><rect class="cls-29" x="563.59" y="576.39" width="0.46" height="55.31"/><rect class="cls-30" x="564.05" y="576.39" width="0.46" height="55.31"/><rect class="cls-31" x="564.52" y="576.39" width="0.46" height="55.31"/><rect class="cls-32" x="564.98" y="576.39" width="0.46" height="55.31"/><rect class="cls-33" x="565.45" y="576.39" width="0.46" height="55.31"/><rect class="cls-34" x="565.91" y="576.39" width="0.46" height="55.31"/><rect class="cls-35" x="566.38" y="576.39" width="0.46" height="55.31"/><rect class="cls-36" x="566.84" y="576.39" width="0.46" height="55.31"/><rect class="cls-37" x="567.3" y="576.39" width="0.46" height="55.31"/><rect class="cls-38" x="567.77" y="576.39" width="0.46" height="55.31"/><rect class="cls-39" x="568.23" y="576.39" width="0.46" height="55.31"/><rect class="cls-40" x="568.7" y="576.39" width="0.46" height="55.31"/><rect class="cls-41" x="569.16" y="576.39" width="0.46" height="55.31"/><rect class="cls-42" x="569.63" y="576.39" width="0.46" height="55.31"/><rect class="cls-43" x="570.09" y="576.39" width="0.46" height="55.31"/><rect class="cls-44" x="570.55" y="576.39" width="0.46" height="55.31"/><rect class="cls-45" x="571.02" y="576.39" width="0.46" height="55.31"/><rect class="cls-46" x="571.48" y="576.39" width="0.46" height="55.31"/><rect class="cls-47" x="571.95" y="576.39" width="0.46" height="55.31"/><rect class="cls-48" x="572.41" y="576.39" width="0.46" height="55.31"/><rect class="cls-49" x="572.88" y="576.39" width="0.46" height="55.31"/><rect class="cls-50" x="573.34" y="576.39" width="0.46" height="55.31"/><rect class="cls-51" x="573.8" y="576.39" width="0.46" height="55.31"/><rect class="cls-52" x="574.27" y="576.39" width="0.46" height="55.31"/><rect class="cls-53" x="574.73" y="576.39" width="0.46" height="55.31"/><rect class="cls-54" x="575.2" y="576.39" width="0.46" height="55.31"/><rect class="cls-55" x="575.66" y="576.39" width="0.46" height="55.31"/><rect class="cls-56" x="576.13" y="576.39" width="0.46" height="55.31"/><rect class="cls-57" x="576.59" y="576.39" width="0.46" height="55.31"/><rect class="cls-58" x="577.05" y="576.39" width="0.46" height="55.31"/><rect class="cls-59" x="577.52" y="576.39" width="0.46" height="55.31"/><rect class="cls-60" x="577.98" y="576.39" width="0.46" height="55.31"/><rect class="cls-61" x="578.45" y="576.39" width="0.46" height="55.31"/><rect class="cls-62" x="578.91" y="576.39" width="0.46" height="55.31"/><rect class="cls-63" x="579.38" y="576.39" width="0.46" height="55.31"/><rect class="cls-64" x="579.84" y="576.39" width="0.46" height="55.31"/><rect class="cls-65" x="580.3" y="576.39" width="0.46" height="55.31"/><rect class="cls-66" x="580.77" y="576.39" width="0.46" height="55.31"/><rect class="cls-67" x="581.23" y="576.39" width="0.46" height="55.31"/><rect class="cls-68" x="581.7" y="576.39" width="0.46" height="55.31"/><rect class="cls-69" x="582.16" y="576.39" width="0.46" height="55.31"/><rect class="cls-70" x="582.63" y="576.39" width="0.46" height="55.31"/><rect class="cls-71" x="583.09" y="576.39" width="0.46" height="55.31"/><rect class="cls-72" x="583.56" y="576.39" width="0.46" height="55.31"/><rect class="cls-73" x="584.02" y="576.39" width="0.46" height="55.31"/><rect class="cls-73" x="584.48" y="576.39" width="0.36" height="55.31"/><rect class="cls-74" x="584.85" y="576.39" width="0.36" height="55.31"/><rect class="cls-75" x="585.21" y="576.39" width="0.36" height="55.31"/><rect class="cls-76" x="585.57" y="576.39" width="0.36" height="55.31"/><rect class="cls-77" x="585.93" y="576.39" width="0.36" height="55.31"/><rect class="cls-78" x="586.3" y="576.39" width="0.36" height="55.31"/><rect class="cls-79" x="586.66" y="576.39" width="0.36" height="55.31"/><rect class="cls-80" x="587.02" y="576.39" width="0.36" height="55.31"/><rect class="cls-81" x="587.38" y="576.39" width="0.36" height="55.31"/><rect class="cls-82" x="587.75" y="576.39" width="0.36" height="55.31"/><rect class="cls-83" x="588.11" y="576.39" width="0.36" height="55.31"/><rect class="cls-84" x="588.47" y="576.39" width="0.36" height="55.31"/><rect class="cls-85" x="588.83" y="576.39" width="0.36" height="55.31"/><rect class="cls-86" x="589.2" y="576.39" width="0.36" height="55.31"/><rect class="cls-87" x="589.56" y="576.39" width="0.36" height="55.31"/><rect class="cls-88" x="589.92" y="576.39" width="0.36" height="55.31"/><rect class="cls-89" x="590.28" y="576.39" width="0.36" height="55.31"/><rect class="cls-90" x="590.65" y="576.39" width="0.36" height="55.31"/><rect class="cls-91" x="591.01" y="576.39" width="0.36" height="55.31"/><rect class="cls-92" x="591.37" y="576.39" width="0.36" height="55.31"/><rect class="cls-93" x="591.73" y="576.39" width="0.36" height="55.31"/><rect class="cls-94" x="592.1" y="576.39" width="0.36" height="55.31"/><rect class="cls-95" x="592.46" y="576.39" width="0.36" height="55.31"/><rect class="cls-96" x="592.82" y="576.39" width="0.36" height="55.31"/><rect class="cls-97" x="593.18" y="576.39" width="0.36" height="55.31"/><rect class="cls-98" x="593.55" y="576.39" width="0.36" height="55.31"/><rect class="cls-99" x="593.91" y="576.39" width="0.36" height="55.31"/><rect class="cls-100" x="594.27" y="576.39" width="0.36" height="55.31"/><rect class="cls-101" x="594.64" y="576.39" width="0.36" height="55.31"/><rect class="cls-102" x="595" y="576.39" width="0.36" height="55.31"/><rect class="cls-103" x="595.36" y="576.39" width="0.36" height="55.31"/><rect class="cls-104" x="595.72" y="576.39" width="0.36" height="55.31"/><rect class="cls-105" x="596.09" y="576.39" width="0.36" height="55.31"/><rect class="cls-106" x="596.45" y="576.39" width="0.36" height="55.31"/><rect class="cls-107" x="596.81" y="576.39" width="0.36" height="55.31"/><rect class="cls-108" x="597.17" y="576.39" width="0.36" height="55.31"/><rect class="cls-109" x="597.54" y="576.39" width="0.36" height="55.31"/><rect class="cls-110" x="597.9" y="576.39" width="0.36" height="55.31"/><rect class="cls-111" x="598.26" y="576.39" width="0.36" height="55.31"/><rect class="cls-112" x="598.62" y="576.39" width="0.36" height="55.31"/><rect class="cls-113" x="598.99" y="576.39" width="0.36" height="55.31"/><rect class="cls-114" x="599.35" y="576.39" width="0.36" height="55.31"/><rect class="cls-115" x="599.71" y="576.39" width="0.36" height="55.31"/><rect class="cls-116" x="600.07" y="576.39" width="0.36" height="55.31"/><rect class="cls-117" x="600.44" y="576.39" width="0.36" height="55.31"/><rect class="cls-118" x="600.8" y="576.39" width="0.36" height="55.31"/><rect class="cls-119" x="601.16" y="576.39" width="0.36" height="55.31"/><rect class="cls-120" x="601.52" y="576.39" width="0.36" height="55.31"/><rect class="cls-121" x="601.89" y="576.39" width="0.36" height="55.31"/><rect class="cls-122" x="602.25" y="576.39" width="0.36" height="55.31"/><rect class="cls-123" x="602.61" y="576.39" width="0.36" height="55.31"/><rect class="cls-124" x="602.97" y="576.39" width="0.36" height="55.31"/><rect class="cls-125" x="603.34" y="576.39" width="0.36" height="55.31"/><rect class="cls-126" x="603.7" y="576.39" width="0.36" height="55.31"/><rect class="cls-127" x="604.06" y="576.39" width="0.36" height="55.31"/><rect class="cls-128" x="604.42" y="576.39" width="0.36" height="55.31"/><rect class="cls-129" x="604.79" y="576.39" width="0.36" height="55.31"/><rect class="cls-130" x="605.15" y="576.39" width="0.36" height="55.31"/><rect class="cls-131" x="605.51" y="576.39" width="0.36" height="55.31"/><rect class="cls-132" x="605.87" y="576.39" width="0.36" height="55.31"/><rect class="cls-133" x="606.24" y="576.39" width="0.36" height="55.31"/><rect class="cls-134" x="606.6" y="576.39" width="0.36" height="55.31"/><rect class="cls-135" x="606.96" y="576.39" width="0.36" height="55.31"/><rect class="cls-136" x="607.32" y="576.39" width="0.36" height="55.31"/><rect class="cls-137" x="607.69" y="576.39" width="0.36" height="55.31"/><rect class="cls-138" x="608.05" y="576.39" width="0.36" height="55.31"/><rect class="cls-139" x="608.41" y="576.39" width="0.36" height="55.31"/><rect class="cls-140" x="608.77" y="576.39" width="0.36" height="55.31"/><rect class="cls-141" x="609.14" y="576.39" width="0.36" height="55.31"/><rect class="cls-142" x="609.5" y="576.39" width="0.36" height="55.31"/><rect class="cls-143" x="609.86" y="576.39" width="0.36" height="55.31"/><rect class="cls-144" x="610.22" y="576.39" width="0.36" height="55.31"/><rect class="cls-145" x="610.59" y="576.39" width="0.36" height="55.31"/><rect class="cls-145" x="610.95" y="576.39" width="1.19" height="55.31"/></g><path d="M599.37,604.49c-.27,5-3.14,11-8.93,10.61s-8.12-7.47-7.84-12.64S586,590.9,591.79,592,599.64,599.48,599.37,604.49Z"/><g class="cls-146"><rect class="cls-15" x="592.59" y="587.97" width="7.64" height="7.64" rx="3.82"/></g><path class="cls-4" d="M486.5,556.93c-2.12,10.56-43.53,1.23-51.05,1.2s-49.64-1.42-48.35-12.21,44.08-9.27,52.5-9.11S488.61,546.37,486.5,556.93Z"/><path class="cls-4" d="M623.36,530.9c1.4,10.68-40.81,15.17-47.94,17.57s-47.45,14.63-49.71,4,38.76-23,46.78-25.53S622,520.22,623.36,530.9Z"/><path class="cls-148" d="M539.06,677.41c6.47,13.9-.43,22.84-20.46,22.29s-27.2-3.07-20.42-17.66,4.42-20.19,11.95-27.3S532.59,663.51,539.06,677.41Z"/><path class="cls-5" d="M536.37,674.93c6,12.94-.4,21.27-19,20.75s-25.32-2.86-19-16.45,4.12-18.79,11.13-25.41S530.34,662,536.37,674.93Z"/><path class="cls-149" d="M532.73,876.06c-11.64,11-6.4-7.85-2.76-22.19-.74.38-1.54.65-2.22,1-.74.53-1.47,1.08-2.2,1.6A31.9,31.9,0,0,1,515,861.67c-.61.31-1.21.63-1.82.92a16.7,16.7,0,0,1-4.7,1.9,61.72,61.72,0,0,1-6.26,3c-.85-.18-1.69-.37-2.52-.58a17,17,0,0,1-5.42-.41c-2.41-.37-4.81-.81-7.18-1.36a50.79,50.79,0,0,1-5.52-1.54,16.38,16.38,0,0,1-4.06-1.28l-.36-.11a10.7,10.7,0,0,1-1.84-1l-.31-.16a21,21,0,0,1-6.36-2.54c5.88,13.27,22.08,30.18,7.31,21.5-4.7,12.33,23.46,23.41,30.28,24.69C512.36,903.45,537.6,879.81,532.73,876.06Z"/><path class="cls-3" d="M512.36,864.43a11,11,0,0,0,2.5.07l-.26,0a.5.5,0,0,1-.37-.26,3,3,0,0,1-3.11-.48.69.69,0,0,1-.17-.6.42.42,0,0,1-.12-.08h0s0,0,0,.05C510.74,864,511.75,864.32,512.36,864.43Z"/><path class="cls-3" d="M532.84,874.07c-10.24,9.66-7.41-3.77-4.1-16.9-1,1-2.15,2-3.26,3s-2,1.62-3,2.48l-.09.34v0h0c0,.06,0,.11,0,.17a.5.5,0,0,1-.79.29,7,7,0,0,1-2.35,1.57,17.29,17.29,0,0,1-5.07.78c-1.53,0-3.59.06-4.34-1.78a2.12,2.12,0,0,1,0-1.75.8.8,0,0,1-.1-.41,55.07,55.07,0,0,1-6.46,3.27.71.71,0,0,1-.63.77,33.89,33.89,0,0,0-4.81.38l-.12,0-.07.07a2.93,2.93,0,0,1-2,.13c-1.07-.14-2.14-.29-3.2-.52-2.18-.48-4.33-1-6.52-1.38-2-.36-4-.71-6-1.19a24.2,24.2,0,0,1-10.1-4.68c6.49,12.86,20.32,27.63,6.32,19.4-4.7,12.34,23.45,23.41,30.28,24.7C512.47,901.47,537.72,877.82,532.84,874.07Z"/><path class="cls-150" d="M475.92,934.78c-9.45-21.37-21.3-39.93-35.81-55.28-5.89-6.23-3.35-6.54-1.37-13.42s4.65-14,8.16-19.69,7.24-6.39,11.47-1.47C468.78,857,480.12,859.1,496,859.71c6.46.25,4.83,4.85,3.73,14.8s-9.35,39.14-12,49.15S479.76,943.46,475.92,934.78Z"/><path class="cls-150" d="M536.44,930.49c4.19-21.6,11.07-40.76,21-57.09,4-6.63,1.69-6.66-1.44-13.09a91,91,0,0,0-11.18-18.14c-4.26-5.11-7.72-5.41-10.51-.23-6.89,12.77-16.59,16-30.66,18.23-5.71.91-3.34,5.18-.39,14.66s16.1,36.79,20.44,46.18S534.74,939.27,536.44,930.49Z"/><g id="Layer_2" data-name="Layer 2"><rect class="cls-151" x="-59" y="958" width="1160" height="223"/><rect class="cls-151" x="431.5" y="436.5" width="1160" height="223" transform="translate(1559.5 -463.5) rotate(90)"/><rect class="cls-151" x="-572.5" y="449.5" width="1160" height="223" transform="translate(568.5 553.5) rotate(90)"/><rect class="cls-151" x="-62" y="-108" width="1160" height="223"/><rect x="60.71" y="-27.59" width="4" height="170.15" transform="translate(-22.04 64.87) rotate(-47.49)"/><polygon points="899.35 116.59 964.28 45.76 1014.33 -8.84 1017.27 -6.13 902.3 119.29 899.35 116.59"/><polygon points="0.21 1078.64 65.14 1007.81 115.19 953.21 118.13 955.92 3.16 1081.34 0.21 1078.64"/><rect x="953.44" y="933.98" width="4" height="170.15" transform="translate(-440.78 975.33) rotate(-45.05)"/></g></g><g id="Layer_3" data-name="Layer 3"><rect x="166" y="57" width="31" height="959" rx="12"/><rect x="375" y="59" width="31" height="959" rx="12"/><rect x="815" y="59" width="31" height="959" rx="12"/><rect x="617" y="58" width="31" height="959" rx="12"/></g><g id="Layer_4" data-name="Layer 4"><rect class="cls-152" x="1012" y="-32" width="923" height="1136"/><path class="cls-153" d="M1084.12,69.83v88h-22.89v-88Z"/><path class="cls-153" d="M1165.59,69.83v88h-22.9v-37h-6.85v37H1113v-88h22.89v31.49h6.85V69.83Z"/><path class="cls-153" d="M1224.43,85.71v72.16h-22.35l.38-6a15.24,15.24,0,0,1-5.63,5.47,15.75,15.75,0,0,1-7.69,1.83,17.31,17.31,0,0,1-8.21-1.74,11.35,11.35,0,0,1-4.82-4.62,17.13,17.13,0,0,1-1.93-6q-.37-3.13-.38-12.43V85.71h22v49.11c0,5.62.18,9,.52,10s1.28,1.58,2.8,1.58,2.6-.54,2.91-1.63.46-4.59.46-10.5V85.71Z"/><path class="cls-153" d="M1254.67,85.71l-.38,6.65a16.36,16.36,0,0,1,5.85-6,15.6,15.6,0,0,1,8-2,15.1,15.1,0,0,1,9.25,2.67,11.83,11.83,0,0,1,4.62,6.71q1,4.05,1,13.52v50.57h-22v-50q0-7.45-.49-9.09c-.32-1.08-1.23-1.63-2.71-1.63a2.73,2.73,0,0,0-2.94,1.88q-.6,1.88-.6,10v48.78h-22V85.71Z"/><path class="cls-153" d="M1340.54,69.83v88h-22v-5.23a22.46,22.46,0,0,1-6.63,4.9,17,17,0,0,1-7.29,1.64,14.81,14.81,0,0,1-8.86-2.69,12,12,0,0,1-4.82-6.23q-1.07-3.54-1.06-11.53V105q0-8.33,1.06-11.8a11.74,11.74,0,0,1,4.87-6.12,15.53,15.53,0,0,1,9.08-2.64,17.93,17.93,0,0,1,13.65,5.89V69.83Zm-22,34a13.83,13.83,0,0,0-.68-5.33,3.39,3.39,0,0,0-5.33-.13q-.68,1.22-.68,5.46v35.35q0,4.41.66,5.79a2.48,2.48,0,0,0,2.5,1.39,2.81,2.81,0,0,0,2.83-1.55q.7-1.54.7-7.59Z"/><path class="cls-153" d="M1398.19,123.07h-28.44v15.61q0,4.89.7,6.31a2.75,2.75,0,0,0,2.72,1.41,3.31,3.31,0,0,0,3.35-1.88q.84-1.87.84-7.26v-9.51h20.83v5.33a47.78,47.78,0,0,1-.84,10.27,21,21,0,0,1-3.95,7.67,19.11,19.11,0,0,1-7.86,6.12,30.38,30.38,0,0,1-11.93,2,34.69,34.69,0,0,1-12.29-2,19.65,19.65,0,0,1-8.3-5.52,20,20,0,0,1-4.1-7.73,49.83,49.83,0,0,1-1.14-12.26v-21q0-9.45,2.55-14.92a17.57,17.57,0,0,1,8.38-8.38,29.52,29.52,0,0,1,13.37-2.91q9.26,0,15.26,3.51a19.27,19.27,0,0,1,8.43,9.3q2.42,5.79,2.42,16.29Zm-22-11.75v-5.27q0-5.61-.59-7.24a2.38,2.38,0,0,0-2.45-1.63c-1.52,0-2.47.46-2.83,1.39s-.54,3.42-.54,7.48v5.27Z"/><path class="cls-153" d="M1427.34,69.83V89.64a19.47,19.47,0,0,1,6.12-3.93,18.91,18.91,0,0,1,7-1.31,16.28,16.28,0,0,1,9.82,2.94,11.78,11.78,0,0,1,5,6.77q.88,3.84.89,14v49.76h-22V107.08q0-6.31-.62-8.1a3,3,0,0,0-5.52,0q-.71,1.84-.71,7.34v51.5h-22v-88Z"/><path class="cls-153" d="M1513.43,111.05v17.67a74.78,74.78,0,0,1-1,14.28,19.93,19.93,0,0,1-4.19,8.48,18.87,18.87,0,0,1-8.24,5.82,32.91,32.91,0,0,1-11.55,1.88,41.56,41.56,0,0,1-12.35-1.6,16.91,16.91,0,0,1-7.86-4.84,19.12,19.12,0,0,1-4-7.84q-1.2-4.59-1.2-13.78V112.63q0-10.06,2.18-15.72a18,18,0,0,1,7.83-9.08q5.65-3.43,14.46-3.43a33.19,33.19,0,0,1,12.7,2.2,19.89,19.89,0,0,1,12.13,13A45.16,45.16,0,0,1,1513.43,111.05Zm-22-5.44q0-5.55-.6-7a2.47,2.47,0,0,0-2.56-1.44,2.58,2.58,0,0,0-2.61,1.44q-.64,1.44-.65,7v32.58q0,5.12.65,6.66a3,3,0,0,0,5.14.14q.63-1.43.63-6.1Z"/><path class="cls-153" d="M1566.13,85.71l-10.28,72.16h-28.72l-11-72.16h19.62l6.19,52.7q.72-5.82,2.48-28.33.93-12.57,2.13-24.37Z"/><path class="cls-153" d="M1619.1,123.07h-28.45v15.61q0,4.89.71,6.31a2.75,2.75,0,0,0,2.72,1.41,3.29,3.29,0,0,0,3.34-1.88q.86-1.87.85-7.26v-9.51h20.83v5.33a47,47,0,0,1-.85,10.27,20.79,20.79,0,0,1-3.94,7.67,19.24,19.24,0,0,1-7.86,6.12,30.38,30.38,0,0,1-11.93,2,34.75,34.75,0,0,1-12.3-2,19.07,19.07,0,0,1-12.39-13.25,49.26,49.26,0,0,1-1.15-12.26v-21q0-9.45,2.56-14.92a17.51,17.51,0,0,1,8.37-8.38A29.53,29.53,0,0,1,1593,84.4q9.26,0,15.26,3.51a19.37,19.37,0,0,1,8.43,9.3q2.41,5.79,2.42,16.29Zm-22-11.75v-5.27q0-5.61-.6-7.24a2.37,2.37,0,0,0-2.44-1.63c-1.53,0-2.47.46-2.83,1.39s-.55,3.42-.55,7.48v5.27Z"/><path class="cls-153" d="M1676.25,69.83v88h-22v-5.23a22.46,22.46,0,0,1-6.63,4.9,17,17,0,0,1-7.29,1.64,14.81,14.81,0,0,1-8.86-2.69,12,12,0,0,1-4.82-6.23q-1-3.54-1.06-11.53V105q0-8.33,1.06-11.8a11.74,11.74,0,0,1,4.87-6.12,15.55,15.55,0,0,1,9.08-2.64,17.93,17.93,0,0,1,13.65,5.89V69.83Zm-22,34c0-2.64-.22-4.42-.68-5.33a2.72,2.72,0,0,0-2.69-1.36,2.76,2.76,0,0,0-2.64,1.23q-.68,1.22-.68,5.46v35.35q0,4.41.66,5.79a2.48,2.48,0,0,0,2.5,1.39,2.81,2.81,0,0,0,2.83-1.55q.7-1.54.7-7.59Z"/><path class="cls-153" d="M1733.9,123.07h-28.44v15.61c0,3.26.23,5.36.71,6.31a2.74,2.74,0,0,0,2.71,1.41,3.31,3.31,0,0,0,3.35-1.88q.84-1.87.84-7.26v-9.51h20.83v5.33a47.78,47.78,0,0,1-.84,10.27,20.94,20.94,0,0,1-3.94,7.67,19.24,19.24,0,0,1-7.86,6.12,30.47,30.47,0,0,1-11.94,2,34.69,34.69,0,0,1-12.29-2,19.65,19.65,0,0,1-8.3-5.52,20,20,0,0,1-4.1-7.73,49.83,49.83,0,0,1-1.14-12.26v-21q0-9.45,2.55-14.92a17.57,17.57,0,0,1,8.38-8.38,29.53,29.53,0,0,1,13.38-2.91q9.24,0,15.25,3.51a19.27,19.27,0,0,1,8.43,9.3q2.41,5.79,2.42,16.29Zm-22-11.75v-5.27q0-5.61-.6-7.24a2.38,2.38,0,0,0-2.45-1.63c-1.52,0-2.47.46-2.83,1.39s-.54,3.42-.54,7.48v5.27Z"/><path class="cls-153" d="M1763.05,85.71l-.87,9.49Q1767,85,1776.05,84.4v25.4c-4,0-7,.54-8.87,1.63a6.88,6.88,0,0,0-3.48,4.54q-.65,2.91-.65,13.41v28.49h-22V85.71Z"/><path class="cls-153" d="M1786,140.63v7.89a29.73,29.73,0,0,1-1.47,10.17,15,15,0,0,1-5.09,6.74,19.6,19.6,0,0,1-8.18,3.7v-6.31a6.7,6.7,0,0,0,3.7-4.95h-3.7V140.63Z"/><path class="cls-153" d="M1082.54,203.48v19.81a20.06,20.06,0,0,1,6.12-3.93,19,19,0,0,1,7-1.3,16.24,16.24,0,0,1,9.81,2.93,11.81,11.81,0,0,1,5,6.77q.9,3.84.9,14v49.76h-22v-50.8q0-6.3-.63-8.1a3,3,0,0,0-5.52.06q-.7,1.84-.71,7.34v51.5h-22v-88Z"/><path class="cls-153" d="M1195.61,256.72H1167V271.3c0,3.7.23,6.08.71,7.15a2.91,2.91,0,0,0,3,1.6,3.39,3.39,0,0,0,3.31-1.63c.58-1.09.87-3.33.87-6.74V261.4h20.78v7.29a30,30,0,0,1-2.15,12,19.68,19.68,0,0,1-7.8,8.51,25.27,25.27,0,0,1-13.87,3.61,36.11,36.11,0,0,1-13-2.06,18.7,18.7,0,0,1-8.42-6.2,19.94,19.94,0,0,1-7.07,6.2,20.16,20.16,0,0,1-9.19,2.06,18.29,18.29,0,0,1-9.88-2.44,11.59,11.59,0,0,1-5.11-6.2q-1.22-3.75-1.22-12.29,0-7.62,1.11-10.42a11,11,0,0,1,4.6-5q3.48-2.21,12-5.2a30,30,0,0,0,6.09-2.55,5.42,5.42,0,0,0,2.17-2.58q.6-1.56.6-6.67a23.87,23.87,0,0,0-.65-6.74,2.45,2.45,0,0,0-2.45-1.9,2.13,2.13,0,0,0-2.25,1.57q-.53,1.58-.52,8v6.9h-20.61v-5.38a41.39,41.39,0,0,1,.84-9.41,16.69,16.69,0,0,1,3.86-6.88,21.76,21.76,0,0,1,7.67-5.52,29.38,29.38,0,0,1,11.88-2.06,30.77,30.77,0,0,1,7.78,1,30,30,0,0,1,7.18,2.94,17.54,17.54,0,0,1,5.82-2.94,26.37,26.37,0,0,1,7.45-1,27,27,0,0,1,14.22,3.59,20.06,20.06,0,0,1,8.4,9.19q2.44,5.59,2.45,16.58Zm-50.63.93a20.12,20.12,0,0,0-5.63,5.52q-1.44,2.47-1.44,9.22a14.81,14.81,0,0,0,.84,5.92,3.11,3.11,0,0,0,3.07,1.74,2.67,2.67,0,0,0,2.34-1.08,5.6,5.6,0,0,0,.76-3.21l.06-6.47ZM1173.64,245v-6.53q0-5.05-.93-6.34a2.81,2.81,0,0,0-2.39-1.27,2.7,2.7,0,0,0-2.58,1.46q-.79,1.47-.79,6.15V245Z"/><path class="cls-153" d="M1225.19,219.36l-.38,6.65a16.6,16.6,0,0,1,5.85-6,15.73,15.73,0,0,1,8-2,15.06,15.06,0,0,1,9.24,2.66,11.89,11.89,0,0,1,4.62,6.72q1,4,1,13.51v50.58h-22v-50c0-5-.17-8-.49-9.08s-1.24-1.63-2.72-1.63a2.72,2.72,0,0,0-2.94,1.87q-.6,1.88-.6,10v48.78h-22V219.36Z"/><path class="cls-153" d="M1311,219.36v55.58q0,11.26-.52,14.55a14.42,14.42,0,0,1-3.67,7,19.67,19.67,0,0,1-8.78,5.6,44.15,44.15,0,0,1-14.17,1.93q-10.48,0-16.86-3.56t-6.58-14h21.32q0,4.79,3.48,4.78c1.67,0,2.78-.49,3.32-1.47s.82-3,.82-6.15v-5.44a20.83,20.83,0,0,1-6,3.87,16.83,16.83,0,0,1-6.55,1.31,18.1,18.1,0,0,1-9.76-2.4,12.2,12.2,0,0,1-5.25-6.28q-1.42-3.88-1.42-11.06V237.36q0-10.28,3.7-14.79t11.26-4.51a16.63,16.63,0,0,1,7.53,1.69,17.82,17.82,0,0,1,6.07,5.06l1.57-5.45Zm-22,19.14c0-3.29-.2-5.4-.58-6.3a2.42,2.42,0,0,0-2.52-1.36,2.78,2.78,0,0,0-2.7,1.55q-.78,1.55-.78,6.11v24.26c0,3.23.19,5.32.59,6.28a2.43,2.43,0,0,0,2.5,1.44,2.7,2.7,0,0,0,2.83-1.74q.66-1.74.66-7.88Z"/><path class="cls-153" d="M1368.6,256.72h-28.44v15.61c0,3.26.24,5.37.71,6.31a2.75,2.75,0,0,0,2.72,1.41,3.29,3.29,0,0,0,3.34-1.87q.84-1.87.84-7.26V261.4h20.83v5.33a48,48,0,0,1-.84,10.28,21,21,0,0,1-3.94,7.67,19.22,19.22,0,0,1-7.86,6.11,30.4,30.4,0,0,1-11.94,2,34.69,34.69,0,0,1-12.29-2,19.62,19.62,0,0,1-8.29-5.52,19.89,19.89,0,0,1-4.11-7.72,49.94,49.94,0,0,1-1.14-12.26v-21q0-9.47,2.56-14.93a17.53,17.53,0,0,1,8.37-8.37,29.53,29.53,0,0,1,13.38-2.91q9.24,0,15.25,3.5a19.27,19.27,0,0,1,8.43,9.3q2.43,5.79,2.42,16.29Zm-22-11.74V239.7q0-5.59-.6-7.23a2.37,2.37,0,0,0-2.45-1.63q-2.28,0-2.82,1.38t-.55,7.48V245Z"/><path class="cls-153" d="M1397.75,219.36l-.87,9.49q4.78-10.2,13.87-10.79v25.39c-4,0-7,.55-8.86,1.63a6.84,6.84,0,0,0-3.48,4.55q-.66,2.91-.66,13.4v28.5h-22V219.36Z"/><path class="cls-153" d="M1461.33,227.33a19.22,19.22,0,0,1,3.07,6.28q1,3.39.95,11.11v17.67q0,9.74-1,14.27a20,20,0,0,1-4.19,8.48A18.89,18.89,0,0,1,1452,291a33,33,0,0,1-11.59,1.87,43.3,43.3,0,0,1-10.77-1.18,19.82,19.82,0,0,1-7.45-3.47l-1.69,2.56-4.28-2.77,2.45-3.75a23.41,23.41,0,0,1-2.75-6.85q-.9-3.81-.9-12.62V246.27q0-10.05,2.18-15.71a18.05,18.05,0,0,1,7.83-9.08q5.67-3.42,14.48-3.42a35.53,35.53,0,0,1,10.28,1.37,23.17,23.17,0,0,1,7.94,4.09l2.23-3.37,4.23,2.77Zm-17.95,18.48V239.1q0-5.44-.6-6.85a2.47,2.47,0,0,0-2.55-1.41,2.56,2.56,0,0,0-2.61,1.43q-.66,1.42-.66,6.95v16.54ZM1437,265.14v6.57q0,5.19.66,6.77a2.49,2.49,0,0,0,2.55,1.57,2.52,2.52,0,0,0,2.59-1.43q.62-1.44.62-6.18V255.17Z"/><path class="cls-153" d="M1518.05,219.36l-10.28,72.17h-28.71l-11-72.17h19.62l6.18,52.7q.73-5.82,2.48-28.33.93-12.55,2.13-24.37Z"/><path class="cls-153" d="M1571,256.72h-28.44v15.61c0,3.26.23,5.37.71,6.31a2.74,2.74,0,0,0,2.71,1.41,3.3,3.3,0,0,0,3.35-1.87q.84-1.87.84-7.26V261.4H1571v5.33a48,48,0,0,1-.84,10.28,21,21,0,0,1-3.94,7.67,19.22,19.22,0,0,1-7.86,6.11,30.47,30.47,0,0,1-11.94,2,34.69,34.69,0,0,1-12.29-2,19.65,19.65,0,0,1-8.3-5.52,20,20,0,0,1-4.1-7.72,49.94,49.94,0,0,1-1.14-12.26v-21q0-9.47,2.55-14.93a17.59,17.59,0,0,1,8.38-8.37,29.53,29.53,0,0,1,13.38-2.91q9.24,0,15.25,3.5a19.27,19.27,0,0,1,8.43,9.3q2.42,5.79,2.42,16.29ZM1549,245V239.7q0-5.59-.6-7.23a2.37,2.37,0,0,0-2.45-1.63c-1.52,0-2.47.46-2.83,1.38s-.54,3.42-.54,7.48V245Z"/><path class="cls-153" d="M1110.28,378.36V396a74.85,74.85,0,0,1-1,14.28,20,20,0,0,1-4.19,8.48,18.89,18.89,0,0,1-8.23,5.82,33,33,0,0,1-11.56,1.88,41.21,41.21,0,0,1-12.35-1.61,16.75,16.75,0,0,1-7.85-4.84,19,19,0,0,1-4-7.83q-1.2-4.59-1.2-13.78v-18.5q0-10.05,2.18-15.71a18.05,18.05,0,0,1,7.83-9.08q5.65-3.43,14.46-3.43a33,33,0,0,1,12.7,2.2,19.89,19.89,0,0,1,12.13,13A45.16,45.16,0,0,1,1110.28,378.36Zm-22-5.44q0-5.55-.6-7a2.46,2.46,0,0,0-2.55-1.44,2.59,2.59,0,0,0-2.62,1.44q-.64,1.44-.65,7V405.5q0,5.1.65,6.66a3,3,0,0,0,5.14.13q.63-1.41.63-6.09Z"/><path class="cls-153" d="M1167.44,353V408.6q0,11.25-.52,14.54a14.42,14.42,0,0,1-3.67,7,19.69,19.69,0,0,1-8.78,5.61,44.51,44.51,0,0,1-14.17,1.93q-10.5,0-16.86-3.57t-6.58-14h21.32q0,4.79,3.48,4.79c1.67,0,2.77-.49,3.32-1.47s.81-3,.81-6.16v-5.44a20.78,20.78,0,0,1-6,3.87,16.88,16.88,0,0,1-6.56,1.31,18.21,18.21,0,0,1-9.76-2.39,12.33,12.33,0,0,1-5.25-6.28q-1.41-3.9-1.41-11.07V371q0-10.29,3.7-14.8t11.26-4.51a16.66,16.66,0,0,1,7.53,1.69,17.82,17.82,0,0,1,6.06,5.07L1147,353Zm-22,19.15q0-4.95-.57-6.31a2.43,2.43,0,0,0-2.53-1.36,2.78,2.78,0,0,0-2.69,1.55q-.8,1.54-.79,6.12v24.25q0,4.84.6,6.28a2.41,2.41,0,0,0,2.5,1.45,2.7,2.7,0,0,0,2.83-1.74q.65-1.74.65-7.89Z"/><path class="cls-153" d="M1239.77,376.07H1220.3v-3.91q0-5-.57-6.34c-.38-.89-1.33-1.33-2.86-1.33a3.27,3.27,0,0,0-2.77,1.22,6,6,0,0,0-.93,3.67,18.36,18.36,0,0,0,.47,4.87,7.72,7.72,0,0,0,2.77,3.4,60.33,60.33,0,0,0,9.49,5.38q9.57,4.68,12.56,8.81t3,12q0,8.82-2.28,13.3a15.21,15.21,0,0,1-7.64,6.91,31.3,31.3,0,0,1-12.92,2.42,35.58,35.58,0,0,1-14.33-2.61q-6-2.61-8.18-7.07t-2.23-13.49v-3.48h19.47v4.57q0,5.82.73,7.56a2.85,2.85,0,0,0,2.91,1.74,4,4,0,0,0,3.27-1.17c.61-.78.92-2.42.92-4.92q0-5.17-1.2-6.48t-12.78-7.72q-9.68-5.43-11.8-9.87a24.2,24.2,0,0,1-2.12-10.52q0-8.65,2.28-12.76a14.92,14.92,0,0,1,7.75-6.33,33.41,33.41,0,0,1,12.7-2.23,36.11,36.11,0,0,1,12.21,1.82,18.76,18.76,0,0,1,7.72,4.81,13,13,0,0,1,3.27,5.55,40.4,40.4,0,0,1,.57,8Z"/><path class="cls-153" d="M1294.64,353l-8.92,28.75,11.59,43.42h-21.13l-6.85-31.45,0,31.45h-22V337.13h22l0,37,6.85-21.09Z"/><path class="cls-153" d="M1323.19,337.13v11.48h-22.62V337.13Zm0,15.88v72.17h-22.62V353Z"/><path class="cls-153" d="M1381.06,337.13v88.05h-22V420a22.81,22.81,0,0,1-6.64,4.9,16.94,16.94,0,0,1-7.28,1.64,14.84,14.84,0,0,1-8.87-2.69,12,12,0,0,1-4.81-6.23q-1.07-3.54-1.06-11.53V372.27q0-8.32,1.06-11.8a11.71,11.71,0,0,1,4.86-6.12,15.56,15.56,0,0,1,9.09-2.64,17.93,17.93,0,0,1,13.65,5.89V337.13Zm-22,34.05c0-2.65-.23-4.42-.68-5.33a2.71,2.71,0,0,0-2.69-1.36,2.75,2.75,0,0,0-2.64,1.22c-.46.82-.68,2.64-.68,5.47v35.35q0,4.41.65,5.79a2.51,2.51,0,0,0,2.5,1.39,2.79,2.79,0,0,0,2.83-1.55c.47-1,.71-3.56.71-7.59Z"/><path class="cls-153" d="M1438.71,390.38h-28.45V406q0,4.9.71,6.31a2.74,2.74,0,0,0,2.72,1.42,3.29,3.29,0,0,0,3.34-1.88c.56-1.25.85-3.67.85-7.26v-9.52h20.83v5.33a47.77,47.77,0,0,1-.85,10.28,20.86,20.86,0,0,1-3.94,7.67,19.24,19.24,0,0,1-7.86,6.12,30.4,30.4,0,0,1-11.94,2,34.73,34.73,0,0,1-12.29-2,19.11,19.11,0,0,1-12.4-13.25,49.89,49.89,0,0,1-1.14-12.26V377.92q0-9.46,2.56-14.93a17.53,17.53,0,0,1,8.37-8.37,29.53,29.53,0,0,1,13.38-2.91q9.24,0,15.26,3.51a19.37,19.37,0,0,1,8.43,9.3q2.42,5.79,2.42,16.28Zm-22-11.75v-5.28q0-5.6-.6-7.23a2.36,2.36,0,0,0-2.45-1.63c-1.52,0-2.46.46-2.82,1.39s-.55,3.41-.55,7.47v5.28Z"/><path class="cls-153" d="M1490.75,376.07h-19.47v-3.91q0-5-.57-6.34c-.38-.89-1.33-1.33-2.85-1.33a3.28,3.28,0,0,0-2.78,1.22,6,6,0,0,0-.92,3.67,18.46,18.46,0,0,0,.46,4.87,7.72,7.72,0,0,0,2.77,3.4,60.33,60.33,0,0,0,9.49,5.38q9.57,4.68,12.57,8.81t3,12q0,8.82-2.29,13.3a15.21,15.21,0,0,1-7.64,6.91,31.28,31.28,0,0,1-12.91,2.42,35.55,35.55,0,0,1-14.33-2.61q-6-2.61-8.19-7.07t-2.23-13.49v-3.48h19.47v4.57c0,3.88.25,6.4.73,7.56a2.85,2.85,0,0,0,2.91,1.74,4,4,0,0,0,3.27-1.17c.61-.78.92-2.42.92-4.92q0-5.17-1.19-6.48t-12.79-7.72q-9.68-5.43-11.8-9.87a24.2,24.2,0,0,1-2.12-10.52q0-8.65,2.29-12.76a14.84,14.84,0,0,1,7.75-6.33,33.34,33.34,0,0,1,12.7-2.23,36.09,36.09,0,0,1,12.2,1.82,18.87,18.87,0,0,1,7.73,4.81,13,13,0,0,1,3.26,5.55,40.4,40.4,0,0,1,.57,8Z"/><path class="cls-153" d="M1520.28,353l-.87,9.49q4.78-10.19,13.87-10.79v25.4c-4,0-7,.54-8.87,1.63a6.88,6.88,0,0,0-3.48,4.54q-.65,2.91-.65,13.41v28.49h-22V353Z"/><path class="cls-153" d="M1560.53,353l-.39,6.38a20.35,20.35,0,0,1,6.48-5.77,16,16,0,0,1,7.72-1.91,14.51,14.51,0,0,1,8.84,2.75,11.54,11.54,0,0,1,4.65,6.33c.61,2.39.92,6.46.92,12.18v30.4c0,6.57-.39,11.23-1.17,14a11.63,11.63,0,0,1-4.78,6.63,15.12,15.12,0,0,1-8.73,2.48,15.5,15.5,0,0,1-7.56-1.91,20.63,20.63,0,0,1-6.37-5.67v16.55h-22V353Zm6.25,21q0-6.69-.49-8.11c-.33-.94-1.23-1.41-2.72-1.41a2.66,2.66,0,0,0-2.8,1.63q-.63,1.63-.63,7.89v29.91q0,6.52.66,8.16a2.71,2.71,0,0,0,2.82,1.63q2.13,0,2.64-1.5t.52-7.26Z"/><path class="cls-153" d="M1672.67,390.38H1644V405q0,5.55.71,7.15a2.92,2.92,0,0,0,3,1.61,3.43,3.43,0,0,0,3.32-1.63q.87-1.63.87-6.75V395.05h20.78v7.29a29.91,29.91,0,0,1-2.15,12,19.77,19.77,0,0,1-7.81,8.51,25.23,25.23,0,0,1-13.87,3.62,35.83,35.83,0,0,1-12.94-2.07,18.72,18.72,0,0,1-8.43-6.2,19.68,19.68,0,0,1-7.07,6.2,20,20,0,0,1-9.19,2.07,18.23,18.23,0,0,1-9.87-2.45,11.51,11.51,0,0,1-5.11-6.2q-1.23-3.75-1.23-12.29c0-5.08.38-8.55,1.12-10.41a10.89,10.89,0,0,1,4.6-5q3.48-2.2,12-5.19a30.94,30.94,0,0,0,6.1-2.56,5.42,5.42,0,0,0,2.17-2.58c.4-1,.6-3.26.6-6.66a23.9,23.9,0,0,0-.65-6.75,2.45,2.45,0,0,0-2.45-1.9,2.16,2.16,0,0,0-2.26,1.58q-.51,1.57-.51,8V381h-20.62v-5.39a40.64,40.64,0,0,1,.85-9.4,16.63,16.63,0,0,1,3.86-6.88,21.51,21.51,0,0,1,7.67-5.52,29.37,29.37,0,0,1,11.88-2.07,30.89,30.89,0,0,1,7.78,1,29.33,29.33,0,0,1,7.17,2.93,17.33,17.33,0,0,1,5.82-2.93,26.41,26.41,0,0,1,7.45-1,27.1,27.1,0,0,1,14.23,3.59,20.11,20.11,0,0,1,8.4,9.19q2.44,5.6,2.45,16.59Zm-50.64.92a20.2,20.2,0,0,0-5.62,5.52Q1615,399.3,1615,406a14.64,14.64,0,0,0,.85,5.93,3.1,3.1,0,0,0,3.07,1.74,2.66,2.66,0,0,0,2.34-1.09,5.6,5.6,0,0,0,.76-3.21l0-6.47Zm28.66-12.67V372.1c0-3.37-.3-5.48-.92-6.33a2.84,2.84,0,0,0-2.39-1.28,2.72,2.72,0,0,0-2.59,1.47c-.52,1-.79,3-.79,6.14v6.53Z"/><path class="cls-153" d="M1702.52,337.13v88.05H1679.9V337.13Z"/><path class="cls-153" d="M1733,337.13v88.05h-22.62V337.13Z"/><path class="cls-153" d="M1790.68,390.38h-28.44V406q0,4.9.7,6.31a2.74,2.74,0,0,0,2.72,1.42,3.31,3.31,0,0,0,3.35-1.88q.84-1.87.84-7.26v-9.52h20.83v5.33a47.89,47.89,0,0,1-.84,10.28,21.05,21.05,0,0,1-3.95,7.67,19.11,19.11,0,0,1-7.86,6.12,30.38,30.38,0,0,1-11.93,2,34.69,34.69,0,0,1-12.29-2,19.06,19.06,0,0,1-12.4-13.25,49.8,49.8,0,0,1-1.15-12.26V377.92q0-9.46,2.56-14.93a17.55,17.55,0,0,1,8.38-8.37,29.52,29.52,0,0,1,13.37-2.91q9.26,0,15.26,3.51a19.32,19.32,0,0,1,8.43,9.3q2.41,5.79,2.42,16.28Zm-22-11.75v-5.28q0-5.6-.6-7.23a2.35,2.35,0,0,0-2.44-1.63c-1.53,0-2.47.46-2.83,1.39s-.54,3.41-.54,7.47v5.28Z"/><path class="cls-153" d="M1819.83,353l-.87,9.49q4.79-10.19,13.87-10.79v25.4c-4,0-7,.54-8.87,1.63a6.88,6.88,0,0,0-3.48,4.54q-.64,2.91-.65,13.41v28.49h-22V353Z"/><path class="cls-153" d="M1887.48,390.38H1859V406c0,3.27.23,5.37.71,6.31a2.73,2.73,0,0,0,2.71,1.42,3.31,3.31,0,0,0,3.35-1.88q.84-1.87.84-7.26v-9.52h20.83v5.33a47.89,47.89,0,0,1-.84,10.28,21,21,0,0,1-3.94,7.67,19.24,19.24,0,0,1-7.86,6.12,30.44,30.44,0,0,1-11.94,2,34.69,34.69,0,0,1-12.29-2,19.11,19.11,0,0,1-12.4-13.25,49.89,49.89,0,0,1-1.14-12.26V377.92q0-9.46,2.55-14.93a17.59,17.59,0,0,1,8.38-8.37,29.53,29.53,0,0,1,13.38-2.91q9.24,0,15.25,3.51a19.27,19.27,0,0,1,8.43,9.3q2.42,5.79,2.42,16.28Zm-22-11.75v-5.28q0-5.6-.6-7.23a2.37,2.37,0,0,0-2.45-1.63c-1.52,0-2.47.46-2.83,1.39s-.54,3.41-.54,7.47v5.28Z"/><g class="cls-154"><rect class="cls-155" x="1442" y="535" width="231" height="171" rx="5.58"/></g><path class="cls-153" d="M1275.94,595.66h12.43a29.51,29.51,0,0,1,7.75.79,8.69,8.69,0,0,1,4.07,2.29,7.81,7.81,0,0,1,1.84,3.62,31.67,31.67,0,0,1,.49,6.57v4.14a17.33,17.33,0,0,1-.94,6.62,6.44,6.44,0,0,1-3.44,3.19,16.36,16.36,0,0,1-6.55,1.11h-3.31v19.1h-12.34Zm12.34,8.12v12.07l.91,0a2.82,2.82,0,0,0,2.35-.84c.44-.55.66-1.71.66-3.47v-3.9c0-1.62-.25-2.67-.76-3.16S1289.88,603.78,1288.28,603.78Z"/><path class="cls-153" d="M1332.49,617.87v9.52a40.22,40.22,0,0,1-.53,7.69,10.67,10.67,0,0,1-2.26,4.57,10.21,10.21,0,0,1-4.43,3.14,17.89,17.89,0,0,1-6.23,1,22.07,22.07,0,0,1-6.65-.87,9,9,0,0,1-4.23-2.6,10.32,10.32,0,0,1-2.16-4.22,31.79,31.79,0,0,1-.64-7.43v-10a24.47,24.47,0,0,1,1.17-8.47,9.74,9.74,0,0,1,4.22-4.89,14.85,14.85,0,0,1,7.79-1.85,17.78,17.78,0,0,1,6.84,1.19,10.74,10.74,0,0,1,6.54,7A24.47,24.47,0,0,1,1332.49,617.87Zm-11.84-2.93a13.07,13.07,0,0,0-.32-3.76,1.33,1.33,0,0,0-1.38-.78,1.38,1.38,0,0,0-1.4.78,11.56,11.56,0,0,0-.36,3.76v17.55a11.12,11.12,0,0,0,.36,3.59,1.6,1.6,0,0,0,2.76.07,9.75,9.75,0,0,0,.34-3.28Z"/><path class="cls-153" d="M1348.57,595.66v6.18h-12.19v-6.18Zm0,8.56v38.87h-12.19V604.22Z"/><path class="cls-153" d="M1364.86,604.22l-.2,3.58a8.73,8.73,0,0,1,3.14-3.21,8.42,8.42,0,0,1,4.3-1.08,8.12,8.12,0,0,1,5,1.44,6.37,6.37,0,0,1,2.49,3.62,33.21,33.21,0,0,1,.55,7.28v27.24h-11.83V616.17a24.43,24.43,0,0,0-.27-4.89c-.17-.59-.66-.88-1.46-.88a1.46,1.46,0,0,0-1.58,1,25.14,25.14,0,0,0-.32,5.41v26.27h-11.84V604.22Z"/><path class="cls-153" d="M1396.68,599v6.13h3.19v6.15h-3.19v20.8c0,2.56.13,4,.39,4.28s1.36.44,3.3.44v6.26h-4.78a34.84,34.84,0,0,1-5.77-.33,6.22,6.22,0,0,1-3-1.55,5.28,5.28,0,0,1-1.64-2.79,50.14,50.14,0,0,1-.32-7.37V611.31h-2.55v-6.15h2.55V599Z"/><path class="cls-153" d="M1422,612.22v9.63h-8.94v-9.63Zm0,21.21v9.66h-8.94v-9.66Z"/></g></svg>