<svg xmlns="http://www.w3.org/2000/svg" width="180" height="190" viewBox="0 0 180 190"><defs><style>.cls-1{fill:#75735e;}.cls-2{fill:#fcfaac;}.cls-3{fill:#c6c68b;}.cls-4{fill:#ffff17;}.cls-5{fill:#fff761;}</style></defs><g id="Layer_4" data-name="Layer 4"><path class="cls-1" d="M82.05,70.52C73.51,66,63.51,65,54.74,65,37.3,64.9,31.82,69.83,26.66,87c-4.64,15.44.89,32.15-11.95,47.75-.7.85-1.36,1.66-2,2.45,1.29,8.56,3,18.93,11.17,22.4a8.37,8.37,0,0,1,5.19,6.39c2.79-4.34,9.49-6.6,14.16-1.72,1.68,1.75,5.12,6.32,8,5.89s7.8-5.84,9.91-7.74a49.5,49.5,0,0,0,12.18-17.16c4.47-9.82,5-20,15.45-25.7a8.22,8.22,0,0,1,9.12,1.07A34.23,34.23,0,0,0,101,108C101.71,85.16,99,79.59,82.05,70.52Z"/><path class="cls-1" d="M73.78,82.09h0C68.6,79.38,63.18,72.74,68,67.87,83.48,52.24,86.15,31.5,90.67,11.81c1.41-6.14,5.54-8.18,10.59-6.63h0c5.06,1.56,7.67,5.88,5.84,11.85-5.87,19.13-17.94,38.68-17.2,60.3C90.13,84.07,79,84.8,73.78,82.09Z"/><path class="cls-1" d="M88.93,84.31h0c-4.56-3.07-9.08-9.34-4.36-12.43,15.13-9.92,18.9-26.14,24.3-41.21C110.55,26,114.44,25,119,27.16h0c4.51,2.12,6.61,6.05,4.56,10.53-6.59,14.39-18.87,28-19.58,45.56C103.72,88.72,93.49,87.39,88.93,84.31Z"/><path class="cls-1" d="M59.21,69.7h0C54,67.6,48.1,62.28,52.16,58.16,65.2,45,65.49,27.88,67.65,11.61,68.33,6.53,72,4.75,77,5.91h0c5,1.16,7.94,4.64,6.84,9.58C80.35,31.34,71,47.68,74,65.4,75,70.93,64.45,71.8,59.21,69.7Z"/><path class="cls-1" d="M42.61,83.41c-.83.37-1.52,0,0,0-3.6,1.59-15.74,4-14.27-1.47,4.72-17.66,8.92-34,11.47-51.43.8-5.43,4.82-5.83,8.93-5.7.14-.41.14-.4,0,0,4.1.14,7.52,2.13,6,6.8-4.87,15-7.12,21.68,4.26,34.53C62.54,70.14,46.22,81.82,42.61,83.41Z"/><path class="cls-1" d="M92.71,106.33c.06.4,0,.31,0,0-4.69-.39-6.56-3.49-5.82-8.3S89.05,86.11,90,81.34s3.78-7.64,8.44-6.53c.24-.39.17-.31,0,0,4.65,1.11,5.86,4.9,5.37,9.48A133.08,133.08,0,0,1,101,99.52C99.93,104,97.39,106.73,92.71,106.33Z"/><path class="cls-1" d="M65.36,177.51c-16.54,3.52-45.68-7.57-57-20.44-5.1-5.79-3.88-10.89.17-15.51h0c4.06-4.62,10.9-3.32,14.74.43,8.54,8.35,25.26,18.22,37.29,14.86,5.41-1.51,11.46,2.3,12.5,7.05h0C74.07,168.65,72.8,175.92,65.36,177.51Z"/><path class="cls-1" d="M50.79,175.88c-9.23-2.4-16.66-9.54-28.09-13.91C0,153.27.64,148.22,15.11,131.59c13-15,8-31.57,13-46.62,5.53-16.7,11.06-21.39,28.2-20.88,8.62.26,18.42,1.49,26.69,6.2,16.45,9.38,19,14.92,17.61,37.35C99.42,127.85,77,141.27,78.32,156.73,79.77,173.88,69.14,180.65,50.79,175.88Z"/><path class="cls-1" d="M74.59,81.45h0c-5-2.81-10.18-9.48-5.3-14.14C84.92,52.36,88.1,32,93.07,12.8c1.55-6,5.66-7.9,10.59-6.23h0c4.93,1.67,7.38,6,5.43,11.8C102.8,37,90.41,55.92,90.57,77.2,90.61,83.83,79.62,84.25,74.59,81.45Z"/><path class="cls-1" d="M89.42,84h0c-4.4-3.15-8.67-9.43-4-12.35,15.14-9.34,19.28-25.19,25-39.86,1.78-4.57,5.63-5.39,10-3.18h0c4.38,2.21,6.34,6.12,4.21,10.48-6.87,14-19.3,27.06-20.47,44.27C103.84,88.76,93.82,87.18,89.42,84Z"/><path class="cls-1" d="M60.6,68.87h0c-5.09-2.2-10.73-7.59-6.63-11.52C67.14,44.72,67.89,27.92,70.45,12c.8-5,4.49-6.62,9.36-5.35h0c4.87,1.27,7.68,4.77,6.47,9.6-3.87,15.49-13.52,31.3-11,48.81C76.08,70.51,65.69,71.08,60.6,68.87Z"/><path class="cls-1" d="M43.91,81.91c-.82.34-1.49,0,0,0-3.58,1.47-15.59,3.55-14-1.82C35,62.85,39.6,46.86,42.57,29.83c.93-5.32,4.9-5.61,8.93-5.36.15-.41.15-.4,0,0,4,.24,7.34,2.28,5.72,6.84C52,45.91,49.64,52.43,60.48,65.37,63.86,69.4,47.5,80.45,43.91,81.91Z"/><path class="cls-1" d="M92.55,105.79c0,.39,0,.3,0,0-4.6-.51-6.36-3.61-5.5-8.32s2.45-11.66,3.52-16.33S94.49,73.73,99,75c.26-.38.18-.3,0,0,4.55,1.21,5.64,5,5,9.46a130.31,130.31,0,0,1-3.15,14.9C99.72,103.73,97.15,106.3,92.55,105.79Z"/><path class="cls-1" d="M78.5,111.74c-.84-.9-1.23-2.46,0,0-3.61-3.89-13.22-21.83-5.19-19.1,25.78,8.77,25,.64,46.5-5.1,6.71-1.8,6,4.29,5.45,8.37.62-.32.5-.3,0,0-.56,4.09-2.3,9.51-8.45,11.19-19.73,5.39-21.6,24.55-31.85,28.54C81.76,136.88,82.11,115.63,78.5,111.74Z"/><path class="cls-1" d="M77.74,113.42c-.84-.9-1.22-2.47,0,0-3.62-3.88-13.14-21.9-5-19.24,26.05,8.54,25.34.34,47.24-5.74,6.83-1.89,6,4.27,5.43,8.4.64-.33.51-.31,0,0-.62,4.14-2.45,9.64-8.71,11.41C96.58,113.94,94.44,133.33,84,137.49,80.73,138.79,81.35,117.3,77.74,113.42Z"/><path class="cls-2" d="M82.56,71.25C74,66.7,64,65.75,55.24,65.73c-17.43,0-22.91,4.91-28,22-4.62,15.44.94,32.14-11.88,47.76-.7.85-1.35,1.66-2,2.46,1.3,8.56,3,18.92,11.2,22.38a8.37,8.37,0,0,1,5.19,6.38c2.79-4.34,9.48-6.61,14.16-1.74,1.68,1.75,5.13,6.32,8,5.88s7.79-5.85,9.9-7.76A49.48,49.48,0,0,0,74,146c4.46-9.83,5-20,15.41-25.72a8.19,8.19,0,0,1,9.12,1.05,34,34,0,0,0,3-12.59C102.24,85.87,99.54,80.3,82.56,71.25Z"/><path class="cls-2" d="M74.31,82.84h0c-5.19-2.71-10.62-9.34-5.8-14.22C84,53,86.6,32.23,91.1,12.53c1.4-6.14,5.52-8.19,10.58-6.64h0c5.06,1.55,7.67,5.87,5.85,11.84-5.84,19.14-17.89,38.71-17.11,60.33C90.66,84.8,79.5,85.54,74.31,82.84Z"/><path class="cls-2" d="M89.46,85h0C84.9,82,80.37,75.71,85.08,72.61c15.11-9.94,18.87-26.17,24.24-41.24,1.67-4.7,5.57-5.64,10.08-3.53h0c4.52,2.12,6.63,6,4.58,10.53-6.57,14.4-18.82,28.07-19.51,45.59C104.25,89.42,94,88.11,89.46,85Z"/><path class="cls-2" d="M59.72,70.47h0c-5.24-2.1-11.13-7.41-7.07-11.53,13-13.22,13.29-30.3,15.43-46.58.67-5.07,4.37-6.85,9.36-5.71h0c5,1.15,7.94,4.63,6.85,9.57-3.48,15.86-12.83,32.21-9.75,49.93C75.51,71.68,65,72.56,59.72,70.47Z"/><path class="cls-2" d="M43.14,84.2c-.83.37-1.52,0,0,0-3.6,1.59-15.74,4.06-14.27-1.45,4.69-17.66,8.87-34,11.39-51.45.79-5.42,4.82-5.83,8.92-5.7.14-.42.14-.41,0,0,4.1.13,7.53,2.11,6,6.78-4.86,15-7.1,21.7,4.3,34.52C63.05,70.9,46.74,82.61,43.14,84.2Z"/><path class="cls-2" d="M93.27,107.06c.07.39,0,.3,0,0-4.69-.39-6.57-3.49-5.84-8.3s2.16-11.92,3.11-16.7,3.77-7.64,8.42-6.54c.25-.39.17-.3,0,0,4.66,1.11,5.88,4.9,5.39,9.48a135.21,135.21,0,0,1-2.77,15.23C100.49,104.75,98,107.44,93.27,107.06Z"/><path class="cls-3" d="M66,178.27C49.49,181.81,20.33,170.76,9,157.91c-5.11-5.78-3.89-10.88.15-15.51h0c4.05-4.63,10.9-3.34,14.74.41,8.55,8.33,25.29,18.18,37.31,14.81,5.41-1.52,11.47,2.28,12.51,7h0C74.71,169.39,73.46,176.67,66,178.27Z"/><path class="cls-4" d="M51.45,176.66c-9.23-2.38-16.67-9.52-28.11-13.87C.58,154.12,1.26,149.08,15.7,132.42c13-15,8-31.58,13-46.64,5.51-16.7,11-21.41,28.17-20.91,8.62.24,18.43,1.45,26.7,6.15,16.46,9.36,19,14.9,17.66,37.33C100,128.57,77.63,142,79,157.47,80.43,174.62,69.81,181.4,51.45,176.66Z"/><path class="cls-4" d="M75.12,82.19h0c-5-2.8-10.2-9.46-5.33-14.13,15.61-15,18.77-35.29,23.71-54.54,1.54-6,5.65-7.9,10.58-6.24h0c4.93,1.65,7.39,6,5.44,11.79C103.26,37.73,90.9,56.65,91.08,77.92,91.14,84.56,80.15,85,75.12,82.19Z"/><path class="cls-4" d="M90,84.76h0c-4.4-3.13-8.68-9.42-4-12.33,15.12-9.37,19.25-25.23,24.93-39.9,1.77-4.58,5.63-5.4,10-3.2h0c4.39,2.2,6.35,6.11,4.22,10.47-6.84,14-19.26,27.09-20.4,44.3C104.38,89.47,94.36,87.9,90,84.76Z"/><path class="cls-4" d="M61.1,69.64h0c-5.09-2.2-10.74-7.57-6.64-11.52C67.61,45.47,68.33,28.68,70.87,12.74c.8-5,4.49-6.63,9.36-5.36h0c4.87,1.26,7.68,4.76,6.48,9.59C82.86,32.46,73.23,48.29,75.79,65.79,76.59,71.25,66.2,71.84,61.1,69.64Z"/><path class="cls-4" d="M44.44,82.7c-.83.34-1.5,0,0,0-3.58,1.47-15.59,3.57-14-1.8C35.53,63.65,40.08,47.66,43,30.62c.92-5.32,4.89-5.61,8.92-5.37.15-.41.15-.4,0,0,4,.23,7.35,2.27,5.74,6.83C52.5,46.69,50.12,53.22,61,66.13,64.37,70.16,48,81.23,44.44,82.7Z"/><path class="cls-5" d="M93.11,106.51c0,.39,0,.3,0,0-4.6-.5-6.36-3.6-5.52-8.31S90,86.53,91.09,81.86s3.91-7.41,8.46-6.2c.25-.38.18-.3,0,0,4.55,1.21,5.64,5,5,9.46a130.23,130.23,0,0,1-3.13,14.9C100.27,104.44,97.71,107,93.11,106.51Z"/><path class="cls-2" d="M79.07,112.48c-.84-.89-1.24-2.45,0,0-3.62-3.88-13.25-21.81-5.21-19.09,25.78,8.73,25,.6,46.48-5.17,6.71-1.8,6,4.28,5.47,8.37.62-.32.5-.31,0,0-.56,4.08-2.29,9.51-8.44,11.2-19.72,5.41-21.57,24.58-31.81,28.58C82.36,137.62,82.68,116.36,79.07,112.48Z"/><path class="cls-5" d="M78.31,114.16c-.84-.89-1.22-2.47,0,0-3.62-3.88-13.17-21.88-5-19.23,26.05,8.5,25.33.3,47.23-5.8,6.83-1.91,6.05,4.25,5.44,8.39.63-.34.51-.32,0,0-.61,4.13-2.44,9.64-8.7,11.42C97.16,114.66,95,134.05,84.6,138.22,81.34,139.53,81.93,118,78.31,114.16Z"/><path class="cls-1" d="M119.7,81.29c-7.21-7.29-17-11.4-25.88-14.17C76.2,61.61,69.11,64.88,58.54,80.58c-9.53,14.16-9.16,32.8-27,44.56-1,.64-1.9,1.26-2.78,1.86-1.38,9.06-2.9,20.08,4.28,26.15a8.85,8.85,0,0,1,3.25,8.09c4.18-3.52,11.67-3.71,14.87,2.69,1.15,2.29,3.19,8,6.28,8.47s9.71-3.47,12.44-4.73a52.36,52.36,0,0,0,17.7-13.54c7.59-8.54,11.33-18.65,23.67-21.16a8.68,8.68,0,0,1,8.88,3.93,36.24,36.24,0,0,0,7-11.78C135,102.26,134,95.78,119.7,81.29Z"/><path class="cls-1" d="M107.72,90.41h0c-4.4-4.37-7.8-12.78-1.4-16.2,20.55-11,29.74-31.1,40.48-49.61,3.34-5.76,8.16-6.54,12.78-3.38h0c4.63,3.15,5.92,8.34,2.2,13.8-11.92,17.52-30.25,33.52-36.26,55.62C123.64,97.53,112.12,94.78,107.72,90.41Z"/><path class="cls-1" d="M122.35,97.4h0c-3.65-4.54-6.26-12.29-.52-14,18.4-5.29,27.3-20.52,37.47-34.07,3.17-4.23,7.4-4,11.3-.4h0c3.91,3.56,4.8,8.19,1.32,12.08-11.16,12.49-27.85,22.46-34.06,40C135.93,106.48,126,101.93,122.35,97.4Z"/><path class="cls-1" d="M96.86,73.32h0c-4.64-3.77-8.92-11-3.52-13.88,17.31-9.27,23-26.46,30.24-42.24,2.27-4.92,6.57-5.56,11.25-2.83h0c4.68,2.72,6.58,7.17,3.93,11.83-8.51,14.93-23.1,28.52-25.56,47.41C112.44,79.5,101.5,77.08,96.86,73.32Z"/><path class="cls-1" d="M75.78,82c-1,.11-1.54-.45,0,0-4.14.48-17.19-.84-14-5.95C72.1,59.65,81.48,44.4,89.5,27.6c2.5-5.24,6.7-4.39,10.81-3h0c4.11,1.42,7,4.5,4,8.75-9.62,13.63-14,19.7-6.5,36.25C100.09,74.8,79.92,81.52,75.78,82Z"/><path class="cls-1" d="M119.28,120.86c-.06.42-.06.31,0,0-4.62-1.87-5.55-5.59-3.29-10.23s5.92-11.38,8.38-15.91,6.22-6.54,10.58-4c.37-.31.27-.25,0,0,4.36,2.58,4.4,6.8,2.46,11.28a141.3,141.3,0,0,1-7.58,14.53C127.31,120.8,123.9,122.72,119.28,120.86Z"/><path class="cls-1" d="M69.34,184.29c-17.83-1.61-43.83-21.95-51.29-38.52-3.35-7.45-.52-12.22,5-15.63h0c5.55-3.41,12.07.05,14.77,5.05,6,11.11,19.85,26.32,33.07,26.69,5.94.17,10.88,5.92,10.44,11h0C80.92,178.05,77.36,185,69.34,184.29Z"/><path class="cls-1" d="M55.11,178.08c-8.58-5.31-13.86-14.86-24.06-22.86-20.28-15.91-18-20.8,1.83-33.1C50.77,111,50.9,92.7,60.65,79,71.46,63.88,78.52,60.86,95.7,66.74c8.63,3,18.17,7.27,25.06,14.63,13.7,14.63,14.49,21,6.12,43.28-7.55,20.07-34.41,26.63-37.92,42.68C85.06,185.13,72.18,188.65,55.11,178.08Z"/><path class="cls-1" d="M108.74,90h0c-4.21-4.41-7.33-12.77-.94-16,20.49-10.23,30.07-29.79,41.12-47.69,3.44-5.58,8.19-6.22,12.66-3h0c4.46,3.23,5.59,8.36,1.79,13.63-12.19,16.91-30.64,32.14-37.14,53.71C124.2,97.44,113,94.42,108.74,90Z"/><path class="cls-1" d="M122.93,97.27h0c-3.46-4.55-5.82-12.25-.13-13.72,18.23-4.71,27.39-19.45,37.75-32.5,3.23-4.07,7.38-3.69,11.12-.09h0c3.74,3.61,4.5,8.18,1,11.92-11.31,12-28,21.33-34.55,38.37C136,106.57,126.4,101.83,122.93,97.27Z"/><path class="cls-1" d="M98.52,72.92h0c-4.46-3.83-8.48-11-3.09-13.74,17.27-8.65,23.28-25.41,30.86-40.73,2.36-4.77,6.61-5.28,11.14-2.48h0C142,18.78,143.7,23.2,141,27.71c-8.77,14.45-23.47,27.43-26.39,45.93C113.67,79.41,103,76.74,98.52,72.92Z"/><path class="cls-1" d="M77.56,80.88c-.94.09-1.5-.49,0,0-4.08.36-16.88-1.29-13.58-6.22C74.54,58.82,84.17,44.08,92.5,27.78c2.6-5.09,6.71-4.14,10.71-2.63.28-.37.28-.35,0,0,4,1.51,6.71,4.61,3.65,8.71C97,47,92.58,52.86,99.5,69.33,101.66,74.47,81.65,80.52,77.56,80.88Z"/><path class="cls-1" d="M119.29,120.25c-.07.42-.07.31,0,0-4.49-2-5.3-5.63-3-10.13s6.12-11,8.67-15.42,6.28-6.27,10.5-3.61c.37-.3.27-.25,0,0,4.22,2.65,4.14,6.8,2.12,11.15a139.83,139.83,0,0,1-7.84,14.08C127.18,120.41,123.78,122.21,119.29,120.25Z"/><path class="cls-1" d="M103.21,121.88c-.56-1.17-.47-2.87,0,0-2.43-5.06-6.54-26.22.74-20.94,23.32,16.93,25.06,8.46,48.62,9.38,7.35.29,4.74,6.22,2.9,10.18.73-.13.6-.15,0,0-1.85,4-5.3,8.9-12.05,8.68-21.64-.73-29.54,18.07-41.15,18.89C98.64,148.33,105.65,126.94,103.21,121.88Z"/><path class="cls-1" d="M101.92,123.34c-.57-1.17-.46-2.88,0,0-2.45-5.06-6.44-26.27.94-21,23.67,16.78,25.52,8.26,49.58,9,7.5.23,4.78,6.21,2.86,10.2.74-.14.61-.16,0,0-1.92,4-5.5,9-12.39,8.82-22.09-.53-30.33,18.41-42.2,19.34C97,149.93,104.36,128.4,101.92,123.34Z"/><path class="cls-2" d="M120,82.19c-7.22-7.27-17-11.37-25.9-14.13-17.63-5.48-24.72-2.21-35.27,13.51-9.51,14.17-9.11,32.81-27,44.6-1,.64-1.89,1.26-2.77,1.86-1.36,9.07-2.87,20.09,4.32,26.15a8.84,8.84,0,0,1,3.26,8.08c4.18-3.52,11.66-3.73,14.87,2.67,1.15,2.29,3.21,8,6.29,8.47s9.71-3.49,12.44-4.76a52.44,52.44,0,0,0,17.68-13.56c7.58-8.55,11.3-18.66,23.63-21.19a8.68,8.68,0,0,1,8.9,3.91,36.1,36.1,0,0,0,7-11.79C135.33,103.14,134.34,96.66,120,82.19Z"/><path class="cls-2" d="M108,91.33h0c-4.4-4.36-7.82-12.77-1.42-16.19,20.53-11,29.69-31.15,40.4-49.67,3.34-5.77,8.15-6.56,12.78-3.41h0c4.64,3.15,5.93,8.34,2.22,13.81-11.9,17.53-30.21,33.55-36.19,55.67C124,98.43,112.43,95.69,108,91.33Z"/><path class="cls-2" d="M122.65,98.3h0c-3.65-4.53-6.27-12.29-.53-13.94,18.39-5.33,27.27-20.57,37.42-34.13,3.16-4.23,7.4-4,11.3-.42h0c3.91,3.56,4.82,8.18,1.34,12.08-11.15,12.51-27.83,22.5-34,40C136.25,107.36,126.31,102.83,122.65,98.3Z"/><path class="cls-2" d="M97.13,74.25h0c-4.64-3.75-8.93-11-3.54-13.87,17.3-9.3,22.92-26.5,30.18-42.29,2.26-4.92,6.57-5.56,11.25-2.84h0c4.68,2.72,6.59,7.16,3.94,11.82-8.48,15-23.06,28.56-25.48,47.46C112.72,80.42,101.78,78,97.13,74.25Z"/><path class="cls-2" d="M76.07,83c-1,.11-1.55-.46,0,0-4.14.48-17.19-.82-14-5.94C72.35,60.63,81.71,45.36,89.71,28.55c2.49-5.24,6.69-4.4,10.8-3h0c4.11,1.41,7,4.49,4,8.74C94.87,48,90.51,54,98,70.58,100.37,75.74,80.21,82.48,76.07,83Z"/><path class="cls-2" d="M119.62,121.76c-.06.42-.06.32,0,0-4.62-1.86-5.55-5.58-3.31-10.22s5.91-11.39,8.37-15.92,6.2-6.55,10.57-4c.37-.31.27-.25,0,0,4.36,2.58,4.41,6.8,2.48,11.27a140.49,140.49,0,0,1-7.57,14.55C127.65,121.69,124.24,123.62,119.62,121.76Z"/><path class="cls-3" d="M69.78,185.27c-17.84-1.59-43.87-21.89-51.35-38.45-3.36-7.45-.54-12.22,5-15.64h0c5.54-3.42,12.06,0,14.78,5,6,11.1,19.88,26.3,33.1,26.65,5.94.15,10.89,5.9,10.46,11h0C81.34,179,77.8,186,69.78,185.27Z"/><path class="cls-4" d="M55.54,179.08c-8.6-5.3-13.89-14.84-24.1-22.83-20.3-15.89-18-20.78,1.78-33.1C51.09,112,51.2,93.7,60.93,80c10.79-15.17,17.85-18.2,35-12.34,8.64,2.95,18.19,7.24,25.09,14.59,13.72,14.61,14.52,21,6.18,43.28-7.52,20.08-34.37,26.67-37.86,42.73C85.49,186.08,72.62,189.62,55.54,179.08Z"/><path class="cls-4" d="M109,90.93h0c-4.22-4.4-7.35-12.76-1-16,20.48-10.26,30-29.83,41.05-47.75,3.44-5.58,8.19-6.23,12.66-3h0c4.47,3.23,5.61,8.36,1.81,13.63C151.42,54.77,133,70,126.53,91.61,124.51,98.34,113.25,95.34,109,90.93Z"/><path class="cls-4" d="M123.24,98.17h0c-3.47-4.55-5.84-12.24-.16-13.72C141.31,79.71,150.45,65,160.79,51.9c3.22-4.08,7.38-3.7,11.12-.11h0c3.75,3.6,4.52,8.17,1,11.91-11.29,12-28,21.38-34.5,38.43C136.36,107.45,126.71,102.73,123.24,98.17Z"/><path class="cls-4" d="M98.79,73.85h0c-4.46-3.82-8.49-11-3.11-13.73,17.26-8.68,23.24-25.44,30.8-40.77,2.36-4.78,6.61-5.3,11.14-2.5h0c4.53,2.8,6.28,7.22,3.56,11.73-8.75,14.47-23.44,27.47-26.33,46C114,80.33,103.26,77.67,98.79,73.85Z"/><path class="cls-4" d="M77.85,81.85c-.94.08-1.51-.49,0,0-4.09.36-16.88-1.27-13.6-6.21C74.79,59.79,84.4,45,92.71,28.72c2.59-5.09,6.7-4.15,10.71-2.64.27-.37.27-.35,0,0,4,1.5,6.72,4.6,3.66,8.7-9.81,13.16-14.26,19-7.31,35.48C101.93,75.4,81.93,81.48,77.85,81.85Z"/><path class="cls-4" d="M119.63,121.16c-.07.41-.07.31,0,0-4.49-2-5.31-5.63-3-10.13s6.11-11,8.65-15.43,6.28-6.28,10.5-3.63c.37-.3.27-.24,0,0,4.22,2.65,4.15,6.79,2.13,11.14a136.94,136.94,0,0,1-7.82,14.1C127.52,121.3,124.12,123.11,119.63,121.16Z"/><path class="cls-2" d="M103.56,122.81c-.57-1.17-.48-2.88,0,0-2.45-5.06-6.58-26.21.7-21,23.35,16.9,25.07,8.43,48.64,9.32,7.35.28,4.75,6.22,2.91,10.17.73-.13.6-.15,0,0-1.84,4-5.29,8.91-12,8.7-21.64-.7-29.51,18.11-41.12,18.95C99,149.27,106,127.86,103.56,122.81Z"/><path class="cls-4" d="M102.26,124.27c-.56-1.17-.46-2.88,0,0-2.45-5.06-6.48-26.26.91-21,23.7,16.74,25.53,8.22,49.59,8.9,7.51.21,4.8,6.2,2.88,10.19.75-.14.62-.16,0,0-1.91,4-5.48,9-12.37,8.84-22.1-.5-30.3,18.45-42.18,19.4C97.39,150.87,104.71,129.32,102.26,124.27Z"/></g></svg>