<svg xmlns="http://www.w3.org/2000/svg" width="290" height="200" viewBox="0 0 290 200"><defs><style>.cls-1{fill:#512e1e;}.cls-2{fill:#502711;}.cls-3{fill:#6d6154;}</style></defs><g id="Layer_2" data-name="Layer 2"><rect class="cls-1" x="24.93" y="119.63" width="23.02" height="33.76" transform="translate(72.88 273.03) rotate(-180)"/><path class="cls-2" d="M42.54,70.86c-10.06,43.79-15.23,46.56,15,69.08s200.43,26.76,191.83-37.52S217.9,5.74,147.92,1.83,52.59,27.08,42.54,70.86Z"/><path class="cls-3" d="M35.65,100.61c74.68,30.78,138.72,35.63,213.17,1.8a267.8,267.8,0,0,1,2.06,36.2,7.21,7.21,0,0,0-1.34-.08c-7.65.35-15.57,1-23.5,2.13a73.41,73.41,0,0,0-25.32,5.44c-14.46,4.36-28,11-39,21.11a5.38,5.38,0,0,0-.95,1.15c-5.68,3.4-11.33,6-15,11.24-37-3.36-73.55-8.77-112.57-8.36C31.86,147,32,124.53,35.65,100.61Z"/><path class="cls-2" d="M95.76,198.52c28.58,0,52.77-15.2,76.17-29.91,9.82-6.17,19.09-12,28.64-16.75,28.64-14.25,71.93.44,72.37.59a12.11,12.11,0,0,0,15.42-7.85,12.59,12.59,0,0,0-7.61-15.84c-2.15-.75-53.1-18.16-90.78.59-10.63,5.28-20.85,11.71-30.74,17.92-21.85,13.74-42.47,26.67-64.72,26.22-30.63-.67-40.94-10-50-18.18l-1.56-1.4c-9-8-17.46-21.93-17.55-26.84,4.32-5.37,14.66-11,20.39-13.44a12.63,12.63,0,0,0,6.69-16.29,12,12,0,0,0-15.82-6.89c-2.23.92-22,9.39-31.33,22.4C-9.18,133,16.72,163.65,26.94,172.78l1.48,1.33C39.42,184,54.49,197.64,94,198.5Z"/><path class="cls-2" d="M46,104.85a5.58,5.58,0,0,0-2.26-.91,5.62,5.62,0,0,0-1.52-.65,5.5,5.5,0,0,0-.74-.32,5.43,5.43,0,0,0-1.85-.73l-.13,0a5.64,5.64,0,0,0-1.53-.62,5.47,5.47,0,0,0-2.32-.8C37,93.39,39.52,84,42.54,70.86c10.05-43.78,35.4-72.94,105.38-69S240.7,38.1,249.31,102.31a6.05,6.05,0,0,0-.73-.2A15.53,15.53,0,0,0,238,93.7c-10.95-2.66-20.42,6-26.28,14.46-6.47-.51-12.9-.34-18.93,1.51a38.25,38.25,0,0,0-4.14,1.53c-4.29-2.18-9.64-2.86-14.92-2.74a33,33,0,0,0-3.08-5.38,6.82,6.82,0,0,0-7.13-2.41c-5.29-4.75-11.26-9-16.67-5.52a6.27,6.27,0,0,0-2.19,8.33c1.12,2.26,2.29,4.47,3.5,6.68a7,7,0,0,0-1.44,1.85,9.61,9.61,0,0,0-1,.23,19.13,19.13,0,0,0-10.19-9.57A14.72,14.72,0,0,0,133.1,98a11.25,11.25,0,0,0-3.69-3.15c-.79-4.16-6.33-7.43-10.37-3.57a26.66,26.66,0,0,0-4.06,5,34.8,34.8,0,0,0-7.61,5.42,50,50,0,0,0-7.18,8.5c-.86,1-1.68,2-2.46,2.92-1.65,2.08-3.27,4.3-4.78,6.6a6.66,6.66,0,0,0-2.26-.6c-6.45-.56-13.36-3.54-19.53-5.4-6.46-1.94-13.14-3.19-19.53-5.33a6.17,6.17,0,0,0-1.77-.33,7.19,7.19,0,0,0-2-1.86A5,5,0,0,0,46,104.85Z"/><path class="cls-3" d="M91.83,159.23a5.19,5.19,0,0,0-.41,2.61,7.8,7.8,0,0,0-.23,1.15,6.39,6.39,0,0,0-1.34-.35l-2.73-.36c-2.38-.84-4.75-1.72-7.12-2.59a4.94,4.94,0,0,0-5.31.73,58.86,58.86,0,0,1-6.4-1.64c-6.43-2.09-10.77-5.77-15.35-10.55-6.14-6.4-12-13.25-19.69-17.57a280.05,280.05,0,0,1,2.91-29.94c23.08,9.51,45.14,16.54,66.81,20.72-1.28,7.35-2.83,14.65-4.53,21.92C96,148.52,94,153.94,91.83,159.23Z"/></g></svg>