<svg xmlns="http://www.w3.org/2000/svg" width="140" height="220" viewBox="0 0 140 220"><defs><style>.cls-1{fill:#045b0e;}.cls-2{fill:#417547;}.cls-3{fill:#768977;}.cls-4{fill:#f8fff9;}.cls-5{fill:#004708;}</style></defs><g id="Layer_2" data-name="Layer 2"><path class="cls-1" d="M22.21,211.82c-7-2.74-1.62-.6-1.62-.6-13.51-9.41-21-15.66-13.13-32.87,14.71-32.11,35.45-67.43,50.3-98.84,8-16.84,27-15.83,35.26-13.23,7.18,2.35,1.68.48,1.68.48,13.41,9.83,19.88,20.79,11.74,37.66-15.19,31.47-34.39,67.41-50.18,98.91C47.8,220.22,30.27,214.91,22.21,211.82Z"/><path class="cls-1" d="M82.75,85.7h0c-4,0-28.72-6-18.81-14.43C83.28,54.77,93.09,47,103.69,26.76c5.42-10.39,10.46-6.44,14.75-4.89h0c4.28,1.56,10.25,5.85,4.66,14.83-10.91,17.53-11.62,34.8-13.27,55.61C109,103,86.77,85.73,82.75,85.7Z"/><rect class="cls-2" x="112.41" y="4.75" width="15.55" height="27.42" rx="6.21" transform="translate(48.9 116.96) rotate(-62.84)"/><rect class="cls-1" x="112.54" y="4.03" width="15.58" height="27.53" rx="6.23" transform="translate(49.57 116.73) rotate(-62.84)"/><rect class="cls-3" x="108.76" y="9.82" width="28.14" height="5.71" rx="2.86" transform="translate(18.15 -52.82) rotate(26.14)"/><rect class="cls-3" x="108.3" y="10.75" width="28.14" height="5.71" rx="2.07" transform="translate(18.51 -52.52) rotate(26.14)"/><path class="cls-4" d="M86.47,144.36c3.21-14.79-2.29-29.37-14.34-35.09-11-5.24-24.38-1.5-33.79,8.29l-.06.17a17.91,17.91,0,0,1-1.45,2.41,1.48,1.48,0,0,1-.26.3l0,0a1.33,1.33,0,0,1-.1.28c-.4.82-.84,1.62-1.23,2.44a3,3,0,0,1-.25.69,10.28,10.28,0,0,1-.64,1.06l0,.1c-.57,1.19-1.24,2.34-1.89,3.48l-2,3.9a11.77,11.77,0,0,1-2,3.8l-.21.4c-.14.31-.27.62-.4.93a2.55,2.55,0,0,1-.17.33c-3.06,14.68,2.46,29.09,14.41,34.76,11.57,5.48,25.65,1.12,35.1-9.72a8,8,0,0,1,1.17-2.5.53.53,0,0,1,0-.12c1-2.9,2.8-5.67,4.21-8.41C83.88,149.39,85,146.78,86.47,144.36Z"/><path class="cls-5" d="M43,150.63a7.86,7.86,0,0,1-3.85-1c-2.86-1.56-4.5-4.76-4.61-9a24.6,24.6,0,0,1,3.22-12c4.78-8.75,12.89-13.23,18.45-10.2s6.17,12.28,1.38,21a24.57,24.57,0,0,1-8.38,9.22A12.14,12.14,0,0,1,43,150.63Zm9.36-28.47c-3,0-7.41,3.06-10.49,8.71a20,20,0,0,0-2.65,9.67c.06,2.47.85,4.3,2.17,5s3.29.4,5.4-.88a20.12,20.12,0,0,0,6.7-7.46c3.71-6.78,3.22-13.18.48-14.68A3.36,3.36,0,0,0,52.35,122.16Z"/><rect class="cls-5" x="61.98" y="125.17" width="4.58" height="35.89" rx="1.95" transform="translate(76.47 -13.29) rotate(28.64)"/><rect class="cls-5" x="60.85" y="151" width="4.58" height="18.69" rx="1.41" transform="translate(234.46 178.99) rotate(117.7)"/><rect class="cls-5" x="45.39" y="113.83" width="4.58" height="41.41" rx="2.1" transform="matrix(0.53, 0.85, -0.85, 0.53, 135.93, 22.35)"/><rect class="cls-3" x="108.76" y="9.82" width="28.14" height="5.71" rx="2.86" transform="translate(18.15 -52.82) rotate(26.14)"/><rect class="cls-3" x="108.3" y="10.75" width="28.14" height="5.71" rx="2.07" transform="translate(18.51 -52.52) rotate(26.14)"/><path class="cls-4" d="M86.47,144.36c3.21-14.79-2.29-29.37-14.34-35.09-11-5.24-24.38-1.5-33.79,8.29l-.06.17a17.91,17.91,0,0,1-1.45,2.41,1.48,1.48,0,0,1-.26.3l0,0a1.33,1.33,0,0,1-.1.28c-.4.82-.84,1.62-1.23,2.44a3,3,0,0,1-.25.69,10.28,10.28,0,0,1-.64,1.06l0,.1c-.57,1.19-1.24,2.34-1.89,3.48l-2,3.9a11.77,11.77,0,0,1-2,3.8l-.21.4c-.14.31-.27.62-.4.93a2.55,2.55,0,0,1-.17.33c-3.06,14.68,2.46,29.09,14.41,34.76,11.57,5.48,25.65,1.12,35.1-9.72a8,8,0,0,1,1.17-2.5.53.53,0,0,1,0-.12c1-2.9,2.8-5.67,4.21-8.41C83.88,149.39,85,146.78,86.47,144.36Z"/><path class="cls-5" d="M43,150.63a7.86,7.86,0,0,1-3.85-1c-2.86-1.56-4.5-4.76-4.61-9a24.6,24.6,0,0,1,3.22-12c4.78-8.75,12.89-13.23,18.45-10.2s6.17,12.28,1.38,21a24.57,24.57,0,0,1-8.38,9.22A12.14,12.14,0,0,1,43,150.63Zm9.36-28.47c-3,0-7.41,3.06-10.49,8.71a20,20,0,0,0-2.65,9.67c.06,2.47.85,4.3,2.17,5s3.29.4,5.4-.88a20.12,20.12,0,0,0,6.7-7.46c3.71-6.78,3.22-13.18.48-14.68A3.36,3.36,0,0,0,52.35,122.16Z"/><rect class="cls-5" x="61.98" y="125.17" width="4.58" height="35.89" rx="1.95" transform="translate(76.47 -13.29) rotate(28.64)"/><rect class="cls-5" x="60.85" y="151" width="4.58" height="18.69" rx="1.41" transform="translate(234.46 178.99) rotate(117.7)"/><rect class="cls-5" x="45.39" y="113.83" width="4.58" height="41.41" rx="2.1" transform="matrix(0.53, 0.85, -0.85, 0.53, 135.93, 22.35)"/></g></svg>