<svg xmlns="http://www.w3.org/2000/svg" width="180" height="190" viewBox="0 0 180 190"><defs><style>.cls-1{fill:#ffe843;}.cls-2{fill:#d6c96e;}.cls-3{fill:#dbbe61;}</style></defs><g id="Layer_4" data-name="Layer 4"><path class="cls-1" d="M149.94,187.42c-40.9-9.31-86.86-25.53-127.15-34-12.93-2.73-15.31-4.62-15.4-12.92-.29-25.85-5.7-54.48-3.1-81,.84-8.52,9-12.89,22.89-9.7,43.38,9.91,88.22,27.62,130.75,36.94,13.64,3,15.7,4.37,15.53,12.73-.55,26.06,6.53,53,.52,79.85C172.05,187.86,163.06,190.41,149.94,187.42Z"/><path class="cls-2" d="M5.75,55.55c3.83-12.28,22.53-28,37.59-36.77S82.12,1.55,103,1.68c13.83,8.36,31.39,30.71,38.85,40.48s49,62.34,23.37,57.14c8.44,1-32.33,0-72.83-8.34S26.32,72.73,5.75,55.55Z"/><path class="cls-1" d="M5.57,55.25C9.41,43,28.1,27.22,43.16,18.47S81.94,1.25,102.83,1.38c13.82,8.36,31.39,30.71,38.84,40.47S190.66,104.2,165,99c8.44,1-32.33,0-72.83-8.34S26.14,72.42,5.57,55.25Z"/><ellipse class="cls-3" cx="29.48" cy="131.89" rx="11.4" ry="8.47"/><ellipse class="cls-3" cx="98.22" cy="112.99" rx="12.38" ry="13.68"/><ellipse class="cls-3" cx="148.39" cy="160.89" rx="9.77" ry="11.4"/><path class="cls-3" d="M92.16,172.21c3.3.87,6.64,1.56,10,2.27a119,119,0,0,1,14.42,3.82,14.18,14.18,0,0,0,3.82-9.6c0-8.45-7.73-15.31-17.27-15.31s-17.27,6.86-17.27,15.31a12.83,12.83,0,0,0,.09,1.53C88,170.77,90.05,171.65,92.16,172.21Z"/><ellipse class="cls-3" cx="31.44" cy="92.14" rx="18.57" ry="15.64"/><ellipse class="cls-3" cx="160.45" cy="125.7" rx="12.05" ry="17.92"/><ellipse class="cls-3" cx="67.27" cy="129.94" rx="14.66" ry="19.55"/><ellipse class="cls-3" cx="126.89" cy="141.01" rx="7.82" ry="11.08"/><ellipse class="cls-3" cx="50.33" cy="55.33" rx="20.52" ry="14.01"/><ellipse class="cls-3" cx="95.62" cy="72.27" rx="9.77" ry="7.49"/><path class="cls-3" d="M135.84,33.69c-1.11-1.11-2.17-2.27-3.21-3.49a38.13,38.13,0,0,1-4.15-5.05,4.18,4.18,0,0,1-1.2-1.1c-1.06-1.45-2.21-2.84-3.34-4.23-.22-.16-.43-.32-.66-.47a3.22,3.22,0,0,1-1.1-1.14c-.08-.09-.14-.18-.21-.27-5.6,1.92-9.41,5.69-9.41,10,0,6.3,8,11.41,17.92,11.41a26.38,26.38,0,0,0,7.94-1.2c-.38-.55-.71-1.13-1-1.72C136.87,35.53,136.36,34.61,135.84,33.69Z"/><path class="cls-3" d="M163.26,71.44a9.27,9.27,0,0,1-1.42-1.76c-.05-.08-.08-.16-.12-.24-1.06-.06-2.13-.1-3.23-.1-12.41,0-22.48,4.52-22.48,10.1s10.07,10.1,22.48,10.1a43.46,43.46,0,0,0,12.81-1.81C169.33,82,166,76.86,163.26,71.44Z"/><path class="cls-3" d="M87.39,1.88c-.79.15-1.6.28-2.42.49a47.76,47.76,0,0,0-5.34,1.91,2.39,2.39,0,0,1-.46.12A42,42,0,0,1,72.81,6a3.89,3.89,0,0,1-1,.06c-.4.16-.81.3-1.23.44s-.8.43-1.19.66c-.21.13-1.29.88-.56.32a3.92,3.92,0,0,1-2.52.9l-.7.25L65,8.89,64.77,9c-.82.35-1.64.69-2.49,1a2.94,2.94,0,0,1-1.24.11l-.37.2C57,12.15,52.92,12.78,49.4,14.94a3.19,3.19,0,0,1-.64.32,7.93,7.93,0,0,0-.06,1c0,9.17,11.53,16.61,25.74,16.61s25.74-7.44,25.74-16.61C100.18,10.11,95,4.76,87.39,1.88Z"/><ellipse class="cls-3" cx="119.4" cy="53.7" rx="11.4" ry="7.82"/><ellipse class="cls-3" cx="91.06" cy="44.9" rx="9.12" ry="5.54"/></g></svg>