<svg xmlns="http://www.w3.org/2000/svg" width="70" height="100" viewBox="0 0 70 100"><defs><style>.cls-1{fill:#cecece;}</style></defs><g id="Layer_3" data-name="Layer 3"><path class="cls-1" d="M43.08,45.41a10.54,10.54,0,0,1,5,3.89q1.72,2.58,1.73,12.31,0,7.08-1.37,10.44A11.21,11.21,0,0,1,43,77.57q-4,2.15-10.66,2.15-6.51,0-10.3-2.06a12.33,12.33,0,0,1-5.43-5.46Q15,68.8,15,60.88a45.82,45.82,0,0,1,.81-9.21c.55-2.61,2.25-4.69,5.12-6.26a8.47,8.47,0,0,1-4.07-4.13,16.78,16.78,0,0,1-1.35-7.21q0-7.55,4.19-11.32T32.24,19q9.65,0,13.33,4t3.68,11.44c0,3.16-.4,5.43-1.21,6.83S45.58,44,43.08,45.41ZM35.16,57.17c0-2.24-.23-3.73-.68-4.46a2.36,2.36,0,0,0-2.17-1.1,2.22,2.22,0,0,0-2.08,1.06q-.63,1.06-.63,4.5v7.59c0,2.53.23,4.16.7,4.88a2.47,2.47,0,0,0,2.23,1.08,2.11,2.11,0,0,0,2.09-1.1c.36-.74.54-2.39.54-5Zm-.29-24.32a9.52,9.52,0,0,0-.52-3.92,2.09,2.09,0,0,0-2-.95,2,2,0,0,0-2,1,10,10,0,0,0-.5,3.84V37.3A8,8,0,0,0,30.47,41a2.06,2.06,0,0,0,2,1,2,2,0,0,0,1.95-1,10.65,10.65,0,0,0,.5-4.1Z"/></g></svg>