<svg xmlns="http://www.w3.org/2000/svg" width="70" height="100" viewBox="0 0 70 100"><defs><style>.cls-1{fill:#cecece;}</style></defs><g id="Layer_3" data-name="Layer 3"><path class="cls-1" d="M15.22,63.06h14.6c0,2.72,0,4.44.1,5.15A2.78,2.78,0,0,0,30.81,70a3,3,0,0,0,2.11.72A2.62,2.62,0,0,0,34.77,70a2.67,2.67,0,0,0,.81-1.78c.06-.72.09-2.18.09-4.37V54.57a7.38,7.38,0,0,1-3.25,3.52A11.13,11.13,0,0,1,27,59.27,12,12,0,0,1,20,57.1a9.4,9.4,0,0,1-3.9-5.2,32.07,32.07,0,0,1-.83-8.21V39a61.54,61.54,0,0,1,.49-9.14,11.84,11.84,0,0,1,2.51-5.55,13.11,13.11,0,0,1,5.6-3.95A22.53,22.53,0,0,1,32.13,19a24.28,24.28,0,0,1,9.61,1.63,13.13,13.13,0,0,1,5.82,4.67,13.82,13.82,0,0,1,2.38,6.42q.33,3.36.33,13v8.13q0,10.44-.29,14a13.67,13.67,0,0,1-8.53,11.38,22.78,22.78,0,0,1-8.78,1.57,22.39,22.39,0,0,1-10.1-2,12.06,12.06,0,0,1-5.64-5.6A21.31,21.31,0,0,1,15.22,63.06Zm14.6-18.25c0,2.46.31,4,.95,4.56a2.92,2.92,0,0,0,2,.86A2.42,2.42,0,0,0,35,49.13c.47-.73.71-2.17.71-4.32V34.23c0-2.58-.22-4.27-.67-5.06A2.34,2.34,0,0,0,32.78,28a2.92,2.92,0,0,0-2,.92c-.68.61-1,2.27-1,5Z"/></g></svg>