<svg xmlns="http://www.w3.org/2000/svg" width="70" height="100" viewBox="0 0 70 100"><defs><style>.cls-1{fill:#cecece;}</style></defs><g id="Layer_3" data-name="Layer 3"><path class="cls-1" d="M42.64,45.45a9,9,0,0,1,5,3.67q1.63,2.55,1.63,11.94,0,7-1.59,10.83a11.31,11.31,0,0,1-5.49,5.86,21.82,21.82,0,0,1-10,2q-6.95,0-10.9-2.33a11.3,11.3,0,0,1-5.2-5.7Q14.78,68.33,14.78,60V55.37h14.6v9.5a15.43,15.43,0,0,0,.45,4.82,2,2,0,0,0,2,1,2.17,2.17,0,0,0,2.24-1.3q.54-1.31.54-6.79V58.58a11.74,11.74,0,0,0-.76-4.91,3.71,3.71,0,0,0-2.24-2,22.46,22.46,0,0,0-5.74-.56v-8.5a30,30,0,0,0,6.43-.39,2.83,2.83,0,0,0,1.77-1.74,12,12,0,0,0,.54-4.19V33q0-3.08-.63-4.05a2.18,2.18,0,0,0-2-1,2.16,2.16,0,0,0-2.08,1,10.94,10.94,0,0,0-.56,4.39v4.8H14.78v-5q0-8.38,3.83-11.33t12.18-2.95Q41.23,18.94,45,23t3.72,11.34c0,3.28-.45,5.64-1.34,7.1A12.06,12.06,0,0,1,42.64,45.45Z"/></g></svg>