<svg xmlns="http://www.w3.org/2000/svg" width="70" height="100" viewBox="0 0 70 100"><defs><style>.cls-1{fill:#cecece;}</style></defs><g id="Layer_3" data-name="Layer 3"><path class="cls-1" d="M50.27,35.64H35.67c0-2.72,0-4.44-.09-5.15a2.66,2.66,0,0,0-.87-1.79A3,3,0,0,0,32.6,28a2.62,2.62,0,0,0-1.85.68,2.78,2.78,0,0,0-.83,1.77c-.07.73-.1,2.18-.1,4.38v9.32A7.61,7.61,0,0,1,33.1,40.6a11.17,11.17,0,0,1,5.35-1.17,11.93,11.93,0,0,1,7.08,2.17,9.43,9.43,0,0,1,3.91,5.2,32.49,32.49,0,0,1,.83,8.2v4.67a65.12,65.12,0,0,1-.47,9.14,11.67,11.67,0,0,1-2.51,5.54,13.26,13.26,0,0,1-5.61,4,22.39,22.39,0,0,1-8.29,1.41,24.33,24.33,0,0,1-9.64-1.63A12.87,12.87,0,0,1,18,73.41,13.87,13.87,0,0,1,15.56,67q-.35-3.36-.34-13v-8.1q0-10.44.3-14A13.61,13.61,0,0,1,18,25.23a13.31,13.31,0,0,1,6-4.72,23.11,23.11,0,0,1,8.8-1.57,22.38,22.38,0,0,1,10.08,2,11.88,11.88,0,0,1,5.64,5.6A21.47,21.47,0,0,1,50.27,35.64ZM35.67,53.88A9.1,9.1,0,0,0,35,49.62a2.41,2.41,0,0,0-2.24-1.16,2.44,2.44,0,0,0-2.22,1.11c-.47.73-.7,2.17-.7,4.31V64.47c0,2.58.22,4.26.66,5.06a2.36,2.36,0,0,0,2.23,1.19,3,3,0,0,0,1.95-.92c.67-.61,1-2.27,1-5Z"/></g></svg>