<svg xmlns="http://www.w3.org/2000/svg" width="70" height="100" viewBox="0 0 70 100"><defs><style>.cls-1{fill:#cecece;}</style></defs><g id="Layer_3" data-name="Layer 3"><path class="cls-1" d="M26.18,12.4V70.9H11.59V39.54a54.42,54.42,0,0,0-.33-8.17,3.09,3.09,0,0,0-1.79-2.08c-1-.46-3.15-.7-6.52-.7H1.5V21.77q10.59-2.28,16.08-9.37Z"/><path class="cls-1" d="M66.29,32.2V51.72a46.3,46.3,0,0,1-.72,9.68,13.36,13.36,0,0,1-3,5.67,13,13,0,0,1-5.49,3.8A21.18,21.18,0,0,1,49.89,72a26.65,26.65,0,0,1-8.71-1.21A12,12,0,0,1,35.65,67a16.21,16.21,0,0,1-2.93-5.41,34.07,34.07,0,0,1-.86-9V32.2q0-8.06,1.39-12.06a11.89,11.89,0,0,1,5.53-6.44,19.54,19.54,0,0,1,10-2.42A21,21,0,0,1,57.4,13a14.47,14.47,0,0,1,5.68,4.1,13.55,13.55,0,0,1,2.54,5.46A49.41,49.41,0,0,1,66.29,32.2Zm-14.6-4.91a21.86,21.86,0,0,0-.45-5.83,2,2,0,0,0-2.11-1.18A2.09,2.09,0,0,0,47,21.53q-.52,1.24-.53,5.76V55.83c0,3.4.17,5.45.49,6.15A2.09,2.09,0,0,0,49.06,63a2.06,2.06,0,0,0,2.13-1.23,18.66,18.66,0,0,0,.5-5.53Z"/></g></svg>