<svg xmlns="http://www.w3.org/2000/svg" width="70" height="100" viewBox="0 0 70 100"><defs><style>.cls-1{fill:#cecece;}</style></defs><g id="Layer_3" data-name="Layer 3"><path class="cls-1" d="M46.69,68.63v10H14.57V70.25q14.26-23.34,17-28.89c1.79-3.69,2.69-6.58,2.69-8.65a6.31,6.31,0,0,0-.81-3.56A2.81,2.81,0,0,0,30.94,28a2.72,2.72,0,0,0-2.48,1.3c-.54.86-.81,2.59-.81,5.16V40H14.57V37.88a47.25,47.25,0,0,1,.5-7.75,13.67,13.67,0,0,1,2.5-5.59,12.46,12.46,0,0,1,5.16-4.15A18.73,18.73,0,0,1,30.36,19q8.7,0,13.17,4.32A14.58,14.58,0,0,1,48,34.23a26,26,0,0,1-2.51,10.62Q43,50.44,30.68,68.63Z"/></g></svg>