<svg xmlns="http://www.w3.org/2000/svg" width="70" height="100" viewBox="0 0 70 100"><defs><style>.cls-1{fill:#cecece;}</style></defs><g id="Layer_3" data-name="Layer 3"><path class="cls-1" d="M47.09,20.1v9.36H29v9.93a11,11,0,0,1,8.75-4q6,0,9.12,3.38t3.09,13V60.1a49.71,49.71,0,0,1-.6,9.12,12.67,12.67,0,0,1-2.54,5.39,12.27,12.27,0,0,1-5.44,3.79,24.11,24.11,0,0,1-8.51,1.32,23.7,23.7,0,0,1-9.94-2,11.86,11.86,0,0,1-6.1-5.87Q15,68,15,59.81V56.63H29.6v3.65a55.13,55.13,0,0,0,.4,8.06,2.52,2.52,0,0,0,2.74,2.38,2.41,2.41,0,0,0,2.48-2.17q0-.8.12-6.9V50.05a10.12,10.12,0,0,0-.68-4.48,2.43,2.43,0,0,0-2.28-1.19,2.47,2.47,0,0,0-1.7.62,2.75,2.75,0,0,0-.88,1.31,16.08,16.08,0,0,0-.2,3.27H15.15l.61-29.48Z"/></g></svg>