<svg xmlns="http://www.w3.org/2000/svg" width="980" height="300" viewBox="0 0 980 300"><defs><style>.cls-1{fill:#777676;opacity:0.57;}</style></defs><g id="Layer_4" data-name="Layer 4"><rect class="cls-1" x="2.5" y="2.5" width="975" height="295" rx="43.82"/><path d="M56.33,120.06a10.56,10.56,0,0,0-7.5,2.7,8.73,8.73,0,0,0-.65,12.35,23.8,23.8,0,0,0,5.65,4.25c2.26,1.26,4.7,2.48,7.3,3.65a38.45,38.45,0,0,1,7.3,4.3,22.46,22.46,0,0,1,5.65,6.2,17.57,17.57,0,0,1,2.25,9.35,21.84,21.84,0,0,1-1.9,9.15,20.22,20.22,0,0,1-5.4,7.1,24.22,24.22,0,0,1-8.35,4.5,35.68,35.68,0,0,1-10.85,1.55A37.28,37.28,0,0,1,40.18,184a18.59,18.59,0,0,1-6.45-2.85c.66-2.33,1.23-4.47,1.7-6.4s.86-4,1.2-6.3h1.9a12.84,12.84,0,0,0,1.5,4.15,13.06,13.06,0,0,0,2.8,3.45,12.37,12.37,0,0,0,4.1,2.35,16,16,0,0,0,5.4.85q6,0,8.85-3a10.08,10.08,0,0,0,2.85-7.2,8.85,8.85,0,0,0-2.2-6.2,21.9,21.9,0,0,0-5.5-4.25q-3.3-1.85-7.2-3.6a36.87,36.87,0,0,1-7.2-4.25,21.64,21.64,0,0,1-5.5-6.15,17.85,17.85,0,0,1-2.2-9.35,21.59,21.59,0,0,1,1.85-9.2,19.61,19.61,0,0,1,5-6.7,21.3,21.3,0,0,1,7.15-4.1,26.07,26.07,0,0,1,8.55-1.4,30.88,30.88,0,0,1,9.45,1.3,22,22,0,0,1,6.95,3.6c-.6,1.53-1.12,3-1.55,4.45s-1,3.25-1.65,5.45h-1.5Q65.22,120.07,56.33,120.06Z"/><path d="M87,125.06q-.21-8.2-.6-16.6c.86.13,2,.25,3.3.35s2.73.15,4.2.15,2.86,0,4.2-.15,2.43-.22,3.3-.35q-.41,8.4-.6,16.6t-.2,18v6.5q0,9.8.2,18t.6,16.3a21.55,21.55,0,0,0-3.3-.2h-8.4a21.37,21.37,0,0,0-3.3.2q.39-8.1.6-16.3t.2-18v-6.5Q87.23,133.26,87,125.06Z"/><path d="M113.63,141.46a31.87,31.87,0,0,1,9.05-5.2,27.57,27.57,0,0,1,9.65-1.8,28.35,28.35,0,0,1,7.35.9,15.83,15.83,0,0,1,5.8,2.85,12.92,12.92,0,0,1,3.8,5,18.76,18.76,0,0,1,1.35,7.5q0,6.41-.15,11.85t-.15,10.85a15.33,15.33,0,0,0,.35,3.75,4.36,4.36,0,0,0,1,2,3.27,3.27,0,0,0,1.85.9,15.9,15.9,0,0,0,2.65.2v2.4q-2.91,1.2-4.9,1.8a15,15,0,0,1-4.3.6,9.44,9.44,0,0,1-6-1.8,11,11,0,0,1-3.5-5.2,19.13,19.13,0,0,1-5.35,5.1,14.32,14.32,0,0,1-7.65,1.9,18.9,18.9,0,0,1-6.5-1,11.54,11.54,0,0,1-4.45-2.85,11.26,11.26,0,0,1-2.55-4.2,14.49,14.49,0,0,1-.8-4.75,14.15,14.15,0,0,1,1-5.7,11.44,11.44,0,0,1,3-4.1,17.54,17.54,0,0,1,4.65-2.85,36.78,36.78,0,0,1,6.1-2c2.8-.67,5-1.25,6.65-1.75a16.16,16.16,0,0,0,3.65-1.5,3.64,3.64,0,0,0,1.55-1.65,6.15,6.15,0,0,0,.35-2.2,8.38,8.38,0,0,0-2.55-6.15,9.53,9.53,0,0,0-7.05-2.55,14.37,14.37,0,0,0-3.5.45,17.33,17.33,0,0,0-3.45,1.25,21.5,21.5,0,0,0-3,1.75,7.38,7.38,0,0,0-2.05,2.05h-.7Zm8.5-22.5a10.48,10.48,0,0,1,.85-4.25,10.81,10.81,0,0,1,2.3-3.4,10.93,10.93,0,0,1,7.65-3.15,10.24,10.24,0,0,1,4.15.85,11.57,11.57,0,0,1,3.45,2.3,10.76,10.76,0,0,1,2.35,11.85,10.51,10.51,0,0,1-2.35,3.45,11.57,11.57,0,0,1-3.45,2.3,10.24,10.24,0,0,1-4.15.85,10.93,10.93,0,0,1-7.65-3.15,10.7,10.7,0,0,1-2.3-3.45A10.55,10.55,0,0,1,122.13,119Zm15.2,49.7c0-2.87,0-5,0-6.55s.05-2.82.05-4a23.27,23.27,0,0,1-4.45,2,20.74,20.74,0,0,0-4.3,1.9,9.36,9.36,0,0,0-3.2,3.15,11,11,0,0,0-1.25,5.8,8.87,8.87,0,0,0,1.55,5.65,5,5,0,0,0,4.15,1.95,6.58,6.58,0,0,0,5.35-2.5C136.64,174.39,137.33,171.93,137.33,168.66Zm1.3-49.7a5.63,5.63,0,0,0-5.7-5.7,5.45,5.45,0,0,0-4.1,1.65,5.93,5.93,0,0,0,0,8.1,5.45,5.45,0,0,0,4.1,1.65,5.63,5.63,0,0,0,5.7-5.7Z"/><path d="M192.63,125.06q-.21-8.2-.6-16.6c.86.13,2,.25,3.3.35s2.73.15,4.2.15,2.86,0,4.2-.15,2.43-.22,3.3-.35q-.41,8.4-.6,16.6t-.2,18v6.5q0,9.8.2,18t.6,16.3a21.55,21.55,0,0,0-3.3-.2h-8.4a21.37,21.37,0,0,0-3.3.2q.39-8.1.6-16.3t.2-18v-6.5Q192.83,133.26,192.63,125.06Z"/><path d="M242.13,167.16q1.8-4.6,3.3-8.55t2.85-7.65c.9-2.47,1.76-4.93,2.6-7.4s1.68-5.07,2.55-7.8l2,.35a12.42,12.42,0,0,0,2,.15,13.57,13.57,0,0,0,2-.15l2.2-.35c-.34.86-1.12,2.72-2.35,5.55s-2.74,6.33-4.5,10.5-3.72,8.78-5.85,13.85-4.29,10.18-6.45,15.35-4.27,10.28-6.3,15.35-3.82,9.66-5.35,13.8c-.74-.14-1.44-.25-2.1-.35a14.22,14.22,0,0,0-2.1-.15,14,14,0,0,0-2.1.15c-.67.1-1.37.21-2.1.35q3.3-6.6,6.5-13t6.2-13.05q-2.4-5.7-5.35-12.9t-5.8-14.1q-2.85-6.9-5.2-12.6t-3.55-8.7c1.26.13,2.51.25,3.75.35s2.48.15,3.75.15,2.5,0,3.7-.15,2.43-.22,3.7-.35q2.9,7.91,5.85,15.7T242.13,167.16Z"/><path d="M312.93,149.56q0,9.8.2,18t.6,16.3a21.55,21.55,0,0,0-3.3-.2h-8.05a14.79,14.79,0,0,0-2.85.2,6.44,6.44,0,0,0,.2-1.3c.06-.73.15-1.57.25-2.5s.18-1.8.25-2.6.1-1.3.1-1.5l-.2-.2a16.3,16.3,0,0,1-5.2,7c-2.2,1.63-5.24,2.45-9.1,2.45a18,18,0,0,1-8.7-1.95,16.22,16.22,0,0,1-5.9-5.45,25.07,25.07,0,0,1-3.4-8.2,43.86,43.86,0,0,1-1.1-10.1,31.6,31.6,0,0,1,1.5-10,25.92,25.92,0,0,1,4.1-7.9,19.11,19.11,0,0,1,6.15-5.25,15.7,15.7,0,0,1,7.55-1.9,15.52,15.52,0,0,1,8.05,2.1,13.68,13.68,0,0,1,5.25,5.3h.2q0-9-.2-17t-.6-16.45c.86.13,2,.25,3.3.35s2.73.15,4.2.15,2.86,0,4.2-.15,2.43-.22,3.3-.35q-.41,8.4-.6,16.6t-.2,18ZM281.53,161a44.44,44.44,0,0,0,.7,8.6,19.39,19.39,0,0,0,1.9,5.65,8.14,8.14,0,0,0,2.75,3.1,6.13,6.13,0,0,0,3.25.95q4.1,0,6.75-4.65t2.65-15.45q0-9.3-2.5-13.55t-6.4-4.25a6.45,6.45,0,0,0-3.2.9,8.08,8.08,0,0,0-2.9,3.15,21.47,21.47,0,0,0-2.15,6.05A44.26,44.26,0,0,0,281.53,161Z"/><path d="M378.23,137.66a7.54,7.54,0,0,0-.1,1.3,7.79,7.79,0,0,0,.1,1.25c.06.43.13.85.2,1.25l-9.4-.2v8.3q0,9.8.2,18t.6,16.3a21.55,21.55,0,0,0-3.3-.2h-8.4a21.37,21.37,0,0,0-3.3.2q.39-8.1.6-16.3t.2-18v-8.2l-7,.1a10.25,10.25,0,0,0,.3-2.5,13.9,13.9,0,0,0-.3-2.7l7,.3a96.71,96.71,0,0,1,2.5-11.3,33.52,33.52,0,0,1,3.95-9,16.88,16.88,0,0,1,15.25-8.1,22.42,22.42,0,0,1,4.2.5,27.15,27.15,0,0,0-.35,4.35c0,1.83-.05,3.61-.05,5.35v3.3l-1.2.4a30.52,30.52,0,0,0-4.6-2,15.29,15.29,0,0,0-5-.9,8.58,8.58,0,0,0-4.45,1,3.59,3.59,0,0,0-1.55,3.35,17.7,17.7,0,0,0,1.35,5.9,48.58,48.58,0,0,0,3.35,7.1l9.4-.2C378.36,136.79,378.29,137.26,378.23,137.66Z"/><path d="M398,148.16q2.6-6.9,6.3-10.15a12.86,12.86,0,0,1,8.79-3.25,6.87,6.87,0,0,1,.86.05,5.78,5.78,0,0,0,.75.05,29.72,29.72,0,0,0-.45,3.2c-.11,1.13-.16,2.47-.16,4V147a13.13,13.13,0,0,0,.11,1.7l-.9.8a11,11,0,0,0-2.25-1,9.3,9.3,0,0,0-2.85-.4,9,9,0,0,0-7.11,2.95,10.18,10.18,0,0,0-2.59,7v4q0,6.1.14,11.5c.11,3.6.32,7.07.66,10.4a21.1,21.1,0,0,0-3.25-.2h-8.46a22.58,22.58,0,0,0-3.29.2q.5-5,.65-10.4c.1-3.6.14-7.43.14-11.5v-4c0-4.07,0-7.88-.14-11.45s-.32-7.15-.65-10.75c1.13.13,2.28.25,3.45.35s2.31.15,3.45.15,2.28,0,3.44-.15,2.32-.22,3.45-.35l-.29,12.2Z"/><path d="M421.83,141.46a31.74,31.74,0,0,1,9.05-5.2,27.57,27.57,0,0,1,9.65-1.8,28.35,28.35,0,0,1,7.35.9,15.83,15.83,0,0,1,5.8,2.85,12.92,12.92,0,0,1,3.8,5,18.76,18.76,0,0,1,1.35,7.5q0,6.41-.15,11.85t-.15,10.85a15.33,15.33,0,0,0,.35,3.75,4.36,4.36,0,0,0,1.05,2,3.27,3.27,0,0,0,1.85.9,15.9,15.9,0,0,0,2.65.2v2.4q-2.91,1.2-4.9,1.8a15,15,0,0,1-4.3.6,9.44,9.44,0,0,1-6-1.8,11,11,0,0,1-3.5-5.2,19.13,19.13,0,0,1-5.35,5.1,14.32,14.32,0,0,1-7.65,1.9,18.9,18.9,0,0,1-6.5-1,11.54,11.54,0,0,1-4.45-2.85,11.26,11.26,0,0,1-2.55-4.2,14.49,14.49,0,0,1-.8-4.75,14.15,14.15,0,0,1,1.05-5.7,11.44,11.44,0,0,1,3-4.1,17.64,17.64,0,0,1,4.64-2.85,37.21,37.21,0,0,1,6.11-2c2.8-.67,5-1.25,6.65-1.75a16.16,16.16,0,0,0,3.65-1.5,3.64,3.64,0,0,0,1.55-1.65,6.15,6.15,0,0,0,.35-2.2,8.38,8.38,0,0,0-2.55-6.15,9.53,9.53,0,0,0-7.05-2.55,14.37,14.37,0,0,0-3.5.45,17.11,17.11,0,0,0-3.45,1.25,21.5,21.5,0,0,0-3,1.75,7.38,7.38,0,0,0-2.05,2.05h-.71Zm23.7,27.2c0-2.87,0-5,.05-6.55s0-2.82,0-4a22.91,22.91,0,0,1-4.44,2,20.74,20.74,0,0,0-4.3,1.9,9.36,9.36,0,0,0-3.2,3.15,11,11,0,0,0-1.25,5.8,8.87,8.87,0,0,0,1.55,5.65,5,5,0,0,0,4.14,1.95,6.59,6.59,0,0,0,5.36-2.5C444.84,174.39,445.53,171.93,445.53,168.66Z"/></g></svg>