<svg xmlns="http://www.w3.org/2000/svg" width="90" height="110" viewBox="0 0 90 110"><defs><style>.cls-1{fill:#545252;}</style></defs><g id="settings"><path class="cls-1" d="M28.92,94.9a17,17,0,1,1,17-17A17,17,0,0,1,28.92,94.9Zm0-30a13,13,0,1,0,13,13A13,13,0,0,0,28.92,64.9Z"/><path class="cls-1" d="M34.61,57.64c0,3.74-1,6.1-5.21,6.39s-5.5-2.59-5.5-6.35,1.49-7.75,5.35-7.78S34.67,53.91,34.61,57.64Z"/><path class="cls-1" d="M46.31,68.31c-3.07,2.14-5.55,2.72-8.23-.49S37,61.84,40,59.64s7.16-3.33,9.44-.22S49.37,66.16,46.31,68.31Z"/><path class="cls-1" d="M48.69,82.83c-3.72-.36-6-1.53-5.94-5.71s3-5.28,6.78-5,7.61,2.12,7.32,6S52.42,83.19,48.69,82.83Z"/><path class="cls-1" d="M37,97.66c-2.32-2.94-3.05-5.38,0-8.24S43,88,45.32,90.88s3.73,7,.75,9.41S39.34,100.6,37,97.66Z"/><path class="cls-1" d="M22.92,97.23c.14-3.73,1.17-6.07,5.35-6.26s5.45,2.71,5.36,6.48S32,105.16,28.1,105.1,22.78,101,22.92,97.23Z"/><path class="cls-1" d="M11.41,66.07c2.44,2.84,4.7,4,8.09,1.56s2.57-5.51.15-8.4-6.11-5-9.09-2.54S9,63.24,11.41,66.07Z"/><path class="cls-1" d="M8.63,81.6c3.69.61,6.18.07,7.21-4s-1.57-5.88-5.27-6.55-7.9.09-8.61,3.88S4.94,81,8.63,81.6Z"/><path class="cls-1" d="M17.84,95.81c2.8-2.48,3.95-4.76,1.45-8.12s-5.56-2.48-8.41,0S6,93.84,8.47,96.79,15,98.29,17.84,95.81Z"/><path class="cls-1" d="M70.62,55.07A12.88,12.88,0,1,1,80,39.45,12.9,12.9,0,0,1,70.62,55.07ZM65.11,33a9.85,9.85,0,1,0,12,7.17A9.86,9.86,0,0,0,65.11,33Z"/><path class="cls-1" d="M68,26.63c.65,2.76.36,4.68-2.66,5.66s-4.52-.9-5.21-3.67-.33-6,2.5-6.7S67.32,23.88,68,26.63Z"/><path class="cls-1" d="M78.52,32.33c-1.86,2.13-3.58,3-6.14,1.15s-1.92-4.19-.08-6.37,4.66-3.76,6.9-1.89S80.38,30.19,78.52,32.33Z"/><path class="cls-1" d="M82.94,42.56c-2.8.42-4.68,0-5.41-3.1s1.25-4.44,4.07-4.9,6,.16,6.48,3S85.74,42.15,82.94,42.56Z"/><path class="cls-1" d="M77.09,55.61c-2.25-1.73-3.23-3.4-1.51-6.06s4.08-2.16,6.36-.45,4,4.43,2.28,6.78S79.33,57.34,77.09,55.61Z"/><path class="cls-1" d="M66.64,57.88c-.59-2.77-.26-4.67,2.78-5.58s4.5,1,5.13,3.78.19,6-2.66,6.64S67.22,60.66,66.64,57.88Z"/><path class="cls-1" d="M52.46,37.09c2.31,1.63,4.19,2.09,6.24-.34s.87-4.53-1.44-6.21-5.41-2.54-7.15-.19S50.15,35.45,52.46,37.09Z"/><path class="cls-1" d="M53.26,49c2.82-.23,4.56-1.08,4.57-4.25s-2.23-4-5.08-3.85S47,42.42,47.14,45.34,50.44,49.24,53.26,49Z"/><path class="cls-1" d="M62.64,57.77c1.6-2.34,2-4.22-.42-6.23s-4.54-.81-6.19,1.52-2.47,5.44-.1,7.15S61,60.1,62.64,57.77Z"/><path class="cls-1" d="M32.91,32.23A10.33,10.33,0,1,1,43.24,21.9,10.34,10.34,0,0,1,32.91,32.23Zm0-18.22a7.9,7.9,0,1,0,7.9,7.89A7.9,7.9,0,0,0,32.91,14Z"/><path class="cls-1" d="M36.37,9.6c0,2.27-.63,3.71-3.16,3.88s-3.35-1.57-3.34-3.86.9-4.71,3.24-4.72S36.41,7.33,36.37,9.6Z"/><path class="cls-1" d="M43.47,16.08c-1.86,1.3-3.37,1.65-5-.3s-.68-3.63,1.17-5,4.35-2,5.73-.13S45.33,14.78,43.47,16.08Z"/><path class="cls-1" d="M44.92,24.9c-2.26-.22-3.64-.93-3.6-3.47s1.84-3.21,4.11-3S50.05,19.7,49.88,22,47.18,25.12,44.92,24.9Z"/><path class="cls-1" d="M37.84,33.9c-1.41-1.78-1.85-3.27,0-5s3.58-.89,5,.89,2.27,4.22.46,5.71S39.24,35.69,37.84,33.9Z"/><path class="cls-1" d="M29.27,33.65c.08-2.27.71-3.69,3.25-3.81s3.31,1.65,3.25,3.94-1,4.68-3.35,4.64S29.18,35.91,29.27,33.65Z"/><path class="cls-1" d="M22.28,14.72c1.48,1.72,2.86,2.44,4.92.95s1.55-3.35.09-5.11-3.72-3-5.53-1.54S20.8,13,22.28,14.72Z"/><path class="cls-1" d="M20.59,24.15c2.24.37,3.76,0,4.38-2.42s-.95-3.57-3.2-4-4.8.05-5.23,2.35S18.35,23.78,20.59,24.15Z"/><path class="cls-1" d="M26.18,32.78c1.71-1.51,2.4-2.89.88-4.93s-3.37-1.51-5.1,0-3,3.76-1.47,5.55S24.48,34.28,26.18,32.78Z"/></g></svg>