<svg xmlns="http://www.w3.org/2000/svg" width="400" height="180" viewBox="0 0 400 180"><defs><style>.cls-1{fill:#6ec96b;}.cls-2{fill:#f2f2f2;}</style></defs><g id="Layer_4" data-name="Layer 4"><rect class="cls-1" x="0.73" y="4.5" width="398.53" height="171" rx="37.17"/><path class="cls-2" d="M45.18,58.46H62.52a41,41,0,0,1,10.81,1.1A12.17,12.17,0,0,1,79,62.75a11,11,0,0,1,2.57,5A45.21,45.21,0,0,1,82.27,77v5.76Q82.27,89.1,81,92a8.91,8.91,0,0,1-4.8,4.46A22.71,22.71,0,0,1,67,98H62.39v26.66H45.18ZM62.39,69.79V86.64c.49,0,.92,0,1.27,0A4,4,0,0,0,67,85.51c.62-.77.92-2.39.92-4.84V75.23c0-2.27-.35-3.74-1.06-4.42S64.63,69.79,62.39,69.79Z"/><path class="cls-2" d="M103.25,70.4l-.66,7.14q3.6-7.67,10.43-8.12v19.1c-3,0-5.25.41-6.66,1.23a5.12,5.12,0,0,0-2.62,3.41,60.94,60.94,0,0,0-.49,10.08v21.43H86.73V70.4Z"/><path class="cls-2" d="M151.06,76.39a14.71,14.71,0,0,1,2.31,4.72,34.88,34.88,0,0,1,.71,8.36v13.29a56.23,56.23,0,0,1-.73,10.73,15.28,15.28,0,0,1-3.15,6.38,14.29,14.29,0,0,1-6.18,4.37,24.75,24.75,0,0,1-8.71,1.41,32.85,32.85,0,0,1-8.11-.89,15,15,0,0,1-5.6-2.6l-1.27,1.92L117.11,122l1.84-2.82a17.86,17.86,0,0,1-2.06-5.15,46.29,46.29,0,0,1-.68-9.48V90.64c0-5,.55-9,1.64-11.82A13.54,13.54,0,0,1,123.74,72a20.72,20.72,0,0,1,10.88-2.58,26.81,26.81,0,0,1,7.74,1,17.43,17.43,0,0,1,6,3.08L150,71l3.17,2.08Zm-13.5,13.9V85.24a17.36,17.36,0,0,0-.45-5.15A1.86,1.86,0,0,0,135.19,79a1.93,1.93,0,0,0-2,1.08c-.33.72-.5,2.46-.5,5.22V97.77Zm-4.83,14.53v5a16.2,16.2,0,0,0,.5,5.09,1.87,1.87,0,0,0,1.92,1.18,1.89,1.89,0,0,0,1.94-1.08,14.35,14.35,0,0,0,.47-4.64v-13Z"/><path class="cls-2" d="M193.71,70.4,186,124.67H164.39l-8.3-54.27h14.75L175.49,110q.56-4.38,1.86-21.3.71-9.45,1.61-18.33Z"/><path class="cls-2" d="M227.9,58.46v8.63h-17V58.46Zm0,11.94v54.27h-17V70.4Z"/><path class="cls-2" d="M271.37,70.4v41.8a92.08,92.08,0,0,1-.39,10.94,10.91,10.91,0,0,1-2.76,5.23,14.72,14.72,0,0,1-6.6,4.21A33.17,33.17,0,0,1,251,134q-7.91,0-12.68-2.68t-4.95-10.53h16c0,2.4.87,3.59,2.62,3.59a2.59,2.59,0,0,0,2.49-1.1c.41-.74.62-2.28.62-4.63V114.6a15.91,15.91,0,0,1-4.48,2.91,12.57,12.57,0,0,1-4.93,1,13.65,13.65,0,0,1-7.34-1.79A9.24,9.24,0,0,1,234.4,112a25.37,25.37,0,0,1-1.06-8.32V83.94c0-5.16.93-8.86,2.78-11.13s4.68-3.39,8.47-3.39a12.48,12.48,0,0,1,5.66,1.27,13.59,13.59,0,0,1,4.56,3.81L256,70.4ZM254.81,84.8a15.61,15.61,0,0,0-.43-4.75,1.83,1.83,0,0,0-1.9-1,2.09,2.09,0,0,0-2,1.17,11.79,11.79,0,0,0-.59,4.6V103a15.26,15.26,0,0,0,.45,4.72,1.82,1.82,0,0,0,1.88,1.08,2,2,0,0,0,2.13-1.31,21.43,21.43,0,0,0,.49-5.93Z"/><path class="cls-2" d="M314.68,98.5H293.29v11.73a13.17,13.17,0,0,0,.53,4.75,2.07,2.07,0,0,0,2.05,1.06,2.47,2.47,0,0,0,2.51-1.41,15.22,15.22,0,0,0,.64-5.46V102h15.66v4a36.08,36.08,0,0,1-.63,7.73,15.82,15.82,0,0,1-3,5.77,14.4,14.4,0,0,1-5.91,4.6,22.86,22.86,0,0,1-9,1.53,26.12,26.12,0,0,1-9.25-1.51,14.74,14.74,0,0,1-6.23-4.15,15,15,0,0,1-3.09-5.81,37.6,37.6,0,0,1-.86-9.22V89.13q0-7.11,1.92-11.22a13.2,13.2,0,0,1,6.3-6.3,22.19,22.19,0,0,1,10.06-2.19,22.46,22.46,0,0,1,11.47,2.64,14.52,14.52,0,0,1,6.34,7q1.81,4.35,1.82,12.25Zm-16.56-8.84v-4a20,20,0,0,0-.45-5.44A1.78,1.78,0,0,0,295.83,79c-1.15,0-1.86.35-2.13,1a21.88,21.88,0,0,0-.41,5.63v4Z"/><path class="cls-2" d="M336.89,70.4l-.29,5a12.37,12.37,0,0,1,4.4-4.48,11.76,11.76,0,0,1,6-1.5,11.4,11.4,0,0,1,6.95,2,8.94,8.94,0,0,1,3.48,5,46.84,46.84,0,0,1,.77,10.17v38H341.67V87.09a34.48,34.48,0,0,0-.37-6.83q-.36-1.23-2-1.23a2,2,0,0,0-2.21,1.41q-.45,1.41-.45,7.55v36.68H320.08V70.4Z"/></g></svg>