<svg xmlns="http://www.w3.org/2000/svg" xmlns:xlink="http://www.w3.org/1999/xlink" width="1920" height="1080" viewBox="0 0 1920 1080"><defs><style>.cls-1{fill:#c3dbda;}.cls-2{fill:#fcf297;}.cls-3{fill:#ffe67b;}.cls-4{fill:#424242;}.cls-5{fill:#383836;}.cls-6{fill:#443b32;}.cls-7{fill:#e6f4f3;}.cls-8{fill:#847d76;}.cls-9{fill:#dda45f;}.cls-10{fill:#845c30;}.cls-11{fill:#fcc490;}.cls-12{fill:#ffc2e2;}.cls-13{fill:#f2edce;}.cls-14{fill:#e2ddc3;}.cls-15{fill:#efbbd9;}.cls-16{fill:#473622;}.cls-17{fill:#c6ad93;}.cls-18{fill:#d6b896;}.cls-19{fill:#e5c7a3;}.cls-20,.cls-27{fill:#fff;}.cls-21{fill:url(#Skintone_19);}.cls-22{fill:url(#Skintone_18);}.cls-23{fill:#938a80;}.cls-24{fill:#ffccd7;}.cls-25{fill:#f7f1eb;}.cls-26{fill:#2d2c2c;}.cls-27{opacity:0.85;}.cls-28{fill:url(#Yellow_Green_2);}.cls-29{fill:url(#Yellow_Green_2-2);}.cls-30{fill:#efebe8;}.cls-31{fill:#68533a;}.cls-32{fill:#6d6154;}.cls-33{fill:#6b5843;}.cls-34{fill:#492302;}.cls-35{fill:#fc4747;}.cls-36{fill:#ce2828;}.cls-37{fill:#efedb4;}.cls-38{fill:#936134;}.cls-39{fill:#80bae5;}.cls-40{fill:#f9f9f9;}.cls-41{fill:#dbc5a9;}.cls-42{fill:#231509;}.cls-43{fill:url(#Water_3);}.cls-44{fill:url(#Water_3-2);}.cls-45{fill:#514d4a;}.cls-46{fill:#635c57;}.cls-47{fill:#56524f;}.cls-48{fill:red;}.cls-49{fill:#a3825f;}.cls-50{fill:#e8bb85;}</style><linearGradient id="Skintone_19" x1="676.58" y1="618.88" x2="707.04" y2="618.88" gradientUnits="userSpaceOnUse"><stop offset="0" stop-color="#765736"/><stop offset="1" stop-color="#311b08"/></linearGradient><linearGradient id="Skintone_18" x1="583.21" y1="626.33" x2="613.67" y2="626.33" gradientUnits="userSpaceOnUse"><stop offset="0" stop-color="#9f866f"/><stop offset="0.51" stop-color="#755635"/><stop offset="1" stop-color="#40211b"/></linearGradient><linearGradient id="Yellow_Green_2" x1="934.38" y1="711.52" x2="969.02" y2="711.52" gradientUnits="userSpaceOnUse"><stop offset="0" stop-color="#dae5a7"/><stop offset="0.5" stop-color="#b8d26e"/><stop offset="1" stop-color="#7fb525"/></linearGradient><linearGradient id="Yellow_Green_2-2" x1="1023.67" y1="692.4" x2="1046.08" y2="692.4" xlink:href="#Yellow_Green_2"/><linearGradient id="Water_3" x1="230.39" y1="651.06" x2="259.3" y2="651.06" gradientUnits="userSpaceOnUse"><stop offset="0" stop-color="#a1d1dc"/><stop offset="0.5" stop-color="#6cbbcb"/><stop offset="1" stop-color="#00a6bb"/></linearGradient><linearGradient id="Water_3-2" x1="344.73" y1="641.81" x2="373.73" y2="641.81" gradientTransform="translate(127.61 -56.27) rotate(10.88)" xlink:href="#Water_3"/></defs><g id="Baggrund"><rect class="cls-1" x="-154" y="676" width="2165" height="440" rx="12"/><path class="cls-2" d="M1195,729.16,999.42,705.61c-4.07-.49-7.07-4.82-6.65-9.63l71.46-824.57c.41-4.8,4.09-8.33,8.16-7.84l195.53,23.55c4.08.49,7.07,4.82,6.65,9.62l-71.46,824.58C1202.7,726.12,1199,729.65,1195,729.16Z"/><path class="cls-3" d="M2124.42,668.63c-310.35,25.36-622.34,48.22-933.58,60.86-11.45.47-16-4.66-16.22-18.15-4.13-267.3.14-538.29.32-805.48,0-13.48,4-18.71,15.7-18.89,317.2-5.08,623.14-20.44,941.16,2.71,11.7.85,16.09,6.77,15.8,19.2-5.67,246.45-6.29,494.22-7.36,740.7C2140.18,662,2135.84,667.69,2124.42,668.63Z"/><rect class="cls-4" x="1048.2" y="602.11" width="144" height="123.82" rx="12.35" transform="translate(51.57 -80.15) rotate(4.19)"/><path class="cls-2" d="M116.61,805-78.92,781.41c-4.08-.49-7.07-4.83-6.65-9.63L-14.12-52.79c.42-4.8,4.09-8.33,8.17-7.84L189.58-37.08c4.07.49,7.07,4.82,6.65,9.62L124.77,797.11C124.35,801.92,120.68,805.45,116.61,805Z"/><path class="cls-3" d="M1046.08,743.42c-310.35,25.37-622.34,48.23-933.59,60.87-11.44.47-16-4.67-16.21-18.15-4.14-267.3.14-538.29.32-805.49,0-13.47,4-18.7,15.7-18.88,317.2-5.08,623.14-20.44,941.16,2.7,11.69.85,16.09,6.78,15.8,19.21-5.67,246.45-6.29,494.22-7.37,740.7C1061.84,736.81,1057.49,742.49,1046.08,743.42Z"/><path class="cls-5" d="M2145.41,680.43c-319.26,9.35-639,33.61-957.63,51-8.84.48-12.11-3-12.67-11.59-2.22-33.9.94-69.29.38-103.19-.15-8.61,2.36-12.45,11.18-12.77,317.82-11.41,634.25-46.48,952.12-64.26,8.83-.49,12,2.6,12.42,12.12,1.77,37.51,2.85,77.81,5.09,115.24C2156.86,676.5,2154.27,680.17,2145.41,680.43Z"/><rect class="cls-4" x="-39.75" y="676.18" width="144" height="123.82" rx="12.35" transform="translate(54.07 -0.38) rotate(4.19)"/><path class="cls-5" d="M1061.68,757.14c-317.75,8.11-638.14,34.7-956.17,51.58-8.83.47-12.1-3.1-12.6-11.6-2-33.47-1-71.34-2.2-104.75-.3-8.48,2.3-12.46,11.14-12.77,318.36-11,636.46-46.49,953.2-63.47,8.79-.47,12.3,2.72,12.67,12,1.46,36.56,2.8,79.31,5.16,115.85C1073.47,753.26,1070.5,756.92,1061.68,757.14Z"/><path class="cls-6" d="M366.61,306.17c-57.28,7.16-120.22,15.35-178.14,17.79-13.18.56-19.11-5.15-19.36-18.1-1.11-56.91.36-118.93.59-175.7.05-12.92,5-18.25,17.75-19.18,56.19-4,117.51-9.17,173.88-11,12.83-.42,19,5.4,19.42,17.89,1.92,54.88.67,114.11,3,168.94C384.31,299.26,379.65,304.54,366.61,306.17Z"/><path class="cls-7" d="M358.17,297.79c-51.77,6.82-109.24,13.57-161.62,15.81-11.92.51-17.41-4.66-17.61-16.41-.91-51.59-.13-108.15.27-159.61.1-11.71,4.58-16.57,16.18-17.45,51-3.86,107-8.58,158.13-10.19,11.64-.37,17.29,4.82,17.62,16.18,1.42,49.93.56,104.13,2.67,154C374.28,291.45,370,296.24,358.17,297.79Z"/><path class="cls-6" d="M173.21,214.86h0c0-2.28,1.17-4.16,4.19-4.28,65-2.74,130.76-8.05,195.67-11.33,3-.15,4.18,1.51,4.2,3.76h0c0,2.25-1.09,4-4.11,4.2-65,3.37-130.77,9.09-195.79,11.6C174.34,218.92,173.21,217.13,173.21,214.86Z"/><path class="cls-6" d="M272.94,110.14h0c2.26-.16,4.13.86,4.22,3.87,2,64.91,2.81,130.78,5.94,195.67a4,4,0,0,1-4,4.58h0c-2.27.24-4.22-.71-4.38-3.73-3.23-65-3.9-130.94-5.78-195.94C268.87,111.57,270.68,110.3,272.94,110.14Z"/><path class="cls-6" d="M640.26,293C583,300.16,520,308.35,462.12,310.79c-13.19.56-19.11-5.15-19.36-18.1-1.12-56.91.36-118.93.59-175.7,0-12.92,5-18.25,17.75-19.18,56.19-4,117.51-9.17,173.88-11,12.83-.42,19,5.4,19.42,17.89,1.92,54.88.67,114.11,3,168.94C658,286.09,653.3,291.37,640.26,293Z"/><path class="cls-7" d="M631.82,284.62c-51.77,6.82-109.24,13.58-161.62,15.81-11.92.51-17.41-4.66-17.62-16.4-.91-51.6-.13-108.16.28-159.62C453,112.7,457.44,107.84,469,107c51-3.86,107-8.57,158.12-10.19,11.65-.37,17.3,4.82,17.62,16.18,1.42,49.93.57,104.13,2.67,154C647.93,278.28,643.6,283.07,631.82,284.62Z"/><path class="cls-6" d="M446.86,201.69h0c0-2.28,1.17-4.16,4.19-4.28,65-2.74,130.76-8,195.67-11.33,3-.15,4.17,1.51,4.2,3.76h0c0,2.25-1.1,4-4.12,4.2C581.85,197.41,516,203.13,451,205.64,448,205.75,446.85,204,446.86,201.69Z"/><path class="cls-6" d="M546.58,97h0c2.26-.16,4.13.86,4.22,3.87,2,64.91,2.82,130.78,6,195.67a4.06,4.06,0,0,1-4,4.59h0c-2.27.23-4.23-.72-4.38-3.74-3.23-65-3.9-130.94-5.78-195.94C542.52,98.4,544.33,97.13,546.58,97Z"/><path class="cls-6" d="M1717.54,208.39c-44.83,5.6-94.08,12-139.4,13.92-10.32.43-15-4-15.15-14.17-.87-44.53.28-93.06.46-137.49,0-10.11,3.88-14.28,13.89-15,44-3.18,92-7.19,136.07-8.63,10-.33,14.85,4.22,15.19,14,1.5,42.94.53,89.3,2.37,132.2C1731.39,203,1727.74,207.11,1717.54,208.39Z"/><path class="cls-7" d="M1710.93,201.83c-40.51,5.34-85.48,10.62-126.47,12.37-9.33.39-13.62-3.65-13.78-12.84-.72-40.37-.1-84.64.21-124.9.08-9.17,3.59-13,12.66-13.66,39.88-3,83.72-6.71,123.74-8,9.11-.29,13.54,3.77,13.79,12.66,1.11,39.07.44,81.48,2.09,120.49C1723.54,196.86,1720.15,200.61,1710.93,201.83Z"/><path class="cls-6" d="M1566.2,136.93h0a3.08,3.08,0,0,1,3.28-3.35c50.83-2.14,102.32-6.3,153.11-8.87,2.37-.12,3.27,1.19,3.29,3h0c0,1.76-.86,3.16-3.22,3.28-50.83,2.64-102.33,7.11-153.21,9.08C1567.08,140.11,1566.19,138.71,1566.2,136.93Z"/><path class="cls-6" d="M1644.24,55h0c1.76-.13,3.23.66,3.3,3,1.54,50.79,2.2,102.33,4.65,153.11a3.17,3.17,0,0,1-3.11,3.59h0c-1.78.18-3.31-.56-3.43-2.92-2.53-50.83-3.05-102.47-4.53-153.34A3.06,3.06,0,0,1,1644.24,55Z"/><path class="cls-6" d="M1949.57,183.26c-44.83,5.6-94.08,12-139.4,13.92-10.32.43-15-4-15.15-14.17-.87-44.53.28-93.06.46-137.49,0-10.11,3.88-14.28,13.89-15,44-3.18,92-7.18,136.07-8.63,10-.33,14.85,4.23,15.19,14,1.5,42.94.53,89.3,2.37,132.2C1963.42,177.85,1959.77,182,1949.57,183.26Z"/><path class="cls-7" d="M1943,176.7c-40.51,5.34-85.48,10.62-126.47,12.37-9.33.4-13.62-3.65-13.78-12.84-.72-40.37-.1-84.64.21-124.9.08-9.17,3.59-13,12.66-13.65,39.88-3,83.72-6.72,123.74-8,9.11-.29,13.54,3.77,13.79,12.66,1.11,39.07.44,81.49,2.09,120.5C1955.57,171.73,1952.18,175.49,1943,176.7Z"/><path class="cls-6" d="M1798.23,111.8h0a3.08,3.08,0,0,1,3.28-3.35c50.83-2.14,102.32-6.29,153.11-8.86,2.37-.12,3.27,1.18,3.29,2.94h0c0,1.76-.86,3.16-3.22,3.28-50.83,2.65-102.33,7.12-153.21,9.08C1799.11,115,1798.22,113.58,1798.23,111.8Z"/><path class="cls-6" d="M1876.26,29.86h0a2.8,2.8,0,0,1,3.31,3c1.54,50.79,2.2,102.33,4.65,153.11a3.17,3.17,0,0,1-3.11,3.59h0c-1.78.18-3.31-.56-3.43-2.92-2.53-50.83-3-102.47-4.53-153.33A3.06,3.06,0,0,1,1876.26,29.86Z"/></g><g id="Benny"><path d="M574.26,1143.66q5.9-.27,11.76-.13c30.79,0,61.55,2.16,92.35,2.39-.61-48.06-2.15-91.82-20.48-141.31-2.6-7-5.75-8.26-12.72-6.81-29,6-24.51,8-54.7,1.52-7.25-1.55-9.51.23-12.08,7.17-17.7,47.8-16.06,91-14.46,137.48C567.37,1143.83,570.82,1143.73,574.26,1143.66Z"/><ellipse class="cls-8" cx="487.62" cy="556.3" rx="7.81" ry="7.21"/><path class="cls-9" d="M685.64,924.7c2.25-11-2.82-16.82-15.27-19.4C639,898.81,601.45,895,570.23,904.18c-12.4,3.64-14.56,9.41-12.28,20.71,4.49,22.18,8.06,51.57,12.2,73.31,2.1,11.06,9,16,17.88,14.82,22.37-2.92,41.93,0,63.52-2.74,8.58-1.1,12.85-7.35,13.9-18.19C667.51,970.8,681.21,946.27,685.64,924.7Z"/><path class="cls-9" d="M698,865.54c2.09-19.51,13.29-33.56-16-52.07-32-20.23-60.71-22.75-92.72-10.88a17.09,17.09,0,0,1-7.24,2.91q-2.91,1.25-5.86,2.65c-30.21,14.36-23.77,22.28-23.15,43.22.87,29.09-.18,92.94,20,110.86,14.53,12.9,27.12-8,36.92-27.38,12.14-24.06,34.44-27.18,30.86,2.95-2.9,24.33-3.1,36.41,14.76,35.92C680.4,973,695.1,892.64,698,865.54Z"/><path class="cls-10" d="M643.88,1011.37a3.29,3.29,0,0,1,.89,0v-214l-1.2-.29v214.36Z"/><path class="cls-10" d="M641.17,1011.66V796.82a2.81,2.81,0,0,1-1.2-.53v215.32Z"/><path class="cls-10" d="M628,1011.69V795.37h-.5a2.69,2.69,0,0,1-.7-.09v216.51C627.15,1011.77,627.55,1011.74,628,1011.69Z"/><path class="cls-10" d="M631.55,1011.18V795.52l-.71-.18a3.16,3.16,0,0,1-.32,0h-.17v216Z"/><path class="cls-10" d="M668.81,805.87V975.65a2.73,2.73,0,0,1,.54-.37,9.55,9.55,0,0,1,.66-2.35V806.5C669.61,806.32,669.21,806.1,668.81,805.87Z"/><path class="cls-10" d="M665.21,804.41V994.48c.25-1.5.49-3,.63-4.5s.34-2.89.57-4.35V804.91A7.41,7.41,0,0,1,665.21,804.41Z"/><path class="cls-10" d="M652.76,1010.82a1.34,1.34,0,0,1,.2,0l.23-.11V799.55l-1.2-.4v211.79A6.61,6.61,0,0,1,652.76,1010.82Z"/><path class="cls-10" d="M656.79,1008.61v-208c-.4-.08-.8-.18-1.2-.29v209Z"/><path class="cls-10" d="M693.25,822a4.93,4.93,0,0,1-.4-.61v78c.13-.79.25-1.59.4-2.38a4.4,4.4,0,0,1,.43-1.25,1.67,1.67,0,0,0,.05-.18v0c0-.34.07-.67.11-1s.12-.88.21-1.32V823Z"/><path class="cls-10" d="M689.39,913.56c0-.13,0-.26.05-.39a10.48,10.48,0,0,1,1-3.52V819.76a6.8,6.8,0,0,1-1.21-1.25V914a.61.61,0,0,0,0-.13Z"/><path class="cls-10" d="M676.49,810.09l-.47-.36V955.31c.24-.38.47-.75.68-1.15.24-.74.34-1.49.53-2.24V810.4A2.83,2.83,0,0,1,676.49,810.09Z"/><path class="cls-10" d="M679.63,811.31V945.68l.32-.78c.26-.68.57-1.34.88-2V812.39C680.43,812,680,811.66,679.63,811.31Z"/><path class="cls-10" d="M701.58,847.18c.09-2.76.52-5,.37-8a2.71,2.71,0,0,1,0-.4c-.08-1.22-.28-2.43-.41-3.64l-.24-.49v13.18C701.37,847.6,701.48,847.39,701.58,847.18Z"/><path class="cls-10" d="M602.21,1011.79h.5V798.53l-1.2.47v212.85A3.88,3.88,0,0,1,602.21,1011.79Z"/><path class="cls-10" d="M605.81,1011.87a2.65,2.65,0,0,1,.5,0V796.62c-.38.26-.79.51-1.2.74v214.49Z"/><path class="cls-10" d="M618.54,1011.72a3.45,3.45,0,0,1,.81.1l.19,0V795.63l-1.21.23v215.86Z"/><path class="cls-10" d="M615.93,1011.82V796.21c-.3,0-.6,0-.91.06a1.42,1.42,0,0,1-.29,0V1012C615.13,1011.91,615.53,1011.85,615.93,1011.82Z"/><path class="cls-10" d="M594.3,1012.26V801l-1.21.28v211C593.49,1012.28,593.89,1012.26,594.3,1012.26Z"/><path class="cls-10" d="M589.66,1013a10.08,10.08,0,0,1,1-.31V801.8l-.26,0-.49.35-.45.33V1013.1Z"/><path class="cls-10" d="M565.45,814.42V972.11a1,1,0,0,1,0,.1,7.62,7.62,0,0,1,.23,1,4.62,4.62,0,0,1,.06.74l.87.08V813.19A14,14,0,0,1,565.45,814.42Z"/><path class="cls-10" d="M570.14,810.92l-.1,0a8.38,8.38,0,0,1-.86,1l-.12.12V992.77a6.22,6.22,0,0,1,.79,2.19l.41,0V810.87Z"/><path class="cls-10" d="M582.29,1012.84l1.19.06V805.22c-.4.1-.8.18-1.2.25v207.37Z"/><path class="cls-10" d="M579.87,1011.86V806.71l0,0c-.38.16-.76.3-1.15.45v203.94A2.65,2.65,0,0,1,579.87,1011.86Z"/><path class="cls-10" d="M557.86,927.41v.13a4,4,0,0,1,.38.44V819.39a7.28,7.28,0,0,1-1.2,1.16V920.71a38.11,38.11,0,0,1,.84,6.42C557.88,927.23,557.86,927.31,557.86,927.41Z"/><path class="cls-10" d="M554,825c-.15.25-.27.51-.4.77s-.09.26-.13.38v47.28c0,.18,0,.35.05.53.12,4.18.48,8.31.48,12.49,0,2.45.42,4.9.67,7.33V823.14A5.22,5.22,0,0,1,554,825Z"/><path class="cls-10" d="M699.1,859h-146c.06.4.11.81.14,1.2H699A7.58,7.58,0,0,1,699.1,859Z"/><path class="cls-10" d="M698.5,862.59H553.42c0,.39,0,.8,0,1.2h145A3.76,3.76,0,0,1,698.5,862.59Z"/><path class="cls-10" d="M696.67,875.81H553.55c0,.4,0,.8.05,1.2h143C696.58,876.61,696.62,876.21,696.67,875.81Z"/><path class="cls-10" d="M697.31,872.2H553.19a5.8,5.8,0,0,1,.24,1.2H697A2.7,2.7,0,0,1,697.31,872.2Z"/><path class="cls-10" d="M552,834.94H701.41a10.88,10.88,0,0,1-.56-1.2H552Q551.95,834.34,552,834.94Z"/><path class="cls-10" d="M552.06,838.55H701.88c0-.4-.06-.8-.11-1.2H552.05C552.07,837.75,552.07,838.15,552.06,838.55Z"/><path class="cls-10" d="M553.06,850.57a7.1,7.1,0,0,1,.18,1.2H700.65q0-.6.12-1.2Z"/><path class="cls-10" d="M552.66,847a4.47,4.47,0,0,1,.11,1.1v.1H701.14c0-.1.09-.21.13-.33s.21-.45.31-.67c0-.06,0-.13,0-.2Z"/><path class="cls-10" d="M676.79,810.22a2.71,2.71,0,0,1-.3-.13l-.5-.39H571.81a3.11,3.11,0,0,1-1.64,1.21H677.79l-.12-.07A4.77,4.77,0,0,1,676.79,810.22Z"/><path class="cls-10" d="M683.45,814.44a9.19,9.19,0,0,1-1.59-1.13H566.51a12.74,12.74,0,0,1-1.47,1.06c-.1.06-.21.09-.31.14H683.64Z"/><path class="cls-10" d="M697,826.53H553.29c-.14.41-.28.81-.45,1.2H698C697.64,827.34,697.31,826.93,697,826.53Z"/><path class="cls-10" d="M694,822.93H554.68a5.62,5.62,0,0,1-.33,1.2H695Z"/><path class="cls-10" d="M660.4,802.43a4.6,4.6,0,0,1-1.81-1.14H593.27a3.29,3.29,0,0,1-.53.1l-1.34.32-.44.06-.06,0a5,5,0,0,1-1.17.7h70.82Z"/><path class="cls-10" d="M555,901.05l.06.34c.05.3.07.58.1.86H692.06a10.43,10.43,0,0,1,.38-1.2Z"/><path class="cls-10" d="M554.81,897.44c0,.23,0,.47,0,.7s0,.34-.06.5H693c.07-.4.13-.8.2-1.2Z"/><path class="cls-10" d="M553.92,884.22l0,1.2H695.24c.08-.4.15-.8.24-1.2Z"/><path class="cls-10" d="M554,887.83c0,.4.06.8.09,1.2H694.71c0-.4.09-.8.14-1.2Z"/><path class="cls-10" d="M555.5,909.46c0,.3.09.59.13.89v0h0l0,.28H690a10.54,10.54,0,0,1,.51-1.2Z"/><path class="cls-10" d="M689.27,913.84c0-.1.09-.19.13-.29s0-.25,0-.38,0-.07,0-.1H556.14c0,.13.09.25.12.39l0,.15c.05.22.07.44.1.66H689.18C689.21,914.13,689.23,914,689.27,913.84Z"/><path class="cls-10" d="M687.71,921.19a5.35,5.35,0,0,1,.06-.91H557l.24,1.2h130.5A2.83,2.83,0,0,0,687.71,921.19Z"/><path class="cls-10" d="M686.77,923.88H557.59c0,.4.1.8.14,1.2H686.36A5.87,5.87,0,0,1,686.77,923.88Z"/><path class="cls-10" d="M671.26,968.36a3.13,3.13,0,0,1,.14-.83H564.85a6.9,6.9,0,0,1,.13,1,1.77,1.77,0,0,1,.12.17H671.23Z"/><path class="cls-10" d="M670.79,971.23s0-.06,0-.09H565.27a2.52,2.52,0,0,1-.15.34,3,3,0,0,1,.37.73s0,.08,0,.13H670.27C670.43,972,670.61,971.6,670.79,971.23Z"/><path class="cls-10" d="M666.61,984.36h-99c0,.37.1.75.15,1.1v.1h98.68C666.48,985.16,666.54,984.76,666.61,984.36Z"/><path class="cls-10" d="M667.27,980.75H566.93c.1.39.19.8.27,1.2H667C667.12,981.55,667.19,981.15,667.27,980.75Z"/><path class="cls-10" d="M680.56,943.49c.1-.23.21-.46.32-.68a.57.57,0,0,1,.08-.13c0-.13.11-.26.17-.39H561.2a2.42,2.42,0,0,1,0,1.2Z"/><path class="cls-10" d="M679.54,945.9H561.36c0,.06.06.12.09.19a2.31,2.31,0,0,1,.24,1h117.4Q679.3,946.49,679.54,945.9Z"/><path class="cls-10" d="M674.5,959.12H563.61a3.17,3.17,0,0,1,.17,1.2H674.4A7.88,7.88,0,0,1,674.5,959.12Z"/><path class="cls-10" d="M675.28,956.71c.12-.27.25-.54.39-.8s.16-.27.23-.4H563.18a3.27,3.27,0,0,1,.1,1l0,.18Z"/><path class="cls-10" d="M683.39,935.08H559.16c0,.18.07.37.11.55l.2.65H682.86A9.12,9.12,0,0,0,683.39,935.08Z"/><path class="cls-10" d="M684.62,931.47H558.51c.06.41.13.81.2,1.21H684.2C684.33,932.27,684.47,931.87,684.62,931.47Z"/><path class="cls-10" d="M655.11,1009.71l.17-.11H575.5l1.24,1.2H653A21.35,21.35,0,0,0,655.11,1009.71Z"/><path class="cls-10" d="M660.15,1006H572.83c.23.29.45.59.66.91l.19.29h85.05A18.35,18.35,0,0,0,660.15,1006Z"/><path class="cls-10" d="M665.48,992.77H569.06a5.06,5.06,0,0,1,.55,1.2h95.68C665.36,993.57,665.42,993.17,665.48,992.77Z"/><path class="cls-10" d="M664.7,997.58c.06-.4.12-.8.19-1.2H570.07c0,.28.06.56.1.81a1.8,1.8,0,0,1,0,.39Z"/><path class="cls-8" d="M763.93,484.56c-19.64-29.05-88.82,67.13-152.56,90.49-49.46,18.13-110.89-21.12-144.09-21.16a6.56,6.56,0,0,1-.33,1.54c-3.46,9.89-10.14,19.77-19.74,24.34l-.4.17c15.72,38.12,142.65,84.3,187.32,76.58C684.45,647.82,783.56,513.6,763.93,484.56Z"/><path class="cls-11" d="M640.6,821.09c-5.11.3-14.38,0-19.35.92-10.11,1.79-15.92-2.07-15.66-12.75s-.82-22.47-4.75-33,.5-15.5,12.19-17.46c5.76-1,22.39-.7,28,.17,11.33,1.79,17.71,5.79,14.65,16.36s-4.51,19.48-1.91,30S651,820.48,640.6,821.09Z"/><path class="cls-12" d="M631,883.9c-3.58,3.88-10.5,4.8-14.21.56-7.43-8.47-10.21-12.57-14.15-22.84-5.37-14-7.63-22.3-12.38-40.58-3.48-13.4-3.61-21,18.85-14.15,11.24,3.44,19.83,3.7,32.16.33,24.65-6.73,21.36,4.5,16.19,17.76-7.06,18.08-9.45,25.26-14.71,38.83C638.94,873.76,638.2,876.14,631,883.9Z"/><path class="cls-13" d="M651.05,934.27c-.39,3.55-2.49,7.31-7.68,5.74-9.4-2.83-15.13-.76-22-13-31.76-56.88-7.53-45.56-5.42-91.58.46-9.92,5.61.37,8-1.84,1.31-1.21.65.55,2.46.51,3.27-.07,9.43-.88,9.77,5.35,1.58,28.89-15.14,53.07,11,77.83C652.79,922.59,651.77,927.85,651.05,934.27Z"/><rect class="cls-14" x="612.01" y="813.5" width="25.24" height="22.84" rx="8.23"/><rect class="cls-13" x="612.01" y="812.3" width="25.24" height="22.84" rx="8.23"/><path class="cls-15" d="M625.11,816c-.92,2.68-4.33,10.61-5.39,14.5-2.7,9.91-8.49,17.88-16.11,9.32a136.19,136.19,0,0,1-18.16-26.87c-3.91-7.68-2.7-11.21.79-16.37,1.37-2,3.78-3.5,5.34-4.9,3.95-3.56,8-5,13.13-1.66a151.6,151.6,0,0,1,16.55,12.75C626,806.93,627.44,809.12,625.11,816Z"/><path class="cls-12" d="M624.47,814.56c-.91,2.64-4.28,10.43-5.33,14.25-2.68,9.73-8.38,17.58-15.77,9.22a131.83,131.83,0,0,1-17.6-26.26c-3.78-7.52-2.58-11,.85-16.07,1.34-2,3.71-3.45,5.24-4.83,3.87-3.51,7.88-4.89,12.83-1.69a147.86,147.86,0,0,1,16.09,12.42C625.37,805.71,626.78,807.85,624.47,814.56Z"/><path class="cls-15" d="M626.31,815.53c.92,2.69,4.35,10.65,5.41,14.56,2.71,9.94,8.53,17.94,16.17,9.35a136.57,136.57,0,0,0,18.21-27c3.93-7.71,2.71-11.25-.79-16.44-1.38-2-3.81-3.51-5.37-4.91-4-3.58-8.08-5-13.18-1.68a154.79,154.79,0,0,0-16.6,12.79C625.43,806.47,624,808.67,626.31,815.53Z"/><path class="cls-12" d="M626.84,814.67c.9,2.64,4.28,10.43,5.33,14.25,2.68,9.73,8.38,17.57,15.77,9.21a131.54,131.54,0,0,0,17.6-26.26c3.78-7.51,2.58-11-.85-16.06-1.35-2-3.71-3.45-5.24-4.83-3.88-3.51-7.88-4.9-12.83-1.69a146.72,146.72,0,0,0-16.1,12.42C625.94,805.81,624.53,808,626.84,814.67Z"/><path class="cls-16" d="M528.16,598.29c3.86,12.36,11.72,73.42-6.84,74s-28.5-53.19-32.48-67.25-2-80,16.92-78.09S524.3,585.94,528.16,598.29Z"/><path class="cls-11" d="M740.92,609.88C736.78,683.34,728.79,767,644,778.4S515.36,694.28,514.09,613.66s14.24-160.68,115.85-166S745.06,536.42,740.92,609.88Z"/><path class="cls-16" d="M546.53,564.34c-8.13,20.25,3.61,49.61-27.29,50.11s-31.89-78.33-16.69-107.11,59.22-51.12,75.8-15.71S554.66,544.08,546.53,564.34Z"/><path class="cls-16" d="M592,524.26c-8.67-9.84-19.49-16.78-20.69-25.77-1.45-10.8,2.32-8.63,5.84-4.13,1.09.68.77.37,0,0,3.51,4.5,1.53,4.43,4.63,11,2.58,5.47.81-6.51,6.49,7.78,6.81,17.16,30.64,8.11,43,8.51,3.75-.82,3.06-.88,0,0C643.68,522.05,602.38,536.06,592,524.26Z"/><path class="cls-16" d="M590.48,527.51c-6.61-11.33-15.89-20.22-15.34-29.28.67-10.87,4-8,6.53-2.93,1,.88.69.52,0,0,2.58,5.1.65,4.64,2.43,11.68,1.48,5.86,2-6.23,4.86,8.89,3.37,18.15,28.5,13.87,40.59,16.66,3.84-.08,3.17-.28,0,0C641.64,535.32,598.41,541.1,590.48,527.51Z"/><path class="cls-16" d="M742.9,549.28c-24.2,10.9-67.7-40.36-103.15-35.73s-83.52,14.52-86.86-29.81,70.66-38.57,109.65-47.52S767.11,538.38,742.9,549.28Z"/><path class="cls-16" d="M593.64,521.92c-10-8.5-21.69-13.82-24.16-22.55-3-10.48,1.07-8.87,5.19-4.92,1.18.51.82.26,0,0,4.12,3.95,2.15,4.16,6.15,10.21,3.34,5-.12-6.55,7.54,6.79,9.19,16,31.48,3.65,43.81,2.28,3.6-1.35,2.9-1.31,0,0C644.5,512.36,605.62,532.12,593.64,521.92Z"/><path class="cls-17" d="M525,644.92c8.81,15.62-15.92,7.93-23.28-1.43s-10.55-25.77-2.66-33,17.93-10.08,21.44,2S516.2,629.3,525,644.92Z"/><path class="cls-11" d="M523.45,643.63c8.09,14.33-14.61,7.27-21.36-1.32s-9.68-23.64-2.44-30.29,16.45-9.25,19.67,1.81S515.37,629.3,523.45,643.63Z"/><path class="cls-17" d="M521.49,642.31c6.9,12.24-12.48,6.21-18.24-1.12S495,621,501.17,615.32s14-7.89,16.79,1.55S514.59,630.08,521.49,642.31Z"/><path class="cls-11" d="M519.38,640.72c5.59,9.91-10.11,5-14.78-.91s-6.69-16.35-1.68-21,11.38-6.4,13.6,1.25S513.79,630.81,519.38,640.72Z"/><path class="cls-18" d="M666.25,667.59c6.77,11.84-4.12,18.44-13.48,23.49s-20.43,8.66-20.32-9.9-8.92-33.43-.21-47.69S659.47,655.75,666.25,667.59Z"/><path class="cls-11" d="M663.64,665.6c4.61,11.4-4.43,15.47-13.11,21s-19.19,8.6-19.27-9.44-7.71-30.77-.07-44.9S659,654.21,663.64,665.6Z"/><path class="cls-19" d="M720.06,611.1c3.41,21.77-2,31.57-23.88,36.35s-35.72-8-36.13-31.94S664,588,685.12,584.34,716.66,589.33,720.06,611.1Z"/><path class="cls-20" d="M718.11,611.47c3.15,20.21-1.91,29.31-22.17,33.75s-33.17-7.39-33.55-29.66,3.65-25.5,23.28-28.93S715,591.26,718.11,611.47Z"/><path d="M714.45,579.6a5.85,5.85,0,0,1,.89-4.25c-6.8-2.45-19-2.74-32.41-.29-18.51,3.35-32.91,10.67-33.8,16.88a.43.43,0,0,1,.1-.09,4.12,4.12,0,0,1,5.66.43c-.43-.44,0,0,.26.15l.37.18A14.65,14.65,0,0,0,657,593l.51.1.94.19c.62.12,1.24.26,1.85.42a3.44,3.44,0,0,1,1.23.41l.19.11.39.29.27.27a3,3,0,0,1,.28.33l.15.2a4.5,4.5,0,0,1,.62,1.5,3,3,0,0,1,.32,1.47,3.16,3.16,0,0,1-.18,1.49,0,0,0,0,0,0,0,100.23,100.23,0,0,0,46-8.23c-.06-.06-.11-.14-.17-.21l-1-1a5.34,5.34,0,0,1-.6-.67c-2.39-1.84-2.28-6.54,1.57-7.24A3.64,3.64,0,0,1,713.1,584l.09.06a19.51,19.51,0,0,1,1.62,1.52,4.15,4.15,0,0,0,.43.3C715,583.78,714.81,581.68,714.45,579.6Z"/><ellipse class="cls-11" cx="683.99" cy="585.21" rx="36.49" ry="11.87" transform="translate(-93.45 131.45) rotate(-10.28)"/><circle class="cls-21" cx="691.81" cy="618.88" r="15.23"/><path class="cls-19" d="M627.33,621.45c1.18,22-5.24,31.2-27.44,33.74s-34.74-11.55-32.7-35.44,6.69-26.94,28.1-28.46S626.16,599.45,627.33,621.45Z"/><path class="cls-20" d="M625.35,621.62c1.09,20.43-4.87,29-25.48,31.33S567.62,642.22,569.51,620s6.21-25,26.09-26.42S624.26,601.2,625.35,621.62Z"/><path d="M625,589.55a5.86,5.86,0,0,1,1.31-4.15c-6.51-3.12-18.58-4.64-32.21-3.58-18.75,1.46-33.83,7.28-35.34,13.37l.1-.08a4.11,4.11,0,0,1,5.59,1c-.38-.48,0,0,.24.17a2.44,2.44,0,0,0,.36.21,13.88,13.88,0,0,0,1.38.58l.5.15.91.28c.6.19,1.21.39,1.8.61a3.45,3.45,0,0,1,1.18.54l.17.12a3.81,3.81,0,0,1,.36.33,3.61,3.61,0,0,1,.25.3,2.71,2.71,0,0,1,.24.35,1.59,1.59,0,0,1,.13.22,4.43,4.43,0,0,1,.47,1.55,3.07,3.07,0,0,1,.16,1.5,2.87,2.87,0,0,1-.33,1.46v0a91.16,91.16,0,0,0,23.68,1A92.25,92.25,0,0,0,618.8,601c-.06-.07-.09-.15-.14-.22-.31-.38-.6-.77-.91-1.13a5,5,0,0,1-.53-.73c-2.19-2.07-1.6-6.74,2.3-7a3.64,3.64,0,0,1,3.64,1.89l.08.08a19.17,19.17,0,0,1,1.46,1.67,3.17,3.17,0,0,0,.39.34C625,593.76,625.09,591.65,625,589.55Z"/><ellipse class="cls-11" cx="594.07" cy="592.03" rx="36.49" ry="11.87" transform="translate(-44.2 47.94) rotate(-4.46)"/><circle class="cls-22" cx="598.44" cy="626.33" r="15.23"/><path d="M606,625c.27,3-.73,7-4.18,7.33s-5.18-3.54-5.47-6.65.76-6.68,4.27-7S605.75,622,606,625Z"/><path class="cls-16" d="M622.1,583.85c-.6,6.42-25.84,3.47-30.32,3.93s-29.65,2.28-29.56-4.22,25.66-8.3,30.69-8.74S622.69,577.42,622.1,583.85Z"/><path class="cls-16" d="M720.72,577.82c-.33,6.44-25.68,4.52-30.14,5.16s-29.52,3.49-29.7-3,25.3-9.33,30.3-10S721.05,571.38,720.72,577.82Z"/><path class="cls-23" d="M674.08,478c-42.38,33.57-92.72,48-146.57,32.25-26.6-7.76-23.34-17.08-23.71-39.57-.35-21.69,5.85-57.16,11.79-75.74,6.15-19.26,18.61-21.08,32.46-14.14,28,14.06,57,33.76,63.74-8,3.35-20.64,18.6-24.16,34.33-6.11,15.18,17.42,38.26,44.3,43.76,67.63C695.58,458.49,695,461.41,674.08,478Z"/><path class="cls-23" d="M747.41,489.22c-64.71-5.85-79.63,29.37-133.4,43.23S497.18,535.79,455.58,575s77.29-103.9,153.32-126.28S812.11,495.07,747.41,489.22Z"/><path class="cls-23" d="M562.9,481.53c14.2,14.17-24,33.09-50.2,41.24s-78.55,78.78-61.78,53,38.53-78.77,66.56-90.09S548.7,467.35,562.9,481.53Z"/><path d="M695,452.6c-86.17,31.26-98.49,34.95-189.69,40.42-2-12.66-3.4-24.34-1.41-37.12,96,11.24,95,1.83,181-34.83C689,431.39,691.44,442.12,695,452.6Z"/><path class="cls-24" d="M670.55,706.61c12.41.33,14.11,16.39,1.14,34.68S620.48,756,609.12,730.38s22.22-8.82,31-11S658.14,706.27,670.55,706.61Z"/><path class="cls-25" d="M669.88,708.65c11.32-1.24,11.88,15.17-.34,32.74s-48.16,12-59.45-11.58,22.89-7,30.73-9.35S658.57,709.89,669.88,708.65Z"/><path class="cls-26" d="M672.84,712c9.26-2.59,6.17,10.67-4.93,25.11s-44.54,15.59-57.34-5.89,23.82-2.84,32.27-4.12S663.58,714.59,672.84,712Z"/><path d="M697.4,616.9c.63,2.48.32,6-2.54,6.7s-4.82-2.28-5.47-4.86-.25-5.7,2.65-6.44S696.78,614.42,697.4,616.9Z"/><rect class="cls-27" x="694" y="609" width="5" height="5" rx="2.5"/><rect class="cls-27" x="602" y="616" width="5" height="5" rx="2.5"/></g><g id="Egon"><path class="cls-11" d="M816.14,703.13c6.19,4.82-5.15,6-9.7,3.53s-8.58-8.66-6.59-13,5.61-7.29,9-3S810,698.31,816.14,703.13Z"/><path d="M964.63,1161.54c-4.44-.31-11.15-1.91-16.47-3.17-55.34-13.1-45.93-62.65-50.33-107.77-2.22-22.78-17-55.61-17.42-79-.74-46.24,34.88-82.15,78-82.87,4.14-.07,12-.28,17-.73,51.87-4.71,80.33,33.74,80.65,87,.16,26.9-9.51,83.12-8.35,109.69C1050,1137.38,1010.74,1164.73,964.63,1161.54Z"/><ellipse class="cls-25" cx="824.11" cy="709.8" rx="16.72" ry="54" transform="translate(-253.61 856.38) rotate(-48.48)"/><path class="cls-11" d="M1046.24,688.32c-8.16,17.49-3,35.59-2.44,49.79.76,4.07,1.39,8.42,1.83,12.87a94.52,94.52,0,0,1,1.9,16.8c1.14,45.8-27.35,71.58-68.5,79.54-5.78,18.79-2.63,22.51,4.27,32.46C977.19,888,967,894,957.15,897.91a169.66,169.66,0,0,1-18,2.94h0c-5-1.28-10.43-3-16.65-5,7.7-28.43,4.66-27-5.24-53-25.32-9.88-47-29.39-55.55-53.72,0,0,0,0,0,0-.43-.89-1.23-2.93-2.1-5.34-.28-.77-.55-1.52-.78-2.19,0,0,0,0,0,0a62.1,62.1,0,0,1-5-14.82c-4-20.34-12.93-37.44-22.63-53.33-4.21,5.13-11.75,6.62-20.94,4.07-15.61-4.35-20.74-8.55-22.41-22.35-1.55-12.82,7.14-21.24,19.2-21.5-.52-1-1-2-1.51-3-12.42-22.74-17.83-48.86-12-76.41,7.4-35.23,22-62.72,43.42-80.58a27.34,27.34,0,0,0,1.43,5.41c.85,2.32,4,3.17,6.08,2.19a4.33,4.33,0,0,0,2.36-2.81,4.55,4.55,0,0,0,4.31-6.39,8.09,8.09,0,0,0-3.44-4.36l-.08,0a6.62,6.62,0,0,1-.16-1.64c24-15.13,55.11-19.89,92.81-12.24,80.35,16.29,134.83,60.79,125.16,139.76a134.9,134.9,0,0,1-19.09,54.75S1046.24,688.31,1046.24,688.32Z"/><path class="cls-19" d="M985,711.5c-2.83,24.89-11.76,34-37.14,32.66s-36.78-19.5-30-45.92,12.59-28.94,36.88-26.61S987.85,686.6,985,711.5Z"/><path class="cls-25" d="M977.33,637c-1.32,7.22-29.62,1.33-34.74,1.4s-33.81-.4-33.06-7.77,29.91-6.81,35.64-6.79S978.65,629.75,977.33,637Z"/><path class="cls-25" d="M1066.57,620.27c0-1.11.1-2.22.18-3.33a5.5,5.5,0,0,1,0-.91c0-.27,0-.54.07-.81s0-.23,0-.34a8.09,8.09,0,0,1,.06-1.42,5.63,5.63,0,0,1,0-1v0a3.67,3.67,0,0,1,0-1.1s0-.05,0-.07,0-.24,0-.35a8.24,8.24,0,0,1,0-1.22,2.09,2.09,0,0,1,0-.35,1.46,1.46,0,0,1,0-.22c0-.15,0-.3-.09-.45a4.41,4.41,0,0,1-.11-1c-6.21,1.55-11.86,3.57-14,4.88-5.51,3.35-30.22,18.62-26.25,25.64s27.75-9.32,32.12-12.14a67.18,67.18,0,0,1,8.17-3.48q0-.8.06-1.59A5.64,5.64,0,0,1,1066.57,620.27Z"/><path class="cls-20" d="M982.77,711.31c-2.63,23.12-10.93,31.57-34.49,30.33s-34.14-18.1-27.84-42.63,11.68-26.87,34.24-24.71S985.39,688.2,982.77,711.31Z"/><path class="cls-24" d="M1009.59,787.57c7.53,4.19,3.86,15.55-3.56,19.59s-25.51,2-27.15-6,6.8-7.44,12.07-9.52S1002.06,783.39,1009.59,787.57Z"/><path class="cls-18" d="M1016.28,744.54c5.12,11-.34,18.08-16.2,17.64s-21.52-2.43-16.16-14,3.5-16,9.46-21.6S1011.15,733.54,1016.28,744.54Z"/><path class="cls-11" d="M1014.15,742.58c4.76,10.24-.32,16.83-15.08,16.42s-20-2.26-15.05-13,3.26-14.87,8.81-20.11S1009.38,732.33,1014.15,742.58Z"/><path class="cls-19" d="M1042.07,714.91c-.12-1.44-.14-2.88-.17-4.33a2.84,2.84,0,0,1,.1-.76,11.77,11.77,0,0,1,.06-1.78,14.09,14.09,0,0,1,.2-3,13.46,13.46,0,0,1,.42-4h0l-.13.55c.06-.25.1-.51.15-.77l0-.4c0-.19,0-.37.08-.54a1.52,1.52,0,0,1,0-.21,44.08,44.08,0,0,1,1.54-6.89,9.71,9.71,0,0,1,.36-1.16,8.92,8.92,0,0,1,.57-1.16,32.3,32.3,0,0,1,1.75-4,6.26,6.26,0,0,1,1.18-1.67l.13-.26a4.47,4.47,0,0,1,.77-1.3,11.6,11.6,0,0,1,1.45-2.58c.08-.2.16-.39.25-.58a5.29,5.29,0,0,1,.44-.77c-4.23-8.9-11.12-12-21.91-9.39-13.91,3.35-16.59,6-14.9,23.61s11.75,26.48,26,22.31c.55-.16,1.06-.32,1.57-.49C1042.08,715.17,1042.07,715,1042.07,714.91Z"/><path class="cls-20" d="M1041.91,714.06c-.11-1.38-.14-2.77-.17-4.15a3,3,0,0,1,.1-.73,11,11,0,0,1,.06-1.72,13,13,0,0,1,.19-2.92,12.78,12.78,0,0,1,.4-3.84h0l-.12.54c.06-.25.09-.5.14-.75l0-.38c0-.18,0-.36.08-.52s0-.13,0-.2a42.93,42.93,0,0,1,1.49-6.62,8.26,8.26,0,0,1,.89-2.24,33.56,33.56,0,0,1,1.68-3.84,6.62,6.62,0,0,1,1.13-1.61l.13-.24a4.81,4.81,0,0,1,.74-1.26,11.51,11.51,0,0,1,1.4-2.47c.07-.19.15-.38.23-.56a6,6,0,0,1,.43-.74c-4.06-8.55-10.69-11.52-21.06-9-13.37,3.22-16,5.81-14.32,22.69s11.29,25.46,25,21.45q.78-.23,1.5-.48C1041.91,714.32,1041.91,714.19,1041.91,714.06Z"/><path d="M955.17,660.78c-21.31-1.9-39.31,1.79-42.16,8.32l.14-.07a4.69,4.69,0,0,1,6.08,2.19c-.34-.61,0-.05.23.24a3.81,3.81,0,0,0,.36.3,16.6,16.6,0,0,0,1.44.91l.53.26,1,.49c.64.33,1.28.67,1.91,1a3.93,3.93,0,0,1,1.22.83l.17.17c.12.14.23.29.34.44s.15.25.22.38a3.55,3.55,0,0,1,.21.44c0,.09.07.17.1.27a5.12,5.12,0,0,1,.23,1.83,3.42,3.42,0,0,1-.1,1.71,3.49,3.49,0,0,1-.64,1.57l0,0A114,114,0,0,0,979.31,687a2.21,2.21,0,0,1-.12-.27c-.27-.48-.53-1-.8-1.44a6.08,6.08,0,0,1-.46-.92c-2.06-2.74-.53-7.86,3.91-7.46a4.13,4.13,0,0,1,3.72,2.81.39.39,0,0,1,.08.1,20.65,20.65,0,0,1,1.32,2.15,3.75,3.75,0,0,0,.44.53,3.71,3.71,0,0,1,1,2c4.18-1.71,6.71-4,6.94-6.58C996,670.48,978,662.81,955.17,660.78Z"/><path d="M1038.74,669.11l-.18-.06c-4.79-1.06-4.25-8.46.46-9l.36-.08a13.37,13.37,0,0,1,.11-3,5.71,5.71,0,0,1,.36-1.22c-7.56-2.81-22.2-2.41-38.28,1.62-17.57,4.41-31.58,11.81-35.8,18.29,3.15,1.27,6,3.72,9.22,4.57,3.77,1,8.39.13,12.25.21,7.5.16,14.54-2.77,21.74-4.41l.34,0a3.5,3.5,0,0,1,.66-.12,5.3,5.3,0,0,1,1.14-.05,4.35,4.35,0,0,1,3.94,5.26c0,.18,0,.36,0,.54,10.74-3.35,19.6-7.74,24.88-12.11A4.41,4.41,0,0,1,1038.74,669.11Z"/><path class="cls-20" d="M1050.81,680.5a4.71,4.71,0,0,0-.91,1.67,1.63,1.63,0,0,0-.17.22,1.5,1.5,0,0,0-.15.25l0,.07a5,5,0,0,0-.68,1.21,3.59,3.59,0,0,0-.12.35c-.23.36-.47.72-.68,1.09l0,0v0a4.16,4.16,0,0,0-.61,1.23,5.22,5.22,0,0,0-1.15,1.75,4.63,4.63,0,0,0-.19.69,13.86,13.86,0,0,0-.82,1.52,3.75,3.75,0,0,0-.24.9c0,.07-.07.13-.1.19a6.17,6.17,0,0,0-.31,1.06c0,.1,0,.17,0,.25s-.07.16-.13.32a.66.66,0,0,1,0,.15,4.54,4.54,0,0,0-.56,1l-.27,1.19a5.76,5.76,0,0,0,0,.72.89.89,0,0,1,0,.14,13.61,13.61,0,0,0-.28,1.55,1.67,1.67,0,0,0,0,.39,2.25,2.25,0,0,0-.06.36c0-.16,0-.29,0-.32s0,.13-.11.36a14.77,14.77,0,0,0-.58,3.38.56.56,0,0,0,0,.13l-.06.27c-.08.37-.12.76-.2,1.14a2.83,2.83,0,0,0,0,1.12,22.25,22.25,0,0,0-.18,2.44,1.34,1.34,0,0,0,0,.2v.09a4.11,4.11,0,0,0,0,.86c0,.07,0,.15,0,.24a4,4,0,0,0,0,.92,1,1,0,0,0,0,.16c0,.27,0,.52-.06.79a3.4,3.4,0,0,0,0,.9c0,.1,0,.2,0,.3a12.85,12.85,0,0,0,.09,1.41l.06,1.18a5.63,5.63,0,0,1-2.77.48l-.49,0a5.51,5.51,0,0,1,.17-11,5.49,5.49,0,0,1,.26-8.2,5.53,5.53,0,0,1,1.3-.81,5.5,5.5,0,0,1,.16-8.3,4.82,4.82,0,0,1,.72-.49,5.51,5.51,0,0,1,4.08-9.66l.5.05A5.52,5.52,0,0,1,1050.81,680.5Z"/><ellipse class="cls-11" cx="1004.65" cy="668.45" rx="41.5" ry="13.5" transform="translate(-132.37 264.31) rotate(-14.07)"/><ellipse class="cls-11" cx="953.27" cy="672.23" rx="13.5" ry="41.5" transform="translate(199.13 1562.12) rotate(-84.91)"/><path class="cls-19" d="M993,832c-.12,17.83-29.51,19.09-42.27,18.41s-41.4-3.21-42.11-20.92,28.12-21.55,41.32-20.88S993.17,814.14,993,832Z"/><path class="cls-11" d="M1000.56,831.7c-1.21,17.9-39.7,18.14-52.24,17.26s-50.43-6.42-49.16-24.32,39.48-18.13,52-17.26S1001.76,813.8,1000.56,831.7Z"/><path class="cls-25" d="M1008.35,788.5c6.91,3.84,3.54,14.26-3.27,18s-23.4,1.81-24.9-5.54,6.23-6.82,11.07-8.73S1001.44,784.66,1008.35,788.5Z"/><circle class="cls-28" cx="951.7" cy="711.52" r="17.32"/><path class="cls-29" d="M1043.37,697.41a9.24,9.24,0,0,1,.43-1.85,9.59,9.59,0,0,1,.63-2.32,11.2,11.2,0,0,1,.53-1.1,10.05,10.05,0,0,1,1.12-3.09,11.47,11.47,0,1,0-3.18,11.76,13.32,13.32,0,0,1,.46-2.73A3.74,3.74,0,0,1,1043.37,697.41Z"/><path d="M961.44,711.81c-.18,3.28-2.06,7.21-5.84,6.94s-5.32-4.88-5.13-8.27,2.21-7.56,6-6.88S961.62,708.53,961.44,711.81Z"/><path class="cls-25" d="M1047.9,578.8c-45.62,27.22-31.59,1.49-87.31,25.28-37.64,16.09-74.82-1.18-97-31.79,1.81,10.21,2.5,19.5,1.71,26.26-2.27,19.52-17.48,72.24-55.72,72.53s-38.41-69.43-31.31-93.69c7-24,50.82-83.36,65.08-62.45C846.25,465.71,962,489.91,994,490,1027.25,490.11,1093.53,551.58,1047.9,578.8Z"/><path class="cls-17" d="M820.85,704.26c9.75,7.6-8.11,9.53-15.28,5.56S792,696.19,795.19,689.33s8.83-11.48,14.24-4.7S811.1,696.67,820.85,704.26Z"/><path class="cls-11" d="M819.51,703.87c9,7-7.44,8.74-14,5.09s-12.41-12.51-9.52-18.8,8.1-10.53,13.07-4.31S810.57,696.9,819.51,703.87Z"/><path class="cls-17" d="M817.91,703.57c7.64,5.94-6.35,7.46-12,4.35s-10.6-10.68-8.13-16,6.92-9,11.16-3.69S810.28,697.62,817.91,703.57Z"/><path class="cls-26" d="M1009,791.77c6.58,2,2.57,8.92-4.4,11.74s-23.23,2.68-24.25-1.94,6.61-4.78,11.51-6.32S1002.41,789.76,1009,791.77Z"/><path class="cls-25" d="M864.13,623.28c-7.8,31.77-7.93,71-41.93,54.9s-40.38,37-45.26-26.48-4.7-50,45.85-79.53S871.92,591.5,864.13,623.28Z"/><path class="cls-30" d="M861.4,583.3a19.42,19.42,0,0,0-2.72,1.78C845.8,595.25,826.12,623,837,637.74c.42.58,6.11,12.44,6.42,15.51s-7.34-14.09-7.76-14.76c-10.39-16.8,10.25-44.46,24.64-54.77A4.37,4.37,0,0,1,861.4,583.3Z"/><path class="cls-30" d="M803.07,653c1,1.32,6.68,14.61,6.46,17.86s-7.79-15.13-8.66-16.63c-22-37.68,4.67-95.42,40.15-116.71a14.69,14.69,0,0,1,2.52-1.06c-1.74.9-4.57,2.8-5.5,3.44C807.74,560.82,778.36,619.59,803.07,653Z"/><path class="cls-30" d="M823.14,669.66c.53,5.44-13-24.93-13.74-26.12C791,613.81,827.54,564.88,853,546.62a7.13,7.13,0,0,1,1.91-.73,36.56,36.56,0,0,0-4.8,3.15c-22.79,18-57.62,67.14-38.38,93.16C812.52,643.23,822.6,664.22,823.14,669.66Z"/><path class="cls-30" d="M830.73,662.65c.42,4.17-10-19.15-10.54-20.06-14.12-22.84,13.93-60.42,33.49-74.44a6.13,6.13,0,0,1,1.47-.56,27.62,27.62,0,0,0-3.68,2.41C834,583.82,807.22,621.58,822,641.56,822.59,642.35,830.33,658.47,830.73,662.65Z"/><path class="cls-30" d="M799.86,664.12c.92,5.36-11.26-20.3-12-21.86-19.22-39.14,21.89-109.73,48-122.94a19.58,19.58,0,0,1,2.06-.75c-2,1-4.55,2.78-5.24,3.19-23.18,14-61.4,80.77-43,118.21C790.34,641.47,798.93,658.75,799.86,664.12Z"/><path class="cls-30" d="M839.73,518l-1.79.58a6.94,6.94,0,0,1,1.75-.69C840.33,517.74,840.2,517.81,839.73,518Z"/><path class="cls-30" d="M858.38,507.19a19.62,19.62,0,0,0,2.81-1.63c13.41-9.45,34.57-36.12,24.51-51.4-.4-.6-5.44-12.75-5.58-15.84s6.57,14.47,7,15.16c9.46,17.34-12.65,43.84-27.58,53.35A4,4,0,0,1,858.38,507.19Z"/><path class="cls-30" d="M920.39,440.81c-.91-1.38-5.87-14.95-5.47-18.19s7,15.53,7.74,17.08c19.93,38.82-9.83,95-46.42,114.37a16.46,16.46,0,0,1-2.58.92c1.79-.81,4.72-2.55,5.69-3.14C910.74,532.56,943.27,475.46,920.39,440.81Z"/><path class="cls-30" d="M901.26,423c-.23-5.46,11.64,25.6,12.3,26.82,16.74,30.69-22.38,77.56-48.8,94.41a7.26,7.26,0,0,1-2,.63,36.56,36.56,0,0,0,5-2.88c23.73-16.73,61.18-63.93,43.37-90.95C910.43,450,901.51,428.5,901.26,423Z"/><path class="cls-30" d="M893.3,429.63c-.19-4.19,8.93,19.66,9.44,20.6,12.86,23.57-17.19,59.57-37.48,72.51a6,6,0,0,1-1.49.48,26.65,26.65,0,0,0,3.8-2.21c18.23-12.85,47-49.1,33.31-69.85C900.33,450.33,893.48,433.82,893.3,429.63Z"/><path class="cls-30" d="M924.21,429.83c-.64-5.41,10.14,20.88,10.82,22.48,17.06,40.13-27.82,108.38-54.6,120.15a17,17,0,0,1-2.1.64c2.07-.9,4.7-2.52,5.41-2.9,23.91-12.77,65.68-77.32,49.39-115.7C932.49,453,924.84,435.24,924.21,429.83Z"/><path class="cls-30" d="M876.48,573.59l1.81-.48a6.92,6.92,0,0,1-1.79.6C875.86,573.8,876,573.73,876.48,573.59Z"/><path class="cls-30" d="M1042.69,497c-7.47,13.11-30.81,22-44.11,23.39a19,19,0,0,1-3.24.05,4.06,4.06,0,0,0,1.14.23c14.32-.84,38.18-9.12,46.82-22.74C1043.08,497.67,1042.88,497.36,1042.69,497Z"/><path class="cls-30" d="M1059.91,539.5a.7.7,0,0,0,0-.14c-19,17.71-46.73,29.44-68,30.34-1.13,0-4.54.14-6.49,0a14.76,14.76,0,0,0,2.7.45c24.22.55,52.55-11.1,72.18-29.6A7.68,7.68,0,0,1,1059.91,539.5Z"/><path class="cls-30" d="M1053.35,527.83l-.23-.3c-18.15,15.71-47.92,26-66.55,28a38.18,38.18,0,0,1-5.74.1,7.62,7.62,0,0,0,2,.4c20.39-1.21,51.66-10.93,71.08-27.23A4.45,4.45,0,0,1,1053.35,527.83Z"/><path class="cls-30" d="M1045.23,517.63c-14,10.9-35.12,18-48.6,19.4a27.83,27.83,0,0,1-4.4.08,6,6,0,0,0,1.54.3c14.8-.87,37.06-7.58,52.06-18.88A5,5,0,0,1,1045.23,517.63Z"/><path class="cls-30" d="M1063.27,551c0-.12,0-.24,0-.36-23.47,22.26-58.69,37.6-76.43,37.27-.81,0-3.89.13-6.14-.1a17.5,17.5,0,0,0,2.14.47c18.74,1.78,55.39-13.21,80.4-35.68A5.08,5.08,0,0,1,1063.27,551Z"/><path class="cls-30" d="M978.8,587.29l1.82.47a7.42,7.42,0,0,1-1.85-.35C978.17,587.17,978.31,587.18,978.8,587.29Z"/><path class="cls-30" d="M914.62,527.1a18.94,18.94,0,0,0,3.23.34c16.41.3,49.24-8.71,50.14-27,0-.72,3.16-13.5,4.87-16.07s-3.26,15.55-3.36,16.33c-2.61,19.58-36.11,27.89-53.77,26.75A4.59,4.59,0,0,1,914.62,527.1Z"/><path class="cls-30" d="M1003.87,510.2c.08-1.65,4.1-15.54,6.33-17.91s-3.56,16.64-3.84,18.35c-6.86,43.1-64.09,70.85-105,64.83a15.45,15.45,0,0,1-2.63-.79c1.92.41,5.31.73,6.44.83C941.87,578.5,1001.85,551.66,1003.87,510.2Z"/><path class="cls-30" d="M998.94,484.55c3-4.54-5.74,27.53-5.93,28.91-4.63,34.65-63.88,49.34-95.16,47.32a7.21,7.21,0,0,1-2-.65,36.48,36.48,0,0,0,5.71.61c29,.53,87.13-15.41,88.74-47.73C990.41,511.72,995.92,489.11,998.94,484.55Z"/><path class="cls-30" d="M988.63,485.16c2.32-3.49-4.42,21.14-4.57,22.2C980.51,534,935,545.26,911,543.7a5.89,5.89,0,0,1-1.49-.49,25.67,25.67,0,0,0,4.37.46c22.31.41,66.92-11.83,68.15-36.66C982.06,506,986.29,488.66,988.63,485.16Z"/><path class="cls-30" d="M1013.44,503.59c2.68-4.73-4.16,22.84-4.55,24.53-10,42.46-86.49,71-115.06,64.66a18.76,18.76,0,0,1-2.07-.73,61.34,61.34,0,0,0,6.08.86c26.83,3.83,98.68-23.56,108.22-64.14C1006.45,527.15,1010.75,508.33,1013.44,503.59Z"/><path class="cls-30" d="M890,591.36l1.74.68a7.56,7.56,0,0,1-1.79-.57C889.36,591.16,889.5,591.19,890,591.36Z"/><rect class="cls-31" x="1021.57" y="486.98" width="17.28" height="25.34" transform="translate(48.38 -89.41) rotate(5.09)"/><path class="cls-31" d="M1030,450.17c4.61,33.4,8.29,35.82-15.78,50.65S862.61,507.48,873.31,460s29.93-70.19,82.52-68.46S1025.42,416.76,1030,450.17Z"/><path class="cls-32" d="M1033.19,472.87c-57.88,18-106.09,17.4-159.5-12.86a200.27,200.27,0,0,0-4,26.94,5.75,5.75,0,0,1,1,0c5.69.78,11.57,1.8,17.42,3.16a54.91,54.91,0,0,1,18.57,5.75c10.52,4.23,20.23,10.11,27.78,18.39a3.87,3.87,0,0,1,.63.92c4,2.92,8.07,5.26,10.46,9.41,27.89-.06,55.58-1.67,84.73,1.24C1032.94,507.77,1034.33,491,1033.19,472.87Z"/><path class="cls-33" d="M981.73,542.07c-21.37-1.91-38.44-14.88-55-27.44-6.93-5.27-13.47-10.24-20.3-14.43-20.46-12.56-53.81-4.46-54.15-4.38a9.08,9.08,0,0,1-11-6.89,9.45,9.45,0,0,1,6.74-11.34c1.66-.42,40.91-10,67.84,6.48,7.59,4.66,14.81,10.15,21.79,15.46,15.42,11.72,30,22.76,46.64,23.91,22.95,1.54,31.27-4.73,38.62-10.26l1.26-.95c7.26-5.41,14.51-15.24,14.91-18.9-2.88-4.3-10.23-9.23-14.36-11.4a9.5,9.5,0,0,1-3.92-12.63,9.06,9.06,0,0,1,12.3-4.1c1.6.84,15.81,8.49,21.93,18.84,9.48,16-11.92,37.22-20.17,43.37l-1.19.89c-8.89,6.69-21.07,15.85-50.66,13.87Z"/><path class="cls-31" d="M1025.16,475.34a4.27,4.27,0,0,1,1.76-.52,4,4,0,0,1,1.17-.39,5.62,5.62,0,0,1,.58-.19,4,4,0,0,1,1.43-.42l.1,0a27.38,27.38,0,0,1,3-.8c-.49-5.61-1.78-12.82-3.16-22.82-4.6-33.41-21.61-56.9-74.19-58.64s-71.79,20.94-82.5,68.38a3.66,3.66,0,0,1,.56-.1,11.61,11.61,0,0,1,8.51-5.58c8.36-1.26,14.86,5.82,18.69,12.56a38.07,38.07,0,0,1,14,2.39,29.32,29.32,0,0,1,3,1.42,23.85,23.85,0,0,1,11.34-1.05,24.47,24.47,0,0,1,2.66-3.82,5.09,5.09,0,0,1,5.49-1.33c4.27-3.2,9-6,12.83-3a4.69,4.69,0,0,1,1.08,6.37c-1,1.62-2,3.2-3.06,4.76a5.35,5.35,0,0,1,1,1.49l.7.23a14.39,14.39,0,0,1,8.25-6.48,11.29,11.29,0,0,1,2.13-3.36,8.37,8.37,0,0,1,3-2.1c.86-3.06,5.22-5.14,8-2a20.32,20.32,0,0,1,2.7,4,25.74,25.74,0,0,1,5.33,4.55,37.39,37.39,0,0,1,4.8,6.84c.58.78,1.13,1.57,1.65,2.35,1.1,1.66,2.16,3.43,3.14,5.25a4.92,4.92,0,0,1,1.72-.3c4.86,0,10.23-1.75,15-2.73,5-1,10-1.51,15-2.69a4.61,4.61,0,0,1,1.35-.13,5.39,5.39,0,0,1,1.6-1.26A4,4,0,0,1,1025.16,475.34Z"/><path class="cls-32" d="M987.28,513a3.88,3.88,0,0,1,.14,2,6.09,6.09,0,0,1,.09.88,4.1,4.1,0,0,1,1-.17l2.07-.09q2.76-.72,5.5-1.47a3.74,3.74,0,0,1,3.92.9,42.75,42.75,0,0,0,4.9-.8c4.94-1.13,8.43-3.6,12.18-6.86,5-4.38,9.88-9.11,15.88-11.83a208,208,0,0,0-.18-22.58c-17.89,5.58-34.85,9.36-51.33,11,.47,5.59,1.14,11.15,1.93,16.7C984.91,504.67,986,508.85,987.28,513Z"/><path class="cls-34" d="M1079.7,776.72c-20,9.57-45.28,21.53-66.72,25.44-7.35,1.34-9.33.89-11.36-3.09h0c-2-4,.42-7.39,6.17-11.79,16.77-12.81,43.23-22.51,63.71-30.3,7-2.67,11.83-.08,14.15,5.57h0C1088,768.21,1086.57,773.44,1079.7,776.72Z"/><path d="M1039.81,691.15c.72,2.18.51,5.21-2,6s-4.7-1.82-5.44-4.06-.5-5.47,2.14-6S1039.08,689,1039.81,691.15Z"/><rect class="cls-27" x="957" y="701" width="5" height="5" rx="2.5"/><rect class="cls-27" x="1035" y="684" width="5" height="5" rx="2.5"/><path class="cls-35" d="M1026.62,1057.37c0,.93-.26,3.15-1.24,3.11-10.41-.46-14.36,3.78-23.69-3.28-38.42-29.08-32.49-76.2-45-117-3-9.92-13.7-18.33,1.58-20.16a4.31,4.31,0,0,1,3.35.69,73.34,73.34,0,0,1,15.63,23.13c12.49,31.3,12.28,71.55,41.34,95.44C1025.68,1045.08,1026.56,1047.51,1026.62,1057.37Z"/><path class="cls-36" d="M982.65,896.05c-8,9.53-7.95-.08-6.59-11.73a18.23,18.23,0,0,1-8,3.28c-.13.06-.61.18-1.46.39-.59.19-1.17.4-1.76.6a37.71,37.71,0,0,1-4.22,1.6,38.48,38.48,0,0,1-7.19,1.34c-2,.45-4,.87-5.95,1.18h-.1A14.65,14.65,0,0,1,936,898c-3.44-.14-6.88-.26-10.32-.32,6.68,8,11.86,13.63,1.07,8.86-3.25,12.79,26,20.56,32.91,21.05C965.56,925.6,987.92,899.21,982.65,896.05Z"/><path class="cls-35" d="M982.54,894.06c-7.51,8.91-7.93,1.09-6.84-9.48a18.11,18.11,0,0,1-7.65,3c-.13.06-.61.18-1.46.39-.59.19-1.17.4-1.76.6a37.71,37.71,0,0,1-4.22,1.6,38.48,38.48,0,0,1-7.19,1.34c-2,.45-4,.87-5.95,1.18h-.1A14.65,14.65,0,0,1,936,898c-2.92-.11-5.84-.22-8.75-.29,5.76,6.9,9.24,11.2-.61,6.84-3.26,12.79,26,20.57,32.91,21.06C965.45,923.61,987.81,897.23,982.54,894.06Z"/><path class="cls-37" d="M942.19,951.82c-10.22-16.11-22-29.66-35.62-40.29-5.52-4.32-3.51-4.88-2.74-10.67A66,66,0,0,1,908,884c2.15-5,5.07-6,9.08-2.59,9.88,8.51,19.29,8.82,32.22,7.38,5.25-.59,4.49,3.33,4.81,11.49s-2.8,32.75-3.72,41.16S946.35,958.36,942.19,951.82Z"/><path class="cls-37" d="M990.55,941c.76-18,4-34.26,10-48.65,2.44-5.84.56-5.59-2.75-10.4a74.7,74.7,0,0,0-11.23-13.29c-4.07-3.61-6.89-3.43-8.52,1.1-4,11.14-11.45,14.9-22.54,18.43-4.5,1.44-2.07,4.6,1.46,11.9s17.47,27.75,22.12,34.81S990.25,948.31,990.55,941Z"/></g><g id="Keld"><path class="cls-38" d="M469.54,908c20.67,90.34-37.92,176.51-129,191.87s-157.71-34.59-175.37-122.39S194.86,810.3,283.72,790.89,448.87,817.66,469.54,908Z"/><path class="cls-39" d="M299.08,1026.86C253,972,237.3,921.1,234,858.16c-1.88-36.12,1.95-37.24,12-46.54,17.5-16.2,40.06-40.76,53.41-58.6,7.67-10.23,15-13,26.41-2.64,19.84,18.09,28.77,46.12,53.65,55.23,14.28,5.22,13.74,6.23,11.52,41-3.87,60.62-24.43,118.52-55.77,172.79C317.24,1050.55,325.55,1058.33,299.08,1026.86Z"/><ellipse class="cls-11" cx="314.07" cy="806.44" rx="40" ry="24"/><path class="cls-40" d="M314.1,839c-3,9.94-16.77,39.17-22.32,50-5.86,11.49-14.6,16.45-20.44,5.14-11.93-23.14-26.76-51.47-38.56-72.28-5.76-10.17-2.1-12.57,4.66-16.91,6.41-4.1,19.29-8.65,25.79-11.77,6.86-3.3,12.66-4.57,14.85,5,4.5,19.51,11.73,23.3,29.26,28.7C315.92,829.52,317.31,828.48,314.1,839Z"/><path class="cls-20" d="M343.22,886.26c-5.63-11.11-18.16-32.06-23.33-40.71-5.47-9.14-7.54-15.73,1.56-19.84,18.63-8.43,22.47-14,28.09-33.57,2.75-9.56,9.09-8.89,15.77-5.61,6.32,3.11,16.22,8,22.87,11.8,7,4,11.23,7,6.49,17.42-9.69,21.34-23.85,47-33.06,70.91C357.11,898.35,349.17,898,343.22,886.26Z"/><ellipse class="cls-41" cx="313.47" cy="793.88" rx="37.59" ry="9.57" transform="translate(-40.39 17.16) rotate(-2.95)"/><path class="cls-11" d="M431.16,691.32c-1.34,66.17-62,113.95-133.71,109.73S148,732.47,151.23,653.92,206,495.24,298.68,502,432.5,625.15,431.16,691.32Z"/><path class="cls-18" d="M322.66,676.55c5.77,8.23.77,17.05-10.24,21s-23.16,3.19-20.45-8.48.68-16.94,8.35-23.33S316.88,668.31,322.66,676.55Z"/><path class="cls-11" d="M320.22,675.31c4.87,7.6.52,15.9-9.4,19.47s-22,3-19.27-7.93,1-15.72,8.1-21.75S315.35,667.7,320.22,675.31Z"/><rect x="310.07" y="833.44" width="12" height="21" rx="4.23"/><path d="M259,836.83c-.11-1.47.89,12.35,0,0s8.43-26.16,19.16-20c8.36,4.78,15.68,8.48,21.67,11.94,7.7,4.45,15.53,3.85,15.31,14.27,1.24-.08,1.17-.12,0,0-.21,10.42-7,13.24-15.45,17.41-6.6,3.24-17.67,8.77-26.62,9.1C261.56,870,259.86,849.18,259,836.83Z"/><path d="M372,835.85c.1-1.48-.9,12.35,0,0s-8.44-26.17-19.16-20c-8.36,4.79-15.69,8.48-21.68,11.95-7.69,4.45-15.52,3.85-15.31,14.27-1.24-.08-1.17-.13,0,0,.21,10.41,7,13.24,15.45,17.4,6.6,3.25,17.67,8.78,26.62,9.11C369.41,869,371.11,848.2,372,835.85Z"/><path class="cls-24" d="M339.6,732.3c17.14,17,3.1,21.77-13.7,19.63s-43,15.5-53.4,4.44,8.36-22.12,21.61-27.62S322.47,715.32,339.6,732.3Z"/><path class="cls-25" d="M337,732.51c17.75,17,5.18,20.06-11.64,18.09s-41.46,14.72-51.66,5,8.11-21.45,20.5-26.22S319.29,715.54,337,732.51Z"/><path class="cls-26" d="M340.37,739.77c14.71,15.62-5.18,10-17,6.19s-40.31,17.13-49,10.59,8.49-17.76,18.7-24.54S325.66,724.14,340.37,739.77Z"/><path class="cls-42" d="M150.62,659.73c-3.17,16.25,27.84,70,1.49,49.23s-28.1-57.75-25.87-88.12,21.8-94.37,59.51-91.62S153.79,643.49,150.62,659.73Z"/><path class="cls-42" d="M207.62,596.53c-7.85,17.81-33.34,83.89-48.48,45.4s-13.27-68.28,6.9-100.68,55.88-47.48,82.92-25.08S215.48,578.72,207.62,596.53Z"/><path class="cls-19" d="M272.55,648.39c-.51,22.52-7.27,31.38-28.46,32.21s-32-14.53-28.33-38.73,8.32-26.92,28.69-26.78S273.06,625.87,272.55,648.39Z"/><path class="cls-20" d="M270.66,648.4c-.48,20.91-6.75,29.14-26.43,29.91s-29.72-13.49-26.3-35.95,7.73-25,26.64-24.87S271.13,627.5,270.66,648.4Z"/><path d="M272.39,618.55h0c.05-.23.11-.46.15-.68a7.07,7.07,0,0,1,.9-2.35,4.92,4.92,0,0,1,3-2.26c-4.9-4.61-17.59-7.9-32.47-7.9-17.85,0-32.54,4.73-34.42,10.82l.1-.08a3.76,3.76,0,0,1,5.22,1.47c-.33-.52,0,0,.21.2a2.67,2.67,0,0,0,.32.24,13.13,13.13,0,0,0,1.27.7l.46.2.84.35c.56.25,1.11.5,1.66.77a3.43,3.43,0,0,1,1.08.64l.15.14a2.76,2.76,0,0,1,.31.37,2.57,2.57,0,0,1,.22.32c.07.12.14.24.2.37l.11.24a4.91,4.91,0,0,1,.32,1.62,3.34,3.34,0,0,1,0,1.54,3.25,3.25,0,0,1-.42,1.46l0,0a88.45,88.45,0,0,0,44.35.11,1.79,1.79,0,0,1-.12-.24c-.26-.4-.51-.82-.77-1.22a5.17,5.17,0,0,1-.45-.79c-1.92-2.28-1-7,2.7-7a3.45,3.45,0,0,1,3.3,2.22l.07.08c.25.31.48.63.69,1A14.3,14.3,0,0,1,272.39,618.55Z"/><ellipse class="cls-11" cx="243.24" cy="615.76" rx="34.64" ry="12.14"/><ellipse class="cls-43" cx="244.84" cy="651.06" rx="14.45" ry="15.57"/><path d="M251.21,652.06c0,2.6-1.63,6.31-4.63,6.26s-4.57-3.71-4.56-6.39,1.65-6.23,4.66-6.21S251.21,649.46,251.21,652.06Z"/><path class="cls-19" d="M385.93,634c3.75,22.21-1.21,32.19-21.87,37s-34.18-8.23-35.13-32.69,3.09-28,23.12-31.71S382.18,611.74,385.93,634Z"/><path class="cls-20" d="M384.07,634.32c3.48,20.62-1.12,29.89-20.3,34.36S332,661,331.15,638.33s2.87-26,21.47-29.44S380.59,613.7,384.07,634.32Z"/><path d="M379.63,606.68a10.89,10.89,0,0,1,1.25-2.71c-.1-.25-.2-.5-.28-.76a4.81,4.81,0,0,1,1.56-5c-6.11-3.14-18.57-3.75-32.42-1.09-17.53,3.37-31.07,10.79-31.76,17.12,0,0,0-.07.09-.09a3.75,3.75,0,0,1,5.4.46c-.43-.45,0-.05.24.15l.36.18a13,13,0,0,0,1.38.44l.49.11.89.19c.59.13,1.19.28,1.78.44a3.22,3.22,0,0,1,1.18.43l.17.1c.13.09.26.2.38.3l.27.28a2.16,2.16,0,0,1,.27.33l.15.21a4.88,4.88,0,0,1,.62,1.53,3.29,3.29,0,0,1,.34,1.5,3.14,3.14,0,0,1-.14,1.52,0,0,0,0,1,0,0,88.47,88.47,0,0,0,43.57-8.26c-.06-.06-.1-.14-.16-.21-.33-.35-.65-.72-1-1.06a4.88,4.88,0,0,1-.59-.69c-2.31-1.88-2.32-6.67,1.33-7.37a3.43,3.43,0,0,1,3.66,1.56l.09.06a9.22,9.22,0,0,1,.79.74C379.57,606.94,379.59,606.81,379.63,606.68Z"/><ellipse class="cls-11" cx="350.99" cy="607.44" rx="34.64" ry="12.14" transform="translate(-108.35 77.18) rotate(-10.88)"/><ellipse class="cls-44" cx="359.23" cy="641.81" rx="14.45" ry="15.57" transform="translate(-114.69 79.35) rotate(-10.88)"/><path d="M363.37,641.33c.28,2.56-.64,6.4-3.66,6.7s-5-2.89-5.34-5.64.78-6.11,3.78-6.61S363.1,638.77,363.37,641.33Z"/><path d="M209.3,628.77l.78-1a1.22,1.22,0,0,1,.17-.15,1.38,1.38,0,0,0-.75-.17c-17.16.88-46.62,19.1-47.87,19.88a1.54,1.54,0,0,0-.5,2.09,1.48,1.48,0,0,0,2.05.51c.29-.18,28.91-17.88,45.49-19.36A4.86,4.86,0,0,1,209.3,628.77Z"/><path d="M241.57,685.63c-7.47,0-16.68-1.71-24.33-8.32-12.87-11.12-16.21-31.51-8.13-49.58l.07-.15.14-.08a78.35,78.35,0,0,1,34.22-10.06c11.52-.63,28.93-1.57,38,10.15,9.17,11.89,3.7,28.34,2.51,31.52-7.15,19.11-27.38,24.44-31.36,25.31A52.49,52.49,0,0,1,241.57,685.63ZM210,628.29c-7.82,17.63-4.57,37.46,7.93,48.27,12.06,10.42,28.19,8.29,34.57,6.89,3.89-.86,23.67-6.06,30.64-24.69,1.15-3.09,6.47-19.09-2.37-30.55s-25.15-10.43-37.14-9.78A77.46,77.46,0,0,0,210,628.29Z"/><path d="M356.13,676.59c-4.07-.23-24.88-2.32-34.95-20.07-1.67-2.95-9.66-18.35-2.47-31.52,7.1-13,24.44-14.81,35.92-16A78.43,78.43,0,0,1,390,613.57l.16,0,.09.14C401.06,630.34,401,651,390,664c-6.52,7.73-15.35,10.86-22.73,12A52.45,52.45,0,0,1,356.13,676.59ZM354.73,610c-11.94,1.23-28.3,2.93-35.14,15.48-6.94,12.71.83,27.68,2.46,30.55,9.81,17.3,30.16,19.33,34.14,19.57,6.51.37,22.78-.05,33.05-12.24,10.65-12.63,10.75-32.72.26-48.91A77.32,77.32,0,0,0,354.73,610Z"/><path d="M418.81,614.81c-11.44-3.71-28.19-1.45-28.89-1.35a.94.94,0,0,0-.72.52l.31.16a5.23,5.23,0,0,1,1.37,1.21c3.28-.38,17.58-1.79,27.33,1.36a1,1,0,0,0,.3,0,1,1,0,0,0,.94-.7A1,1,0,0,0,418.81,614.81Z"/><path d="M317.7,628.94l-.1-.1c-14.36-9-32.83,2.58-33.61,3.08a1,1,0,0,0-.29,1.38,1.06,1.06,0,0,0,.87.43,1.1,1.1,0,0,0,.58-.16c.18-.12,18.09-11.34,31.3-3.07a1.13,1.13,0,0,0,.82.13A4.9,4.9,0,0,1,317.7,628.94Z"/><path class="cls-11" d="M164.46,681.18c8,14.54-17.46,12.26-24.44,4.05s-9-24.94-.06-34.56,19.76-15,22.45-3S156.46,666.65,164.46,681.18Z"/><path class="cls-17" d="M163.77,680.39c7.28,13.24-15.91,11.16-22.27,3.68s-8.18-22.72-.05-31.48,18-13.7,20.45-2.76S156.48,667.14,163.77,680.39Z"/><path class="cls-11" d="M162.37,679.47c6.68,12.15-14.6,10.24-20.43,3.38S134.43,662,141.89,654s16.51-12.57,18.77-2.53S155.68,667.32,162.37,679.47Z"/><path class="cls-17" d="M159.64,679.15c4.77,10.84-13.18,7.61-17.63,1.33s-4.81-18.29,2.14-24.56,15-9.44,16.15-.74S154.87,668.31,159.64,679.15Z"/><path class="cls-11" d="M157.84,677.9c3.86,8.78-10.68,6.17-14.28,1.08s-3.9-14.82,1.73-19.9,12.15-7.65,13.09-.6S154,669.12,157.84,677.9Z"/><path class="cls-42" d="M337.83,488.1c19.38,4.19,85.14,58.71,70.95,80.46s-70.68-13-89.36-17.39S233.79,542.7,234.88,514,318.46,483.91,337.83,488.1Z"/><path class="cls-42" d="M268.1,607.83c.33,6.58-23.82,6.83-28,7.87s-27.57,6.12-28.39-.48,23-11.7,27.66-12.79S267.77,601.25,268.1,607.83Z"/><path class="cls-42" d="M381.93,602.11c-.57,6.56-24.53,3.55-28.78,4s-28.14,2.34-28.06-4.32,24.36-8.48,29.13-8.93S382.49,595.54,381.93,602.11Z"/><path class="cls-45" d="M369.71,527.62c-8.2,42.58-52.68,66.32-85.95,72.26s-100.83,15.66-127.71-37.34,59.59-102.32,112.41-110.72S377.91,485.05,369.71,527.62Z"/><path class="cls-46" d="M394.55,502.08c-15.8,41-65.36,25.25-115.37,43.38S80.47,691.49,103.69,571,236.3,442.77,283.77,441.75,410.35,461.07,394.55,502.08Z"/><path class="cls-45" d="M393.5,500.87c-15.8,41-65.35,25.25-115.36,43.38s-198.72,146-175.5,25.5S235.25,441.56,282.73,440.54,409.3,459.87,393.5,500.87Z"/><ellipse class="cls-47" cx="204.07" cy="453.94" rx="8" ry="4.5" transform="translate(-114.02 71.15) rotate(-15.52)"/><rect class="cls-27" x="247" y="644" width="5" height="5" rx="2.5"/><rect class="cls-27" x="360" y="633" width="5" height="5" rx="2.5"/></g><g id="Overskrift"><path class="cls-48" d="M820.57,103.66,802.89,157.2l19.37,65H790.4l-12.49-50.83v50.83H747.08V103.66h30.83v46.07l13.73-46.07Z"/><path class="cls-48" d="M897.66,103.66v79.25q0,13.47-.88,18.93a25.63,25.63,0,0,1-5.2,11.21,26.89,26.89,0,0,1-11.39,8.71,42.78,42.78,0,0,1-16.66,3,46.94,46.94,0,0,1-18.75-3.51q-8.13-3.53-12.16-9.16a25.45,25.45,0,0,1-4.76-11.9q-.74-6.27-.73-26.33V103.66H858v88.92c0,5.17.29,8.48.85,9.92a3.29,3.29,0,0,0,3.4,2.16c2,0,3.21-.79,3.77-2.38s.85-5.33.85-11.24V103.66Z"/><path class="cls-48" d="M909.6,103.66h31.06q12.58,0,19.37,2t10.18,5.71a19.58,19.58,0,0,1,4.61,9.05q1.21,5.31,1.21,16.44v10.33q0,11.36-2.34,16.55c-1.57,3.47-4.43,6.13-8.61,8s-9.63,2.79-16.37,2.79h-8.27v47.75H909.6ZM940.44,124v30.18c.87,0,1.63.07,2.27.07q4.24,0,5.89-2.09t1.65-8.68v-9.74c0-4.05-.64-6.69-1.9-7.91S944.44,124,940.44,124Z"/><path class="cls-48" d="M984.89,103.66H1016q12.6,0,19.37,2t10.18,5.71a19.68,19.68,0,0,1,4.62,9.05q1.2,5.31,1.2,16.44v10.33q0,11.36-2.34,16.55t-8.6,8q-6.27,2.79-16.38,2.79h-8.27v47.75H984.89ZM1015.73,124v30.18c.88,0,1.63.07,2.27.07,2.83,0,4.8-.7,5.89-2.09s1.65-4.28,1.65-8.68v-9.74q0-6.08-1.9-7.91T1015.73,124Z"/><path class="cls-48" d="M1060.19,103.66h51.41v23.73H1091v22.49h19.26v22.56H1091v26.07h22.63v23.73h-53.46Z"/><path class="cls-48" d="M1182.65,103.66v23.73h-18.31v94.85H1133.5V127.39h-18.24V103.66Z"/><path class="cls-48" d="M1286.58,173.1q0,17.86-.84,25.3a28.37,28.37,0,0,1-17.25,23,43.73,43.73,0,0,1-17.58,3.29,44.73,44.73,0,0,1-17.1-3.11,28.49,28.49,0,0,1-17.69-22.89q-.88-7.32-.88-25.63V152.81q0-17.88.84-25.31a28.38,28.38,0,0,1,17.25-23,43.56,43.56,0,0,1,17.58-3.3,44.73,44.73,0,0,1,17.1,3.11,28.49,28.49,0,0,1,17.69,22.89q.88,7.33.88,25.64Zm-30.84-39q0-8.28-.91-10.58a3.65,3.65,0,0,0-3.77-2.31,4.19,4.19,0,0,0-3.7,1.87q-1.29,1.86-1.28,11V189.5c0,6.89.28,11.13.84,12.75s1.87,2.41,3.92,2.41a3.78,3.78,0,0,0,4-2.78c.59-1.86.88-6.27.88-13.26Z"/><path class="cls-48" d="M1371.39,103.66,1355.7,222.24h-46.84l-17.81-118.58h32.52q5.65,49,8.09,82.91,2.38-34.27,5.07-60.86l2.14-22Z"/><path class="cls-48" d="M1376.59,103.66H1428v23.73h-20.58v22.49h19.26v22.56h-19.26v26.07h22.63v23.73h-53.47Z"/><path class="cls-48" d="M1438.92,103.66h21.83q21.82,0,29.55,1.69a20.35,20.35,0,0,1,12.6,8.6q4.88,6.93,4.87,22.08,0,13.85-3.44,18.61t-13.55,5.71q9.15,2.28,12.3,6.08a18.14,18.14,0,0,1,3.92,7q.76,3.2.77,17.55v31.27h-28.64v-39.4q0-9.53-1.5-11.8c-1-1.51-3.63-2.27-7.87-2.27v53.47h-30.84ZM1469.76,124v26.37q5.19,0,7.28-1.43c1.4-.95,2.09-4,2.09-9.27V133.1c0-3.75-.67-6.22-2-7.39S1473.32,124,1469.76,124Z"/><path class="cls-48" d="M1273.2,265.32l17.63,118.58h-31.51l-1.65-21.31h-11l-1.86,21.31H1212.9l15.73-118.58Zm-16.34,76.25q-2.34-20.15-4.7-49.81-4.71,34.07-5.92,49.81Z"/><path class="cls-48" d="M1326.91,265.32v94.85h18.75V383.9h-49.59V265.32Z"/><path class="cls-48" d="M1384,265.32v94.85h18.75V383.9h-49.58V265.32Z"/><path class="cls-48" d="M1410.18,265.32h51.42v23.73H1441v22.49h19.26V334.1H1441v26.07h22.63V383.9h-53.47Z"/><path class="cls-48" d="M1572.45,265.32l-17.69,53.54,19.37,65h-31.86l-12.48-50.83V383.9H1499V265.32h30.84v46.07l13.73-46.07Z"/><path class="cls-48" d="M1649.54,265.32v79.25q0,13.49-.88,18.93a25.74,25.74,0,0,1-5.2,11.21,27,27,0,0,1-11.39,8.72,43,43,0,0,1-16.66,3,46.94,46.94,0,0,1-18.75-3.51q-8.13-3.53-12.16-9.16a25.34,25.34,0,0,1-4.76-11.9q-.73-6.27-.73-26.33V265.32h30.83v88.92q0,7.75.84,9.92a3.31,3.31,0,0,0,3.41,2.16q2.92,0,3.77-2.38t.84-11.24V265.32Z"/><path class="cls-48" d="M1661.48,265.32h31q12.6,0,19.37,2t10.18,5.71a19.59,19.59,0,0,1,4.62,9.05q1.2,5.31,1.21,16.44v10.33q0,11.35-2.35,16.55t-8.6,8q-6.27,2.79-16.37,2.79h-8.28V383.9h-30.83Zm30.83,20.29v30.18c.88,0,1.64.07,2.27.07q4.25,0,5.9-2.09t1.65-8.68v-9.74q0-6.08-1.91-7.91T1692.31,285.61Z"/></g><g id="Stakit"><path class="cls-49" d="M70.82,808c-1-34-17-33.57-43.24-35.17-.88,0-2.37-.79-3.23-.82C14,771.54,5.74,771.58-.5,774a2.09,2.09,0,0,1,0,.36c-.08,7.59-1,15.14-1.09,22.73a2.83,2.83,0,0,1-2.75,2.87c-.49,10.16-1.07,20.32-1.32,30.49-.45,18-1.43,36.09-2.14,54.12-.69,17.67-1.38,35.17-.46,52.84.78,15,1.28,29.61.2,44.38a23.42,23.42,0,0,1,3.44,12.14c-.08,8.75-1.57,17.52-2.88,26.14-.62,4.08-1.29,8.15-1.91,12.22-.25,1.65-.49,3.29-.73,4.94-.08.69-.17,1.37-.25,2.06A181.31,181.31,0,0,0-11,1063c0,.29.1.58.16.87.31,1.39.73,2.74,1.14,4.1.12.2.21.35.23.4.2.33.42.66.64,1a24.72,24.72,0,0,1,5.77,20.35,232.32,232.32,0,0,1,42.54,5.1,24.05,24.05,0,0,1,13.19-4.13c7.08,0,14.16-.1,21.24-.23C75,996.41,73.68,902.24,70.82,808Z"/><path class="cls-50" d="M80,814.07c-.75-33.81-15.85-37.21-42.5-38.54-.9,0-2.89,1.36-3.68,1.54-16.37,3.64-29,2-35.08,12.25-.16,2.57-.29,5.15-.31,7.73a2.83,2.83,0,0,1-2.75,2.87c-.32,6.64-.67,13.27-1,19.91.39,87.21,2.43,173.5,1.75,259.75a23.9,23.9,0,0,1,.41,10.13,233,233,0,0,1,42.52,5.11,24,24,0,0,1,13.21-4.14c10,0,20.08-.19,30.12-.41C83.55,998.09,82.06,905.83,80,814.07Z"/><path class="cls-49" d="M92.46,1090c19.87-.47,39.74-1,59.61-.55,9.19.19,18.37.53,27.55,1,.88-90.62-.42-181.37-3.16-272.19-1-34-17-33.57-43.25-35.17-.88-.06-2.37-.79-3.23-.83-25.63-1.09-38.79.66-38.94,34.38C90.63,907.4,93,998.79,92.46,1090Z"/><path class="cls-50" d="M102.12,1089.82c16.65-.38,33.3-.67,49.95-.33,12.13.25,24.25.76,36.36,1.38.63-88.95-.81-178-2.78-266.52-.75-33.81-15.85-37.21-42.5-38.54-.89,0-2.89,1.36-3.68,1.53-23.49,5.23-39.24-.5-39.13,33.83C100.63,911.41,102.83,1000.64,102.12,1089.82Z"/><path class="cls-49" d="M201.48,1091.58c16.46,1,32.91,2,49.38,2.88,12.61.66,25.22.9,37.84,1.17.72-87.69-.58-175.49-3.24-263.37-1-34-17-33.57-43.25-35.17-.88-.06-2.37-.79-3.23-.83-25.63-1.09-38.79.66-38.94,34.38C199.65,917.27,201.73,1004.47,201.48,1091.58Z"/><path class="cls-50" d="M211.15,1092.15c13.24.79,26.47,1.62,39.71,2.31,15.54.81,31.09,1,46.63,1.38.46-85.95-.93-171.93-2.84-257.49-.75-33.81-15.85-37.21-42.5-38.54-.89,0-2.89,1.36-3.68,1.53-23.49,5.23-39.24-.5-39.13,33.83C209.61,921.47,211.61,1006.86,211.15,1092.15Z"/><path class="cls-49" d="M399.28,1094.84c.35-80.39-.9-160.88-3.34-241.42-1-34-17-33.58-43.25-35.17-.88-.06-2.36-.79-3.22-.83-25.63-1.09-38.79.66-38.94,34.38C310.16,933,312,1014.66,312,1096.29c8.79.35,17.58.85,26.36,1.66,17.88,1.65,35.7,4.08,53.56,6A24.67,24.67,0,0,1,399.28,1094.84Z"/><path class="cls-50" d="M408,1090.45c.08-77.1-1.19-154.19-2.9-230.94-.75-33.81-15.85-37.21-42.5-38.54-.9-.05-2.89,1.36-3.68,1.53-23.49,5.22-39.24-.5-39.13,33.83.25,80.72,2,160.63,1.88,240.41,5.55.31,11.1.69,16.64,1.21,17.88,1.65,35.7,4.08,53.56,6A25.35,25.35,0,0,1,408,1090.45Z"/><path class="cls-49" d="M514.8,1084.36q0-106.24-3.42-212.66c-1-34-17-33.57-43.24-35.17-.89-.06-2.37-.79-3.23-.83-25.63-1.09-38.79.66-38.94,34.38-.34,72.87,1.06,146.14,1.38,219.43C456.56,1089,485.73,1087.2,514.8,1084.36Z"/><path class="cls-50" d="M523.47,1083.48c-.19-68.68-1.37-137.32-2.89-205.69-.75-33.81-15.85-37.21-42.5-38.54-.9,0-2.89,1.36-3.68,1.53-23.49,5.23-39.24-.5-39.13,33.83.23,72,1.64,143.44,1.85,214.69C466,1088.54,494.77,1086.48,523.47,1083.48Z"/><path class="cls-49" d="M617,882c-1-34-17-33.58-43.25-35.18-.88,0-2.37-.78-3.23-.82-25.63-1.09-38.79.66-38.94,34.38-.31,67.13.87,134.6,1.32,202.1q13.43-1.5,26.82-3.24c13.34-1.73,23.48,12.38,24,24,0,.13,0,.25,0,.38q9.45-.49,18.89-.95,8.91-.44,17.81-.75C620.5,1028.66,619.23,955.34,617,882Z"/><path class="cls-50" d="M626.21,888.07c-.75-33.81-15.85-37.21-42.5-38.54-.9,0-2.89,1.36-3.68,1.53-23.49,5.22-39.24-.5-39.13,33.83.21,65.9,1.43,131.25,1.81,196.44q8.52-1,17-2.11c13.34-1.73,23.48,12.38,24,24,0,.13,0,.25,0,.38l18.89-.95q13.26-.64,26.51-1.05C629,1030.3,627.79,959,626.21,888.07Z"/><path class="cls-49" d="M729.46,1098.67Q729.22,997.41,726,896c-1-34-17-33.58-43.25-35.18-.88,0-2.37-.78-3.23-.82-25.63-1.09-38.79.66-38.94,34.38-.31,68.7.94,137.77,1.37,206.86C671.14,1100.43,700.32,1100,729.46,1098.67Z"/><path class="cls-50" d="M738.1,1098.23c-.27-65.5-1.44-131-2.89-196.16-.75-33.81-15.85-37.21-42.5-38.54-.9,0-2.89,1.36-3.68,1.53-23.49,5.22-39.24-.5-39.13,33.83.22,67.79,1.51,135,1.84,202.08C680.54,1100.26,709.34,1099.77,738.1,1098.23Z"/><path class="cls-49" d="M776.84,1095.39c14.09-1.36,28.11-3.22,42.18-4.71,6.89-.74,13.83-1.21,20.77-1.52q-.6-86-3.29-172c-1-34-17-33.58-43.25-35.18-.88-.05-2.36-.78-3.23-.82-25.63-1.1-38.78.66-38.94,34.38-.27,60.41.67,121.11,1.2,181.86C760.47,1096.82,768.66,1096.18,776.84,1095.39Z"/><path class="cls-50" d="M776.84,1095.39c14.09-1.36,28.11-3.22,42.18-4.71,9.74-1,19.56-1.56,29.38-1.83-.46-55.3-1.48-110.55-2.7-165.62-.75-33.81-15.86-37.21-42.5-38.54-.9-.05-2.89,1.35-3.68,1.53-23.49,5.22-39.24-.51-39.13,33.83.18,59.21,1.2,118,1.68,176.61Q769.46,1096.09,776.84,1095.39Z"/><path class="cls-49" d="M953.35,1090.68c.76,0,1.52.07,2.26.15q-.69-81.51-3.23-163.13c-1-34-17-33.57-43.24-35.17-.89-.06-2.37-.79-3.23-.83-25.63-1.09-38.79.66-38.94,34.38-.25,54,.48,108.23,1,162.51C896.45,1088.52,924.89,1090,953.35,1090.68Z"/><path class="cls-50" d="M953.35,1090.68a24.61,24.61,0,0,1,10.88,2.76c-.48-53.31-1.47-106.56-2.65-159.65-.75-33.81-15.85-37.21-42.5-38.54-.9,0-2.89,1.36-3.68,1.53-23.49,5.23-39.24-.5-39.13,33.83.17,52.95,1,105.56,1.51,158C903,1088.85,928.16,1090.07,953.35,1090.68Z"/><path class="cls-49" d="M999,1099.87a20.51,20.51,0,0,1,11.63-2.95c3.92.22,7.81.59,11.69,1.07a23.88,23.88,0,0,1,13.3-4.19c8.55,0,17.07.43,25.59,1q-.73-78.37-3.18-156.83c-1-34-17-33.58-43.25-35.18-.88,0-2.37-.78-3.23-.82-25.63-1.09-38.79.66-38.94,34.38-.24,52.56.44,105.33,1,158.17a65.57,65.57,0,0,1,7.4.35c6.29.66,12.21,1.45,17.75,4.81Z"/><path class="cls-50" d="M999,1099.87a20.51,20.51,0,0,1,11.63-2.95c3.92.22,7.81.59,11.69,1.07a23.88,23.88,0,0,1,13.3-4.19c11.42,0,22.81.74,34.18,1.65-.51-50.55-1.46-101-2.58-151.38-.75-33.81-15.85-37.21-42.5-38.54-.9,0-2.89,1.36-3.68,1.53-23.49,5.22-39.24-.5-39.13,33.83.16,51.69,1,103.05,1.48,154.25,5.4.65,10.51,1.62,15.34,4.55Z"/><path class="cls-49" d="M1121.19,1099.57c16.26.83,32.59.85,48.91.7q-.78-74.1-3.08-148.29c-1-34-17-33.58-43.25-35.18-.88,0-2.37-.78-3.23-.82-25.63-1.09-38.79.66-38.94,34.38-.22,48.58.35,97.35.85,146.17C1095.35,1097.68,1108.25,1098.91,1121.19,1099.57Z"/><path class="cls-50" d="M1121.19,1099.57c19.11,1,38.33.84,57.5.62-.52-47.46-1.43-94.85-2.48-142.12-.75-33.81-15.85-37.21-42.5-38.54-.9,0-2.89,1.36-3.68,1.53-23.49,5.22-39.24-.5-39.13,33.83.15,47.74.84,95.2,1.36,142.52C1101.89,1098.27,1111.53,1099.07,1121.19,1099.57Z"/><path class="cls-49" d="M1196,1100c25.49-.25,51-.67,76.47-.82l7.9,0q-.87-63-2.82-126c-1-34-17-33.58-43.25-35.18-.88-.05-2.36-.78-3.23-.82-25.63-1.1-38.78.66-38.94,34.38-.19,42.72.23,85.58.68,128.5Z"/><path class="cls-50" d="M1272.42,1099.17q8.25,0,16.49,0-.81-60-2.21-119.9c-.75-33.81-15.86-37.21-42.5-38.54-.9-.05-2.89,1.35-3.68,1.53-23.49,5.22-39.24-.51-39.13,33.83.13,41.47.67,82.73,1.14,123.87C1225.83,1099.67,1249.12,1099.3,1272.42,1099.17Z"/><path class="cls-49" d="M1392.7,985.84c-1-34-17-33.57-43.25-35.17-.88-.06-2.36-.79-3.23-.83-25.63-1.09-38.78.66-38.94,34.38-.17,38.24.15,76.6.54,115,29.22.28,58.43,1.22,87.56,3.48Q1394.48,1044.29,1392.7,985.84Z"/><path class="cls-50" d="M1401.9,991.93c-.75-33.81-15.86-37.21-42.51-38.54-.89,0-2.88,1.36-3.67,1.53-23.49,5.22-39.24-.5-39.14,33.83.12,37,.57,73.85,1,110.59,28.84.42,57.67,1.57,86.41,4.06Q1403.18,1047.59,1401.9,991.93Z"/><path class="cls-49" d="M1505,1095.29l.39,0q-.84-44.14-2.19-88.32c-1-34-17-33.58-43.24-35.17-.88-.06-2.37-.79-3.23-.83-25.63-1.09-38.79.66-38.94,34.38-.15,31.61,0,63.3.34,95A343.73,343.73,0,0,1,1505,1095.29Z"/><path class="cls-50" d="M1512.38,1013.09c-.75-33.81-15.85-37.21-42.5-38.54-.9,0-2.89,1.36-3.68,1.53-23.49,5.22-39.24-.5-39.13,33.83.09,29.7.4,59.28.74,88.8a346.5,346.5,0,0,1,77.17-3.42q4.53.3,9,.68Q1513.32,1054.48,1512.38,1013.09Z"/><path class="cls-49" d="M1415.54,1100.9l2.34-.44c-5.87-12.76-28.83-21.88-95.35-30.62C912,1015.94,496.13,968.12,86.12,906.49c-45.5-6.84-74-7.8-94.5-4.63-.34,11.82-.46,23.63.16,35.51.68,13,1.15,25.79.55,38.61,17.77,6.36,42,11.9,76.06,16.79q367.52,52.77,737,99.45c4.55-.53,9.11-1.06,13.67-1.54,15.06-1.61,30.31-2,45.43-2.09,29.65-.21,59.27,1.38,88.9,2.09a24.39,24.39,0,0,1,13.14,4.1,85.4,85.4,0,0,1,14.48.1c6.29.66,12.21,1.45,17.75,4.81l.27.18a20.51,20.51,0,0,1,11.63-2.95c3.92.22,7.81.59,11.69,1.07a23.88,23.88,0,0,1,13.3-4.19c28.64.1,57,4.31,85.58,5.77,24.85,1.27,49.88.66,74.76.42,25.49-.25,51-.67,76.47-.82,45.49-.25,91,.5,136.33,4.68A18.62,18.62,0,0,1,1415.54,1100.9Z"/><path class="cls-50" d="M1414.07,1101.29c-9.3-8.24-29.65-14.89-80.39-21.42C912.62,1025.71,498.43,977.41,82.25,914c-42.39-6.46-70.42-7.82-90.79-5.47-.2,9.61-.18,19.21.32,28.87.78,15,1.26,29.59.18,44.34a25.43,25.43,0,0,1,1.89,3.85c17.47,5.58,40.54,10.52,71.75,15q351.82,50.65,706,95.28c1.75-.16,3.5-.3,5.25-.47,14.09-1.36,28.11-3.22,42.18-4.71,15.06-1.61,30.31-2,45.43-2.09,29.65-.21,59.27,1.38,88.9,2.09a24.39,24.39,0,0,1,13.14,4.1,85.4,85.4,0,0,1,14.48.1c6.29.66,12.21,1.45,17.75,4.81l.27.18a20.51,20.51,0,0,1,11.63-2.95c3.92.22,7.81.59,11.69,1.07a23.88,23.88,0,0,1,13.3-4.19c28.64.1,57,4.31,85.58,5.77,24.85,1.27,49.88.66,74.76.42,25.49-.25,51-.67,76.47-.82,45.49-.25,91,.5,136.33,4.67A19.28,19.28,0,0,1,1414.07,1101.29Z"/><path class="cls-49" d="M1584.19,1105c11.65,1.76,23.32,3.41,35,5q-.84-44.61-2.2-89.25c-1-34-17-33.57-43.25-35.17-.88-.05-2.37-.79-3.23-.82-25.63-1.1-38.79.65-38.94,34.37-.12,26.16,0,52.37.2,78.61C1549.29,1099.71,1566.76,1102.33,1584.19,1105Z"/><path class="cls-50" d="M1584.19,1105c14.53,2.2,29.09,4.22,43.65,6.22q-.72-42.23-1.66-84.35c-.76-33.81-15.86-37.21-42.51-38.54-.89,0-2.88,1.36-3.67,1.54-23.5,5.22-39.25-.51-39.14,33.83q.12,37.71.59,75.22C1555.73,1100.68,1570,1102.82,1584.19,1105Z"/><path class="cls-49" d="M1714.44,1105.36q9.8-.22,19.59-.35-.77-35.77-1.85-71.57c-1-34-17-33.57-43.25-35.17-.88,0-2.37-.78-3.23-.82-25.63-1.1-38.79.65-38.94,34.38-.12,25.68,0,51.41.19,77.18C1669.39,1106.86,1691.91,1105.87,1714.44,1105.36Z"/><path class="cls-50" d="M1714.44,1105.36c9.41-.22,18.83-.35,28.25-.46q-.6-32.72-1.32-65.36c-.75-33.81-15.85-37.21-42.5-38.55-.89,0-2.89,1.36-3.68,1.54-23.49,5.22-39.24-.51-39.13,33.83q.12,36,.55,71.8C1675.85,1106.59,1695.14,1105.8,1714.44,1105.36Z"/><path class="cls-49" d="M1778,1104.51c21.36-.29,42.68,1.1,64,.8l2-.06q-.61-25.32-1.38-50.65c-1-34-17-33.57-43.25-35.17-.88,0-2.36-.79-3.22-.82-25.63-1.1-38.79.65-39,34.38q-.1,25.85,0,51.75Q1767.66,1104.64,1778,1104.51Z"/><path class="cls-50" d="M1778,1104.51c21.36-.29,42.68,1.1,64,.8,3.6,0,7.16-.27,10.73-.53q-.43-22.07-.93-44.08c-.75-33.81-15.86-37.22-42.5-38.55-.9,0-2.89,1.36-3.68,1.54-23.49,5.22-39.24-.51-39.13,33.83q.08,23.6.3,47.11Z"/><path class="cls-49" d="M1899.28,1095.56c14.72-4,29.25-8.61,43.82-13.08-7.52-15.73-12.93-32.21-18.47-48.89a20.67,20.67,0,0,1-.73-9.51c-2.94-.21-6.06-.38-9.33-.58-.88,0-2.36-.79-3.23-.82-25.63-1.1-38.78.65-38.94,34.38q-.09,22.38,0,44.81C1881.44,1100.1,1890.4,1098,1899.28,1095.56Z"/><path class="cls-50" d="M1899.28,1095.56c14.72-4,29.25-8.61,43.82-13.08-7.52-15.73-12.93-32.21-18.47-48.89a19.82,19.82,0,0,1-.94-7.18c-1,.39-2.26,1.21-2.85,1.35-23.49,5.22-39.24-.51-39.14,33.83q.06,19.17.24,38.28Q1890.66,1097.89,1899.28,1095.56Z"/></g></svg>