<svg xmlns="http://www.w3.org/2000/svg" width="580" height="240" viewBox="0 0 580 240"><defs><style>.cls-1{fill:red;}.cls-2{fill:#f2f2f2;}</style></defs><g id="Overskrift"><rect class="cls-1" x="4.5" y="0.5" width="571" height="239" rx="52.6"/><path class="cls-2" d="M180.74,93H152.1V84.19c0-4.1-.36-6.71-1.1-7.83a4,4,0,0,0-3.66-1.69,4.66,4.66,0,0,0-4.21,2.27q-1.42,2.28-1.43,6.89,0,5.94,1.61,9T152,100q20.6,12.21,25.94,20t5.34,25.27q0,12.68-3,18.68T168.87,174.1a45.3,45.3,0,0,1-19.77,4.06q-12.37,0-21.13-4.68t-11.46-11.94q-2.72-7.26-2.71-20.58v-7.77h28.63v14.43c0,4.44.41,7.3,1.21,8.57s2.24,1.9,4.29,1.9a5,5,0,0,0,4.57-2.41c1-1.61,1.51-4,1.51-7.18q0-10.47-2.86-13.7T136.72,124q-11.5-7.62-15.23-11.06a25.87,25.87,0,0,1-6.19-9.52q-2.46-6.09-2.46-15.53,0-13.62,3.48-19.92t11.25-9.85q7.76-3.55,18.75-3.56,12,0,20.47,3.89T178,68.26q2.74,5.89,2.75,20Z"/><path class="cls-2" d="M255.08,57.09V80.82H236.77v94.85H205.93V80.82H187.7V57.09Z"/><path class="cls-2" d="M309.41,57.09,327,175.67H295.53l-1.66-21.31h-11L281,175.67H249.11L264.84,57.09Zm-16.34,76.25q-2.35-20.15-4.7-49.81-4.71,34.07-5.92,49.81Z"/><path class="cls-2" d="M332.28,57.09H354.1q21.82,0,29.56,1.69a20.31,20.31,0,0,1,12.59,8.6q4.88,6.93,4.87,22.09,0,13.85-3.44,18.6t-13.55,5.71q9.17,2.28,12.31,6.08a18.23,18.23,0,0,1,3.92,7q.76,3.18.76,17.54v31.27H372.49v-39.4q0-9.53-1.5-11.79c-1-1.52-3.63-2.27-7.88-2.27v53.46H332.28Zm30.83,20.29v26.37q5.2,0,7.29-1.43t2.09-9.26V86.54q0-5.64-2-7.4T363.11,77.38Z"/><path class="cls-2" d="M475.17,57.09V80.82H456.86v94.85H426V80.82H407.79V57.09Z"/></g></svg>