<svg xmlns="http://www.w3.org/2000/svg" width="373" height="337" viewBox="0 0 373 337"><defs><style>.cls-1{fill:#563215;}.cls-2{fill:#6b5641;}.cls-3{fill:#562700;}.cls-4{fill:#4c2101;}.cls-5{fill:#3a3939;}.cls-6{fill:#1a1a1a;}.cls-7{fill:#565452;}</style></defs><g id="Layer_3" data-name="Layer 3"><path class="cls-1" d="M352.33,239.71a10.62,10.62,0,0,1-.05-1.26,30,30,0,0,1,.63-5.58,21.54,21.54,0,0,1-.19-2.54c-.05-9.38-.83-18.72-1.3-28.08a12.83,12.83,0,0,1-.89-3.05A120,120,0,0,1,349.11,186a20.71,20.71,0,0,1-.15-3.52c-.15.1.68,5.16.2,1.08a185.77,185.77,0,0,1-1.71-20.25c-.13-1-.23-2.14-.28-3.26a20.43,20.43,0,0,1,.21-4.09L114,145.69l-3.82,86.91,242.53,10.66C352.59,242.08,352.45,240.9,352.33,239.71Z"/><path class="cls-2" d="M346.14,285.42c1.49-4.21,2.34-8.5,3.43-12.81.05-.53.11-1.06.13-1.59.13-2.43.08-4.85,0-7.28-.2-4.92-.62-9.81-.56-14.74a24.9,24.9,0,0,1,.89-6.31L122.67,233.1l-2.83,69.26,1.35.65a18.34,18.34,0,0,1,4.53-.38,33.79,33.79,0,0,1,10,1.84c1.38.55,2.73,1.18,4.16,1.6.58.18,1.14.39,1.7.6a26.61,26.61,0,0,1,11.61.17c.65.15,1.28.34,1.91.55l159.72,6.73,1.63-.56c.41-.15,2.47-1,3.38-1.38l2.75-1.34q2.29-1.17,4.51-2.43c2.95-1.68,5.8-3.51,8.61-5.41.19-.13.4-.24.6-.36a23.81,23.81,0,0,1,6.12-6.72C343.39,292.34,344.89,288.94,346.14,285.42Z"/><path class="cls-1" d="M24.12,154.58c.16,14.69-2.64,29.07-4.07,43.62-1.44,14.75-1,29.38-.92,44.15,0,.4,0,.79,0,1.18L120.82,237l-5.89-91.81L23.8,151A22.08,22.08,0,0,1,24.12,154.58Z"/><path class="cls-2" d="M110.42,298.4a70,70,0,0,1,8.12,3.34c.9.41,1.78.85,2.67,1.27a19,19,0,0,1,4.6-.38l.44,0-6.09-70-100.4,8.73.73,8.32A19.72,19.72,0,0,1,21,255a158.66,158.66,0,0,1,7,16.79,20.08,20.08,0,0,1,1.71,1.61,28.38,28.38,0,0,1,5.48,5.25c.63.32,1.25.66,1.86,1A24.11,24.11,0,0,1,44.88,284l.43.13a24.37,24.37,0,0,1,5.62,2.36c1.87.31,3.73.61,5.59.95a15.8,15.8,0,0,1,4.81.91,39.86,39.86,0,0,0,5.34,1.61,16.21,16.21,0,0,1,4.44.89c1.38.5,2.79.87,4.22,1.24.26.07.51.16.77.24s.73,0,1.09,0a42.17,42.17,0,0,1,15.3,2.87,24.32,24.32,0,0,1,6.66,3c.56-.08,1.13-.14,1.7-.17A18.23,18.23,0,0,1,110.42,298.4Z"/><path class="cls-3" d="M25.42,151.79c0,.15,0,.3,0,.45A64.1,64.1,0,0,1,23.18,166c-.06.23-.35.95-.61,1.72,0,.09,0,.18,0,.28q-.07,1.38-.09,2.76c-.11,6.34-.27,12.52-.88,18.84a362.54,362.54,0,0,0-1.33,38.29,22.9,22.9,0,0,1-.7,5.79q0,.44,0,.87c0,2.11.1,4.23.21,6.34l248,10.9,3.92-89.14Z"/><path class="cls-3" d="M19.65,240.84l-.23,5.6A20.31,20.31,0,0,1,21,255a158.66,158.66,0,0,1,7,16.79,20.08,20.08,0,0,1,1.71,1.61,28.38,28.38,0,0,1,5.48,5.25c.63.32,1.25.66,1.86,1A24.11,24.11,0,0,1,44.88,284l.43.13a24.37,24.37,0,0,1,5.62,2.36c1.87.31,3.73.61,5.59.95a15.8,15.8,0,0,1,4.81.91,39.86,39.86,0,0,0,5.34,1.61,16.21,16.21,0,0,1,4.44.89c1.38.5,2.79.87,4.22,1.24.26.07.51.16.77.24s.73,0,1.09,0a42.17,42.17,0,0,1,15.3,2.87,24.32,24.32,0,0,1,6.66,3c.56-.08,1.13-.14,1.7-.17a18.23,18.23,0,0,1,9.57.43,70,70,0,0,1,8.12,3.34c.9.41,1.78.85,2.67,1.27a19,19,0,0,1,4.6-.38,34.78,34.78,0,0,1,10.12,1.84c1.41.55,2.77,1.18,4.22,1.6.6.18,1.17.39,1.74.6a27.39,27.39,0,0,1,11.78.17,46.86,46.86,0,0,1,4.54,1.42,82.46,82.46,0,0,1,9.27,1.07,14.94,14.94,0,0,1,5.77,2.21,18.21,18.21,0,0,1,6.65-1,42,42,0,0,1,10.6,1.33,24.41,24.41,0,0,1,3.3,1.19c4.09.15,8.17.32,12.28.26a22.32,22.32,0,0,1,11,2.66,22.83,22.83,0,0,1,5.14-.65,110.69,110.69,0,0,1,12.62.34,105.93,105.93,0,0,1,10.53,1.34l.73.15a23.35,23.35,0,0,1,6.86,1.12,18.94,18.94,0,0,1,4.93-.36c5.59.34,11.16,1.31,16.76,1.33l1.23,0c1-.25,2.13-.58,2.33-.62,2.43-.45,4.92-.78,7.38-1L288.28,252Z"/><path class="cls-4" d="M346.61,160.58a22.8,22.8,0,0,1,.27-3.91L256.1,162.5c0,.25,0,.49,0,.74.09,9.19.93,18.58-1.94,27.5a25.09,25.09,0,0,1-1,2.56,21.21,21.21,0,0,1,.2,3c0,11.21-.55,22.39-1.08,33.58a26.81,26.81,0,0,1-2.1,9.3l.63,9.83,102-6.55-4-62.73A126.93,126.93,0,0,1,346.61,160.58Z"/><path class="cls-4" d="M353.3,263.06c-.2-5-.62-9.93-.57-14.92a25.49,25.49,0,0,1,.42-4.24l-.28-3.18-101.43,8.93a22.72,22.72,0,0,1,1,6.6c0,1.91,0,3.83.06,5.74,0,1.27.1,2.52.19,3.78l-.41-2.57c-.31,1,.93,4.44,1.13,5.49.61,3.28,1,6.64,1.36,10,.33,3.08.59,6.18.82,9.27.05.14.1.29.16.48.16.48.3,1.48.51,2.45.19.43.52,1.2,1,2.32l0,0c.66,1.57,1.33,3.14,2,4.72a42.48,42.48,0,0,1,1.74,4.77,28.21,28.21,0,0,1,.59,3.07c.3.66.58,1.33.82,2,2.58,1.39,5.49,2.8,6,3,1.89.89,9.17,3.68,1.19.61,1.69.65,3.36,1.37,5,2,3.49,1.4,7,2.76,10.45,4.32l1.17-.14c3.52-.33,2-.15-.59.27a29.86,29.86,0,0,1,14.21.9,16.41,16.41,0,0,1,3.66-1.08,95.05,95.05,0,0,0,11.05-2.54q2.5-.75,5-1.64c.42-.15,2.51-1,3.44-1.4l2.8-1.35q2.31-1.19,4.58-2.47c3-1.7,5.89-3.54,8.74-5.47l.61-.37a24.26,24.26,0,0,1,6.22-6.82c1-3.62,2.55-7.05,3.81-10.6,1.52-4.27,2.38-8.61,3.49-13,.05-.54.11-1.07.13-1.61C353.45,268,353.4,265.52,353.3,263.06Z"/><path d="M115.51,82c4.86-.07,9.69-.45,14.54,0,0-1.09,0-2.19,0-3.29C130.88,46.09,154,20,181.75,20h1.13c13.51.34,26.11,6.77,35.49,18.11,9.63,11.63,14.7,27,14.29,43.17,0,1-.08,2-.14,3a33.84,33.84,0,0,1,6.3.67,3.26,3.26,0,0,1,2.81-3,14.05,14.05,0,0,1,6,.43c0-.25,0-.49,0-.73h0c.5-19.84-5.8-38.7-17.73-53.13C217.74,13.87,201.17,5.51,183.26,5.05h-1.51c-35.88,0-65.66,32.53-66.69,73.3,0,1.25,0,2.49,0,3.73A2.5,2.5,0,0,1,115.51,82Z"/><path class="cls-3" d="M62,288.18c-17.9,0-34.62-10.63-39.89-26.31-8.44-25.05-3.3-67.21,1.23-104.41,2.07-16.92,4-32.91,4.49-45.72.7-18.63,14.68-31.16,36.48-32.7a96.59,96.59,0,0,1,14,.19C101,82,114.21,94.13,114.57,112.58c.35,18.15,2.2,38,4,57.22,2.38,25.55,4.84,52,3.86,75.06-.83,19.64-15.93,35.72-37.56,40h0c-3.93.78-12.2,2.16-15.57,2.71A44.73,44.73,0,0,1,62,288.18ZM70.21,81.87c-2.11,0-4.15.06-5.66.16-20.45,1.45-33,12.59-33.69,29.82-.48,12.94-2.44,29-4.51,46C21.86,194.7,16.76,236.5,25,260.92c5.53,16.42,24.78,26.85,43.83,23.71,3.36-.55,11.59-1.92,15.47-2.69h0c20.25-4,34.38-19,35.15-37.2,1-22.88-1.48-49.21-3.85-74.66-1.8-19.26-3.65-39.18-4-57.44-.19-9.87-4.8-26.95-33.54-30.43A75.05,75.05,0,0,0,70.21,81.87Z"/><path class="cls-3" d="M296.86,321c-22.44,0-37.87-10.78-43.67-30.67-9.82-33.64-4.48-76.26.68-117.48,2.26-18.06,4.4-35.13,5.1-50.56,1-22.4,12-33.64,36.7-37.58A49.27,49.27,0,0,1,310,85c24.62,4.44,35.85,16.16,36.4,38,.51,20,2.27,40.83,4,60.93,2.45,28.93,5,58.84,3.93,87.64-.83,22.38-14.51,39.21-37.55,46.18h0c-3.78,1.14-11.58,2.93-15.78,3.16C299.6,320.94,298.22,321,296.86,321Zm4.78-232.69a34.87,34.87,0,0,0-5.34.35c-22.74,3.62-32.4,13.42-33.33,33.81-.72,15.59-2.86,32.73-5.13,50.88-5.11,40.82-10.4,83-.81,115.86,7.15,24.51,27.74,28.59,43.75,27.68a87.84,87.84,0,0,0,14.85-3h0c21.62-6.54,33.94-21.63,34.71-42.49,1.05-28.57-1.48-58.36-3.92-87.16-1.71-20.16-3.47-41-4-61.17-.5-19.84-10.4-30.06-33.11-34.16A45.52,45.52,0,0,0,301.64,88.29Z"/><rect class="cls-5" x="65.72" y="78.55" width="233.26" height="6.33" rx="2.3" transform="translate(2.14 -4.61) rotate(1.46)"/><rect class="cls-6" x="65.55" y="77.81" width="233.43" height="6.31" rx="2.3" transform="translate(2.12 -4.61) rotate(1.46)"/><path class="cls-7" d="M180,72.7c.38,1.38.77,5.15-1.14,5.57s-3.62-3.5-3.84-5.16a2,2,0,0,1,2.22-2.43A2.64,2.64,0,0,1,180,72.7Z"/><path class="cls-7" d="M185,72.83c-.08,1.64-2.54,5.68-4.41,5.42s-1.39-4.08-.92-5.4,1.4-2.3,2.77-2.18S185.09,71.19,185,72.83Z"/><path class="cls-3" d="M298.06,317.72l-.54.22a2.37,2.37,0,0,1-1.23.11,25,25,0,0,1-12.43-1.23l-.05,0c-77.25-1.51-152.21-11.92-223-31a3.07,3.07,0,0,1-1.18.06c-4.77-.65-11.56-.86-16.7-3.13,2.15,2.14,5.46,3.79,10.06,5.07,74.48,20.75,153.66,31.89,235.35,33.12H289c5.44,0,8.91-1,11.19-3.36.18-.19.35-.39.51-.59A24.67,24.67,0,0,1,298.06,317.72Z"/></g></svg>