<svg xmlns="http://www.w3.org/2000/svg" width="340" height="320" viewBox="0 0 340 320"><defs><style>.cls-1{fill:none;stroke:#000;stroke-miterlimit:10;stroke-width:2px;}.cls-2{fill:#562700;}.cls-3{fill:#1a1a1a;}</style></defs><g id="Layer_3" data-name="Layer 3"><path class="cls-1" d="M99.4,79c4.86-.06,9.7-.45,14.55,0,0-1.09,0-2.19,0-3.29C114.78,43.08,137.86,17,165.65,17h1.13c13.51.34,26.11,6.77,35.49,18.11,9.63,11.63,14.7,27,14.29,43.17,0,1-.08,2-.15,3a32.84,32.84,0,0,1,6.3.66,3.28,3.28,0,0,1,2.82-3,14.05,14.05,0,0,1,6,.43c0-.25,0-.49,0-.73h0c.51-19.84-5.79-38.7-17.73-53.13C201.64,10.86,185.07,2.5,167.16,2.05c-.5,0-1,0-1.51,0C129.76,2,100,34.56,99,75.33c0,1.25,0,2.49,0,3.73A2.4,2.4,0,0,1,99.4,79Z"/><path class="cls-2" d="M45.93,285.17C28,285.17,11.31,274.54,6,258.86c-8.44-25.05-3.3-67.21,1.23-104.41,2.06-16.92,4-32.91,4.49-45.72C12.46,90.1,26.44,77.57,48.24,76a96.59,96.59,0,0,1,14,.19C84.92,79,98.11,91.12,98.47,109.57c.35,18.15,2.2,38,4,57.22,2.38,25.56,4.85,52,3.87,75.06-.83,19.64-15.93,35.72-37.56,40h0c-3.93.78-12.2,2.16-15.57,2.71A44.73,44.73,0,0,1,45.93,285.17ZM54.11,78.86c-2.11,0-4.15.06-5.66.16-20.45,1.45-33,12.59-33.69,29.82-.48,12.94-2.44,29-4.51,46C5.76,191.69.66,233.49,8.88,257.91c5.53,16.43,24.78,26.85,43.83,23.71,3.36-.55,11.59-1.92,15.47-2.69h0c20.25-4,34.38-19,35.15-37.2,1-22.88-1.48-49.21-3.85-74.66-1.8-19.26-3.66-39.18-4-57.44-.19-9.87-4.8-26.95-33.54-30.43A75.19,75.19,0,0,0,54.11,78.86Z"/><path class="cls-2" d="M280.76,318c-22.44,0-37.87-10.78-43.67-30.67-9.82-33.64-4.49-76.26.67-117.47,2.27-18.07,4.4-35.14,5.11-50.57,1-22.4,12-33.64,36.7-37.58a49.27,49.27,0,0,1,14.36.27c24.62,4.44,35.84,16.16,36.4,38,.51,20,2.27,40.83,4,60.93,2.46,28.93,5,58.84,3.93,87.64-.82,22.38-14.51,39.21-37.54,46.18h0c-3.78,1.14-11.58,2.93-15.79,3.16Q282.8,318,280.76,318Zm4.78-232.69a34.87,34.87,0,0,0-5.34.35c-22.74,3.62-32.4,13.42-33.33,33.81-.72,15.59-2.86,32.73-5.14,50.88-5.11,40.82-10.39,83-.81,115.86,7.16,24.51,27.75,28.59,43.76,27.68a87.84,87.84,0,0,0,14.85-3h0c21.61-6.54,33.94-21.63,34.71-42.49,1.05-28.56-1.48-58.35-3.92-87.16-1.71-20.16-3.48-41-4-61.17-.5-19.84-10.41-30.06-33.11-34.16A45.69,45.69,0,0,0,285.54,85.28Z"/><rect x="49.61" y="75.54" width="233.26" height="6.33" rx="2.3" transform="translate(2.06 -4.2) rotate(1.46)"/><rect class="cls-3" x="49.45" y="74.8" width="233.43" height="6.31" rx="2.3" transform="translate(2.04 -4.2) rotate(1.46)"/><path d="M163.9,69.69c.38,1.38.76,5.15-1.14,5.57s-3.62-3.5-3.84-5.16a2,2,0,0,1,2.22-2.43A2.64,2.64,0,0,1,163.9,69.69Z"/><path d="M168.9,69.82c-.08,1.64-2.55,5.68-4.41,5.42s-1.39-4.08-.92-5.4,1.4-2.3,2.76-2.18S169,68.18,168.9,69.82Z"/><path class="cls-2" d="M282,314.71c-.17.08-.35.15-.54.22a2.33,2.33,0,0,1-1.22.11,25,25,0,0,1-12.43-1.23l-.06,0c-77.25-1.51-152.2-11.92-223-31a3.12,3.12,0,0,1-1.19.06c-4.76-.65-11.55-.86-16.7-3.13,2.16,2.15,5.47,3.79,10.07,5.07,74.48,20.75,153.66,31.89,235.35,33.12h.67c5.44,0,8.91-1.05,11.19-3.36.18-.19.35-.39.51-.59A22.75,22.75,0,0,1,282,314.71Z"/><path class="cls-2" d="M332.7,288.64C251.18,287.31,172,278,96.85,260.75a7,7,0,0,1-2.57,3.53c75.58,17.43,155.29,27,237.33,28.39a2.84,2.84,0,0,1,.06-1.29A14.45,14.45,0,0,1,332.7,288.64Z"/></g></svg>