<svg xmlns="http://www.w3.org/2000/svg" width="385" height="326" viewBox="0 0 385 326"><defs><style>.cls-1{fill:#563215;}.cls-2{fill:#562700;}.cls-3{fill:#4c2101;}.cls-4{fill:#3a3939;}.cls-5{fill:#1a1a1a;}.cls-6{fill:#565452;}</style></defs><g id="Layer_3" data-name="Layer 3"><path class="cls-1" d="M340.13,284.7c1.49-4.21,2.34-8.5,3.44-12.81,0-.53.1-1.06.13-1.59.12-2.43.07-4.85,0-7.28-.2-4.92-.61-9.81-.56-14.74A24.9,24.9,0,0,1,344,242l-227.34-9.59-2.83,69.26,1.36.65a18.22,18.22,0,0,1,4.52-.38,33.85,33.85,0,0,1,10,1.84c1.38.55,2.72,1.18,4.15,1.6.59.18,1.15.39,1.71.6a26.57,26.57,0,0,1,11.6.17c.65.15,1.29.34,1.92.55l159.72,6.73,1.62-.56c.41-.15,2.47-1,3.38-1.38l2.76-1.34q2.28-1.17,4.5-2.44c2.95-1.67,5.8-3.5,8.61-5.4l.6-.36a23.81,23.81,0,0,1,6.12-6.72C337.38,291.62,338.89,288.22,340.13,284.7Z"/><path class="cls-1" d="M104.42,297.68a70.54,70.54,0,0,1,8.11,3.34c.9.41,1.78.85,2.68,1.27a18.86,18.86,0,0,1,4.6-.38l.43,0-6.09-70L13.76,240.69l.72,8.32a19.72,19.72,0,0,1,.53,5.31,158.73,158.73,0,0,1,7,16.79,21.56,21.56,0,0,1,1.7,1.61A28.38,28.38,0,0,1,29.16,278c.63.32,1.25.66,1.86,1a24.26,24.26,0,0,1,7.86,4.31l.42.13a24.19,24.19,0,0,1,5.63,2.36c1.86.31,3.73.61,5.58.95a15.8,15.8,0,0,1,4.81.91,40,40,0,0,0,5.35,1.61,16.13,16.13,0,0,1,4.43.89c1.38.5,2.79.87,4.22,1.24l.78.24c.36,0,.72,0,1.09,0a42.16,42.16,0,0,1,15.29,2.87,24.18,24.18,0,0,1,6.66,3c.56-.08,1.13-.14,1.71-.17A18.23,18.23,0,0,1,104.42,297.68Z"/><path class="cls-2" d="M13.64,240.12l-.23,5.6a20.31,20.31,0,0,1,1.6,8.6,158.73,158.73,0,0,1,7,16.79,21.56,21.56,0,0,1,1.7,1.61A28.38,28.38,0,0,1,29.16,278c.63.32,1.25.66,1.86,1a24.26,24.26,0,0,1,7.86,4.31l.42.13a24.19,24.19,0,0,1,5.63,2.36c1.86.31,3.73.61,5.58.95a15.8,15.8,0,0,1,4.81.91,40,40,0,0,0,5.35,1.61,16.13,16.13,0,0,1,4.43.89c1.38.5,2.79.87,4.22,1.24l.78.24c.36,0,.72,0,1.09,0a42.16,42.16,0,0,1,15.29,2.87,24.18,24.18,0,0,1,6.66,3c.56-.08,1.13-.14,1.71-.17a18.23,18.23,0,0,1,9.57.43,70.54,70.54,0,0,1,8.11,3.34c.9.41,1.78.85,2.68,1.27a18.86,18.86,0,0,1,4.6-.38,34.71,34.71,0,0,1,10.11,1.84c1.41.55,2.77,1.18,4.23,1.6.59.18,1.16.39,1.73.6a27.44,27.44,0,0,1,11.79.17c1.55.35,3,.92,4.53,1.42a82.91,82.91,0,0,1,9.28,1.07,15,15,0,0,1,5.76,2.21,18.24,18.24,0,0,1,6.65-.95,42,42,0,0,1,10.6,1.33,24.41,24.41,0,0,1,3.3,1.19c4.09.15,8.18.32,12.28.26a22.3,22.3,0,0,1,11,2.66,22.9,22.9,0,0,1,5.14-.65,110.86,110.86,0,0,1,12.63.34c3.51.36,7.06.63,10.53,1.34l.72.15a23.35,23.35,0,0,1,6.86,1.12,19,19,0,0,1,4.94-.36c5.58.34,11.15,1.31,16.75,1.33l1.23,0c1-.25,2.13-.58,2.34-.62,2.42-.45,4.91-.78,7.37-1l2.73-65.69Z"/><path class="cls-3" d="M347.29,262.34c-.2-5-.62-9.93-.56-14.92a24.48,24.48,0,0,1,.41-4.24l-.27-3.18-101.44,8.93a22.72,22.72,0,0,1,1,6.6c0,1.91,0,3.83.06,5.74,0,1.27.1,2.52.2,3.78l-.42-2.57c-.3,1,.94,4.44,1.13,5.49.61,3.28,1,6.64,1.36,10,.34,3.08.59,6.18.82,9.27l.16.48c.16.48.3,1.48.52,2.45l1,2.32,0,0q1,2.35,2,4.72a40.6,40.6,0,0,1,1.74,4.77,28.21,28.21,0,0,1,.59,3.07c.3.66.58,1.33.82,2,2.59,1.39,5.5,2.8,6,3,1.89.89,9.18,3.68,1.19.61,1.69.65,3.36,1.37,5,2.05,3.48,1.4,7,2.76,10.45,4.32l1.17-.14c3.51-.33,2-.15-.59.27a29.82,29.82,0,0,1,14.2.9,16.49,16.49,0,0,1,3.67-1.08,94.89,94.89,0,0,0,11-2.54q2.5-.75,5-1.64c.42-.15,2.52-1,3.44-1.4l2.8-1.35q2.31-1.18,4.58-2.47c3-1.7,5.89-3.54,8.74-5.47l.61-.37a24.15,24.15,0,0,1,6.23-6.82c1-3.62,2.55-7.05,3.81-10.6,1.51-4.27,2.37-8.61,3.48-13,.05-.54.11-1.07.14-1.61C347.45,267.25,347.39,264.8,347.29,262.34Z"/><path d="M109.5,81.3c4.86-.07,9.69-.45,14.54,0,0-1.09,0-2.19,0-3.29.83-32.63,23.91-58.68,51.69-58.68h1.14c13.5.34,26.1,6.77,35.48,18.11,9.63,11.63,14.7,27,14.29,43.17,0,1-.07,2-.14,3a33.75,33.75,0,0,1,6.3.67,3.27,3.27,0,0,1,2.81-3,14.05,14.05,0,0,1,6,.43c0-.25,0-.49,0-.73h0c.5-19.84-5.79-38.7-17.73-53.13C211.73,13.15,195.16,4.79,177.26,4.33h-1.52c-35.88,0-65.65,32.53-66.69,73.3,0,1.25,0,2.49,0,3.73A2.5,2.5,0,0,1,109.5,81.3Z"/><path class="cls-2" d="M56,287.46c-17.9,0-34.61-10.63-39.89-26.31-8.43-25-3.3-67.21,1.24-104.41,2.06-16.92,4-32.91,4.49-45.72.69-18.63,14.67-31.16,36.47-32.7a96.59,96.59,0,0,1,14,.19c22.64,2.74,35.83,14.9,36.18,33.35.36,18.15,2.21,38,4,57.22,2.38,25.55,4.84,52,3.86,75.06-.83,19.64-15.92,35.72-37.56,40h0c-3.93.78-12.2,2.16-15.57,2.71A44.73,44.73,0,0,1,56,287.46ZM64.2,81.15c-2.1,0-4.14.06-5.66.16-20.45,1.45-33,12.59-33.69,29.82-.48,12.94-2.43,29-4.51,46C15.85,194,10.76,235.78,19,260.19c5.53,16.43,24.79,26.86,43.83,23.72,3.36-.55,11.59-1.92,15.47-2.69h0c20.26-4,34.38-19,35.16-37.2,1-22.88-1.49-49.21-3.86-74.66-1.8-19.26-3.65-39.18-4-57.44-.19-9.87-4.8-26.95-33.54-30.43A74.92,74.92,0,0,0,64.2,81.15Z"/><path class="cls-2" d="M290.85,320.26c-22.43,0-37.86-10.78-43.67-30.67-9.82-33.64-4.48-76.26.68-117.48,2.26-18.06,4.4-35.13,5.11-50.56,1-22.4,12-33.65,36.69-37.58a49.26,49.26,0,0,1,14.36.27c24.62,4.44,35.85,16.16,36.4,38,.51,20,2.28,40.83,4,60.93,2.45,28.93,5,58.84,3.93,87.64-.82,22.38-14.51,39.21-37.54,46.18h0c-3.79,1.14-11.59,2.93-15.79,3.16C293.59,320.22,292.21,320.26,290.85,320.26Zm4.78-232.69a35,35,0,0,0-5.34.35c-22.74,3.62-32.4,13.42-33.33,33.81-.71,15.59-2.86,32.73-5.13,50.88-5.11,40.82-10.4,83-.81,115.86,7.15,24.51,27.74,28.59,43.75,27.68a87.76,87.76,0,0,0,14.86-3h0c21.61-6.54,33.93-21.63,34.7-42.49,1.05-28.57-1.47-58.36-3.92-87.16-1.7-20.16-3.47-41-4-61.17-.51-19.84-10.41-30.06-33.12-34.16A45.52,45.52,0,0,0,295.63,87.57Z"/><rect class="cls-4" x="59.71" y="77.83" width="233.26" height="6.33" rx="2.3" transform="translate(2.12 -4.46) rotate(1.46)"/><rect class="cls-5" x="59.54" y="77.09" width="233.43" height="6.31" rx="2.3" transform="matrix(1, 0.03, -0.03, 1, 2.1, -4.46)"/><path class="cls-6" d="M174,72c.37,1.38.76,5.15-1.15,5.57s-3.61-3.5-3.84-5.16A2,2,0,0,1,171.23,70,2.65,2.65,0,0,1,174,72Z"/><path class="cls-6" d="M179,72.11c-.09,1.64-2.55,5.68-4.42,5.42s-1.39-4.08-.91-5.4,1.4-2.3,2.76-2.18S179.08,70.47,179,72.11Z"/><path class="cls-2" d="M292.05,317l-.54.22a2.37,2.37,0,0,1-1.23.11,25,25,0,0,1-12.43-1.23l-.05,0c-77.25-1.51-152.21-11.92-223-31a3.13,3.13,0,0,1-1.19.06c-4.76-.65-11.56-.86-16.7-3.13,2.15,2.14,5.47,3.79,10.06,5.07,74.48,20.75,153.67,31.89,235.36,33.12H283c5.45,0,8.91-1.05,11.19-3.36.19-.19.35-.39.52-.59A24.85,24.85,0,0,1,292.05,317Z"/></g></svg>