<svg xmlns="http://www.w3.org/2000/svg" width="376" height="371" viewBox="0 0 376 371"><defs><style>.cls-1{fill:#563215;}.cls-2{fill:#562700;}.cls-3{fill:#4c2101;}.cls-4{fill:#3a3939;}.cls-5{fill:#1a1a1a;}.cls-6{fill:#565452;}</style></defs><g id="Layer_3" data-name="Layer 3"><path class="cls-1" d="M352.06,284.93c1.52-6.2,2.38-12.51,3.5-18.85.05-.78.11-1.55.14-2.33.13-3.57.07-7.14,0-10.71-.2-7.23-.63-14.42-.57-21.67a52,52,0,0,1,.91-9.28L123.89,208,121,309.83l1.38,1a13,13,0,0,1,4.62-.57c3.42.39,7,.86,10.18,2.71a41.27,41.27,0,0,0,4.24,2.36,16.69,16.69,0,0,1,1.74.88,19.07,19.07,0,0,1,11.85.25,18.16,18.16,0,0,1,2,.8L320,327.12c.56-.27,1.11-.54,1.66-.83s2.52-1.49,3.46-2l2.81-2c1.55-1.14,3.08-2.34,4.6-3.58,3-2.47,5.92-5.15,8.79-8,.2-.2.41-.35.61-.54a33.91,33.91,0,0,1,6.25-9.87C349.25,295.1,350.79,290.1,352.06,284.93Z"/><path class="cls-1" d="M125.66,208,25.39,220.37a23.74,23.74,0,0,1,1.14,6.79c0,2.43.11,4.87.19,7.3l.71,5.27a25.46,25.46,0,0,1-.27,3.52c.07,1,.13,2,.22,3,.1,1.15.09,2.48.3,3.68.16.58.31,1.15.38,1.51.55,3,1.26,6,2.06,8.9A23.29,23.29,0,0,1,30,273.19a42.4,42.4,0,0,1,3.67,5.47c.68.49,1.36,1,2,1.5a25.43,25.43,0,0,1,8.5,6.62c.15.07.31.12.46.2a23,23,0,0,1,6.08,3.63c2,.47,4,.93,6.05,1.46a12.62,12.62,0,0,1,5.2,1.4,35.34,35.34,0,0,0,5.79,2.47,13.07,13.07,0,0,1,4.8,1.35,36.9,36.9,0,0,0,4.57,1.92c.28.1.56.24.84.36s.78-.05,1.18-.06a34.17,34.17,0,0,1,16.55,4.41,23.33,23.33,0,0,1,7.21,4.61,14.29,14.29,0,0,1,1.84-.26,14.12,14.12,0,0,1,10.36.66,66.89,66.89,0,0,1,8.78,5.13c1,.63,1.93,1.3,2.9,1.95a14.56,14.56,0,0,1,5-.59l.47.05Z"/><path class="cls-2" d="M241.91,330.78a84.25,84.25,0,0,1,9.86.46c6,.59,12,.75,18,.76a23.32,23.32,0,0,1,2.66.15h2.58a24,24,0,0,1,3.83.31,18.91,18.91,0,0,1,3.38-.18,9.17,9.17,0,0,1,2,0c.85.09,2.19.17,3.61.34l1.52-83.36L25.56,222.34a21.1,21.1,0,0,1-.81,8.28,30.32,30.32,0,0,0-1,3.5c-.2,1-.32,1.63-.36,1.76,0,1.31.21,2.68.22,3.4.08,4.5.53,9,.82,13.48,0,.26,0,.53,0,.79a23.73,23.73,0,0,1,1.73,8.52c0,1.57.11,3.14.22,4.7a26.15,26.15,0,0,1,3.22,11.13,25.39,25.39,0,0,1,4.28,7c.29.29.57.6.87.88l.32.29.67.46c1,.59,2,1.12,3,1.64A19.83,19.83,0,0,1,45.68,294a27.21,27.21,0,0,1,11.09,6.35l.19.19a86.06,86.06,0,0,1,17.09,4.28A306.42,306.42,0,0,1,113.64,313,73.91,73.91,0,0,1,128,315.81c.39.12,1.4.57,2.37.9L133,317c4.45.5,9,.92,13.24,2.28.8.25,1.56.54,2.31.85a22,22,0,0,1,3.54-.26,146,146,0,0,1,28.07,3.38,78,78,0,0,1,16.19,3.63l.85,0a186.05,186.05,0,0,1,26.24,2.33A108.2,108.2,0,0,1,241.91,330.78Z"/><path class="cls-3" d="M256.38,246.5a22.61,22.61,0,0,1,1.1,6.88c0,9.39.29,18.78,1.23,28.12.1,1,.22,2,.34,3,.3,1.77.57,3.55.91,5.33a124.31,124.31,0,0,0,3.39,13.72c.52,1.66,1.07,3.31,1.67,4.94.26.7.53,1.41.81,2.11l.08.18c1,2.07,2,4.18,3.13,6.22.21.37,1.35,1.86,2,3l.12.11.06,0c.83.56,1.68,1.1,2.53,1.64,2.85,1.8,5.72,3.56,8.54,5.42a64.79,64.79,0,0,0,5.64,3.44l.41.2c1.31.33,4.78,1.55,5.25,1.65s.69.13,1,.2c1.51,0,3,.12,4.53.09,1,0,2.08-.08,3.13-.16,2.64-.27,2.12-.16-1.55.31,1.4.5,5.2-.89,6.72-1.13l5.11-.77a112.56,112.56,0,0,0,13.5-2.64c1-.28,2.55-1,3.82-1.39.71-.4,1.42-.8,2.12-1.22,1.83-1.11,3.6-2.32,5.33-3.57a16.59,16.59,0,0,1,1.73-1c2.7-1.71,5.29-4.53,7.65-6.68a50.54,50.54,0,0,1,3.24-4.5c-4.62,5.81-.09-.05.77-1.35s1.83-2.92,2.68-4.41c.06-.47.12-1,.19-1.49a64.43,64.43,0,0,1,1.33-6.89,22.14,22.14,0,0,1,3-6.72c0-.19.07-.38.1-.56.35-3.6.63-7.2.79-10.82.37-8.93-.34-17.91-.38-26.85,0-2.54-.06-5.23-.3-7.87a22.69,22.69,0,0,1-1.08-6.84v-.79l-.55-4.11c-.31-2.44-.59-4.88-.81-7.33a18.72,18.72,0,0,1,0-2.48Z"/><path d="M121.51,95c4.86-.07,9.69-.45,14.54,0,0-1.09,0-2.19,0-3.29C136.88,59.09,160,33,187.75,33h1.13c13.51.34,26.11,6.77,35.49,18.11,9.63,11.63,14.7,27,14.29,43.17,0,1-.08,2-.14,3a33.84,33.84,0,0,1,6.3.67,3.26,3.26,0,0,1,2.81-3,14.05,14.05,0,0,1,6,.43c0-.25,0-.49,0-.73h0c.5-19.84-5.8-38.7-17.73-53.13-12.19-14.72-28.76-23.08-46.67-23.54h-1.51c-35.88,0-65.66,32.53-66.69,73.3,0,1.25,0,2.49,0,3.73A2.5,2.5,0,0,1,121.51,95Z"/><path class="cls-2" d="M68,301.18c-17.9,0-34.62-10.63-39.89-26.31-8.44-25.05-3.3-67.21,1.23-104.41,2.07-16.92,4-32.91,4.49-45.72.7-18.63,14.68-31.16,36.48-32.7a96.59,96.59,0,0,1,14,.19c22.64,2.74,35.82,14.9,36.18,33.35.35,18.15,2.2,38,4,57.22,2.38,25.55,4.84,52,3.86,75.06-.83,19.64-15.93,35.72-37.56,40h0c-3.93.78-12.2,2.16-15.57,2.71A44.73,44.73,0,0,1,68,301.18ZM76.21,94.87c-2.11,0-4.15.06-5.66.16-20.45,1.45-33,12.59-33.69,29.82-.48,12.94-2.44,29-4.51,46C27.86,207.7,22.76,249.5,31,273.92c5.53,16.42,24.78,26.85,43.83,23.71,3.36-.55,11.59-1.92,15.47-2.69h0c20.25-4,34.38-19,35.15-37.2,1-22.88-1.48-49.21-3.85-74.66-1.8-19.26-3.65-39.18-4-57.44-.19-9.87-4.8-26.95-33.54-30.43A75.05,75.05,0,0,0,76.21,94.87Z"/><path class="cls-2" d="M302.86,334c-22.44,0-37.87-10.78-43.67-30.67-9.82-33.64-4.48-76.26.68-117.48,2.26-18.06,4.4-35.13,5.1-50.56,1-22.4,12-33.64,36.7-37.58A49.27,49.27,0,0,1,316,98c24.62,4.44,35.85,16.16,36.4,38,.51,20,2.27,40.83,4,60.93,2.45,28.93,5,58.84,3.93,87.64-.83,22.38-14.51,39.21-37.55,46.18h0c-3.78,1.14-11.58,2.93-15.78,3.16C305.6,333.94,304.22,334,302.86,334Zm4.78-232.69a34.87,34.87,0,0,0-5.34.35c-22.74,3.62-32.4,13.42-33.33,33.81-.72,15.59-2.86,32.73-5.13,50.88-5.11,40.82-10.4,83-.81,115.86,7.15,24.51,27.74,28.59,43.75,27.68a87.84,87.84,0,0,0,14.85-3h0c21.62-6.54,33.94-21.63,34.71-42.49,1.05-28.57-1.48-58.36-3.92-87.16-1.71-20.16-3.47-41-4-61.17-.5-19.84-10.4-30.06-33.11-34.16A45.52,45.52,0,0,0,307.64,101.29Z"/><rect class="cls-4" x="71.72" y="91.55" width="233.26" height="6.33" rx="2.3" transform="translate(2.47 -4.76) rotate(1.46)"/><rect class="cls-5" x="71.55" y="90.81" width="233.43" height="6.31" rx="2.3" transform="translate(2.45 -4.76) rotate(1.46)"/><path class="cls-6" d="M186,85.7c.38,1.38.77,5.15-1.14,5.57s-3.62-3.5-3.84-5.16a2,2,0,0,1,2.22-2.43A2.64,2.64,0,0,1,186,85.7Z"/><path class="cls-6" d="M191,85.83c-.08,1.64-2.54,5.68-4.41,5.42s-1.39-4.08-.92-5.4,1.4-2.3,2.77-2.18S191.09,84.19,191,85.83Z"/><path class="cls-2" d="M304.06,330.72l-.54.22a2.37,2.37,0,0,1-1.23.11,25,25,0,0,1-12.43-1.23l-.05,0c-77.25-1.51-152.21-11.92-223-31a3.07,3.07,0,0,1-1.18.06c-4.77-.65-11.56-.86-16.7-3.13,2.15,2.14,5.46,3.79,10.06,5.07,74.48,20.75,153.66,31.89,235.35,33.12H295c5.44,0,8.91-1,11.19-3.36.18-.19.35-.39.51-.59A24.67,24.67,0,0,1,304.06,330.72Z"/></g></svg>