<svg xmlns="http://www.w3.org/2000/svg" width="435" height="340" viewBox="0 0 435 340"><defs><style>.cls-1{fill:#6b5641;}.cls-2{fill:#562700;}.cls-3{fill:#4c2101;}.cls-4{fill:#3a3939;}.cls-5{fill:#1a1a1a;}</style></defs><g id="Layer_3" data-name="Layer 3"><path class="cls-1" d="M132.45,306.63a74.31,74.31,0,0,1,8.11,3.34c.9.41,1.79.85,2.68,1.28a18.38,18.38,0,0,1,4.6-.39l.43,0-6.08-70-100.4,8.73.72,8.31a19.36,19.36,0,0,1,.53,5.31,156.65,156.65,0,0,1,7,16.79,21.56,21.56,0,0,1,1.7,1.61,28.38,28.38,0,0,1,5.48,5.25c.63.32,1.25.66,1.86,1a24.35,24.35,0,0,1,7.86,4.31l.42.13A24.63,24.63,0,0,1,73,294.7c1.86.31,3.73.61,5.58.95a15.8,15.8,0,0,1,4.81.91,41.57,41.57,0,0,0,5.35,1.62,15.77,15.77,0,0,1,4.43.88c1.39.51,2.79.87,4.22,1.24l.78.24c.36,0,.72,0,1.09,0a42.25,42.25,0,0,1,15.3,2.87,24.26,24.26,0,0,1,6.65,3c.56-.08,1.13-.14,1.71-.17A18.23,18.23,0,0,1,132.45,306.63Z"/><path class="cls-2" d="M284.22,91c-7.92-.67-15.73-1.74-23.68-2a182.66,182.66,0,0,0-22,.49c-8.4.78-16.35,1-24.68-1A21.37,21.37,0,0,1,207.84,86c-1.4.07-2.81.13-4.21.18-17.45.59-34.95,0-52.41.17s-35.11.6-52.62,2c-3.44.27-6.89.54-10.33.89l-3.53.41L82.51,90a87.9,87.9,0,0,0-11,2.6l-1.69.56c-1.82,1.13-2.28,1.17-2,.9l-1,.49a21.89,21.89,0,0,1-3.93,3.18c-1.77,1.89-3.3,4-5.23,5.73-.19.17-.39.32-.59.48l-.05.09c.07-.07.06,0-.07.11-.46.72-.91,1.44-1.32,2.18-.31.54-.59,1.09-.86,1.64-.08.22-.17.47-.29.78-.26.77-.5,1.54-.72,2.32-.45,1.57-.83,3.15-1.17,4.75-.17.8-.33,1.61-.47,2.41q-.63,4,.12-1.47c-.62,1.25-.42,3.74-.5,5.06a116.21,116.21,0,0,1-1.63,15.52,19.37,19.37,0,0,1-1.42,4.38,81.87,81.87,0,0,1-.87,13.17,20.94,20.94,0,0,1,.08,2.1A157.07,157.07,0,0,1,46,175.48c0,.12,0,.24,0,.35a23,23,0,0,1-.34,3.93c-.09,1.37-.17,2.73-.21,4.1-.31,9.38-2.34,18.59-2.49,28a24.58,24.58,0,0,1-.61,5.06c0,2.72,0,5.44,0,8.17a98,98,0,0,1-.74,12.35c0,.61,0,1.23,0,1.85,0,4.51.11,9,.22,13.51l264,23.22,4.08-185.8A119.8,119.8,0,0,1,284.22,91Z"/><path class="cls-2" d="M41.68,249.07l-.24,5.6a20.34,20.34,0,0,1,1.6,8.6,156.65,156.65,0,0,1,7,16.79,21.56,21.56,0,0,1,1.7,1.61,28.38,28.38,0,0,1,5.48,5.25c.63.32,1.25.66,1.86,1a24.35,24.35,0,0,1,7.86,4.31l.42.13A24.63,24.63,0,0,1,73,294.7c1.86.31,3.73.61,5.58.95a15.8,15.8,0,0,1,4.81.91,41.57,41.57,0,0,0,5.35,1.62,15.77,15.77,0,0,1,4.43.88c1.39.51,2.79.87,4.22,1.24l.78.24c.36,0,.72,0,1.09,0a42.25,42.25,0,0,1,15.3,2.87,24.26,24.26,0,0,1,6.65,3c.56-.08,1.13-.14,1.71-.17a18.23,18.23,0,0,1,9.57.43,74.31,74.31,0,0,1,8.11,3.34c.9.41,1.79.85,2.68,1.28a18.38,18.38,0,0,1,4.6-.39A34.84,34.84,0,0,1,158,312.7c1.4.55,2.77,1.18,4.22,1.61.59.17,1.16.38,1.73.59a27.44,27.44,0,0,1,11.79.17c1.55.35,3,.93,4.54,1.42a83,83,0,0,1,9.27,1.08,14.82,14.82,0,0,1,5.77,2.2,18.16,18.16,0,0,1,6.64-.95,42.36,42.36,0,0,1,10.6,1.33,26.87,26.87,0,0,1,3.3,1.19c4.09.15,8.18.32,12.28.26a22.36,22.36,0,0,1,11,2.66,23.33,23.33,0,0,1,5.13-.65,110.86,110.86,0,0,1,12.63.34c3.51.36,7.06.63,10.53,1.34l.72.15a23.63,23.63,0,0,1,6.86,1.12,19,19,0,0,1,4.94-.36c5.58.34,11.15,1.31,16.75,1.33l1.24,0c1-.25,2.12-.58,2.33-.62,2.42-.45,4.91-.77,7.37-1l2.73-65.69Z"/><path class="cls-3" d="M373.28,241.85c-.12-1.61-.34-3.22-.41-4.84-.24-5.35-.38-10.74-.43-16.1a21.69,21.69,0,0,1,.43-4.6,24.09,24.09,0,0,1-1-13.67c-.23-1.11-.44-2.22-.64-3.34A110.86,110.86,0,0,1,370,180.69a26.7,26.7,0,0,1-.35-12.75c-1.39,6.3-.57,2-.61-.07,0-1.06,0-2.11.08-3.16a14,14,0,0,1-.38-5,55.6,55.6,0,0,0-.29-13.94q-.46-4.08,0,1.28a39.41,39.41,0,0,1-1.28-8.1c-.05-1.22.21-4.58.42-7-.46-1.81-.92-3.62-1.42-5.43q-1-3.56-2.06-7.09c-.31-1-.62-2-.94-3-.92-1.57-1.83-3.11-2.89-4.6-.46-.66-.95-1.31-1.43-2-1.73-2.2-3.47-4.4-5.11-6.66l-.31-.27a21.73,21.73,0,0,1-6.77-4.14c-.43-.24-1.05-.59-1.91-1.11-1.27-.44-2.56-.85-3.86-1.22-2.6-.76-5.24-1.41-7.9-2-.64-.14-1.72-.33-2.81-.51a29.82,29.82,0,0,1-7,.74c-.72,0-1.42-.06-2.12-.1-.69.14-1.38.25-2.07.32-.77.33-1.55.65-2.34.92a49.89,49.89,0,0,1-8.22,1.66,20.25,20.25,0,0,1-12.46,4.62l-1.46,2.1c-1.16,1.71-4.25,8.07-1.51,1.37-2,4.9-4.28,8.83-8,12.06l-.33,2.06c0,.15,0,.29-.07.41q-.54,4.15-1.11,8.3a17.61,17.61,0,0,1-.55,2.46c-.36,3.86-.72,7.72-.87,11.6a26.59,26.59,0,0,1-1.49,7.77,502.31,502.31,0,0,1-5.27,66.11,17.37,17.37,0,0,1-2.61,6.85c0,1.9-.08,3.81-.13,5.71q-.07,3.09-.32,6.06c-.07,5.94-.24,11.88-.23,17.82,0,3.39.15,6.75.26,10.13,0,1.31.09,2.63.06,3.95l99.22-12.48A25.76,25.76,0,0,1,373.28,241.85Z"/><path class="cls-3" d="M375.33,267c-.21-5.36-.63-10.68-.57-16.05a29.52,29.52,0,0,1,.41-4.57L374.9,243l-101.44,9.61a26.14,26.14,0,0,1,1,7.1c0,2.06,0,4.13.06,6.19,0,1.35.1,2.71.2,4.06l-.42-2.76c-.3,1.06.94,4.78,1.13,5.9.61,3.53,1,7.15,1.36,10.72.34,3.31.59,6.65.82,10l.16.51c.16.52.3,1.6.52,2.65l1,2.49,0,0q1,2.54,2,5.08a45.51,45.51,0,0,1,1.74,5.13,32.5,32.5,0,0,1,.59,3.3c.3.71.58,1.44.82,2.17,2.59,1.5,5.5,3,6,3.26,1.9,1,9.18,4,1.19.66,1.7.7,3.37,1.47,5.05,2.2,3.49,1.52,7,3,10.45,4.65.39,0,.78-.11,1.17-.14,3.51-.36,2-.16-.59.28a27.82,27.82,0,0,1,14.2,1,15.83,15.83,0,0,1,3.67-1.16,88.12,88.12,0,0,0,11-2.74c1.67-.54,3.33-1.12,5-1.76.41-.16,2.51-1.11,3.43-1.5l2.8-1.46c1.55-.85,3.07-1.73,4.58-2.66,3-1.82,5.89-3.81,8.74-5.88.2-.15.41-.26.61-.4a25.46,25.46,0,0,1,6.23-7.35c1-3.89,2.55-7.58,3.81-11.4,1.51-4.6,2.37-9.27,3.49-14,0-.57.1-1.14.13-1.72C375.48,272.33,375.43,269.69,375.33,267Z"/><path d="M137.53,90.25c4.86-.06,9.69-.45,14.54,0,0-1.09,0-2.18,0-3.29.83-32.63,23.91-58.68,51.69-58.68h1.14c13.5.35,26.11,6.78,35.48,18.11C250,58,255.1,73.35,254.68,89.57c0,1-.07,2-.14,3a33.74,33.74,0,0,1,6.3.66,3.27,3.27,0,0,1,2.82-3,14,14,0,0,1,6,.43c0-.24,0-.49,0-.73h0c.5-19.84-5.79-38.7-17.73-53.13-12.18-14.72-28.76-23.08-46.66-23.53-.51,0-1,0-1.52,0-35.88,0-65.65,32.54-66.69,73.3,0,1.25,0,2.49,0,3.73A2.31,2.31,0,0,1,137.53,90.25Z"/><path class="cls-2" d="M84.05,296.42c-17.9,0-34.61-10.64-39.89-26.32-8.43-25.05-3.29-67.21,1.24-104.41,2.06-16.92,4-32.91,4.49-45.72.7-18.63,14.67-31.16,36.47-32.7a95.3,95.3,0,0,1,14.06.2c22.63,2.74,35.82,14.89,36.18,33.34.35,18.15,2.2,38,4,57.22,2.38,25.56,4.84,52,3.87,75.07-.84,19.63-15.93,35.71-37.57,40h0c-3.93.78-12.2,2.15-15.57,2.7A44.75,44.75,0,0,1,84.05,296.42ZM92.24,90.1c-2.11,0-4.15.06-5.67.16-20.45,1.45-33,12.59-33.68,29.82-.49,12.94-2.44,29-4.51,46-4.5,36.88-9.59,78.68-1.37,103.1,5.52,16.43,24.78,26.85,43.83,23.71,3.35-.55,11.58-1.92,15.47-2.69h0c20.25-4,34.37-19,35.15-37.2,1-22.88-1.49-49.21-3.86-74.66-1.79-19.26-3.65-39.18-4-57.44-.2-9.87-4.81-26.95-33.55-30.43A74.85,74.85,0,0,0,92.24,90.1Z"/><path class="cls-2" d="M318.89,329.21c-22.44,0-37.87-10.78-43.68-30.67-9.82-33.63-4.48-76.26.68-117.47,2.26-18.07,4.4-35.14,5.11-50.57,1-22.4,12-33.64,36.69-37.58a49.26,49.26,0,0,1,14.36.27c24.62,4.44,35.85,16.16,36.41,38,.51,20,2.27,40.83,4,60.93,2.45,28.93,5,58.84,3.93,87.64-.82,22.38-14.51,39.21-37.54,46.18h0A89.94,89.94,0,0,1,323,329.1C321.63,329.18,320.24,329.21,318.89,329.21Zm4.77-232.69a35,35,0,0,0-5.34.35c-22.74,3.62-32.39,13.42-33.33,33.81-.71,15.59-2.86,32.73-5.13,50.88-5.11,40.82-10.39,83-.81,115.86,7.15,24.51,27.74,28.6,43.76,27.68a87.84,87.84,0,0,0,14.85-3h0c21.61-6.53,33.94-21.63,34.7-42.49,1.05-28.56-1.47-58.35-3.92-87.16-1.7-20.16-3.47-41-4-61.17-.51-19.84-10.41-30.06-33.12-34.16A45.52,45.52,0,0,0,323.66,96.52Z"/><rect class="cls-4" x="87.74" y="86.78" width="233.26" height="6.33" rx="2.3" transform="translate(2.35 -5.17) rotate(1.46)"/><rect class="cls-5" x="87.58" y="86.04" width="233.43" height="6.31" rx="2.3" transform="translate(2.34 -5.17) rotate(1.46)"/><path class="cls-5" d="M202,80.93c.38,1.38.76,5.15-1.14,5.58S197.27,83,197,81.35a2,2,0,0,1,2.23-2.44A2.64,2.64,0,0,1,202,80.93Z"/><path class="cls-5" d="M207,81.06c-.09,1.64-2.55,5.68-4.42,5.42s-1.38-4.08-.91-5.4,1.4-2.3,2.76-2.17S207.11,79.42,207,81.06Z"/><path class="cls-2" d="M320.08,326a5.09,5.09,0,0,1-.54.22,2.27,2.27,0,0,1-1.23.11,25,25,0,0,1-12.43-1.23l-.05,0c-77.25-1.51-152.21-11.92-223-31a3.12,3.12,0,0,1-1.19.06c-4.76-.65-11.56-.86-16.7-3.13,2.15,2.15,5.47,3.8,10.06,5.07,74.48,20.75,153.67,31.89,235.36,33.12h.67c5.44,0,8.9-1,11.19-3.36.18-.19.34-.39.51-.59A22.75,22.75,0,0,1,320.08,326Z"/></g></svg>