<svg xmlns="http://www.w3.org/2000/svg" width="320" height="180" viewBox="0 0 320 180"><defs><style>.cls-1{fill:#ff8fe7;}.cls-2{fill:#a07d9d;}.cls-3{fill:#ff31d3;}.cls-4{fill:#ffd2f5;}</style></defs><g id="Layer_4" data-name="Layer 4"><path class="cls-1" d="M309.34,59.68C347.34,106,215.43,172,174.18,176.77s-234.48-36.5-149-78.08,58.29-37.83,130-44.06S271.34,13.34,309.34,59.68Z"/><ellipse class="cls-1" cx="152.18" cy="53.08" rx="57.78" ry="50.36" transform="translate(-2.16 6.65) rotate(-2.49)"/><path class="cls-1" d="M205.85,75.64c-13-11.8-69.53,2.09-91.41,13.78-13.34,7.12-55.19,4.68-83.76,8.45-4.89,2.87-9.95,5.47-14.8,8.4-2.79,2-5.78,4-8.6,6-.5,1.19-1,2.37-1.45,3.53a28.69,28.69,0,0,1,1.57,4.86c.83,1.65,1.75,3.24,2.73,4.79,27.62,18.26,123,6,148.87-1.18C188.09,116.18,218.87,87.44,205.85,75.64Z"/><path class="cls-1" d="M212.36,73.1c-13-11.8-69.53,2.08-91.41,13.77-13.94,7.45-59.07,4.44-87.58,9a2.93,2.93,0,0,1-.45,1.49C28.11,105,18.3,110,9.07,111.22a13.3,13.3,0,0,0,.6,3.19c9.31,29.91,126.74,15.32,155.84,7.27S225.38,84.9,212.36,73.1Z"/><path class="cls-2" d="M309.85,64.33A3.16,3.16,0,0,1,306.12,63,39.35,39.35,0,0,1,303,56c-.81-2-1.93-3.7-2.62-5.68a2.63,2.63,0,0,1-.41-.35l0,0a3.06,3.06,0,0,1-.35-.37,2.44,2.44,0,0,1-.33-.23c-40.67-19.19-100,74.44-141.55,76.17l-1.58,0a102.49,102.49,0,0,1-16.79,5,141.9,141.9,0,0,1-18.61,2.58,76.85,76.85,0,0,1-18.2,1.47,45.82,45.82,0,0,1-17.19-3.87l-.83-.11a2.8,2.8,0,0,1-2.52,1.13c-11.5-.6-21.54-6.2-31.8-10.87A2.64,2.64,0,0,1,48.52,119c-4.55-.8-9.06-1.73-13.28-3.9a3,3,0,0,1-1.3-1.22c-11.2.4-18.57,2.81-19.42,8.7C11.36,144.65,114.59,178.23,159.3,175c38.63-2.79,152.43-57.44,156.53-99.74A57,57,0,0,1,309.85,64.33Z"/><path class="cls-2" d="M198.32,103.43a41.89,41.89,0,0,1-11.76,9.51c-3.59,1.92-9.19,4.72-13.36,3.34a2.18,2.18,0,0,1-.27-.11,63.77,63.77,0,0,1-7.54,5,94.93,94.93,0,0,1-26.1,9.36,141.9,141.9,0,0,1-18.61,2.58,76.85,76.85,0,0,1-18.2,1.47,45.82,45.82,0,0,1-17.19-3.87l-.83-.11a2.8,2.8,0,0,1-2.52,1.13c-11.5-.6-21.54-6.2-31.8-10.87A2.66,2.66,0,0,1,48.52,119a64.12,64.12,0,0,1-8.67-2c-12.78.14-24.22,1.65-28.43,5.66-9.83,9.34,71.11,58,86.91,27.47s121.13-16.58,123-39.34C221.84,104.39,212.44,102.68,198.32,103.43Z"/><path class="cls-2" d="M309.58,59.82a79.27,79.27,0,0,0-9-9.41,2.36,2.36,0,0,1-.62-.47l0,0a2.76,2.76,0,0,1-.29-.3l-.14-.12-.09-.06q-9.69,3-19.11,6.78c-2.4,1-4.76,2-7.1,3.06-10.91,5.19-21.24,11.37-31.92,17-1,.5-1.92,1-2.88,1.45a3.25,3.25,0,0,1-1.05,4.55c-7.22,3.64-14.58,6.95-22,10.07-.28.22-.58.43-.87.65a2.83,2.83,0,0,1-1.52,3.18c-3.12,1.71-6.15,3.55-9.15,5.44a2.39,2.39,0,0,1-.61.93,3.27,3.27,0,0,1-2.21,3.46l-4.76,1.7c-1.56.63-3.08,1.32-4.6,2a39.82,39.82,0,0,1-5,3.21l-.33.17L184,114.56c-3.61,2.33-7.29,4.57-11.07,6.63a53.07,53.07,0,0,1-13.06,7.52,3,3,0,0,1-2.68-.47c-9.55,3.26-19.63,4.32-29.69,4.45l-2.66,0c-1.41.14-2.82.26-4.23.37a76.9,76.9,0,0,1-18.15,1.46,45.82,45.82,0,0,1-17.19-3.87l-.83-.11a2.8,2.8,0,0,1-2.52,1.13c-11.5-.6-21.54-6.2-31.8-10.87A2.64,2.64,0,0,1,48.52,119c-4.55-.8-9.06-1.73-13.28-3.9a3.2,3.2,0,0,1-1.08-.88,243.22,243.22,0,0,0-24.81-1.34,3,3,0,0,1-1.65,0H6.56c-24.94,36.32,131.26,68.36,167.86,64.09C215.67,172.09,347.58,106.16,309.58,59.82Z"/><path class="cls-1" d="M201,85.73c-33.32-2.43-33.76,30.48-85.26,39.87C73.79,133.24,55.88,98.93,42,92.07c-4.33,1.75-8.63,3.56-12.94,5.35-4.11,13.4,27.12,36.52,76.8,38.3C162.36,137.74,234.27,88.16,201,85.73Z"/><path class="cls-1" d="M48,105.07c-7.88-2.49-26.91,2.91-42.15,8.13l-.22.41c14.51-3,24.27,1.06,39.83,7.59,20.6,8.65,43.94,17.09,48,9.27S64.62,110.32,48,105.07Z"/><path class="cls-3" d="M123,118.6c-6.31-.7-3.81-5.93-9.57-6.54s-6.11-6.44.25-7.53,14.31-3.29,18.48,2.11S129.31,119.3,123,118.6Z"/><path class="cls-3" d="M123.93,99.17c-3.43,5.34-7,.78-10.11,5.67s-8.48,2.6-6.63-3.57S110.6,87,117.29,85.65,127.36,93.83,123.93,99.17Z"/><path class="cls-3" d="M99.78,92.15c5.87,2.42,2,6.75,7.39,8.94s4.07,7.88-2.33,7.16-14.67-.81-17.18-7.15S93.92,89.73,99.78,92.15Z"/><path class="cls-3" d="M91.3,110.69c4.44-4.53,7,.67,11-3.48s8.84-.82,5.76,4.85S101.86,125.34,95,125.29,86.85,115.22,91.3,110.69Z"/><path class="cls-3" d="M104.57,125.74c-2.09-6,3.71-6,1.78-11.45s3.18-8.28,6.9-3,9.14,11.5,6.07,17.58S106.66,131.74,104.57,125.74Z"/><path class="cls-3" d="M72.71,115.2c-5.43-1.1-2.84-5.45-7.81-6.44s-4.8-6.07.81-6.52,12.7-1.75,15.91,3.27S78.15,116.3,72.71,115.2Z"/><path class="cls-3" d="M75,98.38c-3.4,4.37-6.14.12-9.24,4.13s-7.57,1.61-5.48-3.62,4.08-12.15,10-12.8S78.44,94,75,98.38Z"/><path class="cls-3" d="M54.59,90.38c4.91,2.56,1.22,6,5.72,8.35s2.93,7.17-2.58,6S45,102.93,43.35,97.22,49.68,87.82,54.59,90.38Z"/><path class="cls-3" d="M55.65,103.68c-3.84,3.29-5.67-1.43-9.89,2.16s-3.81,12.41,2.12,13,9.29-5.79,12.4-10.48S59.49,100.38,55.65,103.68Z"/><path class="cls-3" d="M56.13,120c-1.35-5.37,3.69-4.92,2.44-9.82s3.41-7,6.24-2.09,7,10.71,3.9,15.77S57.48,125.35,56.13,120Z"/><path class="cls-3" d="M172.43,110.4c-5.9-2.36-2.09-6.73-7.48-8.87s-4.16-7.83,2.26-7.18,14.66.66,17.24,7S178.32,112.76,172.43,110.4Z"/><path class="cls-3" d="M175.73,77.12c-6.8-.5-10.47,6.89-13.9,12.35s1.12,9.09,5.43,5.21,6.53,1.48,11.26-2.75S182.53,77.62,175.73,77.12Z"/><path class="cls-3" d="M161.85,89.29c-4.59-3.55.28-6.69-4.72-10.59s-14.8-1.39-14.08,5.39,8.66,9.07,14.64,11.48S166.44,92.84,161.85,89.29Z"/><path class="cls-3" d="M144,94.3c5.5-3.17,6.58,2.52,11.59-.4s8.73,1.57,4.25,6.21-9.58,11.13-16.13,9.26S138.5,97.48,144,94.3Z"/><path class="cls-3" d="M152.76,112.36c-.41-6.34,5.18-4.78,4.78-10.57s5.27-7.13,7.45-1.06,5.73,13.52,1.15,18.56S153.17,118.69,152.76,112.36Z"/><path class="cls-3" d="M40.67,94.6a5.42,5.42,0,0,0-3.46-2c-2.5,1-4.79,2.91-7.38,3.46a2.87,2.87,0,0,1-1,.52l-.2.06c-.48.2-1,.42-1.55.66a3.79,3.79,0,0,0,1.91.71c3.61.38,2,3.65,6,4.09S43.28,98,40.67,94.6Z"/><path class="cls-3" d="M25,98.32a18.44,18.44,0,0,1-2.65,1.29,48,48,0,0,0-4.62,3.13,12.17,12.17,0,0,1-3.22,2,3.57,3.57,0,0,0,3,1.55c4.27,0,6.26-4.74,8.19-8.28,0,0,0,0,0,0Z"/><path class="cls-3" d="M28.83,97.5a5.62,5.62,0,0,0-.61-.72l-2,.83L25,98.32l-.61.34a3.63,3.63,0,0,0,.17.73c1.21,3.42-2.42,3.42-1.11,7.17s7.31,5.76,9.23,2S31.16,100.8,28.83,97.5Z"/><path class="cls-3" d="M211.86,66.33c-5.32-.3-6.12,4.45-1.59,6s1.55,5.31,6.5,7,11.95-2.83,9.59-7.94S217.18,66.63,211.86,66.33Z"/><path class="cls-3" d="M218.26,51.79c-5.64-.16-8.39,6.08-11,10.71s1.26,7.47,4.68,4.1,5.44,1,9.19-2.69S223.89,51.94,218.26,51.79Z"/><path class="cls-3" d="M207.25,62.35c-3.92-2.75,0-5.53-4.29-8.56s-12.27-.59-11.42,5,7.49,7.17,12.51,8.93S211.17,65.11,207.25,62.35Z"/><path class="cls-3" d="M202.25,66.39c-4,2.6-5.13-2.06-9.55.77S187.54,78.3,193,79.6s9.45-4.24,13-8.24S206.27,63.8,202.25,66.39Z"/><path class="cls-3" d="M204.16,72.83c.54,4.76-4.12,3.69-3.55,8.9s7.71,9.57,11.3,5.23.39-10.35-1.64-15.28S203.61,68.07,204.16,72.83Z"/><path class="cls-3" d="M247.44,42.9c-4.81-.27-5.54,4-1.44,5.44s1.4,4.8,5.87,6.36,10.81-2.56,8.67-7.18S252.24,43.17,247.44,42.9Z"/><path class="cls-3" d="M257.4,36.09c-.71,0-1.42.17-2.13.14a3,3,0,0,1-.31,0,65.87,65.87,0,0,1-8.63,1,7.36,7.36,0,0,1-1.62.23l-.3,0c-.4.71-.78,1.41-1.15,2.07-2.38,4.19,1.14,6.75,4.23,3.71s4.92.88,8.31-2.44a7.2,7.2,0,0,0,2-4.62Z"/><path class="cls-3" d="M243.27,39.31a4.29,4.29,0,0,1-1.34-1.43,1.92,1.92,0,0,1-.32.09c-.62.09-1.26.2-1.9.23h-.09l-.46.07a3.37,3.37,0,0,1-1,.26,7,7,0,0,1-1.57.22,1.92,1.92,0,0,1-.32.09,29.61,29.61,0,0,0-2.92.72,14.56,14.56,0,0,1-1.72.35l-.34,0c2.33,2.1,6.06,3.11,9.14,4.19C244.92,45.72,246.81,41.8,243.27,39.31Z"/><path class="cls-3" d="M238.74,43c-3.64,2.35-4.64-1.86-8.63.69s-4.66,10.08.29,11.25,8.55-3.83,11.73-7.45S242.38,40.61,238.74,43Z"/><path class="cls-3" d="M240.47,48.78c.49,4.3-3.72,3.33-3.2,8s7,8.65,10.21,4.73.35-9.36-1.48-13.81S240,44.48,240.47,48.78Z"/><path class="cls-3" d="M284,40.08a2.74,2.74,0,0,1-.87-.32,2.32,2.32,0,0,1-.61-.21,1.7,1.7,0,0,1-.62-.34h0a3.08,3.08,0,0,0,1.4,2.4,5.65,5.65,0,0,0,5.06.71A43.51,43.51,0,0,0,284,40.08Z"/><path class="cls-3" d="M267.61,36.28h-.1a3.11,3.11,0,0,0,.56.44,5.29,5.29,0,0,0,4.65.31A27.14,27.14,0,0,0,267.61,36.28Z"/><path class="cls-3" d="M278.79,38.27c-.35-.1-.69-.18-1-.29l-.69-.22-.33-.08h0a8.48,8.48,0,0,1-1-.15,2.56,2.56,0,0,1-.39,0l-1.15-.19a3.1,3.1,0,0,0-1.68,2.37c-.74,3.46,2.9,7.76,6.12,5.75,2.16-1.35,2.52-3.82,2.45-6.39C280.17,38.73,279.81,38.55,278.79,38.27Z"/><path class="cls-3" d="M122.34,62.12l-1.32,0a18.74,18.74,0,0,1-14,.53c-1,1.7,0,4.07,3,5.28,5.4,2.14,1.59,6.51,7.48,8.86s14.6-2.76,12-9.07C128.28,64.57,125.55,63,122.34,62.12Z"/><path class="cls-3" d="M105.7,62.12c-.28-.14-.54-.28-.8-.43a3.8,3.8,0,0,1-1.25.6,6.37,6.37,0,0,0,3,.24Z"/><path class="cls-3" d="M105.7,62.12c-.28-.14-.54-.28-.8-.43a3.49,3.49,0,0,1-2.6.67c-.42-.07-.86-.15-1.29-.24a2.62,2.62,0,0,1-2.72,1.37,15.63,15.63,0,0,0-2.93-.4,12.58,12.58,0,0,0-2.73,1.23,61.12,61.12,0,0,0-5.82,3c-.28.18-.56.35-.86.51l-.39.24v0l-.76.35-.31.1c-.31,3.24,1,6.37,4.34,7.34,6.56,1.87,11.66-4.62,16.14-9.26a6.37,6.37,0,0,0,2-3.9C106.52,62.48,106.1,62.31,105.7,62.12Z"/><path class="cls-3" d="M110.11,67.16c-2.17-6.07-7.85-4.73-7.45,1.06s-5.19,4.23-4.77,10.56,8.79,12,13.37,6.94S112.29,73.23,110.11,67.16Z"/><path class="cls-3" d="M81,70.06a10,10,0,0,1-1.09.64c-.41.19-.82.35-1.22.56l-.53.29-.16.11h0l.08-.08a3.75,3.75,0,0,1-1.74.86c-1,.52-2,1-2.85,1.44l-1.41.76c.19,0,.39.1.61.14,3.87.79,8.37-1.93,9.46-5.38A2.79,2.79,0,0,1,81,70.06Z"/><path class="cls-3" d="M57.59,82.42c2.83,3.56,8.58,5.07,11.11,1a8.29,8.29,0,0,0,.53-7.26C65.33,78.22,61.44,80.27,57.59,82.42Z"/><path class="cls-3" d="M182.9,54.79a120.18,120.18,0,0,1-12.47,3.64l-3.25.71c.92,2.11.52,4.59,4.47,6.17,5.89,2.36,14.6-2.76,12-9.08A7.89,7.89,0,0,0,182.9,54.79Z"/><path class="cls-3" d="M141.13,63.45a5.79,5.79,0,0,0,1.79.83c3.36,1,6.34-.28,9.05-2.34Q146.56,62.8,141.13,63.45Z"/><path class="cls-3" d="M154.68,61.5c-1.39,1.23-2.92,2.35-2.7,5.77.42,6.33,8.8,12,13.38,6.94,3.66-4,2.14-9.58.27-14.74Q160.19,60.6,154.68,61.5Z"/><path class="cls-3" d="M220.54,42.53a3.13,3.13,0,0,1-1.17.17c-.75.21-1.49.41-2.24.59a3.12,3.12,0,0,1-.89.1,6.37,6.37,0,0,0,1.48.73,8.39,8.39,0,0,0,9.33-3.4l-.33.07C224.69,41.5,222.6,41.87,220.54,42.53Z"/><path class="cls-3" d="M201.85,47.76c1.47,4.59,7.72,7.91,11,3.94,1.88-2.28,1.89-5,1.19-7.82C210,45.06,205.88,46.3,201.85,47.76Z"/><path class="cls-3" d="M152.08,44.29c-3.35-1.32-4.87,1.55-2.3,3.51s-.14,3.73,2.67,5.89,8.25.72,7.82-3S155.42,45.61,152.08,44.29Z"/><path class="cls-3" d="M159.26,36.34c-3.57-1.3-6.66,2.11-9.33,4.51s-.78,5,2.12,3.62,3.28,1.78,6.46.23S162.83,37.63,159.26,36.34Z"/><path class="cls-3" d="M149,34.37c-2.1-2.85-7.73-3-8.37.76s3.27,6.17,6.12,8.37,5.1-.14,3.18-2.74S151.13,37.22,149,34.37Z"/><path class="cls-3" d="M145.91,42.29c-3.13.8-2.85-2.42-6.28-1.54s-5.67,6-2.44,8,6.95-.71,10.06-2.52S149,41.48,145.91,42.29Z"/><path class="cls-3" d="M145.76,46.81c-.66,3.17-3.42,1.49-4.16,4.95s2.9,7.76,6.12,5.75,2.45-6.55,2.2-10.14S146.42,43.65,145.76,46.81Z"/><path class="cls-3" d="M188.37,42c-.86-3.7-5.41-4.42-8.88-5.34s-4.65,2.11-1.87,3.75.3,3.72,3.34,5.54S189.24,45.74,188.37,42Z"/><path class="cls-3" d="M185.69,28c-3.7-.87-6.37,2.88-8.74,5.58s-.17,5.1,2.54,3.35,3.46,1.38,6.44-.54S189.39,28.83,185.69,28Z"/><path class="cls-3" d="M177,33.44c-2.21-2.35.75-3.65-1.67-6.24s-8-2.06-8.22,1.73,4,5.76,7,7.6S179.2,35.8,177,33.44Z"/><path class="cls-3" d="M173.13,35.43c-3,1.17-3.11-2.06-6.42-.79s-4.92,6.66-1.48,8.27,6.82-1.52,9.69-3.69S176.14,34.26,173.13,35.43Z"/><path class="cls-3" d="M177.71,40c-.67-3.53-3.91-3.28-4.2-.06s-3.22,1.87-3.55,5.39,3.79,7.37,6.76,5S178.38,43.55,177.71,40Z"/><path class="cls-3" d="M205.09,32a2.55,2.55,0,0,1-.24-.39c-.07-.12-.12-.25-.18-.38l-.3-.48c-.29-.42-.6-.84-.81-1.21s-.43-.78-.65-1.17a3.87,3.87,0,0,1-.74-1.1l-.21-.33-.14-.21a2.18,2.18,0,0,1-.35-.4c-2,.25-2.2,2.27-.13,3.07,2.31.88.71,2.77,3.24,3.75a3.43,3.43,0,0,0,1,.21,3.76,3.76,0,0,1-.3-.76A5.26,5.26,0,0,0,205.09,32Z"/><path class="cls-3" d="M201.33,26.09l-.08-.09a3.37,3.37,0,0,1-.66-1l-.24-.3s0,0,0,0a3,3,0,0,1-.37-.45c-1.3,2.15.25,3.58,1.92,2.5l0,0A2.35,2.35,0,0,1,201.33,26.09Z"/><path class="cls-3" d="M200.36,24.74l-.06,0a3.2,3.2,0,0,1-.44-.54,3.35,3.35,0,0,1-.6-.75,4.17,4.17,0,0,1-.68-.71h0a9,9,0,0,1-.68-.82l-.1-.1-.08-.08c-.17-.19-.37-.46-.52-.67l0-.05,0,0h0a8.53,8.53,0,0,1-.69-.65,13.25,13.25,0,0,0-1.07-1.05,2.13,2.13,0,0,1-.29-.31c-1.78.13-3.42,1.25-3.2,3.11.34,2.9,3.74,3.84,6.31,4.84,1.78.69,2.87-.15,2.73-1.22a3.31,3.31,0,0,1-.36-.62C200.5,24.92,200.43,24.84,200.36,24.74Z"/><path class="cls-3" d="M197.29,26.15c-2.13,1.27-2.62-1.16-4.95.23s-2.87,5.67-.05,6.44,5-2,6.85-4S199.42,24.87,197.29,26.15Z"/><path class="cls-3" d="M198.17,29.51c.2,2.47-2.2,1.84-2,4.54S200,39.14,201.93,37s.38-5.35-.58-7.94S198,27,198.17,29.51Z"/><path class="cls-3" d="M119.09,52.27c1.49,2.87-1.71,3.31-.09,6.46s7.15,4.18,8.38.58-2.25-6.62-4.71-9.24S117.61,49.4,119.09,52.27Z"/><path class="cls-3" d="M122.19,46.05c-3.44,1-2.85,4.24.38,4.18s2.21,3,5.75,3,6.92-4.55,4.24-7.24S125.64,45,122.19,46.05Z"/><path class="cls-3" d="M124.16,39.81c-.68-3.48-5.72-6-7.89-2.89s.32,7,2,10.18,4.67,2.06,4-1.11S124.84,43.28,124.16,39.81Z"/><path class="cls-3" d="M118,45.63c-3.18-.6-1.55-3.4-5-4.07s-7.71,3-5.64,6.23,6.59,2.32,10.17,2S121.12,46.24,118,45.63Z"/><path class="cls-3" d="M115.88,49.66c-1.95,2.58-3.73-.11-5.87,2.7s-.69,8.26,3.09,7.81,5-4.88,6.31-8.22S117.83,47.09,115.88,49.66Z"/><path class="cls-3" d="M153.32,20.94c1,2.58-1.8,2.62-.77,5.46s5.62,4.29,7,1.37-1.2-5.84-3-8.31S152.36,18.35,153.32,20.94Z"/><path class="cls-3" d="M156.59,16c-3,.52-2.86,3.29-.12,3.58S158,22.36,161,22.69s6.34-3.12,4.36-5.69S159.61,15.48,156.59,16Z"/><path class="cls-3" d="M152.54,7.65c-2.17,2.41-.47,5.94.58,8.82s3.75,2.23,3.54-.52,2.46-2,2.25-5S154.71,5.24,152.54,7.65Z"/><path class="cls-3" d="M153,15.2c-2.62-.85-.95-3-3.82-4S142.38,13,143.8,15.9s5.33,2.67,8.39,2.78S155.67,16,153,15.2Z"/><path class="cls-3" d="M150.87,18.4c-1.92,2-3.14-.5-5.25,1.66S144.17,27,147.41,27s4.75-3.61,6.2-6.3S152.79,16.42,150.87,18.4Z"/><path class="cls-3" d="M96.34,45.49a3.3,3.3,0,0,0-.9-.78C95.2,46,95,47.2,94.81,48.45c-.11,1.42-.33,2.82-.39,4.24a3.75,3.75,0,0,1-.08.61c1.66,1.28,4.25,1.42,5.1-.6C100.54,50,98.07,47.59,96.34,45.49Z"/><path class="cls-3" d="M104,42.87c-1.89-2.17-5.18-1-7.83-.44l-.31.1a3.38,3.38,0,0,0-.08.34q-.24,1.25-.48,2.52a2.83,2.83,0,0,0,1,.22c2.44.11,1.52,2.38,4.19,2.51S105.9,45,104,42.87Z"/><path class="cls-3" d="M98,37.82a3.27,3.27,0,0,0-.3-1l0,.11c-.58,2-1.43,3.87-1.83,5.95l-.3,1.55a1.89,1.89,0,0,0,.75-2C95.92,40,98.31,40.47,98,37.82Z"/><path class="cls-3" d="M183.93,10.65c-.33-.16-.64-.34-1-.51l-.76-.46-.25.08c-2.76,1-2.19,3.53.43,3.39s1.88,2.38,4.75,2.23a4.21,4.21,0,0,0,2.35-.93C187.66,13.17,185.81,11.88,183.93,10.65Z"/><path class="cls-3" d="M182.15,9.64q-1.62-.77-3.24-1.5c0,.21,0,.42-.07.63-.39,2.89,2.18,3.53,3.22,1.12,0-.09.08-.16.12-.24Z"/><path class="cls-3" d="M178.81,8.69a2.23,2.23,0,0,1-1.71-1.35l-.32-.13a5.53,5.53,0,0,1-1-.39h0l-.61-.25-.55-.17-.23,0-.26-.11-1.3-.4-.14,0a2.89,2.89,0,0,1-.58-.22c-1.82.83-3.12,2.73-2,4.53,1.58,2.65,5.28,2.1,8.2,2S181.37,9.28,178.81,8.69Z"/><path class="cls-3" d="M177.1,11.77c-1.51,2.15-3,0-4.69,2.36s-.33,6.72,2.72,6.25,3.93-4.1,4.9-6.85S178.61,9.62,177.1,11.77Z"/><path class="cls-3" d="M182.27,12.81c-2.05-2.09-4.13-.47-2.87,1.84s-1.34,2.72,0,5.25,5.88,3.28,6.81.34S184.31,14.9,182.27,12.81Z"/><path class="cls-3" d="M117.49,28.67c-.63-3-4.28-3.66-7.06-4.46s-3.79,1.62-1.57,3,.17,3,2.59,4.51S118.13,31.67,117.49,28.67Z"/><path class="cls-3" d="M115.58,17.28c-3-.77-5.18,2.21-7.14,4.34s-.23,4.11,2,2.74,2.76,1.18,5.19-.31S118.55,18,115.58,17.28Z"/><path class="cls-3" d="M108.47,21.55a2.68,2.68,0,0,1-.32-.44c-.31.36-.66.7-1,1-.51.5-1,1.05-1.48,1.56v0l.46.28C108.58,25.53,110.21,23.48,108.47,21.55Z"/><path class="cls-3" d="M106.42,22.92l-.74.78a1.94,1.94,0,0,1-.23.27c-.15.14-.29.29-.43.43l-.87,1.16-.18.22a27.77,27.77,0,0,1-2.37,3.42c1.8-.46,3.55-1.91,5.11-3C108.67,24.75,108.09,23,106.42,22.92Z"/><path class="cls-3" d="M108.94,26.85c-.48-2.85-3.09-2.71-3.38-.13s-2.63,1.46-3,4.29,2.93,6,5.36,4.14S109.41,29.71,108.94,26.85Z"/><path class="cls-3" d="M129.36,27.41c.52,2.71-2.2,2.3-1.64,5.26s4.84,5.15,6.71,2.5-.24-6-1.62-8.69S128.83,24.7,129.36,27.41Z"/><path class="cls-3" d="M133.39,23.07c-3.06,0-3.35,2.78-.7,3.51s1.08,3,4,3.81,6.76-2.05,5.22-4.9S136.46,23.05,133.39,23.07Z"/><path class="cls-3" d="M130.75,14.17c-2.53,2-1.42,5.79-.86,8.8s3.33,2.81,3.58.07,2.75-1.6,3-4.6S133.28,12.15,130.75,14.17Z"/><path class="cls-3" d="M130,21.7c-2.45-1.26-.45-3.15-3.12-4.54s-7,.63-6.12,3.74,4.83,3.49,7.84,4.1S132.47,23,130,21.7Z"/><path class="cls-3" d="M127.36,24.5c-2.22,1.64-3-1-5.45.79s-2.56,6.59.64,7.14,5.27-2.79,7.14-5.21S129.58,22.87,127.36,24.5Z"/><path class="cls-3" d="M128.67,8.54a2.93,2.93,0,0,0-.45-1.07,4,4,0,0,1-1,.45l-.08,0-.77.33a3.33,3.33,0,0,0-.6.22h0l-.37.18,0,0a2.45,2.45,0,0,1-.52.24,3.48,3.48,0,0,1-.51.26l-.36.24a3,3,0,0,1-.59.26,2.36,2.36,0,0,1-.69.39l-.07.05a2.3,2.3,0,0,0,.93,1C125.56,12.45,129.22,11.11,128.67,8.54Z"/><path class="cls-3" d="M121.7,10.58a1.31,1.31,0,0,0-.35.19L121,11a7.71,7.71,0,0,1-.77.49c-.59.33-1.18.64-1.74,1a3,3,0,0,1-.63.3,3.83,3.83,0,0,0-.29.28,2.8,2.8,0,0,1-.55.44,2.53,2.53,0,0,0,3.46.54,4,4,0,0,0,1.34-3.58Z"/><path class="cls-3" d="M149.56,2.8c-1.28,0-2.7.13-4.2.27-.77.13-1.55.28-2.32.43a2.49,2.49,0,0,0,1.26,2.36c2.14,1.35,5.94,0,5.37-2.71A2,2,0,0,0,149.56,2.8Z"/><path class="cls-3" d="M142.42,3.63c-1.5.3-3,.6-4.52.78a3.12,3.12,0,0,1-.48.18,2.59,2.59,0,0,1-.42.09h0l-.19,0-.26,0a2.63,2.63,0,0,0-.1.46c-.29,2.52,2.61,5.34,4.77,3.68C142.78,7.69,142.73,5.64,142.42,3.63Z"/><path class="cls-3" d="M165.57,4A2.24,2.24,0,0,0,166.7,5.4a4.11,4.11,0,0,0,4.06,0l-.07,0A30.28,30.28,0,0,0,165.57,4Z"/><path class="cls-3" d="M155.23,2.8l.25.15a3.64,3.64,0,0,0,3,0A23.73,23.73,0,0,0,155.23,2.8Z"/><path class="cls-3" d="M162.91,3.57c-1.07-.11-2.18-.28-3.29-.43a2.25,2.25,0,0,0-.79,1.63c-.29,2.52,2.6,5.34,4.76,3.68,1.42-1.08,1.53-2.83,1.33-4.62C164.25,3.73,163.58,3.64,162.91,3.57Z"/><path class="cls-4" d="M210.23,45.63c-37.31,15.6-74.54,20.35-115,18.61-.59-4.22-1.4-8.45-.71-12.71,44.95,5.75,71.33,1.71,110.92-18.94C207.88,36.63,209.09,41.07,210.23,45.63Z"/></g></svg>